<?xml version="1.0" encoding="UTF-8" standalone="no"?>
<!DOCTYPE svg PUBLIC "-//W3C//DTD SVG 1.1//EN"
 "http://www.w3.org/Graphics/SVG/1.1/DTD/svg11.dtd">
<!-- Generated by graphviz version 12.2.1 (20241206.2353)
 -->
<!-- Title: test19 Pages: 1 -->
<svg width="520pt" height="173pt"
 viewBox="0.00 0.00 519.65 172.75" xmlns="http://www.w3.org/2000/svg" xmlns:xlink="http://www.w3.org/1999/xlink">
<g id="graph0" class="graph" transform="scale(1 1) rotate(0) translate(4 168.75)">
<title>test19</title>
<polygon fill="white" stroke="none" points="-4,4 -4,-168.75 515.65,-168.75 515.65,4 -4,4"/>
<text text-anchor="middle" x="255.82" y="-149.35" font-family="Helvetica,sans-Serif" font-size="12.00">test19 u2014 Exactly&#45;one&#45;of ^^ (both)</text>
<!-- app -->
<g id="node1" class="node">
<title>app</title>
<path fill="lightyellow" stroke="black" d="M132,-131C132,-131 102,-131 102,-131 96,-131 90,-125 90,-119 90,-119 90,-107 90,-107 90,-101 96,-95 102,-95 102,-95 132,-95 132,-95 138,-95 144,-101 144,-107 144,-107 144,-119 144,-119 144,-125 138,-131 132,-131"/>
<text text-anchor="middle" x="117" y="-109.12" font-family="Helvetica,sans-Serif" font-size="10.00">app&#45;1.0</text>
</g>
<!-- db -->
<g id="node3" class="node">
<title>db</title>
<path fill="lightyellow" stroke="black" d="M222,-89C222,-89 192,-89 192,-89 186,-89 180,-83 180,-77 180,-77 180,-65 180,-65 180,-59 186,-53 192,-53 192,-53 222,-53 222,-53 228,-53 234,-59 234,-65 234,-65 234,-77 234,-77 234,-83 228,-89 222,-89"/>
<text text-anchor="middle" x="207" y="-67.12" font-family="Helvetica,sans-Serif" font-size="10.00">db&#45;1.0</text>
</g>
<!-- app&#45;&gt;db -->
<g id="edge2" class="edge">
<title>app&#45;&gt;db</title>
<path fill="none" stroke="black" d="M144.4,-100.4C152.23,-96.66 160.96,-92.5 169.32,-88.51"/>
<polygon fill="black" stroke="black" points="170.73,-91.71 178.25,-84.24 167.72,-85.39 170.73,-91.71"/>
</g>
<!-- os -->
<g id="node7" class="node">
<title>os</title>
<path fill="lightyellow" stroke="black" d="M312,-89C312,-89 282,-89 282,-89 276,-89 270,-83 270,-77 270,-77 270,-65 270,-65 270,-59 276,-53 282,-53 282,-53 312,-53 312,-53 318,-53 324,-59 324,-65 324,-65 324,-77 324,-77 324,-83 318,-89 312,-89"/>
<text text-anchor="middle" x="297" y="-67.12" font-family="Helvetica,sans-Serif" font-size="10.00">os&#45;1.0</text>
</g>
<!-- app&#45;&gt;os -->
<g id="edge1" class="edge">
<title>app&#45;&gt;os</title>
<path fill="none" stroke="black" d="M144.22,-111.72C168,-110.07 203.86,-106.33 234,-98 242.42,-95.67 251.18,-92.42 259.38,-88.97"/>
<polygon fill="black" stroke="black" points="260.63,-92.24 268.36,-85 257.8,-85.84 260.63,-92.24"/>
</g>
<!-- bsd -->
<g id="node2" class="node">
<title>bsd</title>
<path fill="lightyellow" stroke="black" d="M491.27,-144C491.27,-144 461.27,-144 461.27,-144 455.27,-144 449.27,-138 449.27,-132 449.27,-132 449.27,-120 449.27,-120 449.27,-114 455.27,-108 461.27,-108 461.27,-108 491.27,-108 491.27,-108 497.27,-108 503.27,-114 503.27,-120 503.27,-120 503.27,-132 503.27,-132 503.27,-138 497.27,-144 491.27,-144"/>
<text text-anchor="middle" x="476.27" y="-122.12" font-family="Helvetica,sans-Serif" font-size="10.00">bsd&#45;1.0</text>
</g>
<!-- db&#45;&gt;os -->
<g id="edge3" class="edge">
<title>db&#45;&gt;os</title>
<path fill="none" stroke="black" d="M234.4,-71C241.89,-71 250.18,-71 258.2,-71"/>
<polygon fill="black" stroke="black" points="258.1,-74.5 268.1,-71 258.1,-67.5 258.1,-74.5"/>
</g>
<!-- g1 -->
<g id="node4" class="node">
<title>g1</title>
<path fill="lightyellow" stroke="black" d="M374.97,-104.6C374.97,-104.6 367.48,-99.8 367.48,-99.8 363.74,-97.4 363.74,-92.6 367.48,-90.2 367.48,-90.2 374.97,-85.4 374.97,-85.4 378.71,-83 386.19,-83 389.93,-85.4 389.93,-85.4 397.41,-90.2 397.41,-90.2 401.15,-92.6 401.15,-97.4 397.41,-99.8 397.41,-99.8 389.93,-104.6 389.93,-104.6 386.19,-107 378.71,-107 374.97,-104.6"/>
<text text-anchor="middle" x="382.45" y="-91.33" font-family="Helvetica,sans-Serif" font-size="9.00">^^</text>
</g>
<!-- g1&#45;&gt;bsd -->
<g id="edge6" class="edge">
<title>g1&#45;&gt;bsd</title>
<path fill="none" stroke="black" d="M397.8,-99.84C408.65,-103.51 424.06,-108.71 438.28,-113.51"/>
<polygon fill="black" stroke="black" points="436.81,-116.71 447.4,-116.59 439.05,-110.08 436.81,-116.71"/>
</g>
<!-- linux -->
<g id="node6" class="node">
<title>linux</title>
<path fill="lightyellow" stroke="black" d="M491.27,-90C491.27,-90 461.27,-90 461.27,-90 455.27,-90 449.27,-84 449.27,-78 449.27,-78 449.27,-66 449.27,-66 449.27,-60 455.27,-54 461.27,-54 461.27,-54 491.27,-54 491.27,-54 497.27,-54 503.27,-60 503.27,-66 503.27,-66 503.27,-78 503.27,-78 503.27,-84 497.27,-90 491.27,-90"/>
<text text-anchor="middle" x="476.27" y="-68.12" font-family="Helvetica,sans-Serif" font-size="10.00">linux&#45;1.0</text>
</g>
<!-- g1&#45;&gt;linux -->
<g id="edge5" class="edge">
<title>g1&#45;&gt;linux</title>
<path fill="none" stroke="black" d="M399.44,-90.99C410.12,-88.32 424.62,-84.69 438.09,-81.31"/>
<polygon fill="black" stroke="black" points="438.72,-84.76 447.57,-78.94 437.02,-77.97 438.72,-84.76"/>
</g>
<!-- windows -->
<g id="node9" class="node">
<title>windows</title>
<path fill="lightyellow" stroke="black" d="M499.65,-36C499.65,-36 452.9,-36 452.9,-36 446.9,-36 440.9,-30 440.9,-24 440.9,-24 440.9,-12 440.9,-12 440.9,-6 446.9,0 452.9,0 452.9,0 499.65,0 499.65,0 505.65,0 511.65,-6 511.65,-12 511.65,-12 511.65,-24 511.65,-24 511.65,-30 505.65,-36 499.65,-36"/>
<text text-anchor="middle" x="476.27" y="-14.12" font-family="Helvetica,sans-Serif" font-size="10.00">windows&#45;1.0</text>
</g>
<!-- g1&#45;&gt;windows -->
<g id="edge7" class="edge">
<title>g1&#45;&gt;windows</title>
<path fill="none" stroke="black" d="M392.68,-86.71C403.92,-76.67 423.57,-59.33 440.9,-45 441.53,-44.47 442.18,-43.94 442.83,-43.41"/>
<polygon fill="black" stroke="black" points="444.71,-46.39 450.3,-37.39 440.32,-40.94 444.71,-46.39"/>
</g>
<!-- g2 -->
<g id="node5" class="node">
<title>g2</title>
<path fill="lightyellow" stroke="black" d="M374.97,-57.6C374.97,-57.6 367.48,-52.8 367.48,-52.8 363.74,-50.4 363.74,-45.6 367.48,-43.2 367.48,-43.2 374.97,-38.4 374.97,-38.4 378.71,-36 386.19,-36 389.93,-38.4 389.93,-38.4 397.41,-43.2 397.41,-43.2 401.15,-45.6 401.15,-50.4 397.41,-52.8 397.41,-52.8 389.93,-57.6 389.93,-57.6 386.19,-60 378.71,-60 374.97,-57.6"/>
<text text-anchor="middle" x="382.45" y="-44.33" font-family="Helvetica,sans-Serif" font-size="9.00">^^</text>
</g>
<!-- g2&#45;&gt;bsd -->
<g id="edge10" class="edge">
<title>g2&#45;&gt;bsd</title>
<path fill="none" stroke="black" d="M392.26,-56.12C403.41,-66.33 423.29,-84.29 440.9,-99 441.53,-99.53 442.17,-100.06 442.82,-100.6"/>
<polygon fill="black" stroke="black" points="440.3,-103.06 450.28,-106.64 444.71,-97.63 440.3,-103.06"/>
</g>
<!-- g2&#45;&gt;linux -->
<g id="edge9" class="edge">
<title>g2&#45;&gt;linux</title>
<path fill="none" stroke="black" d="M399.02,-52.07C409.66,-54.85 424.22,-58.66 437.77,-62.2"/>
<polygon fill="black" stroke="black" points="436.78,-65.56 447.34,-64.7 438.55,-58.79 436.78,-65.56"/>
</g>
<!-- g2&#45;&gt;windows -->
<g id="edge11" class="edge">
<title>g2&#45;&gt;windows</title>
<path fill="none" stroke="black" d="M398.2,-43.18C406.88,-40.34 418.38,-36.59 429.84,-32.84"/>
<polygon fill="black" stroke="black" points="430.86,-36.19 439.28,-29.76 428.69,-29.54 430.86,-36.19"/>
</g>
<!-- os&#45;&gt;g1 -->
<g id="edge4" class="edge">
<title>os&#45;&gt;g1</title>
<path fill="none" stroke="black" d="M324.4,-78.59C334.29,-81.44 345.5,-84.66 355.36,-87.5"/>
<polygon fill="black" stroke="black" points="354.11,-90.78 364.69,-90.18 356.04,-84.05 354.11,-90.78"/>
</g>
<!-- os&#45;&gt;g2 -->
<g id="edge8" class="edge">
<title>os&#45;&gt;g2</title>
<path fill="none" stroke="black" d="M324.4,-63.72C334.29,-61 345.5,-57.91 355.36,-55.19"/>
<polygon fill="black" stroke="black" points="355.97,-58.65 364.68,-52.62 354.11,-51.9 355.97,-58.65"/>
</g>
<!-- web -->
<g id="node8" class="node">
<title>web</title>
<path fill="lightcoral" stroke="black" d="M42,-85C42,-85 12,-85 12,-85 6,-85 0,-79 0,-73 0,-73 0,-61 0,-61 0,-55 6,-49 12,-49 12,-49 42,-49 42,-49 48,-49 54,-55 54,-61 54,-61 54,-73 54,-73 54,-79 48,-85 42,-85"/>
<text text-anchor="middle" x="27" y="-63.12" font-family="Helvetica,sans-Serif" font-size="10.00" fill="white">web&#45;1.0</text>
</g>
<!-- web&#45;&gt;app -->
<g id="edge13" class="edge">
<title>web&#45;&gt;app</title>
<path fill="none" stroke="black" d="M54.4,-80.8C62.32,-84.94 71.15,-89.56 79.59,-93.97"/>
<polygon fill="black" stroke="black" points="77.79,-96.98 88.27,-98.51 81.03,-90.77 77.79,-96.98"/>
</g>
<!-- web&#45;&gt;db -->
<g id="edge14" class="edge">
<title>web&#45;&gt;db</title>
<path fill="none" stroke="black" d="M54.26,-67.59C84.37,-68.27 133.96,-69.38 168.21,-70.15"/>
<polygon fill="black" stroke="black" points="168.04,-73.65 178.11,-70.37 168.2,-66.65 168.04,-73.65"/>
</g>
<!-- web&#45;&gt;os -->
<g id="edge12" class="edge">
<title>web&#45;&gt;os</title>
<path fill="none" stroke="black" d="M54.26,-58.81C93.66,-47.72 170.23,-30.72 234,-44 242.47,-45.76 251.2,-48.75 259.34,-52.11"/>
<polygon fill="black" stroke="black" points="257.69,-55.2 268.25,-56.05 260.53,-48.8 257.69,-55.2"/>
</g>
</g>
</svg>
