<?xml version="1.0" encoding="UTF-8" standalone="no"?>
<!DOCTYPE svg PUBLIC "-//W3C//DTD SVG 1.1//EN"
 "http://www.w3.org/Graphics/SVG/1.1/DTD/svg11.dtd">
<!-- Generated by graphviz version 12.2.1 (20241206.2353)
 -->
<!-- Title: test66 Pages: 1 -->
<svg width="308pt" height="65pt"
 viewBox="0.00 0.00 307.75 64.75" xmlns="http://www.w3.org/2000/svg" xmlns:xlink="http://www.w3.org/1999/xlink">
<g id="graph0" class="graph" transform="scale(1 1) rotate(0) translate(4 60.75)">
<title>test66</title>
<polygon fill="white" stroke="none" points="-4,4 -4,-60.75 303.75,-60.75 303.75,4 -4,4"/>
<text text-anchor="middle" x="149.88" y="-41.35" font-family="Helvetica,sans-Serif" font-size="12.00">test66 u2014 PDEPEND (post&#45;merge)</text>
<!-- app -->
<g id="node1" class="node">
<title>app</title>
<path fill="lightcoral" stroke="black" d="M42,-36C42,-36 12,-36 12,-36 6,-36 0,-30 0,-24 0,-24 0,-12 0,-12 0,-6 6,0 12,0 12,0 42,0 42,0 48,0 54,-6 54,-12 54,-12 54,-24 54,-24 54,-30 48,-36 42,-36"/>
<text text-anchor="middle" x="27" y="-14.12" font-family="Helvetica,sans-Serif" font-size="10.00" fill="white">app&#45;1.0</text>
</g>
<!-- lib -->
<g id="node2" class="node">
<title>lib</title>
<path fill="lightyellow" stroke="black" d="M133,-36C133,-36 103,-36 103,-36 97,-36 91,-30 91,-24 91,-24 91,-12 91,-12 91,-6 97,0 103,0 103,0 133,0 133,0 139,0 145,-6 145,-12 145,-12 145,-24 145,-24 145,-30 139,-36 133,-36"/>
<text text-anchor="middle" x="118" y="-14.12" font-family="Helvetica,sans-Serif" font-size="10.00">lib&#45;1.0</text>
</g>
<!-- app&#45;&gt;lib -->
<g id="edge1" class="edge">
<title>app&#45;&gt;lib</title>
<path fill="none" stroke="black" d="M54.22,-18C62.12,-18 70.94,-18 79.43,-18"/>
<polygon fill="black" stroke="black" points="79.14,-21.5 89.14,-18 79.14,-14.5 79.14,-21.5"/>
</g>
<!-- plugin -->
<g id="node3" class="node">
<title>plugin</title>
<path fill="lightyellow" stroke="black" d="M287.75,-36C287.75,-36 253.75,-36 253.75,-36 247.75,-36 241.75,-30 241.75,-24 241.75,-24 241.75,-12 241.75,-12 241.75,-6 247.75,0 253.75,0 253.75,0 287.75,0 287.75,0 293.75,0 299.75,-6 299.75,-12 299.75,-12 299.75,-24 299.75,-24 299.75,-30 293.75,-36 287.75,-36"/>
<text text-anchor="middle" x="270.75" y="-14.12" font-family="Helvetica,sans-Serif" font-size="10.00">plugin&#45;1.0</text>
</g>
<!-- lib&#45;&gt;plugin -->
<g id="edge2" class="edge">
<title>lib&#45;&gt;plugin</title>
<path fill="none" stroke="black" stroke-dasharray="5,2" d="M145.26,-18C168.7,-18 203.37,-18 230.17,-18"/>
<polygon fill="black" stroke="black" points="229.98,-21.5 239.98,-18 229.98,-14.5 229.98,-21.5"/>
<text text-anchor="middle" x="193.38" y="-21.2" font-family="Times,serif" font-size="14.00">PDEPEND</text>
</g>
</g>
</svg>
