<?xml version="1.0" encoding="UTF-8" standalone="no"?>
<!DOCTYPE svg PUBLIC "-//W3C//DTD SVG 1.1//EN"
 "http://www.w3.org/Graphics/SVG/1.1/DTD/svg11.dtd">
<!-- Generated by graphviz version 12.2.1 (20241206.2353)
 -->
<!-- Title: test40 Pages: 1 -->
<svg width="298pt" height="119pt"
 viewBox="0.00 0.00 298.42 118.75" xmlns="http://www.w3.org/2000/svg" xmlns:xlink="http://www.w3.org/1999/xlink">
<g id="graph0" class="graph" transform="scale(1 1) rotate(0) translate(4 114.75)">
<title>test40</title>
<polygon fill="white" stroke="none" points="-4,4 -4,-114.75 294.42,-114.75 294.42,4 -4,4"/>
<text text-anchor="start" x="66.08" y="-96.35" font-family="Helvetica,sans-Serif" font-weight="bold" font-size="12.00">test40</text>
<text text-anchor="start" x="100.58" y="-96.35" font-family="Helvetica,sans-Serif" font-size="12.00"> — REQUIRED_USE ||</text>
<!-- os -->
<g id="node1" class="node">
<title>os</title>
<path fill="lightcoral" stroke="black" d="M42,-63C42,-63 12,-63 12,-63 6,-63 0,-57 0,-51 0,-51 0,-39 0,-39 0,-33 6,-27 12,-27 12,-27 42,-27 42,-27 48,-27 54,-33 54,-39 54,-39 54,-51 54,-51 54,-57 48,-63 42,-63"/>
<text text-anchor="middle" x="27" y="-41.12" font-family="Helvetica,sans-Serif" font-size="10.00" fill="white">os&#45;1.0</text>
</g>
<!-- g1 -->
<g id="node2" class="node">
<title>g1</title>
<path fill="orange" stroke="black" d="M174.47,-57C174.47,-57 168.24,-51 168.24,-51 165.12,-48 165.12,-42 168.24,-39 168.24,-39 174.47,-33 174.47,-33 177.59,-30 183.83,-30 186.95,-33 186.95,-33 193.18,-39 193.18,-39 196.3,-42 196.3,-48 193.18,-51 193.18,-51 186.95,-57 186.95,-57 183.83,-60 177.59,-60 174.47,-57"/>
<text text-anchor="middle" x="180.71" y="-40.55" font-family="Helvetica,sans-Serif" font-size="11.00" fill="white">||</text>
</g>
<!-- os&#45;&gt;g1 -->
<g id="edge1" class="edge">
<title>os&#45;&gt;g1</title>
<path fill="none" stroke="black" d="M54.43,-45C81.2,-45 122.51,-45 150.31,-45"/>
<polygon fill="black" stroke="black" points="150.15,-48.5 160.15,-45 150.15,-41.5 150.15,-48.5"/>
<text text-anchor="middle" x="108" y="-46.2" font-family="Helvetica,sans-Serif" font-size="9.00">REQUIRED_USE</text>
</g>
<!-- linux -->
<g id="node3" class="node">
<title>linux</title>
<path fill="lightyellow" stroke="black" d="M278.42,-90C278.42,-90 248.42,-90 248.42,-90 242.42,-90 236.42,-84 236.42,-78 236.42,-78 236.42,-66 236.42,-66 236.42,-60 242.42,-54 248.42,-54 248.42,-54 278.42,-54 278.42,-54 284.42,-54 290.42,-60 290.42,-66 290.42,-66 290.42,-78 290.42,-78 290.42,-84 284.42,-90 278.42,-90"/>
<text text-anchor="middle" x="263.42" y="-68.12" font-family="Helvetica,sans-Serif" font-size="10.00">linux</text>
</g>
<!-- g1&#45;&gt;linux -->
<g id="edge2" class="edge">
<title>g1&#45;&gt;linux</title>
<path fill="none" stroke="black" d="M195.04,-49.46C203.36,-52.24 214.53,-55.98 225.38,-59.61"/>
<polygon fill="black" stroke="black" points="223.98,-62.83 234.57,-62.68 226.2,-56.19 223.98,-62.83"/>
</g>
<!-- darwin -->
<g id="node4" class="node">
<title>darwin</title>
<path fill="lightyellow" stroke="black" d="M278.42,-36C278.42,-36 248.42,-36 248.42,-36 242.42,-36 236.42,-30 236.42,-24 236.42,-24 236.42,-12 236.42,-12 236.42,-6 242.42,0 248.42,0 248.42,0 278.42,0 278.42,0 284.42,0 290.42,-6 290.42,-12 290.42,-12 290.42,-24 290.42,-24 290.42,-30 284.42,-36 278.42,-36"/>
<text text-anchor="middle" x="263.42" y="-14.12" font-family="Helvetica,sans-Serif" font-size="10.00">darwin</text>
</g>
<!-- g1&#45;&gt;darwin -->
<g id="edge3" class="edge">
<title>g1&#45;&gt;darwin</title>
<path fill="none" stroke="black" d="M195.04,-40.54C203.36,-37.76 214.53,-34.02 225.38,-30.39"/>
<polygon fill="black" stroke="black" points="226.2,-33.81 234.57,-27.32 223.98,-27.17 226.2,-33.81"/>
</g>
</g>
</svg>
