<?xml version="1.0" encoding="UTF-8" standalone="no"?>
<!DOCTYPE svg PUBLIC "-//W3C//DTD SVG 1.1//EN"
 "http://www.w3.org/Graphics/SVG/1.1/DTD/svg11.dtd">
<!-- Generated by graphviz version 12.2.1 (20241206.2353)
 -->
<!-- Title: test72 Pages: 1 -->
<svg width="222pt" height="65pt"
 viewBox="0.00 0.00 222.00 64.75" xmlns="http://www.w3.org/2000/svg" xmlns:xlink="http://www.w3.org/1999/xlink">
<g id="graph0" class="graph" transform="scale(1 1) rotate(0) translate(4 60.75)">
<title>test72</title>
<polygon fill="white" stroke="none" points="-4,4 -4,-60.75 218,-60.75 218,4 -4,4"/>
<text text-anchor="middle" x="107" y="-41.35" font-family="Helvetica,sans-Serif" font-size="12.00">test72 u2014 IDEPEND (install&#45;time)</text>
<!-- app -->
<g id="node1" class="node">
<title>app</title>
<path fill="lightcoral" stroke="black" d="M42,-36C42,-36 12,-36 12,-36 6,-36 0,-30 0,-24 0,-24 0,-12 0,-12 0,-6 6,0 12,0 12,0 42,0 42,0 48,0 54,-6 54,-12 54,-12 54,-24 54,-24 54,-30 48,-36 42,-36"/>
<text text-anchor="middle" x="27" y="-14.12" font-family="Helvetica,sans-Serif" font-size="10.00" fill="white">app&#45;1.0</text>
</g>
<!-- installer -->
<g id="node2" class="node">
<title>installer</title>
<path fill="lightyellow" stroke="black" d="M202,-36C202,-36 159.75,-36 159.75,-36 153.75,-36 147.75,-30 147.75,-24 147.75,-24 147.75,-12 147.75,-12 147.75,-6 153.75,0 159.75,0 159.75,0 202,0 202,0 208,0 214,-6 214,-12 214,-12 214,-24 214,-24 214,-30 208,-36 202,-36"/>
<text text-anchor="middle" x="180.88" y="-14.12" font-family="Helvetica,sans-Serif" font-size="10.00">installer&#45;1.0</text>
</g>
<!-- app&#45;&gt;installer -->
<g id="edge1" class="edge">
<title>app&#45;&gt;installer</title>
<path fill="none" stroke="black" stroke-dasharray="1,5" d="M54.45,-18C76.96,-18 109.74,-18 136.14,-18"/>
<polygon fill="black" stroke="black" points="135.87,-21.5 145.87,-18 135.87,-14.5 135.87,-21.5"/>
<text text-anchor="middle" x="100.88" y="-21.2" font-family="Times,serif" font-size="14.00">IDEPEND</text>
</g>
</g>
</svg>
