<?xml version="1.0" encoding="UTF-8" standalone="no"?>
<!DOCTYPE svg PUBLIC "-//W3C//DTD SVG 1.1//EN"
 "http://www.w3.org/Graphics/SVG/1.1/DTD/svg11.dtd">
<!-- Generated by graphviz version 12.2.1 (20241206.2353)
 -->
<!-- Title: test67 Pages: 1 -->
<svg width="232pt" height="119pt"
 viewBox="0.00 0.00 231.75 118.75" xmlns="http://www.w3.org/2000/svg" xmlns:xlink="http://www.w3.org/1999/xlink">
<g id="graph0" class="graph" transform="scale(1 1) rotate(0) translate(4 114.75)">
<title>test67</title>
<polygon fill="white" stroke="none" points="-4,4 -4,-114.75 227.75,-114.75 227.75,4 -4,4"/>
<text text-anchor="middle" x="111.88" y="-95.35" font-family="Helvetica,sans-Serif" font-size="12.00">test67 u2014 BDEPEND (build&#45;only)</text>
<!-- app -->
<g id="node1" class="node">
<title>app</title>
<path fill="lightcoral" stroke="black" d="M42,-63C42,-63 12,-63 12,-63 6,-63 0,-57 0,-51 0,-51 0,-39 0,-39 0,-33 6,-27 12,-27 12,-27 42,-27 42,-27 48,-27 54,-33 54,-39 54,-39 54,-51 54,-51 54,-57 48,-63 42,-63"/>
<text text-anchor="middle" x="27" y="-41.12" font-family="Helvetica,sans-Serif" font-size="10.00" fill="white">app&#45;1.0</text>
</g>
<!-- lib -->
<g id="node2" class="node">
<title>lib</title>
<path fill="lightyellow" stroke="black" d="M203,-90C203,-90 173,-90 173,-90 167,-90 161,-84 161,-78 161,-78 161,-66 161,-66 161,-60 167,-54 173,-54 173,-54 203,-54 203,-54 209,-54 215,-60 215,-66 215,-66 215,-78 215,-78 215,-84 209,-90 203,-90"/>
<text text-anchor="middle" x="188" y="-68.12" font-family="Helvetica,sans-Serif" font-size="10.00">lib&#45;1.0</text>
</g>
<!-- app&#45;&gt;lib -->
<g id="edge2" class="edge">
<title>app&#45;&gt;lib</title>
<path fill="none" stroke="black" d="M54.34,-53.56C60.12,-55.21 66.23,-56.8 72,-58 97.66,-63.31 126.99,-66.85 149.61,-69.03"/>
<polygon fill="black" stroke="black" points="148.98,-72.49 159.26,-69.92 149.62,-65.52 148.98,-72.49"/>
</g>
<!-- toolchain -->
<g id="node3" class="node">
<title>toolchain</title>
<path fill="lightyellow" stroke="black" d="M211.75,-36C211.75,-36 164.25,-36 164.25,-36 158.25,-36 152.25,-30 152.25,-24 152.25,-24 152.25,-12 152.25,-12 152.25,-6 158.25,0 164.25,0 164.25,0 211.75,0 211.75,0 217.75,0 223.75,-6 223.75,-12 223.75,-12 223.75,-24 223.75,-24 223.75,-30 217.75,-36 211.75,-36"/>
<text text-anchor="middle" x="188" y="-14.12" font-family="Helvetica,sans-Serif" font-size="10.00">toolchain&#45;1.0</text>
</g>
<!-- app&#45;&gt;toolchain -->
<g id="edge1" class="edge">
<title>app&#45;&gt;toolchain</title>
<path fill="none" stroke="black" stroke-dasharray="1,5" d="M54.26,-40.54C77.67,-36.57 112.48,-30.65 140.58,-25.88"/>
<polygon fill="black" stroke="black" points="141,-29.36 150.28,-24.24 139.83,-22.46 141,-29.36"/>
<text text-anchor="middle" x="103.12" y="-40.22" font-family="Times,serif" font-size="14.00">BDEPEND</text>
</g>
</g>
</svg>
