<?xml version="1.0" encoding="UTF-8" standalone="no"?>
<!DOCTYPE svg PUBLIC "-//W3C//DTD SVG 1.1//EN"
 "http://www.w3.org/Graphics/SVG/1.1/DTD/svg11.dtd">
<!-- Generated by graphviz version 12.2.1 (20241206.2353)
 -->
<!-- Title: avl_tree Pages: 1 -->
<svg width="498pt" height="258pt"
 viewBox="0.00 0.00 498.40 257.80" xmlns="http://www.w3.org/2000/svg" xmlns:xlink="http://www.w3.org/1999/xlink">
<g id="graph0" class="graph" transform="scale(1 1) rotate(0) translate(4 253.8)">
<title>avl_tree</title>
<text text-anchor="start" x="113.2" y="-231.4" font-family="Helvetica Neue" font-weight="bold" font-size="12.00">Looking up &quot;ssl&quot; — 3 comparisons instead of 7</text>
<!-- s1 -->
<g id="node1" class="node">
<title>s1</title>
<text text-anchor="start" x="14.98" y="-196.68" font-family="Helvetica Neue" font-weight="bold" font-size="11.00">Step 1</text>
<text text-anchor="start" x="64.98" y="-195.5" font-family="Helvetica Neue" font-size="10.00">&quot;ssl&quot; &gt; &quot;gtk&quot; → go right</text>
</g>
<!-- s2 -->
<g id="node2" class="node">
<title>s2</title>
<text text-anchor="start" x="15.35" y="-107.07" font-family="Helvetica Neue" font-weight="bold" font-size="11.00">Step 2</text>
<text text-anchor="start" x="65.35" y="-105.9" font-family="Helvetica Neue" font-size="10.00">&quot;ssl&quot; &gt; &quot;net&quot; → go right</text>
</g>
<!-- s1&#45;&gt;s2 -->
<!-- gtk -->
<g id="node8" class="node">
<title>gtk</title>
<ellipse fill="#d5e8d4" stroke="#27ae60" stroke-width="2" cx="356.6" cy="-199" rx="19.8" ry="19.8"/>
<text text-anchor="middle" x="356.6" y="-195.1" font-family="Helvetica Neue" font-size="12.00" fill="#1a1a1a">gtk</text>
</g>
<!-- s1&#45;&gt;gtk -->
<!-- s3 -->
<g id="node3" class="node">
<title>s3</title>
<text text-anchor="start" x="19.1" y="-17.48" font-family="Helvetica Neue" font-weight="bold" font-size="11.00">Step 3</text>
<text text-anchor="start" x="69.1" y="-16.3" font-family="Helvetica Neue" font-size="10.00">&quot;ssl&quot; = &quot;ssl&quot; → found!</text>
</g>
<!-- s2&#45;&gt;s3 -->
<!-- css -->
<g id="node4" class="node">
<title>css</title>
<ellipse fill="#f0f0f0" stroke="#bbbbbb" cx="318.6" cy="-109.4" rx="19.8" ry="19.8"/>
<text text-anchor="middle" x="318.6" y="-105.5" font-family="Helvetica Neue" font-size="12.00" fill="#888888">css</text>
</g>
<!-- s2&#45;&gt;css -->
<!-- app -->
<g id="node5" class="node">
<title>app</title>
<ellipse fill="#f0f0f0" stroke="#bbbbbb" cx="242.6" cy="-19.8" rx="19.8" ry="19.8"/>
<text text-anchor="middle" x="242.6" y="-15.9" font-family="Helvetica Neue" font-size="12.00" fill="#888888">app</text>
</g>
<!-- s3&#45;&gt;app -->
<!-- css&#45;&gt;app -->
<g id="edge2" class="edge">
<title>css&#45;&gt;app</title>
<path fill="none" stroke="#cccccc" d="M306.05,-93.93C294.17,-80.24 276.14,-59.46 262.34,-43.55"/>
<polygon fill="#cccccc" stroke="#cccccc" points="265.36,-41.69 256.16,-36.43 260.07,-46.28 265.36,-41.69"/>
</g>
<!-- editor -->
<g id="node6" class="node">
<title>editor</title>
<ellipse fill="#f0f0f0" stroke="#bbbbbb" cx="318.6" cy="-19.8" rx="19.8" ry="19.8"/>
<text text-anchor="middle" x="318.6" y="-15.9" font-family="Helvetica Neue" font-size="12.00" fill="#888888">editor</text>
</g>
<!-- css&#45;&gt;editor -->
<g id="edge3" class="edge">
<title>css&#45;&gt;editor</title>
<path fill="none" stroke="#cccccc" d="M318.6,-89.39C318.6,-78.33 318.6,-64.13 318.6,-51.52"/>
<polygon fill="#cccccc" stroke="#cccccc" points="322.1,-51.59 318.6,-41.59 315.1,-51.59 322.1,-51.59"/>
</g>
<!-- jpeg -->
<g id="node7" class="node">
<title>jpeg</title>
<ellipse fill="#f0f0f0" stroke="#bbbbbb" cx="394.6" cy="-19.8" rx="19.8" ry="19.8"/>
<text text-anchor="middle" x="394.6" y="-15.9" font-family="Helvetica Neue" font-size="12.00" fill="#888888">jpeg</text>
</g>
<!-- gtk&#45;&gt;css -->
<g id="edge1" class="edge">
<title>gtk&#45;&gt;css</title>
<path fill="none" stroke="#cccccc" d="M348.73,-179.85C343.51,-167.83 336.57,-151.83 330.67,-138.21"/>
<polygon fill="#cccccc" stroke="#cccccc" points="334,-137.1 326.81,-129.32 327.58,-139.89 334,-137.1"/>
</g>
<!-- net -->
<g id="node9" class="node">
<title>net</title>
<ellipse fill="#d5e8d4" stroke="#27ae60" stroke-width="2" cx="394.6" cy="-109.4" rx="19.8" ry="19.8"/>
<text text-anchor="middle" x="394.6" y="-105.5" font-family="Helvetica Neue" font-size="12.00" fill="#1a1a1a">net</text>
</g>
<!-- gtk&#45;&gt;net -->
<g id="edge5" class="edge">
<title>gtk&#45;&gt;net</title>
<path fill="none" stroke="#27ae60" stroke-width="2.5" d="M364.47,-179.85C369.36,-168.57 375.78,-153.8 381.42,-140.77"/>
<polygon fill="#27ae60" stroke="#27ae60" stroke-width="2.5" points="384.46,-142.57 385.23,-132 378.04,-139.78 384.46,-142.57"/>
</g>
<!-- net&#45;&gt;jpeg -->
<g id="edge4" class="edge">
<title>net&#45;&gt;jpeg</title>
<path fill="none" stroke="#cccccc" d="M394.6,-88.96C394.6,-77.88 394.6,-63.76 394.6,-51.24"/>
<polygon fill="#cccccc" stroke="#cccccc" points="398.1,-51.4 394.6,-41.4 391.1,-51.4 398.1,-51.4"/>
</g>
<!-- ssl -->
<g id="node10" class="node">
<title>ssl</title>
<ellipse fill="#27ae60" stroke="#27ae60" stroke-width="2" cx="470.6" cy="-19.8" rx="19.8" ry="19.8"/>
<text text-anchor="middle" x="470.6" y="-15.9" font-family="Helvetica Neue" font-size="12.00" fill="white">ssl</text>
</g>
<!-- net&#45;&gt;ssl -->
<g id="edge6" class="edge">
<title>net&#45;&gt;ssl</title>
<path fill="none" stroke="#27ae60" stroke-width="2.5" d="M407.49,-93.54C418.74,-80.58 435.29,-61.49 448.63,-46.13"/>
<polygon fill="#27ae60" stroke="#27ae60" stroke-width="2.5" points="451.26,-48.44 455.16,-38.59 445.97,-43.85 451.26,-48.44"/>
</g>
</g>
</svg>
