<?xml version="1.0" encoding="UTF-8" standalone="no"?>
<!DOCTYPE svg PUBLIC "-//W3C//DTD SVG 1.1//EN"
 "http://www.w3.org/Graphics/SVG/1.1/DTD/svg11.dtd">
<!-- Generated by graphviz version 12.2.1 (20241206.2353)
 -->
<!-- Title: context_person Pages: 1 -->
<svg width="334pt" height="379pt"
 viewBox="0.00 0.00 334.00 379.25" xmlns="http://www.w3.org/2000/svg" xmlns:xlink="http://www.w3.org/1999/xlink">
<g id="graph0" class="graph" transform="scale(1 1) rotate(0) translate(4 375.25)">
<title>context_person</title>
<polygon fill="white" stroke="none" points="-4,4 -4,-375.25 330,-375.25 330,4 -4,4"/>
<g id="clust1" class="cluster">
<title>cluster_class</title>
<path fill="none" stroke="#888888" stroke-dasharray="5,2" d="M96,-155.25C96,-155.25 238,-155.25 238,-155.25 244,-155.25 250,-161.25 250,-167.25 250,-167.25 250,-351.25 250,-351.25 250,-357.25 244,-363.25 238,-363.25 238,-363.25 96,-363.25 96,-363.25 90,-363.25 84,-357.25 84,-351.25 84,-351.25 84,-167.25 84,-167.25 84,-161.25 90,-155.25 96,-155.25"/>
<text text-anchor="middle" x="123.12" y="-349.75" font-family="Helvetica Neue" font-size="10.00">Class: person</text>
</g>
<g id="clust2" class="cluster">
<title>cluster_pieter</title>
<path fill="none" stroke="#4a90d9" d="M20,-8C20,-8 98,-8 98,-8 104,-8 110,-14 110,-20 110,-20 110,-114 110,-114 110,-120 104,-126 98,-126 98,-126 20,-126 20,-126 14,-126 8,-120 8,-114 8,-114 8,-20 8,-20 8,-14 14,-8 20,-8"/>
<text text-anchor="middle" x="49.75" y="-112.5" font-family="Helvetica Neue" font-size="10.00">Instance: pieter</text>
</g>
<g id="clust3" class="cluster">
<title>cluster_alice</title>
<path fill="none" stroke="#4a90d9" d="M130,-17C130,-17 204,-17 204,-17 210,-17 216,-23 216,-29 216,-29 216,-105 216,-105 216,-111 210,-117 204,-117 204,-117 130,-117 130,-117 124,-117 118,-111 118,-105 118,-105 118,-29 118,-29 118,-23 124,-17 130,-17"/>
<text text-anchor="middle" x="157.5" y="-103.5" font-family="Helvetica Neue" font-size="10.00">Instance: alice</text>
</g>
<g id="clust4" class="cluster">
<title>cluster_bob</title>
<path fill="none" stroke="#4a90d9" d="M236,-26C236,-26 306,-26 306,-26 312,-26 318,-32 318,-38 318,-38 318,-96 318,-96 318,-102 312,-108 306,-108 306,-108 236,-108 236,-108 230,-108 224,-102 224,-96 224,-96 224,-38 224,-38 224,-32 230,-26 236,-26"/>
<text text-anchor="middle" x="262.38" y="-94.5" font-family="Helvetica Neue" font-size="10.00">Instance: bob</text>
</g>
<!-- class_def -->
<g id="node1" class="node">
<title>class_def</title>
<polygon fill="#e8e8e8" stroke="black" points="242.38,-335.25 91.62,-335.25 91.62,-163.25 242.38,-163.25 242.38,-335.25"/>
<text text-anchor="start" x="103.62" y="-318.75" font-family="Helvetica Neue" font-weight="bold" font-size="10.00">public</text>
<text text-anchor="start" x="103.62" y="-299.75" font-family="Helvetica Neue" font-size="10.00"> &#160;</text>
<text text-anchor="start" x="115.62" y="-299.75" font-family="Helvetica Neue" font-size="10.00">person/1, ~person/0</text>
<text text-anchor="start" x="103.62" y="-281.75" font-family="Helvetica Neue" font-size="10.00"> &#160;</text>
<text text-anchor="start" x="115.62" y="-281.75" font-family="Helvetica Neue" font-size="10.00">get_name/1, set_name/1</text>
<text text-anchor="start" x="103.62" y="-263.75" font-family="Helvetica Neue" font-size="10.00"> &#160;</text>
<text text-anchor="start" x="115.62" y="-263.75" font-family="Helvetica Neue" font-size="10.00">get_age/1, set_age/1</text>
<text text-anchor="start" x="103.62" y="-245.75" font-family="Helvetica Neue" font-size="10.00"> &#160;</text>
<text text-anchor="start" x="115.62" y="-245.75" font-family="Helvetica Neue" font-size="10.00">add_title/1, remove_title/1</text>
<text text-anchor="start" x="103.62" y="-228.75" font-family="Helvetica Neue" font-weight="bold" font-size="10.00">protected</text>
<text text-anchor="start" x="103.62" y="-209.75" font-family="Helvetica Neue" font-size="10.00"> &#160;</text>
<text text-anchor="start" x="115.62" y="-209.75" font-family="Helvetica Neue" font-size="10.00">name/1</text>
<text text-anchor="start" x="103.62" y="-192.75" font-family="Helvetica Neue" font-weight="bold" font-size="10.00">private</text>
<text text-anchor="start" x="103.62" y="-173.75" font-family="Helvetica Neue" font-size="10.00"> &#160;</text>
<text text-anchor="start" x="115.62" y="-173.75" font-family="Helvetica Neue" font-size="10.00">age/1, title/1</text>
</g>
<!-- pieter_state -->
<g id="node2" class="node">
<title>pieter_state</title>
<polygon fill="#d4edda" stroke="black" points="101.75,-98 16.25,-98 16.25,-16 101.75,-16 101.75,-98"/>
<text text-anchor="start" x="28.25" y="-80.5" font-family="Helvetica Neue" font-size="10.00" fill="#228b22">name</text>
<text text-anchor="start" x="58.25" y="-80.5" font-family="Helvetica Neue" font-size="10.00">&#39;Pieter&#39;</text>
<text text-anchor="start" x="28.25" y="-62.5" font-family="Helvetica Neue" font-size="10.00" fill="#cc0000">age</text>
<text text-anchor="start" x="58.25" y="-62.5" font-family="Helvetica Neue" font-size="10.00">40</text>
<text text-anchor="start" x="28.25" y="-44.5" font-family="Helvetica Neue" font-size="10.00" fill="#cc0000">title</text>
<text text-anchor="start" x="58.25" y="-44.5" font-family="Helvetica Neue" font-size="10.00">&#39;Dr.&#39;</text>
<text text-anchor="start" x="28.25" y="-26.5" font-family="Helvetica Neue" font-size="10.00" fill="#cc0000">title</text>
<text text-anchor="start" x="58.25" y="-26.5" font-family="Helvetica Neue" font-size="10.00">&#39;Prof.&#39;</text>
</g>
<!-- class_def&#45;&gt;pieter_state -->
<g id="edge1" class="edge">
<title>class_def&#45;&gt;pieter_state</title>
<path fill="none" stroke="black" stroke-dasharray="5,2" d="M93.71,-162.9C90.01,-157.09 86.57,-151.18 83.5,-145.25 77.74,-134.12 73.2,-121.48 69.67,-109.33"/>
<polygon fill="black" stroke="black" points="73.09,-108.58 67.1,-99.84 66.33,-110.41 73.09,-108.58"/>
<text text-anchor="middle" x="123.25" y="-136.7" font-family="Helvetica Neue" font-size="9.00">::new(pieter, &#39;Pieter&#39;)</text>
</g>
<!-- alice_state -->
<g id="node3" class="node">
<title>alice_state</title>
<polygon fill="#d4edda" stroke="black" points="207.88,-89 126.12,-89 126.12,-25 207.88,-25 207.88,-89"/>
<text text-anchor="start" x="138.12" y="-71.5" font-family="Helvetica Neue" font-size="10.00" fill="#228b22">name</text>
<text text-anchor="start" x="168.12" y="-71.5" font-family="Helvetica Neue" font-size="10.00">&#39;Alice&#39;</text>
<text text-anchor="start" x="138.12" y="-53.5" font-family="Helvetica Neue" font-size="10.00" fill="#cc0000">age</text>
<text text-anchor="start" x="168.12" y="-53.5" font-family="Helvetica Neue" font-size="10.00">35</text>
<text text-anchor="start" x="138.12" y="-35.5" font-family="Helvetica Neue" font-size="10.00" fill="#cc0000">title</text>
<text text-anchor="start" x="168.12" y="-35.5" font-family="Helvetica Neue" font-size="10.00">&#39;Ir.&#39;</text>
</g>
<!-- class_def&#45;&gt;alice_state -->
<g id="edge2" class="edge">
<title>class_def&#45;&gt;alice_state</title>
<path fill="none" stroke="black" stroke-dasharray="5,2" d="M167,-162.86C167,-141.31 167,-119.08 167,-100.67"/>
<polygon fill="black" stroke="black" points="170.5,-100.68 167,-90.68 163.5,-100.68 170.5,-100.68"/>
<text text-anchor="middle" x="203" y="-136.7" font-family="Helvetica Neue" font-size="9.00">::new(alice, &#39;Alice&#39;)</text>
</g>
<!-- bob_state -->
<g id="node4" class="node">
<title>bob_state</title>
<polygon fill="#d4edda" stroke="black" points="310.38,-80 231.62,-80 231.62,-34 310.38,-34 310.38,-80"/>
<text text-anchor="start" x="243.62" y="-62.5" font-family="Helvetica Neue" font-size="10.00" fill="#228b22">name</text>
<text text-anchor="start" x="273.62" y="-62.5" font-family="Helvetica Neue" font-size="10.00">&#39;Bob&#39;</text>
<text text-anchor="start" x="243.62" y="-44.5" font-family="Helvetica Neue" font-size="10.00" fill="#cc0000">age</text>
<text text-anchor="start" x="273.62" y="-44.5" font-family="Helvetica Neue" font-size="10.00">28</text>
</g>
<!-- class_def&#45;&gt;bob_state -->
<g id="edge3" class="edge">
<title>class_def&#45;&gt;bob_state</title>
<path fill="none" stroke="black" stroke-dasharray="5,2" d="M233.01,-163.04C236.59,-157.14 239.96,-151.18 243,-145.25 251.72,-128.22 258.42,-107.94 263.08,-91.22"/>
<polygon fill="black" stroke="black" points="266.41,-92.32 265.59,-81.76 259.65,-90.52 266.41,-92.32"/>
<text text-anchor="middle" x="280.65" y="-136.7" font-family="Helvetica Neue" font-size="9.00">::new(bob, &#39;Bob&#39;)</text>
</g>
</g>
</svg>
