<?xml version="1.0" encoding="UTF-8" standalone="no"?>
<!DOCTYPE svg PUBLIC "-//W3C//DTD SVG 1.1//EN"
 "http://www.w3.org/Graphics/SVG/1.1/DTD/svg11.dtd">
<!-- Generated by graphviz version 12.2.1 (20241206.2353)
 -->
<!-- Title: context_repository Pages: 1 -->
<svg width="594pt" height="487pt"
 viewBox="0.00 0.00 594.00 487.25" xmlns="http://www.w3.org/2000/svg" xmlns:xlink="http://www.w3.org/1999/xlink">
<g id="graph0" class="graph" transform="scale(1 1) rotate(0) translate(4 483.25)">
<title>context_repository</title>
<polygon fill="white" stroke="none" points="-4,4 -4,-483.25 590,-483.25 590,4 -4,4"/>
<g id="clust1" class="cluster">
<title>cluster_class</title>
<path fill="none" stroke="#888888" stroke-dasharray="5,2" d="M117,-263.25C117,-263.25 253,-263.25 253,-263.25 259,-263.25 265,-269.25 265,-275.25 265,-275.25 265,-459.25 265,-459.25 265,-465.25 259,-471.25 253,-471.25 253,-471.25 117,-471.25 117,-471.25 111,-471.25 105,-465.25 105,-459.25 105,-459.25 105,-275.25 105,-275.25 105,-269.25 111,-263.25 117,-263.25"/>
<text text-anchor="middle" x="151.25" y="-457.75" font-family="Helvetica Neue" font-size="10.00">Class: repository</text>
</g>
<g id="clust2" class="cluster">
<title>cluster_portage</title>
<path fill="none" stroke="#4a90d9" d="M20,-8C20,-8 240,-8 240,-8 246,-8 252,-14 252,-20 252,-20 252,-222 252,-222 252,-228 246,-234 240,-234 240,-234 20,-234 20,-234 14,-234 8,-228 8,-222 8,-222 8,-20 8,-20 8,-14 14,-8 20,-8"/>
<text text-anchor="middle" x="54.62" y="-220.5" font-family="Helvetica Neue" font-size="10.00">Instance: portage</text>
</g>
<g id="clust3" class="cluster">
<title>cluster_overlay</title>
<path fill="none" stroke="#4a90d9" d="M346,-26C346,-26 566,-26 566,-26 572,-26 578,-32 578,-38 578,-38 578,-204 578,-204 578,-210 572,-216 566,-216 566,-216 346,-216 346,-216 340,-216 334,-210 334,-204 334,-204 334,-38 334,-38 334,-32 340,-26 346,-26"/>
<text text-anchor="middle" x="386.25" y="-202.5" font-family="Helvetica Neue" font-size="10.00">Instance: myoverlay</text>
</g>
<!-- class_def -->
<g id="node1" class="node">
<title>class_def</title>
<polygon fill="#e8e8e8" stroke="black" points="256.62,-443.25 113.38,-443.25 113.38,-271.25 256.62,-271.25 256.62,-443.25"/>
<text text-anchor="start" x="125.38" y="-426.75" font-family="Helvetica Neue" font-weight="bold" font-size="10.00">public</text>
<text text-anchor="start" x="125.38" y="-407.75" font-family="Helvetica Neue" font-size="10.00"> &#160;</text>
<text text-anchor="start" x="137.38" y="-407.75" font-family="Helvetica Neue" font-size="10.00">init/5, sync/1</text>
<text text-anchor="start" x="125.38" y="-389.75" font-family="Helvetica Neue" font-size="10.00"> &#160;</text>
<text text-anchor="start" x="137.38" y="-389.75" font-family="Helvetica Neue" font-size="10.00">query/2, graph/1</text>
<text text-anchor="start" x="125.38" y="-371.75" font-family="Helvetica Neue" font-size="10.00"> &#160;</text>
<text text-anchor="start" x="137.38" y="-371.75" font-family="Helvetica Neue" font-size="10.00">entry/1, find_metadata/4</text>
<text text-anchor="start" x="125.38" y="-354.75" font-family="Helvetica Neue" font-weight="bold" font-size="10.00">protected</text>
<text text-anchor="start" x="125.38" y="-335.75" font-family="Helvetica Neue" font-size="10.00"> &#160;</text>
<text text-anchor="start" x="137.38" y="-335.75" font-family="Helvetica Neue" font-size="10.00">path/1, cache_path/1</text>
<text text-anchor="start" x="125.38" y="-317.75" font-family="Helvetica Neue" font-size="10.00"> &#160;</text>
<text text-anchor="start" x="137.38" y="-317.75" font-family="Helvetica Neue" font-size="10.00">remote/1, protocol/1</text>
<text text-anchor="start" x="125.38" y="-300.75" font-family="Helvetica Neue" font-weight="bold" font-size="10.00">private</text>
<text text-anchor="start" x="125.38" y="-281.75" font-family="Helvetica Neue" font-size="10.00"> &#160;</text>
<text text-anchor="start" x="137.38" y="-281.75" font-family="Helvetica Neue" font-size="10.00">type/1</text>
</g>
<!-- portage_state -->
<g id="node2" class="node">
<title>portage_state</title>
<polygon fill="#d4edda" stroke="black" points="244.38,-206 15.63,-206 15.63,-16 244.38,-16 244.38,-206"/>
<text text-anchor="start" x="27.62" y="-188.5" font-family="Helvetica Neue" font-size="10.00" fill="#228b22">path</text>
<text text-anchor="start" x="96.62" y="-188.5" font-family="Helvetica Neue" font-size="10.00">&#39;/usr/portage&#39;</text>
<text text-anchor="start" x="27.62" y="-170.5" font-family="Helvetica Neue" font-size="10.00" fill="#228b22">cache_path</text>
<text text-anchor="start" x="96.62" y="-170.5" font-family="Helvetica Neue" font-size="10.00">&#39;.../md5&#45;cache&#39;</text>
<text text-anchor="start" x="27.62" y="-152.5" font-family="Helvetica Neue" font-size="10.00" fill="#228b22">remote</text>
<text text-anchor="start" x="96.62" y="-152.5" font-family="Helvetica Neue" font-size="10.00">&#39;https://...gentoo&#39;</text>
<text text-anchor="start" x="27.62" y="-134.5" font-family="Helvetica Neue" font-size="10.00" fill="#228b22">protocol</text>
<text text-anchor="start" x="96.62" y="-134.5" font-family="Helvetica Neue" font-size="10.00">git</text>
<text text-anchor="start" x="27.62" y="-116.5" font-family="Helvetica Neue" font-size="10.00" fill="#cc0000">type</text>
<text text-anchor="start" x="96.62" y="-116.5" font-family="Helvetica Neue" font-size="10.00">eapi</text>
<text text-anchor="start" x="27.62" y="-98.5" font-family="Helvetica Neue" font-size="10.00" fill="#666666">─────────────────────</text>
<text text-anchor="start" x="27.62" y="-80.5" font-family="Helvetica Neue" font-size="10.00" fill="#333333">entry</text>
<text text-anchor="start" x="96.62" y="-80.5" font-family="Helvetica Neue" font-size="10.00">&#39;sys&#45;apps/portage&#45;2.3.99&#39;</text>
<text text-anchor="start" x="27.62" y="-62.5" font-family="Helvetica Neue" font-size="10.00" fill="#333333">entry</text>
<text text-anchor="start" x="96.62" y="-62.5" font-family="Helvetica Neue" font-size="10.00">&#39;dev&#45;lang/python&#45;3.12.9&#39;</text>
<text text-anchor="start" x="27.62" y="-44.5" font-family="Helvetica Neue" font-size="10.00" fill="#333333">entry</text>
<text text-anchor="start" x="96.62" y="-44.5" font-family="Helvetica Neue" font-size="10.00">&#39;app&#45;editors/neovim&#45;0.12.0&#39;</text>
<text text-anchor="start" x="27.62" y="-26.5" font-family="Helvetica Neue" font-size="10.00" fill="#999999"> &#160;</text>
<text text-anchor="start" x="96.62" y="-26.5" font-family="Helvetica Neue" font-size="10.00" fill="#999999">... 30,000+ entries</text>
</g>
<!-- class_def&#45;&gt;portage_state -->
<g id="edge1" class="edge">
<title>class_def&#45;&gt;portage_state</title>
<path fill="none" stroke="black" stroke-dasharray="5,2" d="M112.98,-287.89C105.15,-277.08 98.37,-265.42 93.75,-253.25 89.42,-241.83 88.01,-229.7 88.57,-217.53"/>
<polygon fill="black" stroke="black" points="92.03,-218.16 89.47,-207.87 85.06,-217.51 92.03,-218.16"/>
<text text-anchor="middle" x="157.88" y="-244.7" font-family="Helvetica Neue" font-size="9.00">portage:newinstance(repository)</text>
</g>
<!-- overlay_state -->
<g id="node3" class="node">
<title>overlay_state</title>
<polygon fill="#d4edda" stroke="black" points="570.38,-188 341.62,-188 341.62,-34 570.38,-34 570.38,-188"/>
<text text-anchor="start" x="353.62" y="-170.5" font-family="Helvetica Neue" font-size="10.00" fill="#228b22">path</text>
<text text-anchor="start" x="425.62" y="-170.5" font-family="Helvetica Neue" font-size="10.00">&#39;/var/db/repos/myoverlay&#39;</text>
<text text-anchor="start" x="353.62" y="-152.5" font-family="Helvetica Neue" font-size="10.00" fill="#228b22">cache_path</text>
<text text-anchor="start" x="425.62" y="-152.5" font-family="Helvetica Neue" font-size="10.00">&#39;.../md5&#45;cache&#39;</text>
<text text-anchor="start" x="353.62" y="-134.5" font-family="Helvetica Neue" font-size="10.00" fill="#228b22">remote</text>
<text text-anchor="start" x="425.62" y="-134.5" font-family="Helvetica Neue" font-size="10.00">&#39;/var/db/repos/myoverlay/&#39;</text>
<text text-anchor="start" x="353.62" y="-116.5" font-family="Helvetica Neue" font-size="10.00" fill="#228b22">protocol</text>
<text text-anchor="start" x="425.62" y="-116.5" font-family="Helvetica Neue" font-size="10.00">rsync</text>
<text text-anchor="start" x="353.62" y="-98.5" font-family="Helvetica Neue" font-size="10.00" fill="#cc0000">type</text>
<text text-anchor="start" x="425.62" y="-98.5" font-family="Helvetica Neue" font-size="10.00">eapi</text>
<text text-anchor="start" x="353.62" y="-80.5" font-family="Helvetica Neue" font-size="10.00" fill="#666666">─────────────────────</text>
<text text-anchor="start" x="353.62" y="-62.5" font-family="Helvetica Neue" font-size="10.00" fill="#333333">entry</text>
<text text-anchor="start" x="425.62" y="-62.5" font-family="Helvetica Neue" font-size="10.00">&#39;dev&#45;libs/custom&#45;lib&#45;1.0&#39;</text>
<text text-anchor="start" x="353.62" y="-44.5" font-family="Helvetica Neue" font-size="10.00" fill="#333333">entry</text>
<text text-anchor="start" x="425.62" y="-44.5" font-family="Helvetica Neue" font-size="10.00">&#39;app&#45;misc/my&#45;tool&#45;0.5&#39;</text>
</g>
<!-- class_def&#45;&gt;overlay_state -->
<g id="edge2" class="edge">
<title>class_def&#45;&gt;overlay_state</title>
<path fill="none" stroke="black" stroke-dasharray="5,2" d="M223.06,-271.04C229.58,-260.66 236.9,-250.68 245,-242 249.02,-237.7 288.18,-213.3 331.7,-186.79"/>
<polygon fill="black" stroke="black" points="333.32,-189.9 340.04,-181.71 329.68,-183.92 333.32,-189.9"/>
<text text-anchor="middle" x="314" y="-244.7" font-family="Helvetica Neue" font-size="9.00">myoverlay:newinstance(repository)</text>
</g>
<!-- prover -->
<g id="node4" class="node">
<title>prover</title>
<polygon fill="#ffd6d6" stroke="black" points="476,-375.25 422,-375.25 422,-339.25 476,-339.25 476,-375.25"/>
<text text-anchor="middle" x="449" y="-353.75" font-family="Helvetica Neue" font-size="10.00">Prover</text>
</g>
<!-- prover&#45;&gt;portage_state -->
<g id="edge3" class="edge">
<title>prover&#45;&gt;portage_state</title>
<path fill="none" stroke="black" d="M444.28,-339.02C436.27,-313.32 417.45,-265.48 383,-242 363.32,-228.58 352.39,-242.14 330,-234 304.55,-224.75 278.81,-212.05 254.66,-198.34"/>
<polygon fill="black" stroke="black" points="256.49,-195.35 246.08,-193.37 252.98,-201.41 256.49,-195.35"/>
<text text-anchor="middle" x="429.25" y="-244.7" font-family="Helvetica Neue" font-size="9.00">portage::entry(E)</text>
</g>
<!-- prover&#45;&gt;overlay_state -->
<g id="edge4" class="edge">
<title>prover&#45;&gt;overlay_state</title>
<path fill="none" stroke="black" d="M453.87,-338.93C459.31,-318.61 467.77,-283.8 471,-253.25 472.84,-235.87 472.5,-217.28 471.07,-199.49"/>
<polygon fill="black" stroke="black" points="474.57,-199.37 470.15,-189.74 467.6,-200.03 474.57,-199.37"/>
<text text-anchor="middle" x="509.16" y="-244.7" font-family="Helvetica Neue" font-size="9.00">myoverlay::entry(E)</text>
</g>
</g>
</svg>
