<?xml version="1.0" encoding="UTF-8" standalone="no"?>
<!DOCTYPE svg PUBLIC "-//W3C//DTD SVG 1.1//EN"
 "http://www.w3.org/Graphics/SVG/1.1/DTD/svg11.dtd">
<!-- Generated by graphviz version 12.2.1 (20241206.2353)
 -->
<!-- Title: gentoo_files Pages: 1 -->
<svg width="1028pt" height="291pt"
 viewBox="0.00 0.00 1028.00 290.50" xmlns="http://www.w3.org/2000/svg" xmlns:xlink="http://www.w3.org/1999/xlink">
<g id="graph0" class="graph" transform="scale(1 1) rotate(0) translate(4 286.5)">
<title>gentoo_files</title>
<polygon fill="white" stroke="none" points="-4,4 -4,-286.5 1024,-286.5 1024,4 -4,4"/>
<g id="clust1" class="cluster">
<title>cluster_etc</title>
<path fill="none" stroke="#4a90d9" d="M492,-26C492,-26 746,-26 746,-26 752,-26 758,-32 758,-38 758,-38 758,-168 758,-168 758,-174 752,-180 746,-180 746,-180 492,-180 492,-180 486,-180 480,-174 480,-168 480,-168 480,-38 480,-38 480,-32 486,-26 492,-26"/>
<text text-anchor="middle" x="516.5" y="-166.5" font-family="Helvetica Neue" font-size="10.00">/etc/portage/</text>
</g>
<g id="clust2" class="cluster">
<title>cluster_profile</title>
<path fill="none" stroke="#9b59b6" d="M218,-8C218,-8 460,-8 460,-8 466,-8 472,-14 472,-20 472,-20 472,-186 472,-186 472,-192 466,-198 460,-198 460,-198 218,-198 218,-198 212,-198 206,-192 206,-186 206,-186 206,-20 206,-20 206,-14 212,-8 218,-8"/>
<text text-anchor="middle" x="260.5" y="-184.5" font-family="Helvetica Neue" font-size="10.00">/usr/portage/profiles/</text>
</g>
<g id="clust3" class="cluster">
<title>cluster_vdb</title>
<path fill="none" stroke="#e67e22" d="M20,-26C20,-26 186,-26 186,-26 192,-26 198,-32 198,-38 198,-38 198,-168 198,-168 198,-174 192,-180 186,-180 186,-180 20,-180 20,-180 14,-180 8,-174 8,-168 8,-168 8,-38 8,-38 8,-32 14,-26 20,-26"/>
<text text-anchor="middle" x="43.38" y="-166.5" font-family="Helvetica Neue" font-size="10.00">/var/db/pkg/</text>
</g>
<g id="clust4" class="cluster">
<title>cluster_tree</title>
<path fill="none" stroke="#27ae60" d="M778,-44C778,-44 1000,-44 1000,-44 1006,-44 1012,-50 1012,-56 1012,-56 1012,-150 1012,-150 1012,-156 1006,-162 1000,-162 1000,-162 778,-162 778,-162 772,-162 766,-156 766,-150 766,-150 766,-56 766,-56 766,-50 772,-44 778,-44"/>
<text text-anchor="middle" x="802.5" y="-148.5" font-family="Helvetica Neue" font-size="10.00">/usr/portage/</text>
</g>
<!-- root -->
<g id="node1" class="node">
<title>root</title>
<polygon fill="#e8e8e8" stroke="black" points="455,-282.5 452,-286.5 431,-286.5 428,-282.5 401,-282.5 401,-246.5 455,-246.5 455,-282.5"/>
<text text-anchor="middle" x="428" y="-261" font-family="Helvetica Neue" font-size="10.00">/</text>
</g>
<!-- etc_files -->
<g id="node2" class="node">
<title>etc_files</title>
<polygon fill="#d4edda" stroke="black" points="749.88,-152 488.12,-152 488.12,-34 749.88,-34 749.88,-152"/>
<text text-anchor="start" x="500.12" y="-134.5" font-family="Helvetica Neue" font-size="10.00">make.conf</text>
<text text-anchor="start" x="626.12" y="-134.5" font-family="Helvetica Neue" font-size="10.00" fill="#888888">USE, keywords, licenses</text>
<text text-anchor="start" x="500.12" y="-116.5" font-family="Helvetica Neue" font-size="10.00">package.use/</text>
<text text-anchor="start" x="626.12" y="-116.5" font-family="Helvetica Neue" font-size="10.00" fill="#888888">per&#45;package USE</text>
<text text-anchor="start" x="500.12" y="-98.5" font-family="Helvetica Neue" font-size="10.00">package.mask</text>
<text text-anchor="start" x="626.12" y="-98.5" font-family="Helvetica Neue" font-size="10.00" fill="#888888">user masks</text>
<text text-anchor="start" x="500.12" y="-80.5" font-family="Helvetica Neue" font-size="10.00">package.unmask</text>
<text text-anchor="start" x="626.12" y="-80.5" font-family="Helvetica Neue" font-size="10.00" fill="#888888">override profile masks</text>
<text text-anchor="start" x="500.12" y="-62.5" font-family="Helvetica Neue" font-size="10.00">package.accept_keywords</text>
<text text-anchor="start" x="626.12" y="-62.5" font-family="Helvetica Neue" font-size="10.00" fill="#888888">keyword acceptance</text>
<text text-anchor="start" x="500.12" y="-44.5" font-family="Helvetica Neue" font-size="10.00">package.license</text>
<text text-anchor="start" x="626.12" y="-44.5" font-family="Helvetica Neue" font-size="10.00" fill="#888888">license acceptance</text>
</g>
<!-- root&#45;&gt;etc_files -->
<g id="edge1" class="edge">
<title>root&#45;&gt;etc_files</title>
<path fill="none" stroke="black" d="M435.48,-246.09C441.4,-233.8 450.61,-217.53 462.25,-206 467.27,-201.03 470.08,-201.86 476,-198 481.78,-194.23 487.64,-190.33 493.53,-186.33"/>
<polygon fill="black" stroke="black" points="495.27,-189.38 501.55,-180.85 491.32,-183.61 495.27,-189.38"/>
<text text-anchor="middle" x="474.62" y="-219.95" font-family="Helvetica Neue" font-size="9.00">user</text>
<text text-anchor="middle" x="474.62" y="-208.7" font-family="Helvetica Neue" font-size="9.00">config</text>
</g>
<!-- profile_files -->
<g id="node3" class="node">
<title>profile_files</title>
<polygon fill="#e2d9f3" stroke="black" points="463.88,-170 214.12,-170 214.12,-16 463.88,-16 463.88,-170"/>
<text text-anchor="start" x="226.12" y="-152.5" font-family="Helvetica Neue" font-size="10.00">default/linux/amd64/23.0/</text>
<text text-anchor="start" x="226.12" y="-134.5" font-family="Helvetica Neue" font-size="10.00" fill="#666666"> &#160;</text>
<text text-anchor="start" x="226.12" y="-116.5" font-family="Helvetica Neue" font-size="10.00">parent</text>
<text text-anchor="start" x="343.12" y="-116.5" font-family="Helvetica Neue" font-size="10.00" fill="#888888">profile inheritance chain</text>
<text text-anchor="start" x="226.12" y="-98.5" font-family="Helvetica Neue" font-size="10.00">make.defaults</text>
<text text-anchor="start" x="343.12" y="-98.5" font-family="Helvetica Neue" font-size="10.00" fill="#888888">baseline USE, env</text>
<text text-anchor="start" x="226.12" y="-80.5" font-family="Helvetica Neue" font-size="10.00">package.mask</text>
<text text-anchor="start" x="343.12" y="-80.5" font-family="Helvetica Neue" font-size="10.00" fill="#888888">profile&#45;level masks</text>
<text text-anchor="start" x="226.12" y="-62.5" font-family="Helvetica Neue" font-size="10.00">use.mask / use.force</text>
<text text-anchor="start" x="343.12" y="-62.5" font-family="Helvetica Neue" font-size="10.00" fill="#888888">USE constraints</text>
<text text-anchor="start" x="226.12" y="-44.5" font-family="Helvetica Neue" font-size="10.00">package.use</text>
<text text-anchor="start" x="343.12" y="-44.5" font-family="Helvetica Neue" font-size="10.00" fill="#888888">profile USE overrides</text>
<text text-anchor="start" x="226.12" y="-26.5" font-family="Helvetica Neue" font-size="10.00">license_groups</text>
<text text-anchor="start" x="343.12" y="-26.5" font-family="Helvetica Neue" font-size="10.00" fill="#888888">license group definitions</text>
</g>
<!-- root&#45;&gt;profile_files -->
<g id="edge2" class="edge">
<title>root&#45;&gt;profile_files</title>
<path fill="none" stroke="black" d="M400.66,-256.8C385.45,-251.63 367.57,-242.86 357.25,-228.5 352.83,-222.35 349.23,-215.62 346.32,-208.56"/>
<polygon fill="black" stroke="black" points="349.71,-207.65 343.04,-199.42 343.12,-210.02 349.71,-207.65"/>
<text text-anchor="middle" x="369.62" y="-214.32" font-family="Helvetica Neue" font-size="9.00">profile</text>
</g>
<!-- vdb_files -->
<g id="node4" class="node">
<title>vdb_files</title>
<polygon fill="#fff3cd" stroke="black" points="190.38,-152 15.62,-152 15.62,-34 190.38,-34 190.38,-152"/>
<text text-anchor="start" x="27.62" y="-134.5" font-family="Helvetica Neue" font-size="10.00">sys&#45;apps/portage&#45;2.3.99/</text>
<text text-anchor="start" x="27.62" y="-116.5" font-family="Helvetica Neue" font-size="10.00" fill="#888888"> &#160;DEPEND &#160;RDEPEND &#160;PDEPEND</text>
<text text-anchor="start" x="27.62" y="-98.5" font-family="Helvetica Neue" font-size="10.00" fill="#888888"> &#160;USE &#160;SLOT &#160;KEYWORDS</text>
<text text-anchor="start" x="27.62" y="-80.5" font-family="Helvetica Neue" font-size="10.00" fill="#888888"> &#160;CONTENTS &#160;BUILD_TIME &#160;SIZE</text>
<text text-anchor="start" x="27.62" y="-62.5" font-family="Helvetica Neue" font-size="10.00">dev&#45;lang/python&#45;3.12.9/</text>
<text text-anchor="start" x="27.62" y="-44.5" font-family="Helvetica Neue" font-size="10.00" fill="#999999"> &#160;...</text>
</g>
<!-- root&#45;&gt;vdb_files -->
<g id="edge3" class="edge">
<title>root&#45;&gt;vdb_files</title>
<path fill="none" stroke="black" d="M400.71,-260.36C356.22,-254.24 266.56,-237.67 202,-198 196.55,-194.65 191.2,-190.93 185.98,-186.94"/>
<polygon fill="black" stroke="black" points="188.5,-184.47 178.51,-180.95 184.11,-189.93 188.5,-184.47"/>
<text text-anchor="middle" x="284.53" y="-219.95" font-family="Helvetica Neue" font-size="9.00">installed</text>
<text text-anchor="middle" x="284.53" y="-208.7" font-family="Helvetica Neue" font-size="9.00">packages</text>
</g>
<!-- tree_files -->
<g id="node5" class="node">
<title>tree_files</title>
<polygon fill="#d4edda" stroke="black" points="1004.12,-134 773.88,-134 773.88,-52 1004.12,-52 1004.12,-134"/>
<text text-anchor="start" x="785.88" y="-116.5" font-family="Helvetica Neue" font-size="10.00">metadata/md5&#45;cache/</text>
<text text-anchor="start" x="888.62" y="-116.5" font-family="Helvetica Neue" font-size="10.00" fill="#888888">precomputed metadata</text>
<text text-anchor="start" x="785.88" y="-98.5" font-family="Helvetica Neue" font-size="10.00">sys&#45;apps/portage/</text>
<text text-anchor="start" x="888.62" y="-98.5" font-family="Helvetica Neue" font-size="10.00" fill="#888888">ebuilds</text>
<text text-anchor="start" x="785.88" y="-80.5" font-family="Helvetica Neue" font-size="10.00">dev&#45;lang/python/</text>
<text text-anchor="start" x="888.62" y="-80.5" font-family="Helvetica Neue" font-size="10.00" fill="#888888">ebuilds</text>
<text text-anchor="start" x="785.88" y="-62.5" font-family="Helvetica Neue" font-size="10.00" fill="#999999">... 30,000+ packages</text>
</g>
<!-- root&#45;&gt;tree_files -->
<g id="edge4" class="edge">
<title>root&#45;&gt;tree_files</title>
<path fill="none" stroke="black" d="M455.25,-256.04C481.77,-248.49 519.94,-236.78 533,-228.5 544.68,-221.1 541.89,-211.68 554.5,-206 596.57,-187.04 718.85,-214.36 762,-198 780,-191.18 797.34,-180.72 813.11,-169.01"/>
<polygon fill="black" stroke="black" points="815.23,-171.8 821.02,-162.92 810.96,-166.25 815.23,-171.8"/>
<text text-anchor="middle" x="573.25" y="-219.95" font-family="Helvetica Neue" font-size="9.00">available</text>
<text text-anchor="middle" x="573.25" y="-208.7" font-family="Helvetica Neue" font-size="9.00">packages</text>
</g>
<!-- png -->
<g id="node6" class="node">
<title>png</title>
<polygon fill="#ffd6d6" stroke="black" stroke-width="2" points="569.75,-282.5 504.25,-282.5 504.25,-246.5 569.75,-246.5 569.75,-282.5"/>
<text text-anchor="middle" x="537" y="-261" font-family="Helvetica Neue" font-size="10.00">portage&#45;ng</text>
</g>
<!-- png&#45;&gt;etc_files -->
<g id="edge5" class="edge">
<title>png&#45;&gt;etc_files</title>
<path fill="none" stroke="#4a90d9" stroke-width="2" d="M570.05,-250.44C579.81,-245.05 589.59,-237.82 596,-228.5 608.98,-209.63 615.43,-185.83 618.44,-163.52"/>
<polygon fill="#4a90d9" stroke="#4a90d9" stroke-width="2" points="621.72,-165.7 619.35,-155.38 614.76,-164.93 621.72,-165.7"/>
<text text-anchor="middle" x="617.37" y="-214.32" font-family="Helvetica Neue" font-size="9.00">reads</text>
</g>
<!-- png&#45;&gt;profile_files -->
<g id="edge6" class="edge">
<title>png&#45;&gt;profile_files</title>
<path fill="none" stroke="#9b59b6" stroke-width="2" d="M523.71,-246.23C514.13,-234.31 500.56,-218.43 487,-206 482.54,-201.92 480.85,-201.61 476,-198 466.92,-191.25 457.52,-184.22 448.11,-177.14"/>
<polygon fill="#9b59b6" stroke="#9b59b6" stroke-width="2" points="451.6,-175.39 441.5,-172.17 447.38,-180.98 451.6,-175.39"/>
<text text-anchor="middle" x="518.31" y="-214.32" font-family="Helvetica Neue" font-size="9.00">reads</text>
</g>
<!-- png&#45;&gt;vdb_files -->
<g id="edge7" class="edge">
<title>png&#45;&gt;vdb_files</title>
<path fill="none" stroke="#e67e22" stroke-width="2" d="M503.79,-255.82C480,-249.77 447.5,-240.39 420.25,-228.5 402.17,-220.61 400.91,-211.6 382,-206 343.61,-194.62 238.44,-214.59 202,-198 183.24,-189.46 166.27,-175.59 151.89,-160.72"/>
<polygon fill="#e67e22" stroke="#e67e22" stroke-width="2" points="155.59,-159.56 146.23,-154.6 150.46,-164.32 155.59,-159.56"/>
<text text-anchor="middle" x="431.12" y="-214.32" font-family="Helvetica Neue" font-size="9.00">reads</text>
</g>
<!-- png&#45;&gt;tree_files -->
<g id="edge8" class="edge">
<title>png&#45;&gt;tree_files</title>
<path fill="none" stroke="#27ae60" stroke-width="2" d="M570.24,-258.15C615.59,-249.92 698.46,-231.46 762,-198 790.17,-183.16 817.94,-161.47 840.3,-141.73"/>
<polygon fill="#27ae60" stroke="#27ae60" stroke-width="2" points="841.24,-145.59 846.34,-136.3 836.56,-140.38 841.24,-145.59"/>
<text text-anchor="middle" x="755.89" y="-214.32" font-family="Helvetica Neue" font-size="9.00">reads</text>
</g>
</g>
</svg>
