<?xml version="1.0" encoding="UTF-8" standalone="no"?>
<!DOCTYPE svg PUBLIC "-//W3C//DTD SVG 1.1//EN"
 "http://www.w3.org/Graphics/SVG/1.1/DTD/svg11.dtd">
<!-- Generated by graphviz version 12.2.1 (20241206.2353)
 -->
<!-- Title: sync_architecture Pages: 1 -->
<svg width="576pt" height="354pt"
 viewBox="0.00 0.00 576.24 353.50" xmlns="http://www.w3.org/2000/svg" xmlns:xlink="http://www.w3.org/1999/xlink">
<g id="graph0" class="graph" transform="scale(1 1) rotate(0) translate(4 349.5)">
<title>sync_architecture</title>
<polygon fill="white" stroke="none" points="-4,4 -4,-349.5 572.24,-349.5 572.24,4 -4,4"/>
<g id="clust1" class="cluster">
<title>cluster_repos</title>
<polygon fill="none" stroke="#888888" stroke-dasharray="5,2" points="8,-94.5 8,-166.5 350,-166.5 350,-94.5 8,-94.5"/>
<text text-anchor="middle" x="67.75" y="-153" font-family="Helvetica Neue" font-size="10.00">Registered repositories</text>
</g>
<!-- cli -->
<g id="node1" class="node">
<title>cli</title>
<polygon fill="#e8e8e8" stroke="black" points="339.62,-345.5 270.38,-345.5 270.38,-309.5 339.62,-309.5 339.62,-345.5"/>
<text text-anchor="middle" x="305" y="-330" font-family="Helvetica Neue" font-size="10.00">CLI</text>
<text text-anchor="middle" x="305" y="-318" font-family="Helvetica Neue" font-size="10.00">(interface.pl)</text>
</g>
<!-- kb -->
<g id="node2" class="node">
<title>kb</title>
<polygon fill="#b3d9ff" stroke="black" stroke-width="2" points="356.12,-239.75 253.88,-239.75 253.88,-203.75 356.12,-203.75 356.12,-239.75"/>
<text text-anchor="middle" x="305" y="-224.25" font-family="Helvetica Neue" font-size="10.00">Knowledge Base</text>
<text text-anchor="middle" x="305" y="-212.25" font-family="Helvetica Neue" font-size="10.00">(knowledgebase.pl)</text>
</g>
<!-- cli&#45;&gt;kb -->
<g id="edge1" class="edge">
<title>cli&#45;&gt;kb</title>
<path fill="none" stroke="black" d="M305,-309.37C305,-293.6 305,-269.9 305,-251.28"/>
<polygon fill="black" stroke="black" points="308.5,-251.42 305,-241.42 301.5,-251.42 308.5,-251.42"/>
<text text-anchor="middle" x="339.5" y="-282.95" font-family="Helvetica Neue" font-size="9.00">&#45;&#45;sync</text>
<text text-anchor="middle" x="339.5" y="-271.7" font-family="Helvetica Neue" font-size="9.00">&#45;&#45;sync portage</text>
<text text-anchor="middle" x="339.5" y="-260.45" font-family="Helvetica Neue" font-size="9.00">&#45;&#45;sync myoverlay</text>
</g>
<!-- portage -->
<g id="node3" class="node">
<title>portage</title>
<polygon fill="#d4edda" stroke="black" points="341.5,-138.5 268.5,-138.5 268.5,-134.5 264.5,-134.5 264.5,-130.5 268.5,-130.5 268.5,-110.5 264.5,-110.5 264.5,-106.5 268.5,-106.5 268.5,-102.5 341.5,-102.5 341.5,-138.5"/>
<polyline fill="none" stroke="black" points="268.5,-134.5 272.5,-134.5 272.5,-130.5 268.5,-130.5"/>
<polyline fill="none" stroke="black" points="268.5,-110.5 272.5,-110.5 272.5,-106.5 268.5,-106.5"/>
<text text-anchor="middle" x="305" y="-123" font-family="Helvetica Neue" font-size="10.00">portage</text>
<text text-anchor="middle" x="305" y="-111" font-family="Helvetica Neue" font-size="10.00">(Gentoo tree)</text>
</g>
<!-- kb&#45;&gt;portage -->
<g id="edge2" class="edge">
<title>kb&#45;&gt;portage</title>
<path fill="none" stroke="black" d="M305,-203.46C305,-188.82 305,-167.53 305,-150.32"/>
<polygon fill="black" stroke="black" points="308.5,-150.44 305,-140.44 301.5,-150.44 308.5,-150.44"/>
<text text-anchor="middle" x="314.38" y="-177.2" font-family="Helvetica Neue" font-size="9.00">sync</text>
</g>
<!-- overlay -->
<g id="node4" class="node">
<title>overlay</title>
<polygon fill="#d4edda" stroke="black" points="90.25,-138.5 15.75,-138.5 15.75,-134.5 11.75,-134.5 11.75,-130.5 15.75,-130.5 15.75,-110.5 11.75,-110.5 11.75,-106.5 15.75,-106.5 15.75,-102.5 90.25,-102.5 90.25,-138.5"/>
<polyline fill="none" stroke="black" points="15.75,-134.5 19.75,-134.5 19.75,-130.5 15.75,-130.5"/>
<polyline fill="none" stroke="black" points="15.75,-110.5 19.75,-110.5 19.75,-106.5 15.75,-106.5"/>
<text text-anchor="middle" x="53" y="-123" font-family="Helvetica Neue" font-size="10.00">myoverlay</text>
<text text-anchor="middle" x="53" y="-111" font-family="Helvetica Neue" font-size="10.00">(user overlay)</text>
</g>
<!-- kb&#45;&gt;overlay -->
<g id="edge3" class="edge">
<title>kb&#45;&gt;overlay</title>
<path fill="none" stroke="black" d="M253.68,-215.28C210.03,-208.82 146.98,-195.08 99,-166.5 90.31,-161.32 82.01,-154.18 74.91,-147.1"/>
<polygon fill="black" stroke="black" points="77.65,-144.9 68.22,-140.05 72.57,-149.72 77.65,-144.9"/>
<text text-anchor="middle" x="144.63" y="-177.2" font-family="Helvetica Neue" font-size="9.00">sync</text>
</g>
<!-- pkg -->
<g id="node5" class="node">
<title>pkg</title>
<polygon fill="#fff3cd" stroke="black" points="162,-138.5 108,-138.5 108,-134.5 104,-134.5 104,-130.5 108,-130.5 108,-110.5 104,-110.5 104,-106.5 108,-106.5 108,-102.5 162,-102.5 162,-138.5"/>
<polyline fill="none" stroke="black" points="108,-134.5 112,-134.5 112,-130.5 108,-130.5"/>
<polyline fill="none" stroke="black" points="108,-110.5 112,-110.5 112,-106.5 108,-106.5"/>
<text text-anchor="middle" x="135" y="-123" font-family="Helvetica Neue" font-size="10.00">pkg</text>
<text text-anchor="middle" x="135" y="-111" font-family="Helvetica Neue" font-size="10.00">(VDB)</text>
</g>
<!-- kb&#45;&gt;pkg -->
<g id="edge4" class="edge">
<title>kb&#45;&gt;pkg</title>
<path fill="none" stroke="black" d="M253.47,-206.76C227.14,-197.97 195.55,-184.79 171,-166.5 164.05,-161.32 157.68,-154.5 152.3,-147.73"/>
<polygon fill="black" stroke="black" points="155.27,-145.86 146.5,-139.92 149.65,-150.03 155.27,-145.86"/>
<text text-anchor="middle" x="210.54" y="-177.2" font-family="Helvetica Neue" font-size="9.00">sync</text>
</g>
<!-- distfiles -->
<g id="node6" class="node">
<title>distfiles</title>
<polygon fill="#f0f0f0" stroke="black" points="250,-138.5 180,-138.5 180,-134.5 176,-134.5 176,-130.5 180,-130.5 180,-110.5 176,-110.5 176,-106.5 180,-106.5 180,-102.5 250,-102.5 250,-138.5"/>
<polyline fill="none" stroke="black" points="180,-134.5 184,-134.5 184,-130.5 180,-130.5"/>
<polyline fill="none" stroke="black" points="180,-110.5 184,-110.5 184,-106.5 180,-106.5"/>
<text text-anchor="middle" x="215" y="-123" font-family="Helvetica Neue" font-size="10.00">distfiles</text>
<text text-anchor="middle" x="215" y="-111" font-family="Helvetica Neue" font-size="10.00">(local mirror)</text>
</g>
<!-- kb&#45;&gt;distfiles -->
<g id="edge5" class="edge">
<title>kb&#45;&gt;distfiles</title>
<path fill="none" stroke="black" stroke-dasharray="5,2" d="M289.32,-203.46C275.21,-187.9 254.29,-164.83 238.24,-147.13"/>
<polygon fill="black" stroke="black" points="241.13,-145.1 231.82,-140.04 235.94,-149.8 241.13,-145.1"/>
<text text-anchor="middle" x="280.08" y="-177.2" font-family="Helvetica Neue" font-size="9.00">sync</text>
</g>
<!-- profile -->
<g id="node7" class="node">
<title>profile</title>
<polygon fill="#e2d9f3" stroke="black" points="418.75,-138.5 359.25,-138.5 359.25,-102.5 418.75,-102.5 418.75,-138.5"/>
<text text-anchor="middle" x="389" y="-123" font-family="Helvetica Neue" font-size="10.00">Profile</text>
<text text-anchor="middle" x="389" y="-111" font-family="Helvetica Neue" font-size="10.00">(profile.pl)</text>
</g>
<!-- kb&#45;&gt;profile -->
<g id="edge7" class="edge">
<title>kb&#45;&gt;profile</title>
<path fill="none" stroke="black" d="M321.22,-203.45C330.93,-192.93 343.4,-179.14 354,-166.5 359.04,-160.49 364.32,-153.88 369.2,-147.63"/>
<polygon fill="black" stroke="black" points="371.73,-150.08 375.07,-140.03 366.19,-145.8 371.73,-150.08"/>
<text text-anchor="middle" x="369.11" y="-177.2" font-family="Helvetica Neue" font-size="9.00">sync profile</text>
</g>
<!-- kbqlf -->
<g id="node9" class="node">
<title>kbqlf</title>
<polygon fill="#fffacd" stroke="black" points="525.38,-138.5 436.62,-138.5 436.62,-102.5 531.38,-102.5 531.38,-132.5 525.38,-138.5"/>
<polyline fill="none" stroke="black" points="525.38,-138.5 525.38,-132.5"/>
<polyline fill="none" stroke="black" points="531.38,-132.5 525.38,-132.5"/>
<text text-anchor="middle" x="484" y="-117" font-family="Helvetica Neue" font-size="10.00">Knowledge/kb.qlf</text>
</g>
<!-- kb&#45;&gt;kbqlf -->
<g id="edge6" class="edge">
<title>kb&#45;&gt;kbqlf</title>
<path fill="none" stroke="black" d="M354.79,-203.4C368.36,-198.19 382.92,-192.14 396,-185.75 410.91,-178.47 414.39,-176 428,-166.5 437.01,-160.21 446.46,-152.92 454.97,-146.06"/>
<polygon fill="black" stroke="black" points="457.08,-148.86 462.6,-139.81 452.64,-143.44 457.08,-148.86"/>
<text text-anchor="middle" x="425.23" y="-177.2" font-family="Helvetica Neue" font-size="9.00">save</text>
</g>
<!-- preference -->
<g id="node8" class="node">
<title>preference</title>
<polygon fill="#e2d9f3" stroke="black" points="566.88,-44 493.12,-44 493.12,0 566.88,0 566.88,-44"/>
<text text-anchor="middle" x="530" y="-30.5" font-family="Helvetica Neue" font-size="10.00">Preference</text>
<text text-anchor="middle" x="530" y="-18.5" font-family="Helvetica Neue" font-size="10.00">(userconfig +</text>
<text text-anchor="middle" x="530" y="-6.5" font-family="Helvetica Neue" font-size="10.00">fallback)</text>
</g>
<!-- profile&#45;&gt;preference -->
<g id="edge9" class="edge">
<title>profile&#45;&gt;preference</title>
<path fill="none" stroke="black" d="M414.53,-102.02C435.41,-87.74 465.32,-67.27 489.47,-50.74"/>
<polygon fill="black" stroke="black" points="491.22,-53.78 497.49,-45.25 487.26,-48.01 491.22,-53.78"/>
<text text-anchor="middle" x="497.25" y="-75.95" font-family="Helvetica Neue" font-size="9.00">USE, masks,</text>
<text text-anchor="middle" x="497.25" y="-64.7" font-family="Helvetica Neue" font-size="9.00">keywords</text>
</g>
<!-- profqlf -->
<g id="node10" class="node">
<title>profqlf</title>
<polygon fill="#fffacd" stroke="black" points="438.62,-40 333.38,-40 333.38,-4 444.62,-4 444.62,-34 438.62,-40"/>
<polyline fill="none" stroke="black" points="438.62,-40 438.62,-34"/>
<polyline fill="none" stroke="black" points="444.62,-34 438.62,-34"/>
<text text-anchor="middle" x="389" y="-18.5" font-family="Helvetica Neue" font-size="10.00">Knowledge/profile.qlf</text>
</g>
<!-- profile&#45;&gt;profqlf -->
<g id="edge8" class="edge">
<title>profile&#45;&gt;profqlf</title>
<path fill="none" stroke="black" d="M389,-102.25C389,-88.2 389,-68.08 389,-51.62"/>
<polygon fill="black" stroke="black" points="392.5,-51.94 389,-41.94 385.5,-51.94 392.5,-51.94"/>
<text text-anchor="middle" x="398" y="-70.33" font-family="Helvetica Neue" font-size="9.00">save</text>
</g>
<!-- prover -->
<g id="node11" class="node">
<title>prover</title>
<polygon fill="#ffd6d6" stroke="black" points="521.62,-345.5 434.38,-345.5 434.38,-309.5 521.62,-309.5 521.62,-345.5"/>
<text text-anchor="middle" x="478" y="-330" font-family="Helvetica Neue" font-size="10.00">Prover / Planner</text>
<text text-anchor="middle" x="478" y="-318" font-family="Helvetica Neue" font-size="10.00">(pipeline.pl)</text>
</g>
<!-- prover&#45;&gt;kb -->
<g id="edge10" class="edge">
<title>prover&#45;&gt;kb</title>
<path fill="none" stroke="black" d="M445.65,-302.36C426.46,-288.53 401.4,-271.29 378,-257.75 367.3,-251.55 355.32,-245.48 344.22,-240.18"/>
<polygon fill="black" stroke="black" points="443.46,-305.1 453.61,-308.15 447.58,-299.44 443.46,-305.1"/>
<text text-anchor="middle" x="439.45" y="-271.7" font-family="Helvetica Neue" font-size="9.00">query</text>
</g>
<!-- prover&#45;&gt;preference -->
<g id="edge11" class="edge">
<title>prover&#45;&gt;preference</title>
<path fill="none" stroke="black" d="M492.13,-299.32C507.43,-268.2 530.89,-215.22 540,-166.5 545.88,-135.05 542.22,-126.42 540,-94.5 538.82,-77.49 536.07,-58.38 533.75,-44.19"/>
<polygon fill="black" stroke="black" points="489.12,-297.51 487.77,-308.02 495.37,-300.65 489.12,-297.51"/>
<text text-anchor="middle" x="553.24" y="-177.2" font-family="Helvetica Neue" font-size="9.00">consult</text>
</g>
</g>
</svg>
