<?xml version="1.0" encoding="UTF-8" standalone="no"?>
<!DOCTYPE svg PUBLIC "-//W3C//DTD SVG 1.1//EN"
 "http://www.w3.org/Graphics/SVG/1.1/DTD/svg11.dtd">
<!-- Generated by graphviz version 12.2.1 (20241206.2353)
 -->
<!-- Title: vdb_architecture Pages: 1 -->
<svg width="919pt" height="378pt"
 viewBox="0.00 0.00 919.00 378.25" xmlns="http://www.w3.org/2000/svg" xmlns:xlink="http://www.w3.org/1999/xlink">
<g id="graph0" class="graph" transform="scale(1 1) rotate(0) translate(4 374.25)">
<title>vdb_architecture</title>
<polygon fill="white" stroke="none" points="-4,4 -4,-374.25 915,-374.25 915,4 -4,4"/>
<g id="clust1" class="cluster">
<title>cluster_vdb</title>
<polygon fill="none" stroke="#888888" stroke-dasharray="5,2" points="8,-8 8,-275.75 429,-275.75 429,-8 8,-8"/>
<text text-anchor="middle" x="43.38" y="-262.25" font-family="Helvetica Neue" font-size="10.00">/var/db/pkg/</text>
</g>
<g id="clust2" class="cluster">
<title>cluster_cat1</title>
<polygon fill="none" stroke="#aaaaaa" stroke-dasharray="1,5" points="16,-16 16,-174.75 281,-174.75 281,-16 16,-16"/>
<text text-anchor="middle" x="43.88" y="-162.2" font-family="Helvetica Neue" font-size="9.00">sys&#45;apps/</text>
</g>
<g id="clust3" class="cluster">
<title>cluster_cat2</title>
<polygon fill="none" stroke="#aaaaaa" stroke-dasharray="1,5" points="289,-47.5 289,-143.25 421,-143.25 421,-47.5 289,-47.5"/>
<text text-anchor="middle" x="316.12" y="-130.7" font-family="Helvetica Neue" font-size="9.00">dev&#45;lang/</text>
</g>
<g id="clust4" class="cluster">
<title>cluster_facts</title>
<polygon fill="none" stroke="#888888" stroke-dasharray="5,2" points="437,-193.75 437,-285.75 903,-285.75 903,-193.75 437,-193.75"/>
<text text-anchor="middle" x="497.5" y="-272.25" font-family="Helvetica Neue" font-size="10.00">In&#45;memory Prolog facts</text>
</g>
<!-- vdb_root -->
<g id="node1" class="node">
<title>vdb_root</title>
<polygon fill="#fff3cd" stroke="black" points="390.38,-247.75 387.38,-251.75 366.38,-251.75 363.38,-247.75 319.62,-247.75 319.62,-211.75 390.38,-211.75 390.38,-247.75"/>
<text text-anchor="middle" x="355" y="-226.25" font-family="Helvetica Neue" font-size="10.00">/var/db/pkg/</text>
</g>
<!-- pkg1 -->
<g id="node2" class="node">
<title>pkg1</title>
<polygon fill="#fffacd" stroke="black" points="133.5,-147.5 24.5,-147.5 24.5,-24 139.5,-24 139.5,-141.5 133.5,-147.5"/>
<polyline fill="none" stroke="black" points="133.5,-147.5 133.5,-141.5"/>
<polyline fill="none" stroke="black" points="139.5,-141.5 133.5,-141.5"/>
<text text-anchor="middle" x="82" y="-135.9" font-family="Helvetica Neue" font-size="8.00">portage&#45;2.3.99/</text>
<text text-anchor="middle" x="82" y="-125.4" font-family="Helvetica Neue" font-size="8.00">────────────</text>
<text text-anchor="middle" x="82" y="-114.9" font-family="Helvetica Neue" font-size="8.00">DEPEND</text>
<text text-anchor="middle" x="82" y="-104.4" font-family="Helvetica Neue" font-size="8.00">RDEPEND</text>
<text text-anchor="middle" x="82" y="-93.9" font-family="Helvetica Neue" font-size="8.00">PDEPEND</text>
<text text-anchor="middle" x="82" y="-83.4" font-family="Helvetica Neue" font-size="8.00">USE</text>
<text text-anchor="middle" x="82" y="-72.9" font-family="Helvetica Neue" font-size="8.00">SLOT</text>
<text text-anchor="middle" x="82" y="-62.4" font-family="Helvetica Neue" font-size="8.00">KEYWORDS</text>
<text text-anchor="middle" x="82" y="-51.9" font-family="Helvetica Neue" font-size="8.00">CONTENTS</text>
<text text-anchor="middle" x="82" y="-41.4" font-family="Helvetica Neue" font-size="8.00">BUILD_TIME</text>
<text text-anchor="middle" x="82" y="-30.9" font-family="Helvetica Neue" font-size="8.00">SIZE</text>
</g>
<!-- vdb_root&#45;&gt;pkg1 -->
<!-- pkg3 -->
<g id="node4" class="node">
<title>pkg3</title>
<polygon fill="#fffacd" stroke="black" points="406.5,-116 297.5,-116 297.5,-55.5 412.5,-55.5 412.5,-110 406.5,-116"/>
<polyline fill="none" stroke="black" points="406.5,-116 406.5,-110"/>
<polyline fill="none" stroke="black" points="412.5,-110 406.5,-110"/>
<text text-anchor="middle" x="355" y="-104.4" font-family="Helvetica Neue" font-size="8.00">python&#45;3.12.9/</text>
<text text-anchor="middle" x="355" y="-93.9" font-family="Helvetica Neue" font-size="8.00">────────────</text>
<text text-anchor="middle" x="355" y="-83.4" font-family="Helvetica Neue" font-size="8.00">DEPEND</text>
<text text-anchor="middle" x="355" y="-72.9" font-family="Helvetica Neue" font-size="8.00">RDEPEND</text>
<text text-anchor="middle" x="355" y="-62.4" font-family="Helvetica Neue" font-size="8.00">...</text>
</g>
<!-- vdb_root&#45;&gt;pkg3 -->
<!-- pkg2 -->
<g id="node3" class="node">
<title>pkg2</title>
<polygon fill="#fffacd" stroke="black" points="266.5,-116 157.5,-116 157.5,-55.5 272.5,-55.5 272.5,-110 266.5,-116"/>
<polyline fill="none" stroke="black" points="266.5,-116 266.5,-110"/>
<polyline fill="none" stroke="black" points="272.5,-110 266.5,-110"/>
<text text-anchor="middle" x="215" y="-104.4" font-family="Helvetica Neue" font-size="8.00">systemd&#45;256.11/</text>
<text text-anchor="middle" x="215" y="-93.9" font-family="Helvetica Neue" font-size="8.00">────────────</text>
<text text-anchor="middle" x="215" y="-83.4" font-family="Helvetica Neue" font-size="8.00">DEPEND</text>
<text text-anchor="middle" x="215" y="-72.9" font-family="Helvetica Neue" font-size="8.00">RDEPEND</text>
<text text-anchor="middle" x="215" y="-62.4" font-family="Helvetica Neue" font-size="8.00">...</text>
</g>
<!-- sync -->
<g id="node5" class="node">
<title>sync</title>
<polygon fill="#b3d9ff" stroke="black" points="654.38,-370.25 553.62,-370.25 553.62,-334.25 654.38,-334.25 654.38,-370.25"/>
<text text-anchor="middle" x="604" y="-354.75" font-family="Helvetica Neue" font-size="10.00">repository:sync(kb)</text>
<text text-anchor="middle" x="604" y="-342.75" font-family="Helvetica Neue" font-size="10.00">for type vdb</text>
</g>
<!-- sync&#45;&gt;vdb_root -->
<g id="edge3" class="edge">
<title>sync&#45;&gt;vdb_root</title>
<path fill="none" stroke="black" d="M542.66,-331.91C509.34,-320.38 467.93,-304.38 433,-285.75 412.82,-274.99 391.73,-259.85 376.58,-248.17"/>
<polygon fill="black" stroke="black" points="541.15,-335.09 551.74,-335 543.4,-328.46 541.15,-335.09"/>
<text text-anchor="middle" x="514.23" y="-307.7" font-family="Helvetica Neue" font-size="9.00">walk</text>
<text text-anchor="middle" x="514.23" y="-296.45" font-family="Helvetica Neue" font-size="9.00">VDB tree</text>
</g>
<!-- entry -->
<g id="node6" class="node">
<title>entry</title>
<polygon fill="#d4edda" stroke="black" points="895.25,-257.75 742.75,-257.75 742.75,-201.75 895.25,-201.75 895.25,-257.75"/>
<text text-anchor="middle" x="819" y="-244.25" font-family="Helvetica Neue" font-size="10.00">cache:entry/5</text>
<text text-anchor="middle" x="819" y="-232.25" font-family="Helvetica Neue" font-size="10.00">pkg://sys&#45;apps/portage&#45;2.3.99</text>
<text text-anchor="middle" x="819" y="-220.25" font-family="Helvetica Neue" font-size="10.00">pkg://dev&#45;lang/python&#45;3.12.9</text>
<text text-anchor="middle" x="819" y="-208.25" font-family="Helvetica Neue" font-size="10.00">...</text>
</g>
<!-- sync&#45;&gt;entry -->
<g id="edge4" class="edge">
<title>sync&#45;&gt;entry</title>
<path fill="none" stroke="black" d="M631.93,-333.81C639.92,-328.46 648.49,-322.37 656,-316.25 667.09,-307.22 666.18,-300.09 679,-293.75 701.14,-282.8 710.88,-294.44 734,-285.75 748.03,-280.48 762.14,-272.62 774.73,-264.48"/>
<polygon fill="black" stroke="black" points="776.42,-267.56 782.77,-259.08 772.52,-261.75 776.42,-267.56"/>
<text text-anchor="middle" x="691" y="-302.07" font-family="Helvetica Neue" font-size="9.00">assert</text>
</g>
<!-- metadata -->
<g id="node7" class="node">
<title>metadata</title>
<polygon fill="#d4edda" stroke="black" points="724.75,-251.75 587.25,-251.75 587.25,-207.75 724.75,-207.75 724.75,-251.75"/>
<text text-anchor="middle" x="656" y="-238.25" font-family="Helvetica Neue" font-size="10.00">cache:entry_metadata/4</text>
<text text-anchor="middle" x="656" y="-226.25" font-family="Helvetica Neue" font-size="10.00">DEPEND, RDEPEND, USE,</text>
<text text-anchor="middle" x="656" y="-214.25" font-family="Helvetica Neue" font-size="10.00">SLOT, KEYWORDS, ...</text>
</g>
<!-- sync&#45;&gt;metadata -->
<g id="edge5" class="edge">
<title>sync&#45;&gt;metadata</title>
<path fill="none" stroke="black" d="M611.45,-333.99C619.5,-315.33 632.5,-285.21 642.38,-262.31"/>
<polygon fill="black" stroke="black" points="645.46,-264 646.21,-253.44 639.03,-261.23 645.46,-264"/>
<text text-anchor="middle" x="640.44" y="-302.07" font-family="Helvetica Neue" font-size="9.00">assert</text>
</g>
<!-- ordered -->
<g id="node8" class="node">
<title>ordered</title>
<polygon fill="#d4edda" stroke="black" points="569,-247.75 445,-247.75 445,-211.75 569,-211.75 569,-247.75"/>
<text text-anchor="middle" x="507" y="-232.25" font-family="Helvetica Neue" font-size="10.00">cache:ordered_entry/5</text>
<text text-anchor="middle" x="507" y="-220.25" font-family="Helvetica Neue" font-size="10.00">(indexed for fast lookup)</text>
</g>
<!-- sync&#45;&gt;ordered -->
<g id="edge6" class="edge">
<title>sync&#45;&gt;ordered</title>
<path fill="none" stroke="black" d="M586.66,-333.82C581.41,-328.32 575.72,-322.15 570.75,-316.25 554.64,-297.14 537.8,-274.4 525.47,-257.19"/>
<polygon fill="black" stroke="black" points="528.64,-255.61 519.99,-249.48 522.93,-259.66 528.64,-255.61"/>
<text text-anchor="middle" x="592.88" y="-302.07" font-family="Helvetica Neue" font-size="9.00">build index</text>
</g>
<!-- prover -->
<g id="node9" class="node">
<title>prover</title>
<polygon fill="#ffd6d6" stroke="black" points="779,-370.25 725,-370.25 725,-334.25 779,-334.25 779,-370.25"/>
<text text-anchor="middle" x="752" y="-348.75" font-family="Helvetica Neue" font-size="10.00">Prover</text>
</g>
<!-- prover&#45;&gt;entry -->
<g id="edge7" class="edge">
<title>prover&#45;&gt;entry</title>
<path fill="none" stroke="black" d="M761.6,-333.99C771.1,-316.91 785.94,-290.21 798.15,-268.25"/>
<polygon fill="black" stroke="black" points="801.19,-269.99 802.99,-259.55 795.07,-266.59 801.19,-269.99"/>
<text text-anchor="middle" x="798.49" y="-307.7" font-family="Helvetica Neue" font-size="9.00">query</text>
<text text-anchor="middle" x="798.49" y="-296.45" font-family="Helvetica Neue" font-size="9.00">pkg://...</text>
</g>
<!-- prover&#45;&gt;metadata -->
<g id="edge8" class="edge">
<title>prover&#45;&gt;metadata</title>
<path fill="none" stroke="black" d="M738.25,-333.99C723.05,-314.91 698.3,-283.85 679.91,-260.77"/>
<polygon fill="black" stroke="black" points="682.88,-258.87 673.91,-253.23 677.4,-263.23 682.88,-258.87"/>
<text text-anchor="middle" x="734.88" y="-302.07" font-family="Helvetica Neue" font-size="9.00">query</text>
</g>
</g>
</svg>
