<?xml version="1.0" encoding="UTF-8" standalone="no"?>
<!DOCTYPE svg PUBLIC "-//W3C//DTD SVG 1.1//EN"
 "http://www.w3.org/Graphics/SVG/1.1/DTD/svg11.dtd">
<!-- Generated by graphviz version 12.2.1 (20241206.2353)
 -->
<!-- Title: portage_ng_architecture Pages: 1 -->
<svg width="817pt" height="579pt"
 viewBox="0.00 0.00 816.52 579.00" xmlns="http://www.w3.org/2000/svg" xmlns:xlink="http://www.w3.org/1999/xlink">
<g id="graph0" class="graph" transform="scale(1 1) rotate(0) translate(4 575)">
<title>portage_ng_architecture</title>
<polygon fill="white" stroke="none" points="-4,4 -4,-575 812.52,-575 812.52,4 -4,4"/>
<g id="clust1" class="cluster">
<title>cluster_inputs</title>
<polygon fill="none" stroke="#aaaaaa" stroke-dasharray="5,2" points="8,-202 8,-354 88.5,-354 88.5,-202 8,-202"/>
<text text-anchor="middle" x="39.62" y="-343.35" font-family="Helvetica Neue" font-size="7.00" fill="#666666">External inputs</text>
</g>
<g id="clust2" class="cluster">
<title>cluster_ingest</title>
<path fill="none" stroke="#4477aa" d="M125.5,-335C125.5,-335 282,-335 282,-335 288,-335 294,-341 294,-347 294,-347 294,-373 294,-373 294,-379 288,-385 282,-385 282,-385 125.5,-385 125.5,-385 119.5,-385 113.5,-379 113.5,-373 113.5,-373 113.5,-347 113.5,-347 113.5,-341 119.5,-335 125.5,-335"/>
<text text-anchor="middle" x="135.37" y="-374.35" font-family="Helvetica Neue" font-size="7.00" fill="#4477aa">Ingestion</text>
</g>
<g id="clust3" class="cluster">
<title>cluster_config</title>
<path fill="none" stroke="#888888" d="M25.25,-362C25.25,-362 71.25,-362 71.25,-362 77.25,-362 83.25,-368 83.25,-374 83.25,-374 83.25,-450 83.25,-450 83.25,-456 77.25,-462 71.25,-462 71.25,-462 25.25,-462 25.25,-462 19.25,-462 13.25,-456 13.25,-450 13.25,-450 13.25,-374 13.25,-374 13.25,-368 19.25,-362 25.25,-362"/>
<text text-anchor="middle" x="41.87" y="-451.35" font-family="Helvetica Neue" font-size="7.00" fill="#888888">Infrastructure</text>
</g>
<g id="clust4" class="cluster">
<title>cluster_kb</title>
<path fill="none" stroke="#44aa77" d="M125.5,-202C125.5,-202 378.38,-202 378.38,-202 384.38,-202 390.38,-208 390.38,-214 390.38,-214 390.38,-315 390.38,-315 390.38,-321 384.38,-327 378.38,-327 378.38,-327 125.5,-327 125.5,-327 119.5,-327 113.5,-321 113.5,-315 113.5,-315 113.5,-214 113.5,-214 113.5,-208 119.5,-202 125.5,-202"/>
<text text-anchor="middle" x="147.75" y="-316.35" font-family="Helvetica Neue" font-size="7.00" fill="#44aa77">Knowledge Base</text>
</g>
<g id="clust5" class="cluster">
<title>cluster_prover</title>
<path fill="none" stroke="#cc6644" d="M436.14,-162C436.14,-162 693.52,-162 693.52,-162 699.52,-162 705.52,-168 705.52,-174 705.52,-174 705.52,-225 705.52,-225 705.52,-231 699.52,-237 693.52,-237 693.52,-237 436.14,-237 436.14,-237 430.14,-237 424.14,-231 424.14,-225 424.14,-225 424.14,-174 424.14,-174 424.14,-168 430.14,-162 436.14,-162"/>
<text text-anchor="middle" x="442.26" y="-226.35" font-family="Helvetica Neue" font-size="7.00" fill="#cc6644">Prover</text>
</g>
<g id="clust6" class="cluster">
<title>cluster_rules</title>
<path fill="none" stroke="#8855aa" d="M552.52,-54C552.52,-54 788.52,-54 788.52,-54 794.52,-54 800.52,-60 800.52,-66 800.52,-66 800.52,-142 800.52,-142 800.52,-148 794.52,-154 788.52,-154 788.52,-154 552.52,-154 552.52,-154 546.52,-154 540.52,-148 540.52,-142 540.52,-142 540.52,-66 540.52,-66 540.52,-60 546.52,-54 552.52,-54"/>
<text text-anchor="middle" x="571.39" y="-143.35" font-family="Helvetica Neue" font-size="7.00" fill="#8855aa">Rules (domain)</text>
</g>
<g id="clust7" class="cluster">
<title>cluster_pipeline</title>
<path fill="none" stroke="#338866" d="M332.38,-70C332.38,-70 489.52,-70 489.52,-70 495.52,-70 501.52,-76 501.52,-82 501.52,-82 501.52,-135 501.52,-135 501.52,-141 495.52,-147 489.52,-147 489.52,-147 332.38,-147 332.38,-147 326.38,-147 320.38,-141 320.38,-135 320.38,-135 320.38,-82 320.38,-82 320.38,-76 326.38,-70 332.38,-70"/>
<text text-anchor="middle" x="340.75" y="-136.35" font-family="Helvetica Neue" font-size="7.00" fill="#338866">Pipeline</text>
</g>
<g id="clust8" class="cluster">
<title>cluster_network</title>
<path fill="none" stroke="#447799" d="M25.25,-470C25.25,-470 379.76,-470 379.76,-470 385.76,-470 391.76,-476 391.76,-482 391.76,-482 391.76,-533 391.76,-533 391.76,-539 385.76,-545 379.76,-545 379.76,-545 25.25,-545 25.25,-545 19.25,-545 13.25,-539 13.25,-533 13.25,-533 13.25,-482 13.25,-482 13.25,-476 19.25,-470 25.25,-470"/>
<text text-anchor="middle" x="34.37" y="-534.35" font-family="Helvetica Neue" font-size="7.00" fill="#447799">Network</text>
</g>
<g id="clust9" class="cluster">
<title>cluster_output</title>
<path fill="none" stroke="#555555" d="M234.62,-8C234.62,-8 284.37,-8 284.37,-8 290.37,-8 296.37,-14 296.37,-20 296.37,-20 296.37,-146 296.37,-146 296.37,-152 290.37,-158 284.37,-158 284.37,-158 234.62,-158 234.62,-158 228.62,-158 222.62,-152 222.62,-146 222.62,-146 222.62,-20 222.62,-20 222.62,-14 228.62,-8 234.62,-8"/>
<text text-anchor="middle" x="259.5" y="-147.35" font-family="Helvetica Neue" font-size="7.00" fill="#555555">Interface &amp; Output</text>
</g>
<!-- portage_tree -->
<g id="node1" class="node">
<title>portage_tree</title>
<polygon fill="#f0f0f0" stroke="black" points="75.25,-329.69 73.63,-331.84 62.33,-331.84 60.71,-329.69 21.25,-329.69 21.25,-310.31 75.25,-310.31 75.25,-329.69"/>
<text text-anchor="middle" x="48.25" y="-321.6" font-family="Helvetica Neue" font-size="7.00">Portage tree</text>
<text text-anchor="middle" x="48.25" y="-313.35" font-family="Helvetica Neue" font-size="7.00">md5&#45;cache</text>
</g>
<!-- reader -->
<g id="node6" class="node">
<title>reader</title>
<polygon fill="#ddeeff" stroke="black" points="175.5,-361 121.5,-361 121.5,-343 175.5,-343 175.5,-361"/>
<text text-anchor="middle" x="148.5" y="-349.48" font-family="Helvetica Neue" font-size="7.00">reader · parser</text>
</g>
<!-- portage_tree&#45;&gt;reader -->
<g id="edge1" class="edge">
<title>portage_tree&#45;&gt;reader</title>
<path fill="none" stroke="black" d="M75.58,-328.58C88.02,-332.63 102.98,-337.5 116.02,-341.75"/>
<polygon fill="black" stroke="black" points="115.42,-343.02 119.66,-342.93 116.29,-340.36 115.42,-343.02"/>
</g>
<!-- profile_dir -->
<g id="node2" class="node">
<title>profile_dir</title>
<polygon fill="#f0f0f0" stroke="black" points="75.25,-303 73.75,-305 63.25,-305 61.75,-303 21.25,-303 21.25,-285 75.25,-285 75.25,-303"/>
<text text-anchor="middle" x="48.25" y="-291.48" font-family="Helvetica Neue" font-size="7.00">Profiles</text>
</g>
<!-- profile -->
<g id="node16" class="node">
<title>profile</title>
<polygon fill="#c8eac8" stroke="black" points="175.5,-303 121.5,-303 121.5,-285 175.5,-285 175.5,-303"/>
<text text-anchor="middle" x="148.5" y="-291.48" font-family="Helvetica Neue" font-size="7.00">profile</text>
</g>
<!-- profile_dir&#45;&gt;profile -->
<g id="edge3" class="edge">
<title>profile_dir&#45;&gt;profile</title>
<path fill="none" stroke="black" d="M75.58,-294C87.91,-294 102.71,-294 115.67,-294"/>
<polygon fill="black" stroke="black" points="115.58,-295.4 119.58,-294 115.58,-292.6 115.58,-295.4"/>
</g>
<!-- userconf_dir -->
<g id="node3" class="node">
<title>userconf_dir</title>
<polygon fill="#f0f0f0" stroke="black" points="75.25,-278 73.75,-280 63.25,-280 61.75,-278 21.25,-278 21.25,-260 75.25,-260 75.25,-278"/>
<text text-anchor="middle" x="48.25" y="-266.48" font-family="Helvetica Neue" font-size="7.00">/etc/portage</text>
</g>
<!-- userconfig -->
<g id="node17" class="node">
<title>userconfig</title>
<polygon fill="#c8eac8" stroke="black" points="175.5,-278 121.5,-278 121.5,-260 175.5,-260 175.5,-278"/>
<text text-anchor="middle" x="148.5" y="-266.48" font-family="Helvetica Neue" font-size="7.00">userconfig</text>
</g>
<!-- userconf_dir&#45;&gt;userconfig -->
<g id="edge4" class="edge">
<title>userconf_dir&#45;&gt;userconfig</title>
<path fill="none" stroke="black" d="M75.58,-269C87.91,-269 102.71,-269 115.67,-269"/>
<polygon fill="black" stroke="black" points="115.58,-270.4 119.58,-269 115.58,-267.6 115.58,-270.4"/>
</g>
<!-- vdb_tree -->
<g id="node4" class="node">
<title>vdb_tree</title>
<polygon fill="#f0f0f0" stroke="black" points="75.25,-253 73.75,-255 63.25,-255 61.75,-253 21.25,-253 21.25,-235 75.25,-235 75.25,-253"/>
<text text-anchor="middle" x="48.25" y="-241.47" font-family="Helvetica Neue" font-size="7.00">VDB</text>
</g>
<!-- vdb -->
<g id="node13" class="node">
<title>vdb</title>
<polygon fill="#ddf5dd" stroke="black" points="175.5,-253 121.5,-253 121.5,-235 175.5,-235 175.5,-253"/>
<text text-anchor="middle" x="148.5" y="-241.47" font-family="Helvetica Neue" font-size="7.00">vdb</text>
</g>
<!-- vdb_tree&#45;&gt;vdb -->
<g id="edge2" class="edge">
<title>vdb_tree&#45;&gt;vdb</title>
<path fill="none" stroke="black" d="M75.58,-244C87.91,-244 102.71,-244 115.67,-244"/>
<polygon fill="black" stroke="black" points="115.58,-245.4 119.58,-244 115.58,-242.6 115.58,-245.4"/>
</g>
<!-- user_target -->
<g id="node5" class="node">
<title>user_target</title>
<polygon fill="#fff3cd" stroke="black" points="80.5,-221.78 48.25,-228 16,-221.78 16.03,-211.72 80.47,-211.72 80.5,-221.78"/>
<text text-anchor="middle" x="48.25" y="-216.47" font-family="Helvetica Neue" font-size="7.00">User target</text>
</g>
<!-- interface -->
<g id="node37" class="node">
<title>interface</title>
<polygon fill="#eeeeee" stroke="black" points="286,-84 232,-84 232,-66 286,-66 286,-84"/>
<text text-anchor="middle" x="259" y="-72.47" font-family="Helvetica Neue" font-size="7.00">interface · CLI</text>
</g>
<!-- user_target&#45;&gt;interface -->
<g id="edge5" class="edge">
<title>user_target&#45;&gt;interface</title>
<path fill="none" stroke="black" d="M57.3,-211.51C80.97,-189.79 153.08,-125.96 222.62,-88 223.97,-87.27 225.37,-86.56 226.79,-85.87"/>
<polygon fill="black" stroke="black" points="227.27,-87.2 230.34,-84.28 226.12,-84.64 227.27,-87.2"/>
</g>
<!-- eapi -->
<g id="node7" class="node">
<title>eapi</title>
<polygon fill="#ddeeff" stroke="black" points="286,-361 232,-361 232,-343 286,-343 286,-361"/>
<text text-anchor="middle" x="259" y="-349.48" font-family="Helvetica Neue" font-size="7.00">eapi DCG</text>
</g>
<!-- reader&#45;&gt;eapi -->
<g id="edge6" class="edge">
<title>reader&#45;&gt;eapi</title>
<path fill="none" stroke="black" d="M175.76,-352C190.98,-352 210.24,-352 226.29,-352"/>
<polygon fill="black" stroke="black" points="226.09,-353.4 230.09,-352 226.09,-350.6 226.09,-353.4"/>
</g>
<!-- cache -->
<g id="node11" class="node">
<title>cache</title>
<path fill="#ddf5dd" stroke="black" d="M286,-254.9C286,-256.24 273.9,-257.32 259,-257.32 244.1,-257.32 232,-256.24 232,-254.9 232,-254.9 232,-233.1 232,-233.1 232,-231.76 244.1,-230.68 259,-230.68 273.9,-230.68 286,-231.76 286,-233.1 286,-233.1 286,-254.9 286,-254.9"/>
<path fill="none" stroke="black" d="M286,-254.9C286,-253.56 273.9,-252.48 259,-252.48 244.1,-252.48 232,-253.56 232,-254.9"/>
<text text-anchor="middle" x="259" y="-245.6" font-family="Helvetica Neue" font-size="7.00">cache</text>
<text text-anchor="middle" x="259" y="-237.35" font-family="Helvetica Neue" font-size="7.00">entry/5</text>
</g>
<!-- eapi&#45;&gt;cache -->
<g id="edge7" class="edge">
<title>eapi&#45;&gt;cache</title>
<path fill="none" stroke="black" d="M240.34,-342.59C234.09,-338.74 227.48,-333.81 222.62,-328 203.48,-305.08 197.27,-295.24 204.54,-278.25 208.77,-268.37 217.52,-261.08 226.78,-255.82"/>
<polygon fill="black" stroke="black" points="227.43,-257.07 230.32,-253.97 226.12,-254.59 227.43,-257.07"/>
<text text-anchor="middle" x="203.75" y="-280.05" font-family="Helvetica Neue" font-size="6.00">assert</text>
</g>
<!-- config -->
<g id="node8" class="node">
<title>config</title>
<polygon fill="#e8e8e8" stroke="black" points="75.25,-388 21.25,-388 21.25,-370 75.25,-370 75.25,-388"/>
<text text-anchor="middle" x="48.25" y="-376.48" font-family="Helvetica Neue" font-size="7.00">config</text>
</g>
<!-- context -->
<g id="node9" class="node">
<title>context</title>
<polygon fill="#e8e8e8" stroke="black" points="75.25,-413 21.25,-413 21.25,-395 75.25,-395 75.25,-413"/>
<text text-anchor="middle" x="48.25" y="-401.48" font-family="Helvetica Neue" font-size="7.00">context OO</text>
</g>
<!-- featunify -->
<g id="node10" class="node">
<title>featunify</title>
<polygon fill="#e8e8e8" stroke="black" points="75.25,-438 21.25,-438 21.25,-420 75.25,-420 75.25,-438"/>
<text text-anchor="middle" x="48.25" y="-426.48" font-family="Helvetica Neue" font-size="7.00">feature unif.</text>
</g>
<!-- query -->
<g id="node14" class="node">
<title>query</title>
<polygon fill="#c8eac8" stroke="black" points="382.38,-253 328.38,-253 328.38,-235 382.38,-235 382.38,-253"/>
<text text-anchor="middle" x="355.38" y="-241.47" font-family="Helvetica Neue" font-size="7.00">query</text>
</g>
<!-- cache&#45;&gt;query -->
<g id="edge13" class="edge">
<title>cache&#45;&gt;query</title>
<path fill="none" stroke="black" d="M286.29,-244C297.55,-244 310.79,-244 322.59,-244"/>
<polygon fill="black" stroke="black" points="322.39,-245.4 326.39,-244 322.39,-242.6 322.39,-245.4"/>
</g>
<!-- repository -->
<g id="node12" class="node">
<title>repository</title>
<polygon fill="#ddf5dd" stroke="black" points="175.5,-228 121.5,-228 121.5,-210 175.5,-210 175.5,-228"/>
<text text-anchor="middle" x="148.5" y="-216.47" font-family="Helvetica Neue" font-size="7.00">repository</text>
</g>
<!-- repository&#45;&gt;reader -->
<g id="edge9" class="edge">
<title>repository&#45;&gt;reader</title>
<path fill="none" stroke="black" d="M121.22,-222.43C113.42,-224.81 105.76,-228.81 101,-235.5 89.54,-251.62 91.12,-307.37 101,-324.5 104.75,-331.01 110.69,-336.11 117.12,-340.06"/>
<polygon fill="black" stroke="black" points="116.15,-341.12 120.32,-341.87 117.53,-338.68 116.15,-341.12"/>
</g>
<!-- repository&#45;&gt;cache -->
<g id="edge8" class="edge">
<title>repository&#45;&gt;cache</title>
<path fill="none" stroke="black" d="M175.76,-225.05C190.98,-228.56 210.24,-232.99 226.29,-236.69"/>
<polygon fill="black" stroke="black" points="225.91,-238.04 230.13,-237.58 226.54,-235.31 225.91,-238.04"/>
</g>
<!-- vdb&#45;&gt;cache -->
<g id="edge10" class="edge">
<title>vdb&#45;&gt;cache</title>
<path fill="none" stroke="black" d="M175.76,-244C190.98,-244 210.24,-244 226.29,-244"/>
<polygon fill="black" stroke="black" points="226.09,-245.4 230.09,-244 226.09,-242.6 226.09,-245.4"/>
</g>
<!-- prove_entry -->
<g id="node18" class="node">
<title>prove_entry</title>
<polygon fill="#ffeedd" stroke="black" stroke-width="2" points="486.14,-189.69 432.14,-189.69 432.14,-170.31 486.14,-170.31 486.14,-189.69"/>
<text text-anchor="middle" x="459.14" y="-181.6" font-family="Helvetica Neue" font-size="7.00">prover</text>
<text text-anchor="middle" x="459.14" y="-173.35" font-family="Helvetica Neue" font-size="7.00">prove/9</text>
</g>
<!-- query&#45;&gt;prove_entry -->
<g id="edge15" class="edge">
<title>query&#45;&gt;prove_entry</title>
<path fill="none" stroke="black" d="M371.39,-234.56C388.97,-223.5 418.17,-205.14 437.78,-192.81"/>
<polygon fill="black" stroke="black" points="438.13,-194.24 440.77,-190.92 436.64,-191.87 438.13,-194.24"/>
</g>
<!-- preference -->
<g id="node15" class="node">
<title>preference</title>
<polygon fill="#c8eac8" stroke="black" points="286,-282 232,-282 232,-264 286,-264 286,-282"/>
<text text-anchor="middle" x="259" y="-270.48" font-family="Helvetica Neue" font-size="7.00">preference</text>
</g>
<!-- preference&#45;&gt;query -->
<g id="edge14" class="edge">
<title>preference&#45;&gt;query</title>
<path fill="none" stroke="black" d="M286.29,-264.92C297.65,-261.43 311.03,-257.32 322.91,-253.67"/>
<polygon fill="black" stroke="black" points="323.04,-255.09 326.46,-252.58 322.22,-252.42 323.04,-255.09"/>
</g>
<!-- profile&#45;&gt;preference -->
<g id="edge11" class="edge">
<title>profile&#45;&gt;preference</title>
<path fill="none" stroke="black" d="M175.82,-292.13C187.04,-291.06 200.24,-289.43 212,-287 216.8,-286.01 221.82,-284.74 226.71,-283.36"/>
<polygon fill="black" stroke="black" points="227.04,-284.72 230.49,-282.26 226.26,-282.03 227.04,-284.72"/>
</g>
<!-- userconfig&#45;&gt;preference -->
<g id="edge12" class="edge">
<title>userconfig&#45;&gt;preference</title>
<path fill="none" stroke="black" d="M175.76,-269.97C190.98,-270.53 210.24,-271.24 226.29,-271.83"/>
<polygon fill="black" stroke="black" points="226.04,-273.22 230.09,-271.97 226.14,-270.42 226.04,-273.22"/>
</g>
<!-- constraint -->
<g id="node19" class="node">
<title>constraint</title>
<polygon fill="#fff5ee" stroke="black" points="602.52,-188 548.52,-188 548.52,-170 602.52,-170 602.52,-188"/>
<text text-anchor="middle" x="575.52" y="-176.47" font-family="Helvetica Neue" font-size="7.00">constraints</text>
</g>
<!-- prove_entry&#45;&gt;constraint -->
<g id="edge30" class="edge">
<title>prove_entry&#45;&gt;constraint</title>
<path fill="none" stroke="black" stroke-dasharray="5,2" d="M486.38,-179.77C503.24,-179.62 525.22,-179.43 543.02,-179.28"/>
<polygon fill="black" stroke="black" points="542.9,-180.68 546.89,-179.24 542.87,-177.88 542.9,-180.68"/>
</g>
<!-- reprove -->
<g id="node21" class="node">
<title>reprove</title>
<polygon fill="#fff5ee" stroke="black" points="602.52,-213 548.52,-213 548.52,-195 602.52,-195 602.52,-213"/>
<text text-anchor="middle" x="575.52" y="-201.47" font-family="Helvetica Neue" font-size="7.00">reprove</text>
</g>
<!-- prove_entry&#45;&gt;reprove -->
<g id="edge32" class="edge">
<title>prove_entry&#45;&gt;reprove</title>
<path fill="none" stroke="black" stroke-dasharray="5,2" d="M486.38,-185.51C503.24,-189.04 525.22,-193.66 543.02,-197.39"/>
<polygon fill="black" stroke="black" points="542.72,-198.76 546.92,-198.21 543.29,-196.02 542.72,-198.76"/>
</g>
<!-- rule_hook -->
<g id="node22" class="node">
<title>rule_hook</title>
<polygon fill="#eeddff" stroke="black" stroke-width="2" points="602.52,-112 548.52,-112 548.52,-94 602.52,-94 602.52,-112"/>
<text text-anchor="middle" x="575.52" y="-100.47" font-family="Helvetica Neue" font-size="7.00">rules · rule/2</text>
</g>
<!-- prove_entry&#45;&gt;rule_hook -->
<g id="edge18" class="edge">
<title>prove_entry&#45;&gt;rule_hook</title>
<path fill="none" stroke="black" d="M475.09,-169.93C495.9,-155.93 533.55,-130.58 556.07,-115.42"/>
<polygon fill="black" stroke="black" points="556.85,-116.59 559.38,-113.19 555.28,-114.26 556.85,-116.59"/>
<text text-anchor="middle" x="521.02" y="-145.61" font-family="Helvetica Neue" font-size="6.00">rule/2</text>
</g>
<!-- proof_out -->
<g id="node28" class="node">
<title>proof_out</title>
<polygon fill="#ffeedd" stroke="black" points="281.39,-193.81 232,-193.81 232,-166.19 286,-166.19 286,-189.21 281.39,-193.81"/>
<polyline fill="none" stroke="black" points="281.39,-193.81 281.39,-189.21"/>
<polyline fill="none" stroke="black" points="286,-189.21 281.39,-189.21"/>
<text text-anchor="middle" x="259" y="-185.72" font-family="Helvetica Neue" font-size="7.00">Proof · Model</text>
<text text-anchor="middle" x="259" y="-177.47" font-family="Helvetica Neue" font-size="7.00">Constraints</text>
<text text-anchor="middle" x="259" y="-169.22" font-family="Helvetica Neue" font-size="7.00">Triggers</text>
</g>
<!-- prove_entry&#45;&gt;proof_out -->
<g id="edge19" class="edge">
<title>prove_entry&#45;&gt;proof_out</title>
<path fill="none" stroke="black" d="M431.72,-180C395.39,-180 330.13,-180 291.37,-180"/>
<polygon fill="black" stroke="black" points="291.82,-178.6 287.82,-180 291.82,-181.4 291.82,-178.6"/>
</g>
<!-- learned -->
<g id="node20" class="node">
<title>learned</title>
<polygon fill="#ffe8cc" stroke="black" points="697.52,-188 643.52,-188 643.52,-170 697.52,-170 697.52,-188"/>
<text text-anchor="middle" x="670.52" y="-176.47" font-family="Helvetica Neue" font-size="7.00">learned store</text>
</g>
<!-- constraint&#45;&gt;learned -->
<g id="edge31" class="edge">
<title>constraint&#45;&gt;learned</title>
<path fill="none" stroke="black" stroke-dasharray="5,2" d="M602.92,-179C613.72,-179 626.31,-179 637.62,-179"/>
<polygon fill="black" stroke="black" points="637.54,-180.4 641.54,-179 637.54,-177.6 637.54,-180.4"/>
</g>
<!-- rule_candidate -->
<g id="node23" class="node">
<title>rule_candidate</title>
<polygon fill="#f5eeff" stroke="black" points="697.52,-105 643.52,-105 643.52,-87 697.52,-87 697.52,-105"/>
<text text-anchor="middle" x="670.52" y="-93.47" font-family="Helvetica Neue" font-size="7.00">candidate</text>
</g>
<!-- rule_hook&#45;&gt;rule_candidate -->
<g id="edge25" class="edge">
<title>rule_hook&#45;&gt;rule_candidate</title>
<path fill="none" stroke="black" stroke-dasharray="5,2" d="M602.92,-101.01C613.72,-100.2 626.31,-99.25 637.62,-98.4"/>
<polygon fill="black" stroke="black" points="637.66,-99.8 641.54,-98.11 637.45,-97.01 637.66,-99.8"/>
</g>
<!-- rule_use -->
<g id="node24" class="node">
<title>rule_use</title>
<polygon fill="#f5eeff" stroke="black" points="697.52,-130 643.52,-130 643.52,-112 697.52,-112 697.52,-130"/>
<text text-anchor="middle" x="670.52" y="-118.47" font-family="Helvetica Neue" font-size="7.00">use</text>
</g>
<!-- rule_hook&#45;&gt;rule_use -->
<g id="edge26" class="edge">
<title>rule_hook&#45;&gt;rule_use</title>
<path fill="none" stroke="black" stroke-dasharray="5,2" d="M602.92,-108.11C613.82,-110.22 626.54,-112.68 637.93,-114.89"/>
<polygon fill="black" stroke="black" points="637.37,-116.2 641.57,-115.59 637.91,-113.46 637.37,-116.2"/>
</g>
<!-- rule_dep -->
<g id="node25" class="node">
<title>rule_dep</title>
<polygon fill="#f5eeff" stroke="black" points="697.52,-80 643.52,-80 643.52,-62 697.52,-62 697.52,-80"/>
<text text-anchor="middle" x="670.52" y="-68.47" font-family="Helvetica Neue" font-size="7.00">dependency</text>
</g>
<!-- rule_hook&#45;&gt;rule_dep -->
<g id="edge27" class="edge">
<title>rule_hook&#45;&gt;rule_dep</title>
<path fill="none" stroke="black" stroke-dasharray="5,2" d="M602.92,-93.92C613.82,-90.17 626.54,-85.79 637.93,-81.87"/>
<polygon fill="black" stroke="black" points="638.29,-83.22 641.62,-80.6 637.38,-80.58 638.29,-83.22"/>
</g>
<!-- version_domain -->
<g id="node26" class="node">
<title>version_domain</title>
<polygon fill="#f5eeff" stroke="black" points="792.52,-92 738.52,-92 738.52,-74 792.52,-74 792.52,-92"/>
<text text-anchor="middle" x="765.52" y="-80.47" font-family="Helvetica Neue" font-size="7.00">version domain</text>
</g>
<!-- rule_candidate&#45;&gt;version_domain -->
<g id="edge28" class="edge">
<title>rule_candidate&#45;&gt;version_domain</title>
<path fill="none" stroke="black" stroke-dasharray="5,2" d="M697.92,-92.31C708.72,-90.8 721.31,-89.04 732.62,-87.46"/>
<polygon fill="black" stroke="black" points="732.79,-88.85 736.55,-86.91 732.4,-86.08 732.79,-88.85"/>
</g>
<!-- assumption -->
<g id="node27" class="node">
<title>assumption</title>
<polygon fill="#ffdddd" stroke="black" points="792.52,-117 738.52,-117 738.52,-99 792.52,-99 792.52,-117"/>
<text text-anchor="middle" x="765.52" y="-105.47" font-family="Helvetica Neue" font-size="7.00">assumption</text>
</g>
<!-- rule_candidate&#45;&gt;assumption -->
<g id="edge29" class="edge">
<title>rule_candidate&#45;&gt;assumption</title>
<path fill="none" stroke="black" stroke-dasharray="5,2" d="M697.92,-99.41C708.72,-100.8 721.31,-102.42 732.62,-103.88"/>
<polygon fill="black" stroke="black" points="732.4,-105.27 736.55,-104.39 732.76,-102.49 732.4,-105.27"/>
</g>
<!-- planner -->
<g id="node30" class="node">
<title>planner</title>
<polygon fill="#ddffee" stroke="black" points="382.38,-96 328.38,-96 328.38,-78 382.38,-78 382.38,-96"/>
<text text-anchor="middle" x="355.38" y="-84.47" font-family="Helvetica Neue" font-size="7.00">planner (Kahn)</text>
</g>
<!-- proof_out&#45;&gt;planner -->
<g id="edge20" class="edge">
<title>proof_out&#45;&gt;planner</title>
<path fill="none" stroke="black" d="M286.26,-167.72C289.97,-165.2 293.5,-162.3 296.37,-159 314.97,-137.66 300.15,-119.8 320.38,-100 321.37,-99.03 322.43,-98.14 323.56,-97.3"/>
<polygon fill="black" stroke="black" points="324.23,-98.54 326.87,-95.22 322.74,-96.17 324.23,-98.54"/>
</g>
<!-- pipeline -->
<g id="node29" class="node">
<title>pipeline</title>
<polygon fill="#e8f5e8" stroke="black" stroke-width="2" points="382.38,-122.69 328.38,-122.69 328.38,-103.31 382.38,-103.31 382.38,-122.69"/>
<text text-anchor="middle" x="355.38" y="-114.6" font-family="Helvetica Neue" font-size="7.00">pipeline</text>
<text text-anchor="middle" x="355.38" y="-106.35" font-family="Helvetica Neue" font-size="7.00">prove_plan</text>
</g>
<!-- pipeline&#45;&gt;prove_entry -->
<g id="edge17" class="edge">
<title>pipeline&#45;&gt;prove_entry</title>
<path fill="none" stroke="black" d="M371.83,-123.18C389.72,-134.95 419.2,-154.36 438.64,-167.16"/>
<polygon fill="black" stroke="black" points="437.5,-168.09 441.61,-169.12 439.04,-165.75 437.5,-168.09"/>
</g>
<!-- scheduler -->
<g id="node31" class="node">
<title>scheduler</title>
<polygon fill="#ddffee" stroke="black" points="493.52,-96 424.76,-96 424.76,-78 493.52,-78 493.52,-96"/>
<text text-anchor="middle" x="459.14" y="-84.47" font-family="Helvetica Neue" font-size="7.00">scheduler (Kosaraju)</text>
</g>
<!-- planner&#45;&gt;scheduler -->
<g id="edge21" class="edge">
<title>planner&#45;&gt;scheduler</title>
<path fill="none" stroke="black" d="M382.85,-87C393.88,-87 406.92,-87 419.02,-87"/>
<polygon fill="black" stroke="black" points="418.98,-88.4 422.98,-87 418.98,-85.6 418.98,-88.4"/>
</g>
<!-- printer -->
<g id="node38" class="node">
<title>printer</title>
<polygon fill="#eeeeee" stroke="black" points="286,-59 232,-59 232,-41 286,-41 286,-59"/>
<text text-anchor="middle" x="259" y="-47.48" font-family="Helvetica Neue" font-size="7.00">printer</text>
</g>
<!-- scheduler&#45;&gt;printer -->
<g id="edge22" class="edge">
<title>scheduler&#45;&gt;printer</title>
<path fill="none" stroke="black" d="M424.39,-80.3C413.93,-78.25 402.38,-76.01 391.76,-74 357.49,-67.52 318.14,-60.4 291.44,-55.61"/>
<polygon fill="black" stroke="black" points="291.94,-54.27 287.76,-54.95 291.45,-57.03 291.94,-54.27"/>
</g>
<!-- server -->
<g id="node32" class="node">
<title>server</title>
<polygon fill="#dde8f0" stroke="black" points="383.76,-496 327,-496 327,-478 383.76,-478 383.76,-496"/>
<text text-anchor="middle" x="355.38" y="-484.48" font-family="Helvetica Neue" font-size="7.00">server · Pengine</text>
</g>
<!-- client -->
<g id="node33" class="node">
<title>client</title>
<polygon fill="#dde8f0" stroke="black" points="286,-496 232,-496 232,-478 286,-478 286,-496"/>
<text text-anchor="middle" x="259" y="-484.48" font-family="Helvetica Neue" font-size="7.00">client · RPC</text>
</g>
<!-- client&#45;&gt;server -->
<g id="edge33" class="edge">
<title>client&#45;&gt;server</title>
<path fill="none" stroke="black" stroke-dasharray="5,2" d="M286.29,-487C297.07,-487 309.68,-487 321.09,-487"/>
<polygon fill="black" stroke="black" points="321.07,-488.4 325.07,-487 321.07,-485.6 321.07,-488.4"/>
</g>
<!-- cluster -->
<g id="node34" class="node">
<title>cluster</title>
<polygon fill="#dde8f0" stroke="black" points="175.5,-496 121.5,-496 121.5,-478 175.5,-478 175.5,-496"/>
<text text-anchor="middle" x="148.5" y="-484.48" font-family="Helvetica Neue" font-size="7.00">cluster · jobs</text>
</g>
<!-- cluster&#45;&gt;client -->
<g id="edge35" class="edge">
<title>cluster&#45;&gt;client</title>
<path fill="none" stroke="black" stroke-dasharray="5,2" d="M175.76,-487C190.98,-487 210.24,-487 226.29,-487"/>
<polygon fill="black" stroke="black" points="226.09,-488.4 230.09,-487 226.09,-485.6 226.09,-488.4"/>
</g>
<!-- bonjour -->
<g id="node35" class="node">
<title>bonjour</title>
<polygon fill="#dde8f0" stroke="black" points="75.25,-496 21.25,-496 21.25,-478 75.25,-478 75.25,-496"/>
<text text-anchor="middle" x="48.25" y="-484.48" font-family="Helvetica Neue" font-size="7.00">bonjour</text>
</g>
<!-- bonjour&#45;&gt;cluster -->
<g id="edge34" class="edge">
<title>bonjour&#45;&gt;cluster</title>
<path fill="none" stroke="black" stroke-dasharray="5,2" d="M75.58,-487C87.91,-487 102.71,-487 115.67,-487"/>
<polygon fill="black" stroke="black" points="115.58,-488.4 119.58,-487 115.58,-485.6 115.58,-488.4"/>
</g>
<!-- llm -->
<g id="node36" class="node">
<title>llm</title>
<polygon fill="#dde8f0" stroke="black" points="75.25,-521 21.25,-521 21.25,-503 75.25,-503 75.25,-521"/>
<text text-anchor="middle" x="48.25" y="-509.48" font-family="Helvetica Neue" font-size="7.00">llm · semantic</text>
</g>
<!-- interface&#45;&gt;pipeline -->
<g id="edge16" class="edge">
<title>interface&#45;&gt;pipeline</title>
<path fill="none" stroke="black" d="M286.33,-84.1C289.73,-85.37 293.14,-86.69 296.37,-88 307.24,-92.42 309.62,-94.32 320.38,-99 321.75,-99.6 323.16,-100.2 324.58,-100.81"/>
<polygon fill="black" stroke="black" points="323.83,-102.01 328.06,-102.28 324.92,-99.43 323.83,-102.01"/>
</g>
<!-- terminal -->
<g id="node42" class="node">
<title>terminal</title>
<polygon fill="#f8f8f8" stroke="black" points="379.15,-41.69 328.38,-41.69 328.38,-22.31 382.38,-22.31 382.38,-38.46 379.15,-41.69"/>
<polyline fill="none" stroke="black" points="379.15,-41.69 379.15,-38.46"/>
<polyline fill="none" stroke="black" points="382.38,-38.46 379.15,-38.46"/>
<text text-anchor="middle" x="355.38" y="-33.6" font-family="Helvetica Neue" font-size="7.00">Terminal</text>
<text text-anchor="middle" x="355.38" y="-25.35" font-family="Helvetica Neue" font-size="7.00">.merge</text>
</g>
<!-- printer&#45;&gt;terminal -->
<g id="edge23" class="edge">
<title>printer&#45;&gt;terminal</title>
<path fill="none" stroke="black" d="M286.29,-44.99C297.55,-42.84 310.79,-40.31 322.59,-38.06"/>
<polygon fill="black" stroke="black" points="322.75,-39.46 326.42,-37.33 322.22,-36.71 322.75,-39.46"/>
</g>
<!-- grapher -->
<g id="node39" class="node">
<title>grapher</title>
<polygon fill="#eeeeee" stroke="black" points="286,-34 232,-34 232,-16 286,-16 286,-34"/>
<text text-anchor="middle" x="259" y="-22.48" font-family="Helvetica Neue" font-size="7.00">grapher · SVG</text>
</g>
<!-- grapher&#45;&gt;terminal -->
<g id="edge24" class="edge">
<title>grapher&#45;&gt;terminal</title>
<path fill="none" stroke="black" d="M286.29,-26.95C297.55,-27.78 310.79,-28.77 322.59,-29.64"/>
<polygon fill="black" stroke="black" points="322.3,-31.02 326.39,-29.92 322.51,-28.23 322.3,-31.02"/>
</g>
<!-- explainer -->
<g id="node40" class="node">
<title>explainer</title>
<polygon fill="#eeeeee" stroke="black" points="286,-109 232,-109 232,-91 286,-91 286,-109"/>
<text text-anchor="middle" x="259" y="-97.47" font-family="Helvetica Neue" font-size="7.00">explainer</text>
</g>
<!-- builder -->
<g id="node41" class="node">
<title>builder</title>
<polygon fill="#f5e6d0" stroke="black" points="286,-134 232,-134 232,-116 286,-116 286,-134"/>
<text text-anchor="middle" x="259" y="-122.47" font-family="Helvetica Neue" font-size="7.00">builder</text>
</g>
<!-- test -->
<g id="node43" class="node">
<title>test</title>
<polygon fill="#e0f0e0" stroke="black" points="75.25,-571 21.25,-571 21.25,-553 75.25,-553 75.25,-571"/>
<text text-anchor="middle" x="48.25" y="-559.48" font-family="Helvetica Neue" font-size="7.00">test · PLUnit</text>
</g>
</g>
</svg>
