<?xml version="1.0" encoding="UTF-8" standalone="no"?>
<!DOCTYPE svg PUBLIC "-//W3C//DTD SVG 1.1//EN"
 "http://www.w3.org/Graphics/SVG/1.1/DTD/svg11.dtd">
<!-- Generated by graphviz version 12.2.1 (20241206.2353)
 -->
<!-- Title: data_structures Pages: 1 -->
<svg width="472pt" height="532pt"
 viewBox="0.00 0.00 471.75 532.00" xmlns="http://www.w3.org/2000/svg" xmlns:xlink="http://www.w3.org/1999/xlink">
<g id="graph0" class="graph" transform="scale(1 1) rotate(0) translate(4 528)">
<title>data_structures</title>
<polygon fill="white" stroke="none" points="-4,4 -4,-528 467.75,-528 467.75,4 -4,4"/>
<g id="clust1" class="cluster">
<title>cluster_state</title>
<path fill="none" stroke="#888888" stroke-dasharray="5,2" d="M118,-8C118,-8 329,-8 329,-8 335,-8 341,-14 341,-20 341,-20 341,-504 341,-504 341,-510 335,-516 329,-516 329,-516 118,-516 118,-516 112,-516 106,-510 106,-504 106,-504 106,-20 106,-20 106,-14 112,-8 118,-8"/>
<text text-anchor="middle" x="202.12" y="-502.5" font-family="Helvetica Neue" font-size="10.00">Proof state (threaded through recursion)</text>
</g>
<!-- prover -->
<g id="node1" class="node">
<title>prover</title>
<polygon fill="#ffd6d6" stroke="black" stroke-width="2" points="54,-235 0,-235 0,-199 54,-199 54,-235"/>
<text text-anchor="middle" x="27" y="-213.5" font-family="Helvetica Neue" font-size="10.00">Prover</text>
</g>
<!-- proof -->
<g id="node2" class="node">
<title>proof</title>
<polygon fill="#cce5ff" stroke="black" points="333,-370 114,-370 114,-252 333,-252 333,-370"/>
<text text-anchor="start" x="126" y="-353.5" font-family="Helvetica Neue" font-weight="bold" font-size="10.00">Proof</text>
<text text-anchor="start" x="126" y="-334.5" font-family="Helvetica Neue" font-size="10.00" fill="#666666">────────────────────</text>
<text text-anchor="start" x="126" y="-316.5" font-family="Helvetica Neue" font-size="10.00">rule(Lit) → dep(N, Body)?Ctx</text>
<text text-anchor="start" x="126" y="-298.5" font-family="Helvetica Neue" font-size="10.00">assumed(rule(Lit)) → ...</text>
<text text-anchor="start" x="126" y="-280.5" font-family="Helvetica Neue" font-size="10.00">rule(assumed(Lit)) → ...</text>
<text text-anchor="start" x="126" y="-263.5" font-family="Helvetica Neue" font-style="italic" font-size="10.00" fill="#888888">Why was each literal accepted?</text>
</g>
<!-- prover&#45;&gt;proof -->
<g id="edge1" class="edge">
<title>prover&#45;&gt;proof</title>
<path fill="none" stroke="black" d="M54.23,-229.68C67.62,-236.15 84.95,-244.52 103.39,-253.43"/>
<polygon fill="black" stroke="black" points="101.84,-256.57 112.37,-257.77 104.89,-250.27 101.84,-256.57"/>
<text text-anchor="middle" x="84" y="-250.1" font-family="Helvetica Neue" font-size="9.00">writes</text>
</g>
<!-- model -->
<g id="node3" class="node">
<title>model</title>
<polygon fill="#d4edda" stroke="black" points="333,-488 114,-488 114,-388 333,-388 333,-488"/>
<text text-anchor="start" x="126" y="-471.5" font-family="Helvetica Neue" font-weight="bold" font-size="10.00">Model</text>
<text text-anchor="start" x="126" y="-452.5" font-family="Helvetica Neue" font-size="10.00" fill="#666666">────────────────────</text>
<text text-anchor="start" x="126" y="-434.5" font-family="Helvetica Neue" font-size="10.00">Lit → Ctx</text>
<text text-anchor="start" x="126" y="-416.5" font-family="Helvetica Neue" font-size="10.00">assumed(Lit) → Ctx</text>
<text text-anchor="start" x="126" y="-399.5" font-family="Helvetica Neue" font-style="italic" font-size="10.00" fill="#888888">What has been proven?</text>
</g>
<!-- prover&#45;&gt;model -->
<g id="edge2" class="edge">
<title>prover&#45;&gt;model</title>
<path fill="none" stroke="black" d="M32.6,-235.31C41.63,-267.92 64.48,-336.64 106,-379 106.28,-379.28 106.55,-379.56 106.83,-379.84"/>
<polygon fill="black" stroke="black" points="104.46,-382.42 114.2,-386.59 109.19,-377.26 104.46,-382.42"/>
<text text-anchor="middle" x="84" y="-367.16" font-family="Helvetica Neue" font-size="9.00">writes</text>
</g>
<!-- constraints -->
<g id="node4" class="node">
<title>constraints</title>
<polygon fill="#fff3cd" stroke="black" points="333,-234 114,-234 114,-116 333,-116 333,-234"/>
<text text-anchor="start" x="126" y="-217.5" font-family="Helvetica Neue" font-weight="bold" font-size="10.00">Constraints</text>
<text text-anchor="start" x="126" y="-198.5" font-family="Helvetica Neue" font-size="10.00" fill="#666666">────────────────────</text>
<text text-anchor="start" x="126" y="-180.5" font-family="Helvetica Neue" font-size="10.00">cn_domain(C,N,S) → Domain</text>
<text text-anchor="start" x="126" y="-162.5" font-family="Helvetica Neue" font-size="10.00">selected_cn(C,N) → true</text>
<text text-anchor="start" x="126" y="-144.5" font-family="Helvetica Neue" font-size="10.00">blocker → ...</text>
<text text-anchor="start" x="126" y="-127.5" font-family="Helvetica Neue" font-style="italic" font-size="10.00" fill="#888888">What restrictions must hold?</text>
</g>
<!-- prover&#45;&gt;constraints -->
<g id="edge3" class="edge">
<title>prover&#45;&gt;constraints</title>
<path fill="none" stroke="black" d="M54.23,-211.34C67.43,-208.49 84.47,-204.81 102.62,-200.89"/>
<polygon fill="black" stroke="black" points="103.21,-204.34 112.25,-198.81 101.74,-197.5 103.21,-204.34"/>
<text text-anchor="middle" x="84" y="-209.55" font-family="Helvetica Neue" font-size="9.00">writes</text>
</g>
<!-- triggers -->
<g id="node5" class="node">
<title>triggers</title>
<polygon fill="#e2d9f3" stroke="black" points="333,-98 114,-98 114,-16 333,-16 333,-98"/>
<text text-anchor="start" x="126" y="-81.5" font-family="Helvetica Neue" font-weight="bold" font-size="10.00">Triggers</text>
<text text-anchor="start" x="126" y="-62.5" font-family="Helvetica Neue" font-size="10.00" fill="#666666">────────────────────</text>
<text text-anchor="start" x="126" y="-44.5" font-family="Helvetica Neue" font-size="10.00">body_lit → [head₁, head₂, ...]</text>
<text text-anchor="start" x="126" y="-27.5" font-family="Helvetica Neue" font-style="italic" font-size="10.00" fill="#888888">Who depends on this body?</text>
</g>
<!-- prover&#45;&gt;triggers -->
<g id="edge4" class="edge">
<title>prover&#45;&gt;triggers</title>
<path fill="none" stroke="black" d="M36.91,-198.67C49.39,-174.7 74.14,-132.75 106,-107 106.94,-106.24 107.9,-105.49 108.86,-104.75"/>
<polygon fill="black" stroke="black" points="110.53,-107.86 116.64,-99.21 106.47,-102.16 110.53,-107.86"/>
<text text-anchor="middle" x="84" y="-144.23" font-family="Helvetica Neue" font-size="9.00">writes</text>
</g>
<!-- planner -->
<g id="node6" class="node">
<title>planner</title>
<polygon fill="#e8e8e8" stroke="black" points="462.5,-217 408.5,-217 408.5,-181 462.5,-181 462.5,-217"/>
<text text-anchor="middle" x="435.5" y="-195.5" font-family="Helvetica Neue" font-size="10.00">Planner</text>
</g>
<!-- proof&#45;&gt;planner -->
<g id="edge5" class="edge">
<title>proof&#45;&gt;planner</title>
<path fill="none" stroke="black" d="M333.5,-252.87C356.87,-240.4 379.99,-228.07 398.19,-218.37"/>
<polygon fill="black" stroke="black" points="399.79,-221.48 406.97,-213.68 396.5,-215.3 399.79,-221.48"/>
<text text-anchor="middle" x="370.12" y="-244.37" font-family="Helvetica Neue" font-size="9.00">plan from</text>
</g>
<!-- printer -->
<g id="node7" class="node">
<title>printer</title>
<polygon fill="#e8e8e8" stroke="black" points="462.5,-405 408.5,-405 408.5,-369 462.5,-369 462.5,-405"/>
<text text-anchor="middle" x="435.5" y="-383.5" font-family="Helvetica Neue" font-size="10.00">Printer</text>
</g>
<!-- proof&#45;&gt;printer -->
<g id="edge7" class="edge">
<title>proof&#45;&gt;printer</title>
<path fill="none" stroke="black" d="M333.5,-350.45C356.66,-358.83 379.55,-367.11 397.68,-373.67"/>
<polygon fill="black" stroke="black" points="396.29,-376.89 406.88,-377 398.67,-370.31 396.29,-376.89"/>
<text text-anchor="middle" x="370.12" y="-373.28" font-family="Helvetica Neue" font-size="9.00">display</text>
</g>
<!-- explainer -->
<g id="node8" class="node">
<title>explainer</title>
<polygon fill="#e8e8e8" stroke="black" points="463.75,-329 407.25,-329 407.25,-293 463.75,-293 463.75,-329"/>
<text text-anchor="middle" x="435.5" y="-307.5" font-family="Helvetica Neue" font-size="10.00">Explainer</text>
</g>
<!-- proof&#45;&gt;explainer -->
<g id="edge9" class="edge">
<title>proof&#45;&gt;explainer</title>
<path fill="none" stroke="black" d="M333.5,-311C355.84,-311 377.94,-311 395.74,-311"/>
<polygon fill="black" stroke="black" points="395.54,-314.5 405.54,-311 395.54,-307.5 395.54,-314.5"/>
<text text-anchor="middle" x="370.12" y="-313.7" font-family="Helvetica Neue" font-size="9.00">explain</text>
</g>
<!-- model&#45;&gt;printer -->
<g id="edge8" class="edge">
<title>model&#45;&gt;printer</title>
<path fill="none" stroke="black" d="M333.5,-411.53C356.44,-405.96 379.12,-400.45 397.16,-396.07"/>
<polygon fill="black" stroke="black" points="397.94,-399.48 406.83,-393.72 396.29,-392.68 397.94,-399.48"/>
</g>
<!-- triggers&#45;&gt;planner -->
<g id="edge6" class="edge">
<title>triggers&#45;&gt;planner</title>
<path fill="none" stroke="black" d="M327.02,-98.34C331.84,-101.11 336.52,-103.99 341,-107 368.22,-125.28 394.39,-152.09 412.09,-172.06"/>
<polygon fill="black" stroke="black" points="409.4,-174.3 418.6,-179.55 414.68,-169.71 409.4,-174.3"/>
</g>
</g>
</svg>
