<?xml version="1.0" encoding="UTF-8" standalone="no"?>
<!DOCTYPE svg PUBLIC "-//W3C//DTD SVG 1.1//EN"
 "http://www.w3.org/Graphics/SVG/1.1/DTD/svg11.dtd">
<!-- Generated by graphviz version 12.2.1 (20241206.2353)
 -->
<!-- Title: layers Pages: 1 -->
<svg width="1005pt" height="678pt"
 viewBox="0.00 0.00 1005.25 677.75" xmlns="http://www.w3.org/2000/svg" xmlns:xlink="http://www.w3.org/1999/xlink">
<g id="graph0" class="graph" transform="scale(1 1) rotate(0) translate(4 673.75)">
<title>layers</title>
<polygon fill="white" stroke="none" points="-4,4 -4,-673.75 1001.25,-673.75 1001.25,4 -4,4"/>
<g id="clust1" class="cluster">
<title>cluster_core</title>
<polygon fill="#e6f0ff" stroke="#4a86c8" points="578,-8 578,-226 986,-226 986,-8 578,-8"/>
<text text-anchor="middle" x="638.5" y="-211.55" font-family="Helvetica,sans-Serif" font-size="11.00">Domain&#45;agnostic core</text>
</g>
<g id="clust2" class="cluster">
<title>cluster_domain</title>
<polygon fill="#e6ffe6" stroke="#4a8c4a" points="8,-266.5 8,-568.5 924,-568.5 924,-266.5 8,-266.5"/>
<text text-anchor="middle" x="65.88" y="-554.05" font-family="Helvetica,sans-Serif" font-size="11.00">Gentoo domain layer</text>
</g>
<!-- prover -->
<g id="node1" class="node">
<title>prover</title>
<polygon fill="#cce5ff" stroke="black" points="735.62,-198 678.38,-198 678.38,-162 735.62,-162 735.62,-198"/>
<text text-anchor="middle" x="707" y="-175.55" font-family="Helvetica,sans-Serif" font-size="11.00">prover.pl</text>
</g>
<!-- planner -->
<g id="node2" class="node">
<title>planner</title>
<polygon fill="#cce5ff" stroke="black" points="738.25,-125 675.75,-125 675.75,-89 738.25,-89 738.25,-125"/>
<text text-anchor="middle" x="707" y="-108.55" font-family="Helvetica,sans-Serif" font-size="11.00">planner.pl</text>
<text text-anchor="middle" x="707" y="-96.55" font-family="Helvetica,sans-Serif" font-size="11.00">kahn.pl</text>
</g>
<!-- prover&#45;&gt;planner -->
<!-- rule_iface -->
<g id="node7" class="node">
<title>rule_iface</title>
<polygon fill="#fff3cd" stroke="black" points="505,-669.75 447.75,-637.75 505,-605.75 562.25,-637.75 505,-669.75"/>
<text text-anchor="middle" x="505" y="-639.3" font-family="Helvetica,sans-Serif" font-size="11.00">rule/2</text>
<text text-anchor="middle" x="505" y="-627.3" font-family="Helvetica,sans-Serif" font-size="11.00">interface</text>
</g>
<!-- prover&#45;&gt;rule_iface -->
<g id="edge6" class="edge">
<title>prover&#45;&gt;rule_iface</title>
<path fill="none" stroke="black" d="M717.6,-198.42C724.3,-207.98 733.8,-219.23 745,-226 775.67,-244.54 950,-199.3 950,-305.5 950,-509.5 950,-509.5 950,-509.5 950,-537.49 949.64,-550.75 928,-568.5 874.23,-612.61 673.33,-628.69 568.92,-634.16"/>
<polygon fill="black" stroke="black" points="568.92,-630.66 559.11,-634.66 569.27,-637.65 568.92,-630.66"/>
<text text-anchor="middle" x="973.62" y="-403.62" font-family="Helvetica,sans-Serif" font-size="10.00">calls rule/2</text>
</g>
<!-- scheduler -->
<g id="node3" class="node">
<title>scheduler</title>
<polygon fill="#cce5ff" stroke="black" points="743.5,-52 670.5,-52 670.5,-16 743.5,-16 743.5,-52"/>
<text text-anchor="middle" x="707" y="-29.55" font-family="Helvetica,sans-Serif" font-size="11.00">scheduler.pl</text>
</g>
<!-- planner&#45;&gt;scheduler -->
<!-- constraint -->
<g id="node4" class="node">
<title>constraint</title>
<polygon fill="#cce5ff" stroke="black" points="659.88,-198 586.12,-198 586.12,-162 659.88,-162 659.88,-198"/>
<text text-anchor="middle" x="623" y="-175.55" font-family="Helvetica,sans-Serif" font-size="11.00">constraint.pl</text>
</g>
<!-- featunify -->
<g id="node5" class="node">
<title>featunify</title>
<polygon fill="#cce5ff" stroke="black" points="857.88,-198 754.12,-198 754.12,-162 857.88,-162 857.88,-198"/>
<text text-anchor="middle" x="806" y="-181.55" font-family="Helvetica,sans-Serif" font-size="11.00">feature_unification</text>
<text text-anchor="middle" x="806" y="-169.55" font-family="Helvetica,sans-Serif" font-size="11.00">unify.pl</text>
</g>
<!-- context -->
<g id="node6" class="node">
<title>context</title>
<polygon fill="#cce5ff" stroke="black" points="978.12,-198 875.88,-198 875.88,-162 978.12,-162 978.12,-198"/>
<text text-anchor="middle" x="927" y="-181.55" font-family="Helvetica,sans-Serif" font-size="11.00">context.pl</text>
<text text-anchor="middle" x="927" y="-169.55" font-family="Helvetica,sans-Serif" font-size="11.00">(OO / CONTEXT)</text>
</g>
<!-- rules -->
<g id="node8" class="node">
<title>rules</title>
<polygon fill="#ccf2cc" stroke="black" points="59,-526.5 16.05,-508.5 59,-490.5 101.95,-508.5 59,-526.5"/>
<text text-anchor="middle" x="59" y="-504.05" font-family="Helvetica,sans-Serif" font-size="11.00">rules.pl</text>
</g>
<!-- rule_iface&#45;&gt;rules -->
<g id="edge7" class="edge">
<title>rule_iface&#45;&gt;rules</title>
<path fill="none" stroke="black" d="M456.5,-632.39C364.72,-623.5 169.62,-601.29 111,-568.5 95.86,-560.03 82.94,-545.44 73.77,-532.89"/>
<polygon fill="black" stroke="black" points="76.66,-530.91 68.1,-524.66 70.89,-534.88 76.66,-530.91"/>
<text text-anchor="middle" x="186.47" y="-578.25" font-family="Helvetica,sans-Serif" font-size="10.00">Head &#45;&gt; Body</text>
</g>
<!-- candidate -->
<g id="node9" class="node">
<title>candidate</title>
<polygon fill="#ccf2cc" stroke="black" points="650,-439.5 576.25,-407.5 650,-375.5 723.75,-407.5 650,-439.5"/>
<text text-anchor="middle" x="650" y="-409.05" font-family="Helvetica,sans-Serif" font-size="11.00">Rules/</text>
<text text-anchor="middle" x="650" y="-397.05" font-family="Helvetica,sans-Serif" font-size="11.00">candidate.pl</text>
</g>
<!-- rules&#45;&gt;candidate -->
<!-- use -->
<g id="node10" class="node">
<title>use</title>
<polygon fill="#ccf2cc" stroke="black" points="63,-439.5 16.25,-407.5 63,-375.5 109.75,-407.5 63,-439.5"/>
<text text-anchor="middle" x="63" y="-409.05" font-family="Helvetica,sans-Serif" font-size="11.00">Rules/</text>
<text text-anchor="middle" x="63" y="-397.05" font-family="Helvetica,sans-Serif" font-size="11.00">use.pl</text>
</g>
<!-- rules&#45;&gt;use -->
<!-- candidate&#45;&gt;featunify -->
<g id="edge10" class="edge">
<title>candidate&#45;&gt;featunify</title>
<path fill="none" stroke="black" stroke-dasharray="5,2" d="M676.55,-386.85C692.29,-374.26 711.86,-356.89 726,-338.5 757.6,-297.39 782.36,-241.89 795.52,-208.93"/>
<polygon fill="black" stroke="black" points="798.76,-210.27 799.14,-199.68 792.24,-207.72 798.76,-210.27"/>
<text text-anchor="middle" x="792.81" y="-302.62" font-family="Helvetica,sans-Serif" font-size="10.00">val_hook/3</text>
</g>
<!-- heuristic -->
<g id="node11" class="node">
<title>heuristic</title>
<polygon fill="#ccf2cc" stroke="black" points="650,-338.5 583,-306.5 650,-274.5 717,-306.5 650,-338.5"/>
<text text-anchor="middle" x="650" y="-308.05" font-family="Helvetica,sans-Serif" font-size="11.00">Rules/</text>
<text text-anchor="middle" x="650" y="-296.05" font-family="Helvetica,sans-Serif" font-size="11.00">heuristic.pl</text>
</g>
<!-- candidate&#45;&gt;heuristic -->
<!-- heuristic&#45;&gt;prover -->
<g id="edge9" class="edge">
<title>heuristic&#45;&gt;prover</title>
<path fill="none" stroke="black" stroke-dasharray="5,2" d="M670.49,-283.98C677.25,-275.89 684.24,-266.28 689,-256.5 696.22,-241.68 700.64,-223.79 703.3,-209.14"/>
<polygon fill="black" stroke="black" points="706.69,-210.14 704.83,-199.71 699.78,-209.02 706.69,-210.14"/>
<text text-anchor="middle" x="730.29" y="-247" font-family="Helvetica,sans-Serif" font-size="10.00">cycle_benign</text>
<text text-anchor="middle" x="730.29" y="-235.75" font-family="Helvetica,sans-Serif" font-size="10.00">handle_reprove</text>
</g>
<!-- heuristic&#45;&gt;constraint -->
<g id="edge8" class="edge">
<title>heuristic&#45;&gt;constraint</title>
<path fill="none" stroke="black" stroke-dasharray="5,2" d="M621.15,-288.07C610.46,-279.94 599.54,-269.23 593.75,-256.5 586.51,-240.6 593.2,-222.33 602,-207.75"/>
<polygon fill="black" stroke="black" points="604.81,-209.85 607.44,-199.58 598.98,-205.97 604.81,-209.85"/>
<text text-anchor="middle" x="641.38" y="-247" font-family="Helvetica,sans-Serif" font-size="10.00">constraint_unify_hook</text>
<text text-anchor="middle" x="641.38" y="-235.75" font-family="Helvetica,sans-Serif" font-size="10.00">constraint_guard</text>
</g>
<!-- dependency -->
<g id="node12" class="node">
<title>dependency</title>
<polygon fill="#ccf2cc" stroke="black" points="206,-540.5 120.25,-508.5 206,-476.5 291.75,-508.5 206,-540.5"/>
<text text-anchor="middle" x="206" y="-510.05" font-family="Helvetica,sans-Serif" font-size="11.00">Rules/</text>
<text text-anchor="middle" x="206" y="-498.05" font-family="Helvetica,sans-Serif" font-size="11.00">dependency.pl</text>
</g>
<!-- memo -->
<g id="node13" class="node">
<title>memo</title>
<polygon fill="#ccf2cc" stroke="black" points="367,-540.5 309.75,-508.5 367,-476.5 424.25,-508.5 367,-540.5"/>
<text text-anchor="middle" x="367" y="-510.05" font-family="Helvetica,sans-Serif" font-size="11.00">Rules/</text>
<text text-anchor="middle" x="367" y="-498.05" font-family="Helvetica,sans-Serif" font-size="11.00">memo.pl</text>
</g>
<!-- version -->
<g id="node14" class="node">
<title>version</title>
<polygon fill="#ccf2cc" stroke="black" points="495,-526.5 442.49,-508.5 495,-490.5 547.51,-508.5 495,-526.5"/>
<text text-anchor="middle" x="495" y="-504.05" font-family="Helvetica,sans-Serif" font-size="11.00">version.pl</text>
</g>
<!-- eapi -->
<g id="node15" class="node">
<title>eapi</title>
<polygon fill="#ccf2cc" stroke="black" points="606,-526.5 565.61,-508.5 606,-490.5 646.39,-508.5 606,-526.5"/>
<text text-anchor="middle" x="606" y="-504.05" font-family="Helvetica,sans-Serif" font-size="11.00">eapi.pl</text>
</g>
<!-- preference -->
<g id="node16" class="node">
<title>preference</title>
<polygon fill="#ccf2cc" stroke="black" points="743,-540.5 664,-508.5 743,-476.5 822,-508.5 743,-540.5"/>
<text text-anchor="middle" x="743" y="-510.05" font-family="Helvetica,sans-Serif" font-size="11.00">preference.pl</text>
<text text-anchor="middle" x="743" y="-498.05" font-family="Helvetica,sans-Serif" font-size="11.00">profile.pl</text>
</g>
<!-- vdb -->
<g id="node17" class="node">
<title>vdb</title>
<polygon fill="#ccf2cc" stroke="black" points="878,-526.5 840.16,-508.5 878,-490.5 915.84,-508.5 878,-526.5"/>
<text text-anchor="middle" x="878" y="-504.05" font-family="Helvetica,sans-Serif" font-size="11.00">vdb.pl</text>
</g>
</g>
</svg>
