<?xml version="1.0" encoding="UTF-8" standalone="no"?>
<!DOCTYPE svg PUBLIC "-//W3C//DTD SVG 1.1//EN"
 "http://www.w3.org/Graphics/SVG/1.1/DTD/svg11.dtd">
<!-- Generated by graphviz version 12.2.1 (20241206.2353)
 -->
<!-- Title: mode_daemon Pages: 1 -->
<svg width="500pt" height="293pt"
 viewBox="0.00 0.00 500.33 293.00" xmlns="http://www.w3.org/2000/svg" xmlns:xlink="http://www.w3.org/1999/xlink">
<g id="graph0" class="graph" transform="scale(1 1) rotate(0) translate(4 289)">
<title>mode_daemon</title>
<polygon fill="white" stroke="none" points="-4,4 -4,-289 496.33,-289 496.33,4 -4,4"/>
<g id="clust1" class="cluster">
<title>cluster_machine</title>
<path fill="none" stroke="#8e44ad" d="M20,-8C20,-8 472.33,-8 472.33,-8 478.33,-8 484.33,-14 484.33,-20 484.33,-20 484.33,-265 484.33,-265 484.33,-271 478.33,-277 472.33,-277 472.33,-277 20,-277 20,-277 14,-277 8,-271 8,-265 8,-265 8,-20 8,-20 8,-14 14,-8 20,-8"/>
<text text-anchor="middle" x="51.62" y="-262.55" font-family="Helvetica Neue" font-size="11.00" fill="#8e44ad">Local machine</text>
</g>
<g id="clust2" class="cluster">
<title>cluster_daemon</title>
<path fill="none" stroke="#888888" stroke-dasharray="5,2" d="M28,-16C28,-16 293.5,-16 293.5,-16 299.5,-16 305.5,-22 305.5,-28 305.5,-28 305.5,-83 305.5,-83 305.5,-89 299.5,-95 293.5,-95 293.5,-95 28,-95 28,-95 22,-95 16,-89 16,-83 16,-83 16,-28 16,-28 16,-22 22,-16 28,-16"/>
<text text-anchor="middle" x="129.75" y="-82.45" font-family="Helvetica Neue" font-size="9.00" fill="#8e44ad">portage&#45;ng (daemon) &#160;— &#160;started once, stays resident</text>
</g>
<!-- proc1 -->
<g id="node1" class="node">
<title>proc1</title>
<polygon fill="#fff3cd" stroke="black" points="285.5,-139 215.5,-139 215.5,-103 285.5,-103 285.5,-139"/>
<text text-anchor="middle" x="250.5" y="-123.5" font-family="Helvetica Neue" font-size="10.00">portage&#45;ng</text>
<text text-anchor="middle" x="250.5" y="-111.5" font-family="Helvetica Neue" font-size="10.00">(client call 1)</text>
</g>
<!-- sock -->
<g id="node4" class="node">
<title>sock</title>
<polygon fill="#e8e8e8" stroke="black" points="416.17,-139 356,-121 416.17,-103 476.33,-121 416.17,-139"/>
<text text-anchor="middle" x="416.17" y="-117.5" font-family="Helvetica Neue" font-size="10.00">Unix Socket</text>
</g>
<!-- proc1&#45;&gt;sock -->
<g id="edge1" class="edge">
<title>proc1&#45;&gt;sock</title>
<path fill="none" stroke="black" d="M285.81,-121C302.5,-121 323.22,-121 343.16,-121"/>
<polygon fill="black" stroke="black" points="342.93,-124.5 352.93,-121 342.93,-117.5 342.93,-124.5"/>
</g>
<!-- proc2 -->
<g id="node2" class="node">
<title>proc2</title>
<polygon fill="#fff3cd" stroke="black" points="285.5,-193 215.5,-193 215.5,-157 285.5,-157 285.5,-193"/>
<text text-anchor="middle" x="250.5" y="-177.5" font-family="Helvetica Neue" font-size="10.00">portage&#45;ng</text>
<text text-anchor="middle" x="250.5" y="-165.5" font-family="Helvetica Neue" font-size="10.00">(client call 2)</text>
</g>
<!-- proc2&#45;&gt;sock -->
<g id="edge2" class="edge">
<title>proc2&#45;&gt;sock</title>
<path fill="none" stroke="black" d="M285.81,-163.68C312.01,-155.04 348.15,-143.11 375.57,-134.06"/>
<polygon fill="black" stroke="black" points="376.53,-137.43 384.93,-130.98 374.33,-130.79 376.53,-137.43"/>
</g>
<!-- proc3 -->
<g id="node3" class="node">
<title>proc3</title>
<polygon fill="#fff3cd" stroke="black" points="286.62,-247 214.38,-247 214.38,-211 286.62,-211 286.62,-247"/>
<text text-anchor="middle" x="250.5" y="-231.5" font-family="Helvetica Neue" font-size="10.00">portage&#45;ng</text>
<text text-anchor="middle" x="250.5" y="-219.5" font-family="Helvetica Neue" font-size="10.00">(client call N)</text>
</g>
<!-- proc3&#45;&gt;sock -->
<g id="edge3" class="edge">
<title>proc3&#45;&gt;sock</title>
<path fill="none" stroke="black" stroke-dasharray="5,2" d="M287.12,-212.28C293.35,-209.05 299.69,-205.56 305.5,-202 335.91,-183.36 368.52,-158.6 390.2,-141.38"/>
<polygon fill="black" stroke="black" points="392.27,-144.2 397.89,-135.22 387.89,-138.74 392.27,-144.2"/>
</g>
<!-- prover -->
<g id="node6" class="node">
<title>prover</title>
<polygon fill="#cce5ff" stroke="black" points="297.5,-68 203.5,-68 203.5,-32 297.5,-32 297.5,-68"/>
<text text-anchor="middle" x="250.5" y="-52.5" font-family="Helvetica Neue" font-size="10.00">Prover → Planner</text>
<text text-anchor="middle" x="250.5" y="-40.5" font-family="Helvetica Neue" font-size="10.00">→ Scheduler</text>
</g>
<!-- sock&#45;&gt;prover -->
<g id="edge4" class="edge">
<title>sock&#45;&gt;prover</title>
<path fill="none" stroke="black" d="M401.88,-106.86C387.58,-92.63 363.43,-71.3 338,-60.75 328.86,-56.96 318.75,-54.4 308.75,-52.7"/>
<polygon fill="black" stroke="black" points="309.47,-49.26 299.07,-51.33 308.48,-56.19 309.47,-49.26"/>
<text text-anchor="middle" x="326.75" y="-63.45" font-family="Helvetica Neue" font-size="9.00">goal</text>
</g>
<!-- kb -->
<g id="node5" class="node">
<title>kb</title>
<path fill="#d4edda" stroke="black" d="M145,-64C145,-66.21 117.88,-68 84.5,-68 51.12,-68 24,-66.21 24,-64 24,-64 24,-28 24,-28 24,-25.79 51.12,-24 84.5,-24 117.88,-24 145,-25.79 145,-28 145,-28 145,-64 145,-64"/>
<path fill="none" stroke="black" d="M145,-64C145,-61.79 117.88,-60 84.5,-60 51.12,-60 24,-61.79 24,-64"/>
<text text-anchor="middle" x="84.5" y="-48.5" font-family="Helvetica Neue" font-size="10.00">Knowledge Base</text>
<text text-anchor="middle" x="84.5" y="-36.5" font-family="Helvetica Neue" font-size="10.00">(loaded once at startup)</text>
</g>
<!-- kb&#45;&gt;prover -->
<g id="edge5" class="edge">
<title>kb&#45;&gt;prover</title>
<path fill="none" stroke="black" stroke-dasharray="5,2" d="M145.17,-47.46C160.42,-47.83 176.79,-48.23 191.94,-48.6"/>
<polygon fill="black" stroke="black" points="191.65,-52.09 201.73,-48.83 191.82,-45.09 191.65,-52.09"/>
<text text-anchor="middle" x="174.25" y="-51.06" font-family="Helvetica Neue" font-size="9.00">query</text>
</g>
<!-- prover&#45;&gt;sock -->
<g id="edge6" class="edge">
<title>prover&#45;&gt;sock</title>
<path fill="none" stroke="black" stroke-dasharray="5,2" d="M297.21,-68.5C300.02,-69.67 302.8,-70.85 305.5,-72 330.93,-82.86 359.44,-95.61 381.01,-105.39"/>
<polygon fill="black" stroke="black" points="379.38,-108.49 389.93,-109.44 382.27,-102.12 379.38,-108.49"/>
<text text-anchor="middle" x="326.75" y="-87.85" font-family="Helvetica Neue" font-size="9.00">result</text>
</g>
</g>
</svg>
