<?xml version="1.0" encoding="UTF-8" standalone="no"?>
<!DOCTYPE svg PUBLIC "-//W3C//DTD SVG 1.1//EN"
 "http://www.w3.org/Graphics/SVG/1.1/DTD/svg11.dtd">
<!-- Generated by graphviz version 12.2.1 (20241206.2353)
 -->
<!-- Title: mode_standalone Pages: 1 -->
<svg width="647pt" height="187pt"
 viewBox="0.00 0.00 647.25 187.00" xmlns="http://www.w3.org/2000/svg" xmlns:xlink="http://www.w3.org/1999/xlink">
<g id="graph0" class="graph" transform="scale(1 1) rotate(0) translate(4 183)">
<title>mode_standalone</title>
<polygon fill="white" stroke="none" points="-4,4 -4,-183 643.25,-183 643.25,4 -4,4"/>
<g id="clust1" class="cluster">
<title>cluster_machine</title>
<path fill="none" stroke="#27ae60" d="M20,-8C20,-8 619.25,-8 619.25,-8 625.25,-8 631.25,-14 631.25,-20 631.25,-20 631.25,-159 631.25,-159 631.25,-165 625.25,-171 619.25,-171 619.25,-171 20,-171 20,-171 14,-171 8,-165 8,-159 8,-159 8,-20 8,-20 8,-14 14,-8 20,-8"/>
<text text-anchor="middle" x="51.62" y="-156.55" font-family="Helvetica Neue" font-size="11.00" fill="#27ae60">Local machine</text>
</g>
<g id="clust2" class="cluster">
<title>cluster_process</title>
<path fill="none" stroke="#888888" stroke-dasharray="5,2" d="M161.25,-62C161.25,-62 611.25,-62 611.25,-62 617.25,-62 623.25,-68 623.25,-74 623.25,-74 623.25,-129 623.25,-129 623.25,-135 617.25,-141 611.25,-141 611.25,-141 161.25,-141 161.25,-141 155.25,-141 149.25,-135 149.25,-129 149.25,-129 149.25,-74 149.25,-74 149.25,-68 155.25,-62 161.25,-62"/>
<text text-anchor="middle" x="205.25" y="-128.45" font-family="Helvetica Neue" font-size="9.00" fill="#27ae60">portage&#45;ng (standalone)</text>
</g>
<!-- user -->
<g id="node1" class="node">
<title>user</title>
<polygon fill="#fff3cd" stroke="black" points="217.88,-39.56 190.38,-52 162.87,-39.56 162.9,-19.44 217.85,-19.44 217.88,-39.56"/>
<text text-anchor="middle" x="190.38" y="-30.5" font-family="Helvetica Neue" font-size="10.00">User</text>
</g>
<!-- prover -->
<g id="node3" class="node">
<title>prover</title>
<polygon fill="#cce5ff" stroke="black" points="336,-108 282,-108 282,-72 336,-72 336,-108"/>
<text text-anchor="middle" x="309" y="-86.5" font-family="Helvetica Neue" font-size="10.00">Prover</text>
</g>
<!-- user&#45;&gt;prover -->
<g id="edge1" class="edge">
<title>user&#45;&gt;prover</title>
<path fill="none" stroke="black" d="M210.63,-43.25C227.16,-51.18 251.44,-62.84 271.61,-72.53"/>
<polygon fill="black" stroke="black" points="269.83,-75.56 280.36,-76.73 272.86,-69.25 269.83,-75.56"/>
<text text-anchor="middle" x="252.75" y="-71.36" font-family="Helvetica Neue" font-size="9.00">goals</text>
</g>
<!-- kb -->
<g id="node2" class="node">
<title>kb</title>
<path fill="#d4edda" stroke="black" d="M223.5,-110C223.5,-112.21 208.65,-114 190.38,-114 172.1,-114 157.25,-112.21 157.25,-110 157.25,-110 157.25,-74 157.25,-74 157.25,-71.79 172.1,-70 190.38,-70 208.65,-70 223.5,-71.79 223.5,-74 223.5,-74 223.5,-110 223.5,-110"/>
<path fill="none" stroke="black" d="M223.5,-110C223.5,-107.79 208.65,-106 190.38,-106 172.1,-106 157.25,-107.79 157.25,-110"/>
<text text-anchor="middle" x="190.38" y="-94.5" font-family="Helvetica Neue" font-size="10.00">Knowledge</text>
<text text-anchor="middle" x="190.38" y="-82.5" font-family="Helvetica Neue" font-size="10.00">Base</text>
</g>
<!-- kb&#45;&gt;prover -->
<g id="edge2" class="edge">
<title>kb&#45;&gt;prover</title>
<path fill="none" stroke="black" stroke-dasharray="5,2" d="M223.86,-91.44C238.22,-91.2 255.2,-90.91 270.13,-90.65"/>
<polygon fill="black" stroke="black" points="270.12,-94.15 280.06,-90.48 270,-87.15 270.12,-94.15"/>
<text text-anchor="middle" x="252.75" y="-93.82" font-family="Helvetica Neue" font-size="9.00">query</text>
</g>
<!-- planner -->
<g id="node4" class="node">
<title>planner</title>
<polygon fill="#cce5ff" stroke="black" points="427,-108 373,-108 373,-72 427,-72 427,-108"/>
<text text-anchor="middle" x="400" y="-86.5" font-family="Helvetica Neue" font-size="10.00">Planner</text>
</g>
<!-- prover&#45;&gt;planner -->
<g id="edge3" class="edge">
<title>prover&#45;&gt;planner</title>
<path fill="none" stroke="black" d="M336.22,-90C344.12,-90 352.94,-90 361.43,-90"/>
<polygon fill="black" stroke="black" points="361.14,-93.5 371.14,-90 361.14,-86.5 361.14,-93.5"/>
</g>
<!-- scheduler -->
<g id="node5" class="node">
<title>scheduler</title>
<polygon fill="#cce5ff" stroke="black" points="524.25,-108 464,-108 464,-72 524.25,-72 524.25,-108"/>
<text text-anchor="middle" x="494.12" y="-86.5" font-family="Helvetica Neue" font-size="10.00">Scheduler</text>
</g>
<!-- planner&#45;&gt;scheduler -->
<g id="edge4" class="edge">
<title>planner&#45;&gt;scheduler</title>
<path fill="none" stroke="black" d="M427.15,-90C434.98,-90 443.76,-90 452.29,-90"/>
<polygon fill="black" stroke="black" points="452.15,-93.5 462.15,-90 452.15,-86.5 452.15,-93.5"/>
</g>
<!-- printer -->
<g id="node6" class="node">
<title>printer</title>
<polygon fill="#cce5ff" stroke="black" points="615.25,-108 561.25,-108 561.25,-72 615.25,-72 615.25,-108"/>
<text text-anchor="middle" x="588.25" y="-92.5" font-family="Helvetica Neue" font-size="10.00">Printer /</text>
<text text-anchor="middle" x="588.25" y="-80.5" font-family="Helvetica Neue" font-size="10.00">Builder</text>
</g>
<!-- scheduler&#45;&gt;printer -->
<g id="edge5" class="edge">
<title>scheduler&#45;&gt;printer</title>
<path fill="none" stroke="black" d="M524.53,-90C532.47,-90 541.18,-90 549.52,-90"/>
<polygon fill="black" stroke="black" points="549.42,-93.5 559.42,-90 549.42,-86.5 549.42,-93.5"/>
</g>
<!-- tree -->
<g id="node7" class="node">
<title>tree</title>
<polygon fill="#e8e8e8" stroke="black" points="95,-114 92,-118 71,-118 68,-114 16,-114 16,-70 95,-70 95,-114"/>
<text text-anchor="middle" x="55.5" y="-100.5" font-family="Helvetica Neue" font-size="10.00">Portage tree</text>
<text text-anchor="middle" x="55.5" y="-88.5" font-family="Helvetica Neue" font-size="10.00">+ VDB</text>
<text text-anchor="middle" x="55.5" y="-76.5" font-family="Helvetica Neue" font-size="10.00">+ /etc/portage</text>
</g>
<!-- tree&#45;&gt;kb -->
<g id="edge6" class="edge">
<title>tree&#45;&gt;kb</title>
<path fill="none" stroke="black" stroke-dasharray="5,2" d="M95.29,-92C111.07,-92 129.38,-92 145.64,-92"/>
<polygon fill="black" stroke="black" points="145.53,-95.5 155.53,-92 145.53,-88.5 145.53,-95.5"/>
<text text-anchor="middle" x="126.12" y="-94.7" font-family="Helvetica Neue" font-size="9.00">&#45;&#45;sync</text>
</g>
</g>
</svg>
