<?xml version="1.0" encoding="UTF-8" standalone="no"?>
<!DOCTYPE svg PUBLIC "-//W3C//DTD SVG 1.1//EN"
 "http://www.w3.org/Graphics/SVG/1.1/DTD/svg11.dtd">
<!-- Generated by graphviz version 12.2.1 (20241206.2353)
 -->
<!-- Title: mode_workers Pages: 1 -->
<svg width="992pt" height="394pt"
 viewBox="0.00 0.00 992.00 394.26" xmlns="http://www.w3.org/2000/svg" xmlns:xlink="http://www.w3.org/1999/xlink">
<g id="graph0" class="graph" transform="scale(1 1) rotate(0) translate(4 390.26)">
<title>mode_workers</title>
<polygon fill="white" stroke="none" points="-4,4 -4,-390.26 988,-390.26 988,4 -4,4"/>
<g id="clust1" class="cluster">
<title>cluster_server</title>
<path fill="none" stroke="#2980b9" d="M266,-91.25C266,-91.25 472,-91.25 472,-91.25 478,-91.25 484,-97.25 484,-103.25 484,-103.25 484,-366.26 484,-366.26 484,-372.26 478,-378.26 472,-378.26 472,-378.26 266,-378.26 266,-378.26 260,-378.26 254,-372.26 254,-366.26 254,-366.26 254,-103.25 254,-103.25 254,-97.25 260,-91.25 266,-91.25"/>
<text text-anchor="middle" x="300.62" y="-363.81" font-family="Helvetica Neue" font-size="11.00" fill="#2980b9">Server machine</text>
</g>
<g id="clust2" class="cluster">
<title>cluster_w1</title>
<path fill="none" stroke="#27ae60" d="M20,-8C20,-8 234,-8 234,-8 240,-8 246,-14 246,-20 246,-20 246,-265.76 246,-265.76 246,-271.76 240,-277.76 234,-277.76 234,-277.76 20,-277.76 20,-277.76 14,-277.76 8,-271.76 8,-265.76 8,-265.76 8,-20 8,-20 8,-14 14,-8 20,-8"/>
<text text-anchor="middle" x="60.62" y="-263.31" font-family="Helvetica Neue" font-size="11.00" fill="#27ae60">Worker machine 1</text>
</g>
<g id="clust3" class="cluster">
<title>cluster_w2</title>
<path fill="none" stroke="#27ae60" d="M504,-8C504,-8 718,-8 718,-8 724,-8 730,-14 730,-20 730,-20 730,-265.76 730,-265.76 730,-271.76 724,-277.76 718,-277.76 718,-277.76 504,-277.76 504,-277.76 498,-277.76 492,-271.76 492,-265.76 492,-265.76 492,-20 492,-20 492,-14 498,-8 504,-8"/>
<text text-anchor="middle" x="544.62" y="-263.31" font-family="Helvetica Neue" font-size="11.00" fill="#27ae60">Worker machine 2</text>
</g>
<g id="clust4" class="cluster">
<title>cluster_wn</title>
<path fill="none" stroke="#27ae60" d="M750,-8C750,-8 964,-8 964,-8 970,-8 976,-14 976,-20 976,-20 976,-265.76 976,-265.76 976,-271.76 970,-277.76 964,-277.76 964,-277.76 750,-277.76 750,-277.76 744,-277.76 738,-271.76 738,-265.76 738,-265.76 738,-20 738,-20 738,-14 744,-8 750,-8"/>
<text text-anchor="middle" x="791.75" y="-263.31" font-family="Helvetica Neue" font-size="11.00" fill="#27ae60">Worker machine N</text>
</g>
<!-- server -->
<g id="node1" class="node">
<title>server</title>
<polygon fill="#cce5ff" stroke="black" points="372.75,-243.63 307.25,-243.63 307.25,-207.63 372.75,-207.63 372.75,-243.63"/>
<text text-anchor="middle" x="340" y="-228.13" font-family="Helvetica Neue" font-size="10.00">portage&#45;ng</text>
<text text-anchor="middle" x="340" y="-216.13" font-family="Helvetica Neue" font-size="10.00">(server)</text>
</g>
<!-- queue -->
<g id="node3" class="node">
<title>queue</title>
<polygon fill="#fadbd8" stroke="black" points="326.38,-139.88 261.62,-139.88 261.62,-103.88 326.38,-103.88 326.38,-139.88"/>
<text text-anchor="middle" x="294" y="-124.38" font-family="Helvetica Neue" font-size="10.00">Job Queue</text>
<text text-anchor="middle" x="294" y="-112.38" font-family="Helvetica Neue" font-size="10.00">+ Results</text>
</g>
<!-- server&#45;&gt;queue -->
<g id="edge1" class="edge">
<title>server&#45;&gt;queue</title>
<path fill="none" stroke="black" d="M332.2,-207.37C325.16,-191.8 314.68,-168.63 306.48,-150.49"/>
<polygon fill="black" stroke="black" points="309.77,-149.27 302.47,-141.6 303.4,-152.16 309.77,-149.27"/>
</g>
<!-- bonjour_s -->
<g id="node4" class="node">
<title>bonjour_s</title>
<ellipse fill="#e8e8e8" stroke="black" cx="410" cy="-121.88" rx="65.94" ry="22.63"/>
<text text-anchor="middle" x="410" y="-124.38" font-family="Helvetica Neue" font-size="10.00">Bonjour</text>
<text text-anchor="middle" x="410" y="-112.38" font-family="Helvetica Neue" font-size="10.00">(mDNS advertise)</text>
</g>
<!-- server&#45;&gt;bonjour_s -->
<g id="edge3" class="edge">
<title>server&#45;&gt;bonjour_s</title>
<path fill="none" stroke="black" stroke-dasharray="5,2" d="M351.87,-207.37C362.01,-192.64 376.83,-171.09 388.97,-153.45"/>
<polygon fill="black" stroke="black" points="391.75,-155.58 394.53,-145.36 385.98,-151.61 391.75,-155.58"/>
</g>
<!-- kb -->
<g id="node2" class="node">
<title>kb</title>
<path fill="#d4edda" stroke="black" d="M373.12,-344.76C373.12,-346.97 358.28,-348.76 340,-348.76 321.72,-348.76 306.88,-346.97 306.88,-344.76 306.88,-344.76 306.88,-308.76 306.88,-308.76 306.88,-306.55 321.72,-304.76 340,-304.76 358.28,-304.76 373.12,-306.55 373.12,-308.76 373.12,-308.76 373.12,-344.76 373.12,-344.76"/>
<path fill="none" stroke="black" d="M373.12,-344.76C373.12,-342.55 358.28,-340.76 340,-340.76 321.72,-340.76 306.88,-342.55 306.88,-344.76"/>
<text text-anchor="middle" x="340" y="-329.26" font-family="Helvetica Neue" font-size="10.00">Knowledge</text>
<text text-anchor="middle" x="340" y="-317.26" font-family="Helvetica Neue" font-size="10.00">Base</text>
</g>
<!-- kb&#45;&gt;server -->
<g id="edge2" class="edge">
<title>kb&#45;&gt;server</title>
<path fill="none" stroke="black" stroke-dasharray="5,2" d="M340,-304.74C340,-290.34 340,-271.06 340,-255.26"/>
<polygon fill="black" stroke="black" points="343.5,-255.5 340,-245.5 336.5,-255.5 343.5,-255.5"/>
</g>
<!-- w1 -->
<g id="node5" class="node">
<title>w1</title>
<polygon fill="#cce5ff" stroke="black" points="237.75,-52 172.25,-52 172.25,-16 237.75,-16 237.75,-52"/>
<text text-anchor="middle" x="205" y="-36.5" font-family="Helvetica Neue" font-size="10.00">portage&#45;ng</text>
<text text-anchor="middle" x="205" y="-24.5" font-family="Helvetica Neue" font-size="10.00">(worker)</text>
</g>
<!-- queue&#45;&gt;w1 -->
<g id="edge13" class="edge">
<title>queue&#45;&gt;w1</title>
<path fill="none" stroke="#cc0000" stroke-width="2" d="M271.56,-103.67C264.89,-99.14 257.38,-94.6 250,-91.25 234.19,-84.08 223.87,-94.14 212.25,-81.25 207.9,-76.42 205.56,-70.09 204.39,-63.68"/>
<polygon fill="#cc0000" stroke="#cc0000" stroke-width="2" points="208.02,-65 203.66,-55.35 201.05,-65.61 208.02,-65"/>
<text text-anchor="middle" x="218.62" y="-72.7" font-family="Helvetica Neue" font-size="9.00">job</text>
</g>
<!-- w2 -->
<g id="node9" class="node">
<title>w2</title>
<polygon fill="#cce5ff" stroke="black" points="565.75,-52 500.25,-52 500.25,-16 565.75,-16 565.75,-52"/>
<text text-anchor="middle" x="533" y="-36.5" font-family="Helvetica Neue" font-size="10.00">portage&#45;ng</text>
<text text-anchor="middle" x="533" y="-24.5" font-family="Helvetica Neue" font-size="10.00">(worker)</text>
</g>
<!-- queue&#45;&gt;w2 -->
<g id="edge14" class="edge">
<title>queue&#45;&gt;w2</title>
<path fill="none" stroke="#cc0000" stroke-width="2" d="M299.21,-103.54C303.54,-92.19 310.86,-78.04 322.25,-70 348.37,-51.58 434.85,-42.1 488.57,-37.87"/>
<polygon fill="#cc0000" stroke="#cc0000" stroke-width="2" points="487.1,-41.49 496.81,-37.25 486.58,-34.51 487.1,-41.49"/>
<text text-anchor="middle" x="328.62" y="-72.7" font-family="Helvetica Neue" font-size="9.00">job</text>
</g>
<!-- wn -->
<g id="node13" class="node">
<title>wn</title>
<polygon fill="#cce5ff" stroke="black" points="811.75,-52 746.25,-52 746.25,-16 811.75,-16 811.75,-52"/>
<text text-anchor="middle" x="779" y="-36.5" font-family="Helvetica Neue" font-size="10.00">portage&#45;ng</text>
<text text-anchor="middle" x="779" y="-24.5" font-family="Helvetica Neue" font-size="10.00">(worker)</text>
</g>
<!-- queue&#45;&gt;wn -->
<g id="edge15" class="edge">
<title>queue&#45;&gt;wn</title>
<path fill="none" stroke="#cc0000" stroke-width="2" stroke-dasharray="5,2" d="M314.17,-103.53C320.48,-98.89 327.71,-94.32 335,-91.25 359.11,-81.11 367.78,-88.2 393,-81.25 406.43,-77.55 408.63,-72.94 422.25,-70 557.92,-40.74 598.25,-80.86 734,-52 734.37,-51.92 734.74,-51.84 735.11,-51.76"/>
<polygon fill="#cc0000" stroke="#cc0000" stroke-width="2" points="734.29,-55.61 743,-49.58 732.43,-48.86 734.29,-55.61"/>
<text text-anchor="middle" x="428.62" y="-72.7" font-family="Helvetica Neue" font-size="9.00">job</text>
</g>
<!-- w1&#45;&gt;queue -->
<g id="edge16" class="edge">
<title>w1&#45;&gt;queue</title>
<path fill="none" stroke="#cc0000" stroke-dasharray="5,2" d="M222.56,-52.17C231.5,-60.9 242.56,-71.66 252.5,-81.25 257.37,-85.95 262.58,-90.94 267.6,-95.74"/>
<polygon fill="#cc0000" stroke="#cc0000" points="265.04,-98.14 274.69,-102.51 269.87,-93.07 265.04,-98.14"/>
<text text-anchor="middle" x="263.75" y="-72.7" font-family="Helvetica Neue" font-size="9.00">result</text>
</g>
<!-- w1_kb -->
<g id="node6" class="node">
<title>w1_kb</title>
<path fill="#d4edda" stroke="black" d="M129.12,-139.88C129.12,-142.08 111.59,-143.88 90,-143.88 68.41,-143.88 50.88,-142.08 50.88,-139.88 50.88,-139.88 50.88,-103.88 50.88,-103.88 50.88,-101.67 68.41,-99.88 90,-99.88 111.59,-99.88 129.12,-101.67 129.12,-103.88 129.12,-103.88 129.12,-139.88 129.12,-139.88"/>
<path fill="none" stroke="black" d="M129.12,-139.88C129.12,-137.67 111.59,-135.88 90,-135.88 68.41,-135.88 50.88,-137.67 50.88,-139.88"/>
<text text-anchor="middle" x="90" y="-124.38" font-family="Helvetica Neue" font-size="10.00">Local KB</text>
<text text-anchor="middle" x="90" y="-112.38" font-family="Helvetica Neue" font-size="10.00">(synced copy)</text>
</g>
<!-- w1_kb&#45;&gt;w1 -->
<g id="edge5" class="edge">
<title>w1_kb&#45;&gt;w1</title>
<path fill="none" stroke="black" stroke-dasharray="5,2" d="M117.84,-100.09C134.33,-87.78 155.3,-72.11 172.54,-59.24"/>
<polygon fill="black" stroke="black" points="174.55,-62.11 180.47,-53.32 170.36,-56.5 174.55,-62.11"/>
</g>
<!-- w1_tree -->
<g id="node7" class="node">
<title>w1_tree</title>
<polygon fill="#e8e8e8" stroke="black" points="92,-243.63 89,-247.63 68,-247.63 65,-243.63 16,-243.63 16,-207.63 92,-207.63 92,-243.63"/>
<text text-anchor="middle" x="54" y="-228.13" font-family="Helvetica Neue" font-size="10.00">Portage tree</text>
<text text-anchor="middle" x="54" y="-216.13" font-family="Helvetica Neue" font-size="10.00">(git snapshot)</text>
</g>
<!-- w1_tree&#45;&gt;w1_kb -->
<g id="edge4" class="edge">
<title>w1_tree&#45;&gt;w1_kb</title>
<path fill="none" stroke="black" stroke-dasharray="5,2" d="M60.11,-207.37C65.18,-193.04 72.52,-172.28 78.66,-154.92"/>
<polygon fill="black" stroke="black" points="81.95,-156.13 81.98,-145.54 75.35,-153.8 81.95,-156.13"/>
<text text-anchor="middle" x="88.35" y="-170.83" font-family="Helvetica Neue" font-size="9.00">&#45;&#45;sync</text>
</g>
<!-- w1_bonj -->
<g id="node8" class="node">
<title>w1_bonj</title>
<ellipse fill="#e8e8e8" stroke="black" cx="174" cy="-225.63" rx="64.35" ry="22.63"/>
<text text-anchor="middle" x="174" y="-228.13" font-family="Helvetica Neue" font-size="10.00">Bonjour</text>
<text text-anchor="middle" x="174" y="-216.13" font-family="Helvetica Neue" font-size="10.00">(mDNS discover)</text>
</g>
<!-- w1_bonj&#45;&gt;bonjour_s -->
<g id="edge10" class="edge">
<title>w1_bonj&#45;&gt;bonjour_s</title>
<path fill="none" stroke="#888888" stroke-dasharray="5,2" d="M213.77,-207.49C253.94,-190.17 316.12,-163.36 359.69,-144.57"/>
<polygon fill="#888888" stroke="#888888" points="360.88,-147.87 368.68,-140.69 358.11,-141.44 360.88,-147.87"/>
<text text-anchor="middle" x="330.01" y="-176.45" font-family="Helvetica Neue" font-size="9.00">discover</text>
<text text-anchor="middle" x="330.01" y="-165.2" font-family="Helvetica Neue" font-size="9.00">server</text>
</g>
<!-- w2&#45;&gt;queue -->
<g id="edge17" class="edge">
<title>w2&#45;&gt;queue</title>
<path fill="none" stroke="#cc0000" stroke-dasharray="5,2" d="M500.02,-38.88C466.52,-43.56 413.59,-53 370.5,-70 353.39,-76.75 350.36,-81.13 335,-91.25 332.16,-93.12 329.24,-95.11 326.33,-97.13"/>
<polygon fill="#cc0000" stroke="#cc0000" points="324.55,-94.1 318.41,-102.73 328.59,-99.81 324.55,-94.1"/>
<text text-anchor="middle" x="381.75" y="-72.7" font-family="Helvetica Neue" font-size="9.00">result</text>
</g>
<!-- w2_kb -->
<g id="node10" class="node">
<title>w2_kb</title>
<path fill="#d4edda" stroke="black" d="M650.12,-139.88C650.12,-142.08 632.59,-143.88 611,-143.88 589.41,-143.88 571.88,-142.08 571.88,-139.88 571.88,-139.88 571.88,-103.88 571.88,-103.88 571.88,-101.67 589.41,-99.88 611,-99.88 632.59,-99.88 650.12,-101.67 650.12,-103.88 650.12,-103.88 650.12,-139.88 650.12,-139.88"/>
<path fill="none" stroke="black" d="M650.12,-139.88C650.12,-137.67 632.59,-135.88 611,-135.88 589.41,-135.88 571.88,-137.67 571.88,-139.88"/>
<text text-anchor="middle" x="611" y="-124.38" font-family="Helvetica Neue" font-size="10.00">Local KB</text>
<text text-anchor="middle" x="611" y="-112.38" font-family="Helvetica Neue" font-size="10.00">(synced copy)</text>
</g>
<!-- w2_kb&#45;&gt;w2 -->
<g id="edge7" class="edge">
<title>w2_kb&#45;&gt;w2</title>
<path fill="none" stroke="black" stroke-dasharray="5,2" d="M591.72,-99.65C580.94,-87.78 567.44,-72.92 556.1,-60.43"/>
<polygon fill="black" stroke="black" points="558.99,-58.41 549.67,-53.36 553.81,-63.11 558.99,-58.41"/>
</g>
<!-- w2_tree -->
<g id="node11" class="node">
<title>w2_tree</title>
<polygon fill="#e8e8e8" stroke="black" points="722,-243.63 719,-247.63 698,-247.63 695,-243.63 646,-243.63 646,-207.63 722,-207.63 722,-243.63"/>
<text text-anchor="middle" x="684" y="-228.13" font-family="Helvetica Neue" font-size="10.00">Portage tree</text>
<text text-anchor="middle" x="684" y="-216.13" font-family="Helvetica Neue" font-size="10.00">(git snapshot)</text>
</g>
<!-- w2_tree&#45;&gt;w2_kb -->
<g id="edge6" class="edge">
<title>w2_tree&#45;&gt;w2_kb</title>
<path fill="none" stroke="black" stroke-dasharray="5,2" d="M671.62,-207.37C661.05,-192.64 645.59,-171.09 632.93,-153.45"/>
<polygon fill="black" stroke="black" points="635.79,-151.43 627.12,-145.34 630.1,-155.51 635.79,-151.43"/>
<text text-anchor="middle" x="667.16" y="-170.83" font-family="Helvetica Neue" font-size="9.00">&#45;&#45;sync</text>
</g>
<!-- w2_bonj -->
<g id="node12" class="node">
<title>w2_bonj</title>
<ellipse fill="#e8e8e8" stroke="black" cx="564" cy="-225.63" rx="64.35" ry="22.63"/>
<text text-anchor="middle" x="564" y="-228.13" font-family="Helvetica Neue" font-size="10.00">Bonjour</text>
<text text-anchor="middle" x="564" y="-216.13" font-family="Helvetica Neue" font-size="10.00">(mDNS discover)</text>
</g>
<!-- w2_bonj&#45;&gt;bonjour_s -->
<g id="edge11" class="edge">
<title>w2_bonj&#45;&gt;bonjour_s</title>
<path fill="none" stroke="#888888" stroke-dasharray="5,2" d="M534.67,-205.25C510.42,-189.23 475.77,-166.34 449.15,-148.75"/>
<polygon fill="#888888" stroke="#888888" points="451.28,-145.96 441.01,-143.37 447.42,-151.8 451.28,-145.96"/>
<text text-anchor="middle" x="517.67" y="-170.83" font-family="Helvetica Neue" font-size="9.00">discover</text>
</g>
<!-- wn&#45;&gt;queue -->
<g id="edge18" class="edge">
<title>wn&#45;&gt;queue</title>
<path fill="none" stroke="#cc0000" stroke-dasharray="5,2" d="M745.88,-48.62C741.93,-49.92 737.9,-51.09 734,-52 732.64,-52.32 336.3,-90.76 335,-91.25 330.87,-92.81 326.78,-94.91 322.87,-97.26"/>
<polygon fill="#cc0000" stroke="#cc0000" points="321.21,-94.16 314.87,-102.65 325.12,-99.97 321.21,-94.16"/>
<text text-anchor="middle" x="557.65" y="-72.7" font-family="Helvetica Neue" font-size="9.00">result</text>
</g>
<!-- wn_kb -->
<g id="node14" class="node">
<title>wn_kb</title>
<path fill="#d4edda" stroke="black" d="M874.12,-139.88C874.12,-142.08 856.59,-143.88 835,-143.88 813.41,-143.88 795.88,-142.08 795.88,-139.88 795.88,-139.88 795.88,-103.88 795.88,-103.88 795.88,-101.67 813.41,-99.88 835,-99.88 856.59,-99.88 874.12,-101.67 874.12,-103.88 874.12,-103.88 874.12,-139.88 874.12,-139.88"/>
<path fill="none" stroke="black" d="M874.12,-139.88C874.12,-137.67 856.59,-135.88 835,-135.88 813.41,-135.88 795.88,-137.67 795.88,-139.88"/>
<text text-anchor="middle" x="835" y="-124.38" font-family="Helvetica Neue" font-size="10.00">Local KB</text>
<text text-anchor="middle" x="835" y="-112.38" font-family="Helvetica Neue" font-size="10.00">(synced copy)</text>
</g>
<!-- wn_kb&#45;&gt;wn -->
<g id="edge9" class="edge">
<title>wn_kb&#45;&gt;wn</title>
<path fill="none" stroke="black" stroke-dasharray="5,2" d="M821.16,-99.65C813.64,-88.13 804.28,-73.77 796.29,-61.52"/>
<polygon fill="black" stroke="black" points="799.46,-59.97 791.07,-53.51 793.6,-63.79 799.46,-59.97"/>
</g>
<!-- wn_tree -->
<g id="node15" class="node">
<title>wn_tree</title>
<polygon fill="#e8e8e8" stroke="black" points="968,-243.63 965,-247.63 944,-247.63 941,-243.63 892,-243.63 892,-207.63 968,-207.63 968,-243.63"/>
<text text-anchor="middle" x="930" y="-228.13" font-family="Helvetica Neue" font-size="10.00">Portage tree</text>
<text text-anchor="middle" x="930" y="-216.13" font-family="Helvetica Neue" font-size="10.00">(git snapshot)</text>
</g>
<!-- wn_tree&#45;&gt;wn_kb -->
<g id="edge8" class="edge">
<title>wn_tree&#45;&gt;wn_kb</title>
<path fill="none" stroke="black" stroke-dasharray="5,2" d="M913.88,-207.37C899.87,-192.36 879.27,-170.29 862.63,-152.47"/>
<polygon fill="black" stroke="black" points="865.24,-150.14 855.86,-145.22 860.12,-154.92 865.24,-150.14"/>
<text text-anchor="middle" x="904.13" y="-170.83" font-family="Helvetica Neue" font-size="9.00">&#45;&#45;sync</text>
</g>
<!-- wn_bonj -->
<g id="node16" class="node">
<title>wn_bonj</title>
<ellipse fill="#e8e8e8" stroke="black" cx="810" cy="-225.63" rx="64.35" ry="22.63"/>
<text text-anchor="middle" x="810" y="-228.13" font-family="Helvetica Neue" font-size="10.00">Bonjour</text>
<text text-anchor="middle" x="810" y="-216.13" font-family="Helvetica Neue" font-size="10.00">(mDNS discover)</text>
</g>
<!-- wn_bonj&#45;&gt;bonjour_s -->
<g id="edge12" class="edge">
<title>wn_bonj&#45;&gt;bonjour_s</title>
<path fill="none" stroke="#888888" stroke-dasharray="5,2" d="M791.28,-203.67C777.11,-189.34 756.32,-171.4 734,-162.5 683.08,-142.22 542.01,-153.87 488,-144.5 481.7,-143.41 475.18,-142.03 468.71,-140.48"/>
<polygon fill="#888888" stroke="#888888" points="469.95,-137.18 459.4,-138.14 468.24,-143.97 469.95,-137.18"/>
<text text-anchor="middle" x="787.23" y="-170.83" font-family="Helvetica Neue" font-size="9.00">discover</text>
</g>
</g>
</svg>
