<?xml version="1.0" encoding="UTF-8" standalone="no"?>
<!DOCTYPE svg PUBLIC "-//W3C//DTD SVG 1.1//EN"
 "http://www.w3.org/Graphics/SVG/1.1/DTD/svg11.dtd">
<!-- Generated by graphviz version 12.2.1 (20241206.2353)
 -->
<!-- Title: mode_clientserver Pages: 1 -->
<svg width="552pt" height="242pt"
 viewBox="0.00 0.00 551.63 242.00" xmlns="http://www.w3.org/2000/svg" xmlns:xlink="http://www.w3.org/1999/xlink">
<g id="graph0" class="graph" transform="scale(1 1) rotate(0) translate(4 238)">
<title>mode_clientserver</title>
<polygon fill="white" stroke="none" points="-4,4 -4,-238 547.63,-238 547.63,4 -4,4"/>
<g id="clust1" class="cluster">
<title>cluster_client_machine</title>
<path fill="none" stroke="#e67e22" d="M20.38,-152C20.38,-152 205.88,-152 205.88,-152 211.88,-152 217.88,-158 217.88,-164 217.88,-164 217.88,-214 217.88,-214 217.88,-220 211.88,-226 205.88,-226 205.88,-226 20.38,-226 20.38,-226 14.38,-226 8.38,-220 8.38,-214 8.38,-214 8.38,-164 8.38,-164 8.38,-158 14.38,-152 20.38,-152"/>
<text text-anchor="middle" x="113.13" y="-211.55" font-family="Helvetica Neue" font-size="11.00" fill="#e67e22">Client machine (e.g. embedded device)</text>
</g>
<g id="clust2" class="cluster">
<title>cluster_server_machine</title>
<path fill="none" stroke="#2980b9" d="M141,-8C141,-8 523.63,-8 523.63,-8 529.63,-8 535.63,-14 535.63,-20 535.63,-20 535.63,-132 535.63,-132 535.63,-138 529.63,-144 523.63,-144 523.63,-144 141,-144 141,-144 135,-144 129,-138 129,-132 129,-132 129,-20 129,-20 129,-14 135,-8 141,-8"/>
<text text-anchor="middle" x="175.63" y="-129.55" font-family="Helvetica Neue" font-size="11.00" fill="#2980b9">Server machine</text>
</g>
<!-- user -->
<g id="node1" class="node">
<title>user</title>
<polygon fill="#fff3cd" stroke="black" points="71,-183.56 43.5,-196 16,-183.56 16.03,-163.44 70.98,-163.44 71,-183.56"/>
<text text-anchor="middle" x="43.5" y="-174.5" font-family="Helvetica Neue" font-size="10.00">User</text>
</g>
<!-- client -->
<g id="node2" class="node">
<title>client</title>
<polygon fill="#cce5ff" stroke="black" points="209.25,-196 143.75,-196 143.75,-160 209.25,-160 209.25,-196"/>
<text text-anchor="middle" x="176.5" y="-180.5" font-family="Helvetica Neue" font-size="10.00">portage&#45;ng</text>
<text text-anchor="middle" x="176.5" y="-168.5" font-family="Helvetica Neue" font-size="10.00">(client)</text>
</g>
<!-- user&#45;&gt;client -->
<g id="edge1" class="edge">
<title>user&#45;&gt;client</title>
<path fill="none" stroke="black" d="M71.33,-178C88.85,-178 112.12,-178 132.23,-178"/>
<polygon fill="black" stroke="black" points="132.12,-181.5 142.12,-178 132.12,-174.5 132.12,-181.5"/>
<text text-anchor="middle" x="104" y="-180.7" font-family="Helvetica Neue" font-size="9.00">request</text>
</g>
<!-- server -->
<g id="node3" class="node">
<title>server</title>
<polygon fill="#cce5ff" stroke="black" points="374.75,-114 309.25,-114 309.25,-78 374.75,-78 374.75,-114"/>
<text text-anchor="middle" x="342" y="-98.5" font-family="Helvetica Neue" font-size="10.00">portage&#45;ng</text>
<text text-anchor="middle" x="342" y="-86.5" font-family="Helvetica Neue" font-size="10.00">(server)</text>
</g>
<!-- client&#45;&gt;server -->
<g id="edge6" class="edge">
<title>client&#45;&gt;server</title>
<path fill="none" stroke="#cc0000" stroke-width="2" d="M209.45,-162.95C232.26,-152.09 263.61,-136.95 290.88,-123 293.55,-121.63 296.29,-120.21 299.05,-118.77"/>
<polygon fill="#cc0000" stroke="#cc0000" stroke-width="2" points="299.14,-122.68 306.35,-114.9 295.87,-116.49 299.14,-122.68"/>
<text text-anchor="middle" x="262.75" y="-164.49" font-family="Helvetica Neue" font-size="9.00">TCP/IP + SSL</text>
<text text-anchor="middle" x="262.75" y="-153.24" font-family="Helvetica Neue" font-size="9.00">(HTTPS)</text>
</g>
<!-- server&#45;&gt;client -->
<g id="edge7" class="edge">
<title>server&#45;&gt;client</title>
<path fill="none" stroke="#cc0000" stroke-width="2" stroke-dasharray="5,2" d="M309.07,-91.5C286.16,-90.04 255.74,-91.93 234.63,-107.75 219.12,-119.37 229.8,-132.73 217.88,-148 216.84,-149.33 215.72,-150.64 214.55,-151.91"/>
<polygon fill="#cc0000" stroke="#cc0000" stroke-width="2" points="213.27,-148.3 208.38,-157.7 218.07,-153.4 213.27,-148.3"/>
<text text-anchor="middle" x="262.75" y="-110.45" font-family="Helvetica Neue" font-size="9.00">plan result</text>
</g>
<!-- prover -->
<g id="node5" class="node">
<title>prover</title>
<polygon fill="#cce5ff" stroke="black" points="527.63,-87 433.63,-87 433.63,-51 527.63,-51 527.63,-87"/>
<text text-anchor="middle" x="480.63" y="-71.5" font-family="Helvetica Neue" font-size="10.00">Prover → Planner</text>
<text text-anchor="middle" x="480.63" y="-59.5" font-family="Helvetica Neue" font-size="10.00">→ Scheduler</text>
</g>
<!-- server&#45;&gt;prover -->
<g id="edge4" class="edge">
<title>server&#45;&gt;prover</title>
<path fill="none" stroke="black" d="M375.03,-89.67C389.13,-86.88 406.14,-83.52 422.3,-80.33"/>
<polygon fill="black" stroke="black" points="422.69,-83.82 431.82,-78.45 421.33,-76.95 422.69,-83.82"/>
<text text-anchor="middle" x="404.38" y="-88.41" font-family="Helvetica Neue" font-size="9.00">prove</text>
</g>
<!-- kb -->
<g id="node4" class="node">
<title>kb</title>
<path fill="#d4edda" stroke="black" d="M375.13,-56C375.13,-58.21 360.28,-60 342,-60 323.72,-60 308.88,-58.21 308.88,-56 308.88,-56 308.88,-20 308.88,-20 308.88,-17.79 323.72,-16 342,-16 360.28,-16 375.13,-17.79 375.13,-20 375.13,-20 375.13,-56 375.13,-56"/>
<path fill="none" stroke="black" d="M375.13,-56C375.13,-53.79 360.28,-52 342,-52 323.72,-52 308.88,-53.79 308.88,-56"/>
<text text-anchor="middle" x="342" y="-40.5" font-family="Helvetica Neue" font-size="10.00">Knowledge</text>
<text text-anchor="middle" x="342" y="-28.5" font-family="Helvetica Neue" font-size="10.00">Base</text>
</g>
<!-- kb&#45;&gt;prover -->
<g id="edge3" class="edge">
<title>kb&#45;&gt;prover</title>
<path fill="none" stroke="black" stroke-dasharray="5,2" d="M375.39,-41.67C388.03,-43.39 402.59,-45.74 415.63,-48.75 417.89,-49.27 420.19,-49.84 422.5,-50.43"/>
<polygon fill="black" stroke="black" points="421.35,-53.74 431.92,-53.01 423.2,-46.99 421.35,-53.74"/>
<text text-anchor="middle" x="404.38" y="-51.45" font-family="Helvetica Neue" font-size="9.00">query</text>
</g>
<!-- prover&#45;&gt;server -->
<g id="edge5" class="edge">
<title>prover&#45;&gt;server</title>
<path fill="none" stroke="black" stroke-dasharray="5,2" d="M433.28,-63.76C420.13,-63.5 405.91,-64.4 393.13,-67.75 388.62,-68.93 384.08,-70.63 379.69,-72.6"/>
<polygon fill="black" stroke="black" points="378.45,-69.3 371.1,-76.93 381.6,-75.55 378.45,-69.3"/>
<text text-anchor="middle" x="404.38" y="-70.45" font-family="Helvetica Neue" font-size="9.00">plan</text>
</g>
<!-- tree -->
<g id="node6" class="node">
<title>tree</title>
<polygon fill="#e8e8e8" stroke="black" points="216,-60 213,-64 192,-64 189,-60 137,-60 137,-16 216,-16 216,-60"/>
<text text-anchor="middle" x="176.5" y="-46.5" font-family="Helvetica Neue" font-size="10.00">Portage tree</text>
<text text-anchor="middle" x="176.5" y="-34.5" font-family="Helvetica Neue" font-size="10.00">+ VDB</text>
<text text-anchor="middle" x="176.5" y="-22.5" font-family="Helvetica Neue" font-size="10.00">+ /etc/portage</text>
</g>
<!-- tree&#45;&gt;kb -->
<g id="edge2" class="edge">
<title>tree&#45;&gt;kb</title>
<path fill="none" stroke="black" stroke-dasharray="5,2" d="M216.25,-38C240.54,-38 271.92,-38 297.13,-38"/>
<polygon fill="black" stroke="black" points="297.07,-41.5 307.07,-38 297.07,-34.5 297.07,-41.5"/>
<text text-anchor="middle" x="262.75" y="-40.7" font-family="Helvetica Neue" font-size="9.00">&#45;&#45;sync</text>
</g>
</g>
</svg>
