<?xml version="1.0" encoding="UTF-8" standalone="no"?>
<!DOCTYPE svg PUBLIC "-//W3C//DTD SVG 1.1//EN"
 "http://www.w3.org/Graphics/SVG/1.1/DTD/svg11.dtd">
<!-- Generated by graphviz version 12.2.1 (20241206.2353)
 -->
<!-- Title: pipeline Pages: 1 -->
<svg width="341pt" height="441pt"
 viewBox="0.00 0.00 341.13 440.57" xmlns="http://www.w3.org/2000/svg" xmlns:xlink="http://www.w3.org/1999/xlink">
<g id="graph0" class="graph" transform="scale(1 1) rotate(0) translate(4 436.57)">
<title>pipeline</title>
<polygon fill="white" stroke="none" points="-4,4 -4,-436.57 337.13,-436.57 337.13,4 -4,4"/>
<g id="clust1" class="cluster">
<title>cluster_pipeline</title>
<polygon fill="none" stroke="#666666" stroke-dasharray="5,2" points="165.18,-124.16 165.18,-317.41 244.18,-317.41 244.18,-124.16 165.18,-124.16"/>
<text text-anchor="middle" x="205.06" y="-304.86" font-family="Helvetica Neue" font-size="9.00" fill="#666666">pipeline module</text>
</g>
<!-- md5cache -->
<g id="node1" class="node">
<title>md5cache</title>
<ellipse fill="#e8e8e8" stroke="black" cx="45.18" cy="-409.49" rx="45.18" ry="23.08"/>
<text text-anchor="middle" x="45.18" y="-411.99" font-family="Helvetica Neue" font-size="10.00">md5&#45;cache</text>
<text text-anchor="middle" x="45.18" y="-399.99" font-family="Helvetica Neue" font-size="10.00">files</text>
</g>
<!-- reader -->
<g id="node2" class="node">
<title>reader</title>
<polygon fill="#cce5ff" stroke="black" points="195.88,-427.49 112.48,-427.49 112.48,-391.49 195.88,-391.49 195.88,-427.49"/>
<text text-anchor="middle" x="154.18" y="-405.99" font-family="Helvetica Neue" font-size="10.00">Reader / Parser</text>
</g>
<!-- md5cache&#45;&gt;reader -->
<g id="edge3" class="edge">
<title>md5cache&#45;&gt;reader</title>
<path fill="none" stroke="black" d="M90.74,-409.49C94.07,-409.49 97.4,-409.49 100.73,-409.49"/>
<polygon fill="black" stroke="black" points="100.54,-412.99 110.54,-409.49 100.54,-405.99 100.54,-412.99"/>
</g>
<!-- facts -->
<g id="node4" class="node">
<title>facts</title>
<ellipse fill="#e8e8e8" stroke="black" cx="162.18" cy="-343.41" rx="42.2" ry="18"/>
<text text-anchor="middle" x="162.18" y="-339.91" font-family="Helvetica Neue" font-size="10.00">Prolog facts</text>
</g>
<!-- reader&#45;&gt;facts -->
<g id="edge4" class="edge">
<title>reader&#45;&gt;facts</title>
<path fill="none" stroke="black" d="M156.33,-391.32C157.05,-385.57 157.87,-379.01 158.66,-372.64"/>
<polygon fill="black" stroke="black" points="162.08,-373.49 159.85,-363.13 155.13,-372.62 162.08,-373.49"/>
</g>
<!-- user -->
<g id="node3" class="node">
<title>user</title>
<polygon fill="#fff3cd" stroke="black" points="272.18,-415.05 245.18,-427.49 218.18,-415.05 218.21,-394.93 272.16,-394.93 272.18,-415.05"/>
<text text-anchor="middle" x="245.18" y="-405.99" font-family="Helvetica Neue" font-size="10.00">User</text>
</g>
<!-- prover -->
<g id="node5" class="node">
<title>prover</title>
<polygon fill="#cce5ff" stroke="black" points="231.18,-290.16 177.18,-290.16 177.18,-254.16 231.18,-254.16 231.18,-290.16"/>
<text text-anchor="middle" x="204.18" y="-268.66" font-family="Helvetica Neue" font-size="10.00">Prover</text>
</g>
<!-- user&#45;&gt;prover -->
<g id="edge6" class="edge">
<title>user&#45;&gt;prover</title>
<path fill="none" stroke="black" d="M240.95,-394.52C234.3,-372.56 221.26,-329.53 212.64,-301.07"/>
<polygon fill="black" stroke="black" points="216.04,-300.22 209.79,-291.67 209.34,-302.25 216.04,-300.22"/>
</g>
<!-- facts&#45;&gt;prover -->
<g id="edge5" class="edge">
<title>facts&#45;&gt;prover</title>
<path fill="none" stroke="black" stroke-dasharray="5,2" d="M172.35,-325.65C177.03,-317.94 182.69,-308.6 187.94,-299.95"/>
<polygon fill="black" stroke="black" points="190.84,-301.91 193.03,-291.54 184.86,-298.28 190.84,-301.91"/>
</g>
<!-- planner -->
<g id="node6" class="node">
<title>planner</title>
<polygon fill="#cce5ff" stroke="black" points="231.18,-229.16 177.18,-229.16 177.18,-193.16 231.18,-193.16 231.18,-229.16"/>
<text text-anchor="middle" x="204.18" y="-207.66" font-family="Helvetica Neue" font-size="10.00">Planner</text>
</g>
<!-- prover&#45;&gt;planner -->
<g id="edge1" class="edge">
<title>prover&#45;&gt;planner</title>
<path fill="none" stroke="black" d="M204.18,-253.78C204.18,-249.73 204.18,-245.32 204.18,-240.93"/>
<polygon fill="black" stroke="black" points="207.68,-241.14 204.18,-231.14 200.68,-241.14 207.68,-241.14"/>
</g>
<!-- printer -->
<g id="node8" class="node">
<title>printer</title>
<polygon fill="#cce5ff" stroke="black" points="231.18,-107.16 177.18,-107.16 177.18,-71.16 231.18,-71.16 231.18,-107.16"/>
<text text-anchor="middle" x="204.18" y="-85.66" font-family="Helvetica Neue" font-size="10.00">Printer</text>
</g>
<!-- prover&#45;&gt;printer -->
<g id="edge8" class="edge">
<title>prover&#45;&gt;printer</title>
<path fill="none" stroke="black" stroke-dasharray="5,2" d="M224.81,-253.94C231.63,-247.02 238.43,-238.46 242.18,-229.16 259.67,-185.89 263.78,-166.52 244.18,-124.16 242.82,-121.21 241.06,-118.43 239.05,-115.82"/>
<polygon fill="black" stroke="black" points="241.81,-113.65 232.42,-108.73 236.69,-118.43 241.81,-113.65"/>
</g>
<!-- scheduler -->
<g id="node7" class="node">
<title>scheduler</title>
<polygon fill="#cce5ff" stroke="black" points="233.51,-168.16 174.86,-168.16 174.86,-132.16 233.51,-132.16 233.51,-168.16"/>
<text text-anchor="middle" x="204.18" y="-146.66" font-family="Helvetica Neue" font-size="10.00">Scheduler</text>
</g>
<!-- planner&#45;&gt;scheduler -->
<g id="edge2" class="edge">
<title>planner&#45;&gt;scheduler</title>
<path fill="none" stroke="black" d="M204.18,-192.78C204.18,-188.73 204.18,-184.32 204.18,-179.93"/>
<polygon fill="black" stroke="black" points="207.68,-180.14 204.18,-170.14 200.68,-180.14 207.68,-180.14"/>
</g>
<!-- scheduler&#45;&gt;printer -->
<g id="edge7" class="edge">
<title>scheduler&#45;&gt;printer</title>
<path fill="none" stroke="black" d="M204.18,-131.78C204.18,-127.73 204.18,-123.32 204.18,-118.93"/>
<polygon fill="black" stroke="black" points="207.68,-119.14 204.18,-109.14 200.68,-119.14 207.68,-119.14"/>
</g>
<!-- builder -->
<g id="node9" class="node">
<title>builder</title>
<polygon fill="#cce5ff" stroke="black" points="313.18,-107.16 259.18,-107.16 259.18,-71.16 313.18,-71.16 313.18,-107.16"/>
<text text-anchor="middle" x="286.18" y="-85.66" font-family="Helvetica Neue" font-size="10.00">Builder</text>
</g>
<!-- printer&#45;&gt;builder -->
<g id="edge10" class="edge">
<title>printer&#45;&gt;builder</title>
<path fill="none" stroke="black" stroke-dasharray="5,2" d="M231.41,-89.16C236.83,-89.16 242.25,-89.16 247.67,-89.16"/>
<polygon fill="black" stroke="black" points="247.28,-92.66 257.28,-89.16 247.28,-85.66 247.28,-92.66"/>
</g>
<!-- output -->
<g id="node10" class="node">
<title>output</title>
<ellipse fill="#e8e8e8" stroke="black" cx="193.18" cy="-23.08" rx="35.64" ry="23.08"/>
<text text-anchor="middle" x="193.18" y="-25.58" font-family="Helvetica Neue" font-size="10.00">Terminal</text>
<text text-anchor="middle" x="193.18" y="-13.58" font-family="Helvetica Neue" font-size="10.00">output</text>
</g>
<!-- printer&#45;&gt;output -->
<g id="edge9" class="edge">
<title>printer&#45;&gt;output</title>
<path fill="none" stroke="black" d="M201.24,-70.99C200.53,-66.85 199.74,-62.29 198.95,-57.69"/>
<polygon fill="black" stroke="black" points="202.41,-57.13 197.27,-47.86 195.51,-58.31 202.41,-57.13"/>
</g>
<!-- builds -->
<g id="node11" class="node">
<title>builds</title>
<ellipse fill="#e8e8e8" stroke="black" cx="292.18" cy="-23.08" rx="40.94" ry="23.08"/>
<text text-anchor="middle" x="292.18" y="-25.58" font-family="Helvetica Neue" font-size="10.00">Installed</text>
<text text-anchor="middle" x="292.18" y="-13.58" font-family="Helvetica Neue" font-size="10.00">packages</text>
</g>
<!-- builder&#45;&gt;builds -->
<g id="edge11" class="edge">
<title>builder&#45;&gt;builds</title>
<path fill="none" stroke="black" d="M287.79,-70.99C288.18,-66.85 288.61,-62.29 289.04,-57.69"/>
<polygon fill="black" stroke="black" points="292.51,-58.16 289.96,-47.88 285.54,-57.51 292.51,-58.16"/>
</g>
</g>
</svg>
