<?xml version="1.0" encoding="UTF-8" standalone="no"?>
<!DOCTYPE svg PUBLIC "-//W3C//DTD SVG 1.1//EN"
 "http://www.w3.org/Graphics/SVG/1.1/DTD/svg11.dtd">
<!-- Generated by graphviz version 12.2.1 (20241206.2353)
 -->
<!-- Title: literal_flow Pages: 1 -->
<svg width="552pt" height="141pt"
 viewBox="0.00 0.00 551.81 141.26" xmlns="http://www.w3.org/2000/svg" xmlns:xlink="http://www.w3.org/1999/xlink">
<g id="graph0" class="graph" transform="scale(1 1) rotate(0) translate(4 137.26)">
<title>literal_flow</title>
<polygon fill="white" stroke="none" points="-4,4 -4,-137.26 547.81,-137.26 547.81,4 -4,4"/>
<!-- rules -->
<g id="node1" class="node">
<title>rules</title>
<path fill="#eeddff" stroke="black" d="M49.77,-90.51C49.77,-90.51 12,-90.51 12,-90.51 6,-90.51 0,-84.51 0,-78.51 0,-78.51 0,-54.75 0,-54.75 0,-48.75 6,-42.75 12,-42.75 12,-42.75 49.77,-42.75 49.77,-42.75 55.77,-42.75 61.77,-48.75 61.77,-54.75 61.77,-54.75 61.77,-78.51 61.77,-78.51 61.77,-84.51 55.77,-90.51 49.77,-90.51"/>
<text text-anchor="middle" x="30.88" y="-80.03" font-family="Helvetica Neue" font-size="8.00">Rules</text>
<text text-anchor="middle" x="30.88" y="-69.53" font-family="Helvetica Neue" font-size="8.00">rule/2</text>
<text text-anchor="middle" x="30.88" y="-59.03" font-family="Helvetica Neue" font-size="8.00">target/2</text>
<text text-anchor="middle" x="30.88" y="-48.53" font-family="Helvetica Neue" font-size="8.00">dependencies</text>
</g>
<!-- prover -->
<g id="node2" class="node">
<title>prover</title>
<path fill="#ffeedd" stroke="black" d="M198.29,-85.26C198.29,-85.26 161.27,-85.26 161.27,-85.26 155.27,-85.26 149.27,-79.26 149.27,-73.26 149.27,-73.26 149.27,-60 149.27,-60 149.27,-54 155.27,-48 161.27,-48 161.27,-48 198.29,-48 198.29,-48 204.29,-48 210.29,-54 210.29,-60 210.29,-60 210.29,-73.26 210.29,-73.26 210.29,-79.26 204.29,-85.26 198.29,-85.26"/>
<text text-anchor="middle" x="179.78" y="-74.78" font-family="Helvetica Neue" font-size="8.00">Prover</text>
<text text-anchor="middle" x="179.78" y="-64.28" font-family="Helvetica Neue" font-size="8.00">prove/9</text>
<text text-anchor="middle" x="179.78" y="-53.78" font-family="Helvetica Neue" font-size="8.00">Proof + Model</text>
</g>
<!-- rules&#45;&gt;prover -->
<g id="edge1" class="edge">
<title>rules&#45;&gt;prover</title>
<path fill="none" stroke="black" d="M61.97,-66.63C85.31,-66.63 117.77,-66.63 142.54,-66.63"/>
<polygon fill="black" stroke="black" points="142.48,-68.38 147.48,-66.63 142.48,-64.88 142.48,-68.38"/>
<text text-anchor="middle" x="105.52" y="-76.48" font-family="Helvetica Neue" font-size="7.00"> &#160;R://E:A?{C}</text>
<text text-anchor="middle" x="105.52" y="-68.23" font-family="Helvetica Neue" font-size="7.00"> &#160;(full literals) &#160;</text>
</g>
<!-- planner -->
<g id="node3" class="node">
<title>planner</title>
<path fill="#ddffee" stroke="black" d="M374.93,-133.26C374.93,-133.26 327.41,-133.26 327.41,-133.26 321.41,-133.26 315.41,-127.26 315.41,-121.26 315.41,-121.26 315.41,-108 315.41,-108 315.41,-102 321.41,-96 327.41,-96 327.41,-96 374.93,-96 374.93,-96 380.93,-96 386.93,-102 386.93,-108 386.93,-108 386.93,-121.26 386.93,-121.26 386.93,-127.26 380.93,-133.26 374.93,-133.26"/>
<text text-anchor="middle" x="351.17" y="-122.78" font-family="Helvetica Neue" font-size="8.00">Planner</text>
<text text-anchor="middle" x="351.17" y="-112.28" font-family="Helvetica Neue" font-size="8.00">Kahn&#39;s algorithm</text>
<text text-anchor="middle" x="351.17" y="-101.78" font-family="Helvetica Neue" font-size="8.00">waves</text>
</g>
<!-- prover&#45;&gt;planner -->
<g id="edge2" class="edge">
<title>prover&#45;&gt;planner</title>
<path fill="none" stroke="black" d="M210.67,-75.1C238.01,-82.85 278.7,-94.38 309.08,-102.99"/>
<polygon fill="black" stroke="black" points="308.27,-104.58 313.56,-104.25 309.23,-101.21 308.27,-104.58"/>
<text text-anchor="middle" x="262.66" y="-115.83" font-family="Helvetica Neue" font-size="7.00"> &#160;R://L:A</text>
<text text-anchor="middle" x="262.66" y="-107.58" font-family="Helvetica Neue" font-size="7.00"> &#160;(core keys in</text>
<text text-anchor="middle" x="262.66" y="-99.33" font-family="Helvetica Neue" font-size="7.00"> &#160;Proof + Triggers) &#160;</text>
</g>
<!-- model -->
<g id="node5" class="node">
<title>model</title>
<polygon fill="#fff5ee" stroke="black" points="372.31,-85.26 324.04,-85.26 324.04,-48 378.31,-48 378.31,-79.26 372.31,-85.26"/>
<polyline fill="none" stroke="black" points="372.31,-85.26 372.31,-79.26"/>
<polyline fill="none" stroke="black" points="378.31,-79.26 372.31,-79.26"/>
<text text-anchor="middle" x="351.17" y="-74.78" font-family="Helvetica Neue" font-size="8.00">Model AVL</text>
<text text-anchor="middle" x="351.17" y="-64.28" font-family="Helvetica Neue" font-size="8.00">key: R://L:A</text>
<text text-anchor="middle" x="351.17" y="-53.78" font-family="Helvetica Neue" font-size="8.00">val: Context</text>
</g>
<!-- prover&#45;&gt;model -->
<g id="edge4" class="edge">
<title>prover&#45;&gt;model</title>
<path fill="none" stroke="black" stroke-dasharray="5,2" d="M210.67,-66.63C242.68,-66.63 292.99,-66.63 323.64,-66.63"/>
</g>
<!-- proof -->
<g id="node6" class="node">
<title>proof</title>
<polygon fill="#fff5ee" stroke="black" points="381.31,-37.26 315.04,-37.26 315.04,0 387.31,0 387.31,-31.26 381.31,-37.26"/>
<polyline fill="none" stroke="black" points="381.31,-37.26 381.31,-31.26"/>
<polyline fill="none" stroke="black" points="387.31,-31.26 381.31,-31.26"/>
<text text-anchor="middle" x="351.17" y="-26.78" font-family="Helvetica Neue" font-size="8.00">Proof AVL</text>
<text text-anchor="middle" x="351.17" y="-16.28" font-family="Helvetica Neue" font-size="8.00">key: rule(R://L:A)</text>
<text text-anchor="middle" x="351.17" y="-5.78" font-family="Helvetica Neue" font-size="8.00">val: Body</text>
</g>
<!-- prover&#45;&gt;proof -->
<g id="edge5" class="edge">
<title>prover&#45;&gt;proof</title>
<path fill="none" stroke="black" stroke-dasharray="5,2" d="M210.67,-58.16C239.74,-49.92 283.89,-37.41 314.71,-28.68"/>
</g>
<!-- printer -->
<g id="node4" class="node">
<title>printer</title>
<path fill="#eeeeee" stroke="black" d="M531.81,-108.26C531.81,-108.26 501.81,-108.26 501.81,-108.26 495.81,-108.26 489.81,-102.26 489.81,-96.26 489.81,-96.26 489.81,-83 489.81,-83 489.81,-77 495.81,-71 501.81,-71 501.81,-71 531.81,-71 531.81,-71 537.81,-71 543.81,-77 543.81,-83 543.81,-83 543.81,-96.26 543.81,-96.26 543.81,-102.26 537.81,-108.26 531.81,-108.26"/>
<text text-anchor="middle" x="516.81" y="-97.78" font-family="Helvetica Neue" font-size="8.00">Printer</text>
<text text-anchor="middle" x="516.81" y="-87.28" font-family="Helvetica Neue" font-size="8.00">formatted</text>
<text text-anchor="middle" x="516.81" y="-76.78" font-family="Helvetica Neue" font-size="8.00">output</text>
</g>
<!-- planner&#45;&gt;printer -->
<g id="edge3" class="edge">
<title>planner&#45;&gt;printer</title>
<path fill="none" stroke="black" d="M387.28,-109.27C415.62,-104.94 455.21,-98.89 482.94,-94.65"/>
<polygon fill="black" stroke="black" points="483.19,-96.38 487.87,-93.9 482.66,-92.92 483.19,-96.38"/>
<text text-anchor="middle" x="438.56" y="-115.68" font-family="Helvetica Neue" font-size="7.00"> &#160;Plan</text>
<text text-anchor="middle" x="438.56" y="-107.43" font-family="Helvetica Neue" font-size="7.00"> &#160;(ordered waves) &#160;</text>
</g>
<!-- model&#45;&gt;printer -->
<g id="edge6" class="edge">
<title>model&#45;&gt;printer</title>
<path fill="none" stroke="black" stroke-dasharray="5,2" d="M378.4,-69.54C401.88,-72.23 437.2,-76.5 467.81,-81.13 472.75,-81.88 477.97,-82.73 483.07,-83.6"/>
<polygon fill="black" stroke="black" points="482.72,-85.32 487.95,-84.45 483.32,-81.87 482.72,-85.32"/>
<text text-anchor="middle" x="438.56" y="-90.98" font-family="Helvetica Neue" font-size="7.00"> &#160;context</text>
<text text-anchor="middle" x="438.56" y="-82.73" font-family="Helvetica Neue" font-size="7.00"> &#160;lookup &#160;</text>
</g>
</g>
</svg>
