<?xml version="1.0" encoding="UTF-8" standalone="no"?>
<!DOCTYPE svg PUBLIC "-//W3C//DTD SVG 1.1//EN"
 "http://www.w3.org/Graphics/SVG/1.1/DTD/svg11.dtd">
<!-- Generated by graphviz version 12.2.1 (20241206.2353)
 -->
<!-- Title: ingestion Pages: 1 -->
<svg width="726pt" height="57pt"
 viewBox="0.00 0.00 726.06 57.25" xmlns="http://www.w3.org/2000/svg" xmlns:xlink="http://www.w3.org/1999/xlink">
<g id="graph0" class="graph" transform="scale(1 1) rotate(0) translate(4 53.25)">
<title>ingestion</title>
<polygon fill="white" stroke="none" points="-4,4 -4,-53.25 722.06,-53.25 722.06,4 -4,4"/>
<!-- md5cache -->
<g id="node1" class="node">
<title>md5cache</title>
<polygon fill="#e8e8e8" stroke="black" points="56.64,-42.63 0,-42.63 0,-6.63 62.64,-6.63 62.64,-36.63 56.64,-42.63"/>
<polyline fill="none" stroke="black" points="56.64,-42.63 56.64,-36.63"/>
<polyline fill="none" stroke="black" points="62.64,-36.63 56.64,-36.63"/>
<text text-anchor="middle" x="31.32" y="-27.53" font-family="Helvetica Neue" font-size="8.00">md5&#45;cache file</text>
<text text-anchor="middle" x="31.32" y="-17.03" font-family="Helvetica Neue" font-size="8.00">KEY=VALUE</text>
</g>
<!-- reader -->
<g id="node2" class="node">
<title>reader</title>
<path fill="#cce5ff" stroke="black" d="M161.39,-42.63C161.39,-42.63 131.39,-42.63 131.39,-42.63 125.39,-42.63 119.39,-36.63 119.39,-30.63 119.39,-30.63 119.39,-18.63 119.39,-18.63 119.39,-12.63 125.39,-6.63 131.39,-6.63 131.39,-6.63 161.39,-6.63 161.39,-6.63 167.39,-6.63 173.39,-12.63 173.39,-18.63 173.39,-18.63 173.39,-30.63 173.39,-30.63 173.39,-36.63 167.39,-42.63 161.39,-42.63"/>
<text text-anchor="middle" x="146.39" y="-27.53" font-family="Helvetica Neue" font-size="8.00">reader.pl</text>
<text text-anchor="middle" x="146.39" y="-17.03" font-family="Helvetica Neue" font-size="8.00">read lines</text>
</g>
<!-- md5cache&#45;&gt;reader -->
<g id="edge1" class="edge">
<title>md5cache&#45;&gt;reader</title>
<path fill="none" stroke="black" d="M62.92,-24.63C78.26,-24.63 96.84,-24.63 112.49,-24.63"/>
<polygon fill="black" stroke="black" points="112.48,-26.38 117.48,-24.63 112.48,-22.88 112.48,-26.38"/>
<text text-anchor="middle" x="91.02" y="-26.23" font-family="Helvetica Neue" font-size="7.00"> &#160;open &#160;</text>
</g>
<!-- parser -->
<g id="node3" class="node">
<title>parser</title>
<path fill="#cce5ff" stroke="black" d="M270.64,-42.63C270.64,-42.63 240.64,-42.63 240.64,-42.63 234.64,-42.63 228.64,-36.63 228.64,-30.63 228.64,-30.63 228.64,-18.63 228.64,-18.63 228.64,-12.63 234.64,-6.63 240.64,-6.63 240.64,-6.63 270.64,-6.63 270.64,-6.63 276.64,-6.63 282.64,-12.63 282.64,-18.63 282.64,-18.63 282.64,-30.63 282.64,-30.63 282.64,-36.63 276.64,-42.63 270.64,-42.63"/>
<text text-anchor="middle" x="255.64" y="-27.53" font-family="Helvetica Neue" font-size="8.00">parser.pl</text>
<text text-anchor="middle" x="255.64" y="-17.03" font-family="Helvetica Neue" font-size="8.00">route keys</text>
</g>
<!-- reader&#45;&gt;parser -->
<g id="edge2" class="edge">
<title>reader&#45;&gt;parser</title>
<path fill="none" stroke="black" d="M173.63,-24.63C188.17,-24.63 206.38,-24.63 221.86,-24.63"/>
<polygon fill="black" stroke="black" points="221.79,-26.38 226.79,-24.63 221.79,-22.88 221.79,-26.38"/>
<text text-anchor="middle" x="201.02" y="-26.23" font-family="Helvetica Neue" font-size="7.00"> &#160;lines &#160;</text>
</g>
<!-- eapi -->
<g id="node4" class="node">
<title>eapi</title>
<path fill="#cce5ff" stroke="black" d="M408.78,-42.63C408.78,-42.63 370.89,-42.63 370.89,-42.63 364.89,-42.63 358.89,-36.63 358.89,-30.63 358.89,-30.63 358.89,-18.63 358.89,-18.63 358.89,-12.63 364.89,-6.63 370.89,-6.63 370.89,-6.63 408.78,-6.63 408.78,-6.63 414.78,-6.63 420.78,-12.63 420.78,-18.63 420.78,-18.63 420.78,-30.63 420.78,-30.63 420.78,-36.63 414.78,-42.63 408.78,-42.63"/>
<text text-anchor="middle" x="389.84" y="-27.53" font-family="Helvetica Neue" font-size="8.00">eapi.pl</text>
<text text-anchor="middle" x="389.84" y="-17.03" font-family="Helvetica Neue" font-size="8.00">DCG grammar</text>
</g>
<!-- parser&#45;&gt;eapi -->
<g id="edge3" class="edge">
<title>parser&#45;&gt;eapi</title>
<path fill="none" stroke="black" d="M283.07,-24.63C302.96,-24.63 330.45,-24.63 352.42,-24.63"/>
<polygon fill="black" stroke="black" points="352.24,-26.38 357.24,-24.63 352.24,-22.88 352.24,-26.38"/>
<text text-anchor="middle" x="320.77" y="-26.23" font-family="Helvetica Neue" font-size="7.00"> &#160;char codes &#160;</text>
</g>
<!-- cache -->
<g id="node5" class="node">
<title>cache</title>
<path fill="#d4edda" stroke="black" d="M580.67,-44.77C580.67,-47.25 559.07,-49.25 532.48,-49.25 505.88,-49.25 484.28,-47.25 484.28,-44.77 484.28,-44.77 484.28,-4.48 484.28,-4.48 484.28,-2.01 505.88,0 532.48,0 559.07,0 580.67,-2.01 580.67,-4.48 580.67,-4.48 580.67,-44.77 580.67,-44.77"/>
<path fill="none" stroke="black" d="M580.67,-44.77C580.67,-42.3 559.07,-40.3 532.48,-40.3 505.88,-40.3 484.28,-42.3 484.28,-44.77"/>
<text text-anchor="middle" x="532.48" y="-32.78" font-family="Helvetica Neue" font-size="8.00">cache:entry/5</text>
<text text-anchor="middle" x="532.48" y="-22.28" font-family="Helvetica Neue" font-size="8.00">cache:entry_metadata/3</text>
<text text-anchor="middle" x="532.48" y="-11.78" font-family="Helvetica Neue" font-size="8.00">cache:ordered_entry/5</text>
</g>
<!-- eapi&#45;&gt;cache -->
<g id="edge4" class="edge">
<title>eapi&#45;&gt;cache</title>
<path fill="none" stroke="black" d="M421.01,-24.63C437.47,-24.63 458.34,-24.63 477.5,-24.63"/>
<polygon fill="black" stroke="black" points="477.41,-26.38 482.41,-24.63 477.41,-22.88 477.41,-26.38"/>
<text text-anchor="middle" x="452.53" y="-26.23" font-family="Helvetica Neue" font-size="7.00"> &#160;assertz &#160;</text>
</g>
<!-- qlf -->
<g id="node6" class="node">
<title>qlf</title>
<path fill="#d4edda" stroke="black" d="M718.06,-39.35C718.06,-41.16 702.17,-42.63 682.62,-42.63 663.06,-42.63 647.17,-41.16 647.17,-39.35 647.17,-39.35 647.17,-9.9 647.17,-9.9 647.17,-8.09 663.06,-6.63 682.62,-6.63 702.17,-6.63 718.06,-8.09 718.06,-9.9 718.06,-9.9 718.06,-39.35 718.06,-39.35"/>
<path fill="none" stroke="black" d="M718.06,-39.35C718.06,-37.55 702.17,-36.08 682.62,-36.08 663.06,-36.08 647.17,-37.55 647.17,-39.35"/>
<text text-anchor="middle" x="682.62" y="-27.53" font-family="Helvetica Neue" font-size="8.00">Knowledge/kb.qlf</text>
<text text-anchor="middle" x="682.62" y="-17.03" font-family="Helvetica Neue" font-size="8.00">(QCompiled)</text>
</g>
<!-- cache&#45;&gt;qlf -->
<g id="edge5" class="edge">
<title>cache&#45;&gt;qlf</title>
<path fill="none" stroke="black" stroke-dasharray="5,2" d="M581.16,-24.63C600.31,-24.63 622.17,-24.63 640.59,-24.63"/>
<polygon fill="black" stroke="black" points="640.19,-26.38 645.19,-24.63 640.19,-22.88 640.19,-26.38"/>
<text text-anchor="middle" x="613.92" y="-34.48" font-family="Helvetica Neue" font-size="7.00"> &#160;qcompile</text>
<text text-anchor="middle" x="613.92" y="-26.23" font-family="Helvetica Neue" font-size="7.00"> &#160;(&#45;&#45;sync) &#160;</text>
</g>
<!-- qlf&#45;&gt;cache -->
<g id="edge6" class="edge">
<title>qlf&#45;&gt;cache</title>
<path fill="none" stroke="black" stroke-dasharray="5,2" d="M646.82,-9.28C641.66,-7.57 636.34,-6.09 631.17,-5.13 616.89,-2.46 601.46,-3.65 587.18,-6.44"/>
<polygon fill="black" stroke="black" points="587.14,-4.66 582.61,-7.41 587.87,-8.08 587.14,-4.66"/>
<text text-anchor="middle" x="613.92" y="-14.98" font-family="Helvetica Neue" font-size="7.00"> &#160;qload</text>
<text text-anchor="middle" x="613.92" y="-6.73" font-family="Helvetica Neue" font-size="7.00"> &#160;(startup) &#160;</text>
</g>
</g>
</svg>
