<?xml version="1.0" encoding="UTF-8" standalone="no"?>
<!DOCTYPE svg PUBLIC "-//W3C//DTD SVG 1.1//EN"
 "http://www.w3.org/Graphics/SVG/1.1/DTD/svg11.dtd">
<!-- Generated by graphviz version 12.2.1 (20241206.2353)
 -->
<!-- Title: generation Pages: 1 -->
<svg width="431pt" height="44pt"
 viewBox="0.00 0.00 430.67 44.00" xmlns="http://www.w3.org/2000/svg" xmlns:xlink="http://www.w3.org/1999/xlink">
<g id="graph0" class="graph" transform="scale(1 1) rotate(0) translate(4 40)">
<title>generation</title>
<polygon fill="white" stroke="none" points="-4,4 -4,-40 426.67,-40 426.67,4 -4,4"/>
<!-- ebuild -->
<g id="node1" class="node">
<title>ebuild</title>
<polygon fill="#fff3cd" stroke="black" points="93.39,-36 0,-36 0,0 99.39,0 99.39,-30 93.39,-36"/>
<polyline fill="none" stroke="black" points="93.39,-36 93.39,-30"/>
<polyline fill="none" stroke="black" points="99.39,-30 93.39,-30"/>
<text text-anchor="middle" x="49.69" y="-26.15" font-family="Helvetica Neue" font-size="8.00">Ebuild</text>
<text text-anchor="middle" x="49.69" y="-15.65" font-family="Helvetica Neue" font-size="8.00">(bash script)</text>
<text text-anchor="middle" x="49.69" y="-5.15" font-family="Helvetica Neue" font-size="8.00">category/name&#45;ver.ebuild</text>
</g>
<!-- egencache -->
<g id="node2" class="node">
<title>egencache</title>
<path fill="#cce5ff" stroke="black" d="M271.53,-36C271.53,-36 204.39,-36 204.39,-36 198.39,-36 192.39,-30 192.39,-24 192.39,-24 192.39,-12 192.39,-12 192.39,-6 198.39,0 204.39,0 204.39,0 271.53,0 271.53,0 277.53,0 283.53,-6 283.53,-12 283.53,-12 283.53,-24 283.53,-24 283.53,-30 277.53,-36 271.53,-36"/>
<text text-anchor="middle" x="237.96" y="-20.9" font-family="Helvetica Neue" font-size="8.00">egencache</text>
<text text-anchor="middle" x="237.96" y="-10.4" font-family="Helvetica Neue" font-size="8.00">(or portage&#45;ng &#45;&#45;regen)</text>
</g>
<!-- ebuild&#45;&gt;egencache -->
<g id="edge1" class="edge">
<title>ebuild&#45;&gt;egencache</title>
<path fill="none" stroke="black" d="M99.63,-18C126.18,-18 158.96,-18 185.83,-18"/>
<polygon fill="black" stroke="black" points="185.66,-19.75 190.66,-18 185.66,-16.25 185.66,-19.75"/>
<text text-anchor="middle" x="145.89" y="-19.6" font-family="Helvetica Neue" font-size="7.00"> &#160;bash metadata &#160;</text>
</g>
<!-- md5cache -->
<g id="node3" class="node">
<title>md5cache</title>
<polygon fill="#e8e8e8" stroke="black" points="416.67,-36 350.28,-36 350.28,0 422.67,0 422.67,-30 416.67,-36"/>
<polyline fill="none" stroke="black" points="416.67,-36 416.67,-30"/>
<polyline fill="none" stroke="black" points="422.67,-30 416.67,-30"/>
<text text-anchor="middle" x="386.47" y="-20.9" font-family="Helvetica Neue" font-size="8.00">md5&#45;cache file</text>
<text text-anchor="middle" x="386.47" y="-10.4" font-family="Helvetica Neue" font-size="8.00">KEY=VALUE lines</text>
</g>
<!-- egencache&#45;&gt;md5cache -->
<g id="edge2" class="edge">
<title>egencache&#45;&gt;md5cache</title>
<path fill="none" stroke="black" d="M283.72,-18C302.77,-18 324.87,-18 343.6,-18"/>
<polygon fill="black" stroke="black" points="343.3,-19.75 348.3,-18 343.3,-16.25 343.3,-19.75"/>
<text text-anchor="middle" x="316.9" y="-19.6" font-family="Helvetica Neue" font-size="7.00"> &#160;extract &#160;</text>
</g>
</g>
</svg>
