<?xml version="1.0" encoding="UTF-8" standalone="no"?>
<!DOCTYPE svg PUBLIC "-//W3C//DTD SVG 1.1//EN"
 "http://www.w3.org/Graphics/SVG/1.1/DTD/svg11.dtd">
<!-- Generated by graphviz version 12.2.1 (20241206.2353)
 -->
<!-- Title: metadata Pages: 1 -->
<svg width="1911pt" height="87pt"
 viewBox="0.00 0.00 1910.71 87.20" xmlns="http://www.w3.org/2000/svg" xmlns:xlink="http://www.w3.org/1999/xlink">
<g id="graph0" class="graph" transform="scale(1 1) rotate(0) translate(4 83.2)">
<title>metadata</title>
<polygon fill="white" stroke="none" points="-4,4 -4,-83.2 1906.71,-83.2 1906.71,4 -4,4"/>
<!-- ebuild -->
<g id="node1" class="node">
<title>ebuild</title>
<polygon fill="#fff3cd" stroke="black" points="130.75,-61.6 0,-61.6 0,-17.6 136.75,-17.6 136.75,-55.6 130.75,-61.6"/>
<polyline fill="none" stroke="black" points="130.75,-61.6 130.75,-55.6"/>
<polyline fill="none" stroke="black" points="136.75,-55.6 130.75,-55.6"/>
<text text-anchor="middle" x="68.38" y="-47.15" font-family="Helvetica,sans-Serif" font-size="11.00">Ebuild</text>
<text text-anchor="middle" x="68.38" y="-35.15" font-family="Helvetica,sans-Serif" font-size="11.00">(bash script)</text>
<text text-anchor="middle" x="68.38" y="-23.15" font-family="Helvetica,sans-Serif" font-size="11.00">category/name&#45;ver.ebuild</text>
</g>
<!-- egencache -->
<g id="node2" class="node">
<title>egencache</title>
<polygon fill="#cce5ff" stroke="black" points="284.75,-57.6 213.25,-57.6 213.25,-21.6 284.75,-21.6 284.75,-57.6"/>
<text text-anchor="middle" x="249" y="-41.15" font-family="Helvetica,sans-Serif" font-size="11.00">egencache</text>
<text text-anchor="middle" x="249" y="-29.15" font-family="Helvetica,sans-Serif" font-size="11.00">(or &#45;&#45;regen)</text>
</g>
<!-- ebuild&#45;&gt;egencache -->
<g id="edge1" class="edge">
<title>ebuild&#45;&gt;egencache</title>
<path fill="none" stroke="black" d="M137.16,-39.6C158.67,-39.6 181.96,-39.6 201.61,-39.6"/>
<polygon fill="black" stroke="black" points="201.51,-43.1 211.51,-39.6 201.51,-36.1 201.51,-43.1"/>
<text text-anchor="middle" x="175" y="-52.6" font-family="Helvetica,sans-Serif" font-size="10.00">bash</text>
<text text-anchor="middle" x="175" y="-41.35" font-family="Helvetica,sans-Serif" font-size="10.00">metadata</text>
</g>
<!-- md5cache -->
<g id="node6" class="node">
<title>md5cache</title>
<ellipse fill="#e8e8e8" stroke="black" cx="425.17" cy="-39.6" rx="74.42" ry="22.63"/>
<text text-anchor="middle" x="425.17" y="-41.15" font-family="Helvetica,sans-Serif" font-size="11.00">md5&#45;cache file</text>
<text text-anchor="middle" x="425.17" y="-29.15" font-family="Helvetica,sans-Serif" font-size="11.00">KEY=VALUE lines</text>
</g>
<!-- egencache&#45;&gt;md5cache -->
<g id="edge2" class="edge">
<title>egencache&#45;&gt;md5cache</title>
<path fill="none" stroke="black" d="M285.25,-39.6C300.88,-39.6 320.01,-39.6 339.02,-39.6"/>
<polygon fill="black" stroke="black" points="338.98,-43.1 348.98,-39.6 338.98,-36.1 338.98,-43.1"/>
<text text-anchor="middle" x="317.75" y="-41.35" font-family="Helvetica,sans-Serif" font-size="10.00">extract</text>
</g>
<!-- reader -->
<g id="node3" class="node">
<title>reader</title>
<polygon fill="#cce5ff" stroke="black" points="634.85,-57.6 572.35,-57.6 572.35,-21.6 634.85,-21.6 634.85,-57.6"/>
<text text-anchor="middle" x="603.6" y="-41.15" font-family="Helvetica,sans-Serif" font-size="11.00">reader.pl</text>
<text text-anchor="middle" x="603.6" y="-29.15" font-family="Helvetica,sans-Serif" font-size="11.00">read lines</text>
</g>
<!-- lines -->
<g id="node7" class="node">
<title>lines</title>
<ellipse fill="#e8e8e8" stroke="black" cx="762.47" cy="-39.6" rx="47.38" ry="22.63"/>
<text text-anchor="middle" x="762.47" y="-41.15" font-family="Helvetica,sans-Serif" font-size="11.00">List of</text>
<text text-anchor="middle" x="762.47" y="-29.15" font-family="Helvetica,sans-Serif" font-size="11.00">string lines</text>
</g>
<!-- reader&#45;&gt;lines -->
<g id="edge4" class="edge">
<title>reader&#45;&gt;lines</title>
<path fill="none" stroke="black" d="M635.22,-39.6C654.59,-39.6 680.26,-39.6 703.39,-39.6"/>
<polygon fill="black" stroke="black" points="703.34,-43.1 713.34,-39.6 703.34,-36.1 703.34,-43.1"/>
<text text-anchor="middle" x="674.97" y="-41.35" font-family="Helvetica,sans-Serif" font-size="10.00">read_lines</text>
</g>
<!-- parser -->
<g id="node4" class="node">
<title>parser</title>
<polygon fill="#cce5ff" stroke="black" points="942.85,-57.6 877.35,-57.6 877.35,-21.6 942.85,-21.6 942.85,-57.6"/>
<text text-anchor="middle" x="910.1" y="-41.15" font-family="Helvetica,sans-Serif" font-size="11.00">parser.pl</text>
<text text-anchor="middle" x="910.1" y="-29.15" font-family="Helvetica,sans-Serif" font-size="11.00">route keys</text>
</g>
<!-- codes -->
<g id="node8" class="node">
<title>codes</title>
<ellipse fill="#e8e8e8" stroke="black" cx="1079.6" cy="-39.6" rx="45.25" ry="22.63"/>
<text text-anchor="middle" x="1079.6" y="-41.15" font-family="Helvetica,sans-Serif" font-size="11.00">Character</text>
<text text-anchor="middle" x="1079.6" y="-29.15" font-family="Helvetica,sans-Serif" font-size="11.00">codes</text>
</g>
<!-- parser&#45;&gt;codes -->
<g id="edge6" class="edge">
<title>parser&#45;&gt;codes</title>
<path fill="none" stroke="black" d="M943,-39.6C965.41,-39.6 995.98,-39.6 1022.42,-39.6"/>
<polygon fill="black" stroke="black" points="1022.34,-43.1 1032.34,-39.6 1022.34,-36.1 1022.34,-43.1"/>
<text text-anchor="middle" x="988.6" y="-41.35" font-family="Helvetica,sans-Serif" font-size="10.00">string_codes</text>
</g>
<!-- eapi -->
<g id="node5" class="node">
<title>eapi</title>
<polygon fill="#cce5ff" stroke="black" points="1285.61,-57.6 1198.36,-57.6 1198.36,-21.6 1285.61,-21.6 1285.61,-57.6"/>
<text text-anchor="middle" x="1241.98" y="-41.15" font-family="Helvetica,sans-Serif" font-size="11.00">eapi.pl</text>
<text text-anchor="middle" x="1241.98" y="-29.15" font-family="Helvetica,sans-Serif" font-size="11.00">DCG grammar</text>
</g>
<!-- terms -->
<g id="node9" class="node">
<title>terms</title>
<ellipse fill="#e8e8e8" stroke="black" cx="1437.53" cy="-39.6" rx="91.92" ry="39.6"/>
<text text-anchor="middle" x="1437.53" y="-53.15" font-family="Helvetica,sans-Serif" font-size="11.00">Structured</text>
<text text-anchor="middle" x="1437.53" y="-41.15" font-family="Helvetica,sans-Serif" font-size="11.00">Prolog terms</text>
<text text-anchor="middle" x="1437.53" y="-29.15" font-family="Helvetica,sans-Serif" font-size="11.00">package_dependency/8</text>
<text text-anchor="middle" x="1437.53" y="-17.15" font-family="Helvetica,sans-Serif" font-size="11.00">slot/1, eapi/1, ...</text>
</g>
<!-- eapi&#45;&gt;terms -->
<g id="edge8" class="edge">
<title>eapi&#45;&gt;terms</title>
<path fill="none" stroke="black" d="M1285.94,-39.6C1300.37,-39.6 1317.15,-39.6 1334.16,-39.6"/>
<polygon fill="black" stroke="black" points="1333.83,-43.1 1343.83,-39.6 1333.83,-36.1 1333.83,-43.1"/>
<text text-anchor="middle" x="1315.61" y="-41.35" font-family="Helvetica,sans-Serif" font-size="10.00">parse</text>
</g>
<!-- md5cache&#45;&gt;reader -->
<g id="edge3" class="edge">
<title>md5cache&#45;&gt;reader</title>
<path fill="none" stroke="black" d="M499.97,-39.6C520.73,-39.6 542.58,-39.6 560.76,-39.6"/>
<polygon fill="black" stroke="black" points="560.62,-43.1 570.62,-39.6 560.62,-36.1 560.62,-43.1"/>
<text text-anchor="middle" x="535.97" y="-41.35" font-family="Helvetica,sans-Serif" font-size="10.00">open file</text>
</g>
<!-- lines&#45;&gt;parser -->
<g id="edge5" class="edge">
<title>lines&#45;&gt;parser</title>
<path fill="none" stroke="black" d="M809.95,-39.6C827.75,-39.6 847.99,-39.6 865.51,-39.6"/>
<polygon fill="black" stroke="black" points="865.35,-43.1 875.35,-39.6 865.35,-36.1 865.35,-43.1"/>
<text text-anchor="middle" x="843.6" y="-41.35" font-family="Helvetica,sans-Serif" font-size="10.00">per line</text>
</g>
<!-- codes&#45;&gt;eapi -->
<g id="edge7" class="edge">
<title>codes&#45;&gt;eapi</title>
<path fill="none" stroke="black" d="M1125.28,-39.6C1144.26,-39.6 1166.57,-39.6 1186.51,-39.6"/>
<polygon fill="black" stroke="black" points="1186.42,-43.1 1196.42,-39.6 1186.42,-36.1 1186.42,-43.1"/>
<text text-anchor="middle" x="1161.61" y="-41.35" font-family="Helvetica,sans-Serif" font-size="10.00">phrase/2</text>
</g>
<!-- cache -->
<g id="node10" class="node">
<title>cache</title>
<path fill="#d4edda" stroke="black" d="M1729.21,-64.35C1729.21,-67.38 1699.74,-69.85 1663.46,-69.85 1627.18,-69.85 1597.71,-67.38 1597.71,-64.35 1597.71,-64.35 1597.71,-14.85 1597.71,-14.85 1597.71,-11.81 1627.18,-9.35 1663.46,-9.35 1699.74,-9.35 1729.21,-11.81 1729.21,-14.85 1729.21,-14.85 1729.21,-64.35 1729.21,-64.35"/>
<path fill="none" stroke="black" d="M1729.21,-64.35C1729.21,-61.31 1699.74,-58.85 1663.46,-58.85 1627.18,-58.85 1597.71,-61.31 1597.71,-64.35"/>
<text text-anchor="middle" x="1663.46" y="-47.15" font-family="Helvetica,sans-Serif" font-size="11.00">cache:entry/5</text>
<text text-anchor="middle" x="1663.46" y="-35.15" font-family="Helvetica,sans-Serif" font-size="11.00">cache:entry_metadata/3</text>
<text text-anchor="middle" x="1663.46" y="-23.15" font-family="Helvetica,sans-Serif" font-size="11.00">cache:ordered_entry/5</text>
</g>
<!-- terms&#45;&gt;cache -->
<g id="edge9" class="edge">
<title>terms&#45;&gt;cache</title>
<path fill="none" stroke="black" d="M1529.93,-39.6C1548.57,-39.6 1568,-39.6 1586.05,-39.6"/>
<polygon fill="black" stroke="black" points="1585.88,-43.1 1595.88,-39.6 1585.88,-36.1 1585.88,-43.1"/>
<text text-anchor="middle" x="1563.58" y="-41.35" font-family="Helvetica,sans-Serif" font-size="10.00">assertz</text>
</g>
<!-- qlf -->
<g id="node11" class="node">
<title>qlf</title>
<path fill="#d4edda" stroke="black" d="M1902.71,-64.35C1902.71,-67.38 1880.63,-69.85 1853.46,-69.85 1826.28,-69.85 1804.21,-67.38 1804.21,-64.35 1804.21,-64.35 1804.21,-14.85 1804.21,-14.85 1804.21,-11.81 1826.28,-9.35 1853.46,-9.35 1880.63,-9.35 1902.71,-11.81 1902.71,-14.85 1902.71,-14.85 1902.71,-64.35 1902.71,-64.35"/>
<path fill="none" stroke="black" d="M1902.71,-64.35C1902.71,-61.31 1880.63,-58.85 1853.46,-58.85 1826.28,-58.85 1804.21,-61.31 1804.21,-64.35"/>
<text text-anchor="middle" x="1853.46" y="-47.15" font-family="Helvetica,sans-Serif" font-size="11.00">Knowledge/kb.qlf</text>
<text text-anchor="middle" x="1853.46" y="-35.15" font-family="Helvetica,sans-Serif" font-size="11.00">(QCompiled</text>
<text text-anchor="middle" x="1853.46" y="-23.15" font-family="Helvetica,sans-Serif" font-size="11.00">bytecode)</text>
</g>
<!-- cache&#45;&gt;qlf -->
<g id="edge10" class="edge">
<title>cache&#45;&gt;qlf</title>
<path fill="none" stroke="black" stroke-dasharray="5,2" d="M1729.54,-40.51C1747.86,-40.67 1767.82,-40.74 1786.21,-40.6 1788.27,-40.58 1790.38,-40.56 1792.5,-40.54"/>
<polygon fill="black" stroke="black" points="1792.5,-44.04 1802.46,-40.43 1792.42,-37.04 1792.5,-44.04"/>
<text text-anchor="middle" x="1766.71" y="-53.67" font-family="Helvetica,sans-Serif" font-size="10.00">qcompile</text>
<text text-anchor="middle" x="1766.71" y="-42.42" font-family="Helvetica,sans-Serif" font-size="10.00">(&#45;&#45;sync)</text>
</g>
<!-- qlf&#45;&gt;cache -->
<g id="edge11" class="edge">
<title>qlf&#45;&gt;cache</title>
<path fill="none" stroke="black" stroke-dasharray="5,2" d="M1803.84,-18.59C1797.99,-16.75 1792.02,-15.18 1786.21,-14.1 1771.34,-11.34 1755.5,-11.99 1740.33,-14.4"/>
<polygon fill="black" stroke="black" points="1740.1,-10.88 1730.92,-16.17 1741.39,-17.77 1740.1,-10.88"/>
<text text-anchor="middle" x="1766.71" y="-27.1" font-family="Helvetica,sans-Serif" font-size="10.00">qload</text>
<text text-anchor="middle" x="1766.71" y="-15.85" font-family="Helvetica,sans-Serif" font-size="10.00">(startup)</text>
</g>
</g>
</svg>
