<?xml version="1.0" encoding="UTF-8" standalone="no"?>
<!DOCTYPE svg PUBLIC "-//W3C//DTD SVG 1.1//EN"
 "http://www.w3.org/Graphics/SVG/1.1/DTD/svg11.dtd">
<!-- Generated by graphviz version 12.2.1 (20241206.2353)
 -->
<!-- Title: dep_atom Pages: 1 -->
<svg width="877pt" height="343pt"
 viewBox="0.00 0.00 877.00 343.25" xmlns="http://www.w3.org/2000/svg" xmlns:xlink="http://www.w3.org/1999/xlink">
<g id="graph0" class="graph" transform="scale(1 1) rotate(0) translate(4 339.25)">
<title>dep_atom</title>
<polygon fill="white" stroke="none" points="-4,4 -4,-339.25 873,-339.25 873,4 -4,4"/>
<!-- full -->
<g id="node1" class="node">
<title>full</title>
<polygon fill="#fff3cd" stroke="black" points="456.38,-335.25 221.38,-335.25 221.38,-299.25 456.38,-299.25 456.38,-335.25"/>
<text text-anchor="middle" x="338.88" y="-311.65" font-family="Helvetica,sans-Serif" font-size="13.00">&gt;=dev&#45;libs/openssl&#45;3.0:0/3=[ssl,&#45;test]</text>
</g>
<!-- piece_op -->
<g id="node10" class="node">
<title>piece_op</title>
<ellipse fill="#d4edda" stroke="black" cx="78.88" cy="-244.25" rx="27" ry="18"/>
<text text-anchor="middle" x="78.88" y="-239.8" font-family="Helvetica,sans-Serif" font-size="11.00">&gt;=</text>
</g>
<!-- full&#45;&gt;piece_op -->
<!-- piece_cat -->
<g id="node11" class="node">
<title>piece_cat</title>
<ellipse fill="#d4edda" stroke="black" cx="160.88" cy="-244.25" rx="31.72" ry="18"/>
<text text-anchor="middle" x="160.88" y="-239.8" font-family="Helvetica,sans-Serif" font-size="11.00">dev&#45;libs</text>
</g>
<!-- full&#45;&gt;piece_cat -->
<!-- piece_sep -->
<g id="node12" class="node">
<title>piece_sep</title>
<ellipse fill="#d4edda" stroke="black" cx="249.88" cy="-244.25" rx="27" ry="18"/>
<text text-anchor="middle" x="249.88" y="-239.8" font-family="Helvetica,sans-Serif" font-size="11.00">/</text>
</g>
<!-- full&#45;&gt;piece_sep -->
<!-- piece_pkg -->
<g id="node13" class="node">
<title>piece_pkg</title>
<ellipse fill="#d4edda" stroke="black" cx="338.88" cy="-244.25" rx="31.72" ry="18"/>
<text text-anchor="middle" x="338.88" y="-239.8" font-family="Helvetica,sans-Serif" font-size="11.00">openssl</text>
</g>
<!-- full&#45;&gt;piece_pkg -->
<!-- piece_ver -->
<g id="node14" class="node">
<title>piece_ver</title>
<ellipse fill="#d4edda" stroke="black" cx="429.88" cy="-244.25" rx="27" ry="18"/>
<text text-anchor="middle" x="429.88" y="-239.8" font-family="Helvetica,sans-Serif" font-size="11.00">&#45;3.0</text>
</g>
<!-- full&#45;&gt;piece_ver -->
<!-- piece_slot -->
<g id="node15" class="node">
<title>piece_slot</title>
<ellipse fill="#d4edda" stroke="black" cx="533.88" cy="-244.25" rx="27" ry="18"/>
<text text-anchor="middle" x="533.88" y="-239.8" font-family="Helvetica,sans-Serif" font-size="11.00">:0/3=</text>
</g>
<!-- full&#45;&gt;piece_slot -->
<!-- piece_use -->
<g id="node16" class="node">
<title>piece_use</title>
<ellipse fill="#d4edda" stroke="black" cx="659.88" cy="-244.25" rx="35.33" ry="18"/>
<text text-anchor="middle" x="659.88" y="-239.8" font-family="Helvetica,sans-Serif" font-size="11.00">[ssl,&#45;test]</text>
</g>
<!-- full&#45;&gt;piece_use -->
<!-- blocking -->
<g id="node2" class="node">
<title>blocking</title>
<polygon fill="#cce5ff" stroke="black" points="869,-175 790.75,-175 790.75,-139 869,-139 869,-175"/>
<text text-anchor="middle" x="829.88" y="-158.55" font-family="Helvetica,sans-Serif" font-size="11.00">eapi:blocking</text>
<text text-anchor="middle" x="829.88" y="-146.55" font-family="Helvetica,sans-Serif" font-size="11.00">(none)</text>
</g>
<!-- result -->
<g id="node17" class="node">
<title>result</title>
<polygon fill="#e8e8e8" stroke="black" points="524.25,-98 363.5,-98 363.5,0 524.25,0 524.25,-98"/>
<text text-anchor="middle" x="443.88" y="-84.5" font-family="Helvetica,sans-Serif" font-size="10.00">package_dependency(</text>
<text text-anchor="middle" x="443.88" y="-73.25" font-family="Helvetica,sans-Serif" font-size="10.00"> &#160;install, no,</text>
<text text-anchor="middle" x="443.88" y="-62" font-family="Helvetica,sans-Serif" font-size="10.00"> &#160;&#39;dev&#45;libs&#39;, openssl,</text>
<text text-anchor="middle" x="443.88" y="-50.75" font-family="Helvetica,sans-Serif" font-size="10.00"> &#160;greaterequal,</text>
<text text-anchor="middle" x="443.88" y="-39.5" font-family="Helvetica,sans-Serif" font-size="10.00"> &#160;version([3,0], &#39;&#39;, 4, 0, &#39;&#39;, 0, &#39;3.0&#39;),</text>
<text text-anchor="middle" x="443.88" y="-28.25" font-family="Helvetica,sans-Serif" font-size="10.00"> &#160;[slot(&#39;0&#39;), subslot(&#39;3&#39;), equal],</text>
<text text-anchor="middle" x="443.88" y="-17" font-family="Helvetica,sans-Serif" font-size="10.00"> &#160;[use(enable(ssl),none),</text>
<text text-anchor="middle" x="443.88" y="-5.75" font-family="Helvetica,sans-Serif" font-size="10.00"> &#160;&#160;use(disable(test),none)])</text>
</g>
<!-- blocking&#45;&gt;result -->
<!-- operator -->
<g id="node3" class="node">
<title>operator</title>
<polygon fill="#cce5ff" stroke="black" points="79.75,-175 0,-175 0,-139 79.75,-139 79.75,-175"/>
<text text-anchor="middle" x="39.88" y="-158.55" font-family="Helvetica,sans-Serif" font-size="11.00">eapi:operator</text>
<text text-anchor="middle" x="39.88" y="-146.55" font-family="Helvetica,sans-Serif" font-size="11.00">greaterequal</text>
</g>
<!-- operator&#45;&gt;result -->
<g id="edge16" class="edge">
<title>operator&#45;&gt;result</title>
<path fill="none" stroke="black" d="M78.96,-138.55C82.29,-137.28 85.62,-136.08 88.88,-135 176.71,-105.9 279.83,-82.34 352.23,-67.47"/>
<polygon fill="black" stroke="black" points="352.54,-70.98 361.64,-65.56 351.15,-64.12 352.54,-70.98"/>
</g>
<!-- category -->
<g id="node4" class="node">
<title>category</title>
<polygon fill="#cce5ff" stroke="black" points="178.12,-175 97.62,-175 97.62,-139 178.12,-139 178.12,-175"/>
<text text-anchor="middle" x="137.88" y="-158.55" font-family="Helvetica,sans-Serif" font-size="11.00">eapi:category</text>
<text text-anchor="middle" x="137.88" y="-146.55" font-family="Helvetica,sans-Serif" font-size="11.00">&#39;dev&#45;libs&#39;</text>
</g>
<!-- category&#45;&gt;result -->
<g id="edge17" class="edge">
<title>category&#45;&gt;result</title>
<path fill="none" stroke="black" d="M178.43,-138.66C181.61,-137.39 184.79,-136.16 187.88,-135 241.88,-114.73 303.19,-94.28 352.27,-78.53"/>
<polygon fill="black" stroke="black" points="353.28,-81.88 361.74,-75.5 351.15,-75.21 353.28,-81.88"/>
</g>
<!-- sep -->
<g id="node5" class="node">
<title>sep</title>
<polygon fill="#cce5ff" stroke="black" points="281.38,-175 196.38,-175 196.38,-139 281.38,-139 281.38,-175"/>
<text text-anchor="middle" x="238.88" y="-158.55" font-family="Helvetica,sans-Serif" font-size="11.00">eapi:separator</text>
<text text-anchor="middle" x="238.88" y="-146.55" font-family="Helvetica,sans-Serif" font-size="11.00">/</text>
</g>
<!-- package -->
<g id="node6" class="node">
<title>package</title>
<polygon fill="#cce5ff" stroke="black" points="378.75,-175 299,-175 299,-139 378.75,-139 378.75,-175"/>
<text text-anchor="middle" x="338.88" y="-158.55" font-family="Helvetica,sans-Serif" font-size="11.00">eapi:package</text>
<text text-anchor="middle" x="338.88" y="-146.55" font-family="Helvetica,sans-Serif" font-size="11.00">openssl</text>
</g>
<!-- package&#45;&gt;result -->
<g id="edge18" class="edge">
<title>package&#45;&gt;result</title>
<path fill="none" stroke="black" d="M355.75,-138.97C364.78,-129.85 376.48,-118.04 388.39,-106.02"/>
<polygon fill="black" stroke="black" points="390.6,-108.76 395.15,-99.19 385.63,-103.83 390.6,-108.76"/>
</g>
<!-- version -->
<g id="node7" class="node">
<title>version</title>
<polygon fill="#cce5ff" stroke="black" points="490.88,-175 396.88,-175 396.88,-139 490.88,-139 490.88,-175"/>
<text text-anchor="middle" x="443.88" y="-158.55" font-family="Helvetica,sans-Serif" font-size="11.00">eapi:version0</text>
<text text-anchor="middle" x="443.88" y="-146.55" font-family="Helvetica,sans-Serif" font-size="11.00">version([3,0], ...)</text>
</g>
<!-- version&#45;&gt;result -->
<g id="edge19" class="edge">
<title>version&#45;&gt;result</title>
<path fill="none" stroke="black" d="M443.88,-138.97C443.88,-130.72 443.88,-120.26 443.88,-109.44"/>
<polygon fill="black" stroke="black" points="447.38,-109.63 443.88,-99.63 440.38,-109.63 447.38,-109.63"/>
</g>
<!-- slot -->
<g id="node8" class="node">
<title>slot</title>
<polygon fill="#cce5ff" stroke="black" points="623,-179 508.75,-179 508.75,-135 623,-135 623,-179"/>
<text text-anchor="middle" x="565.88" y="-164.55" font-family="Helvetica,sans-Serif" font-size="11.00">eapi:slot_restriction</text>
<text text-anchor="middle" x="565.88" y="-152.55" font-family="Helvetica,sans-Serif" font-size="11.00">[slot(&#39;0&#39;), subslot(&#39;3&#39;),</text>
<text text-anchor="middle" x="565.88" y="-140.55" font-family="Helvetica,sans-Serif" font-size="11.00">equal]</text>
</g>
<!-- slot&#45;&gt;result -->
<g id="edge20" class="edge">
<title>slot&#45;&gt;result</title>
<path fill="none" stroke="black" d="M541.19,-134.55C531.49,-126.13 519.88,-116.04 508.1,-105.8"/>
<polygon fill="black" stroke="black" points="510.51,-103.26 500.67,-99.34 505.92,-108.54 510.51,-103.26"/>
</g>
<!-- usedeps -->
<g id="node9" class="node">
<title>usedeps</title>
<polygon fill="#cce5ff" stroke="black" points="773,-179 640.75,-179 640.75,-135 773,-135 773,-179"/>
<text text-anchor="middle" x="706.88" y="-164.55" font-family="Helvetica,sans-Serif" font-size="11.00">eapi:use_dependencies</text>
<text text-anchor="middle" x="706.88" y="-152.55" font-family="Helvetica,sans-Serif" font-size="11.00">[use(enable(ssl), none),</text>
<text text-anchor="middle" x="706.88" y="-140.55" font-family="Helvetica,sans-Serif" font-size="11.00">use(disable(test), none)]</text>
</g>
<!-- usedeps&#45;&gt;result -->
<g id="edge21" class="edge">
<title>usedeps&#45;&gt;result</title>
<path fill="none" stroke="black" d="M653.65,-134.55C619.62,-120.83 574.59,-102.68 534.98,-86.72"/>
<polygon fill="black" stroke="black" points="536.49,-83.55 525.9,-83.06 533.87,-90.04 536.49,-83.55"/>
</g>
<!-- piece_op&#45;&gt;operator -->
<g id="edge8" class="edge">
<title>piece_op&#45;&gt;operator</title>
<path fill="none" stroke="black" d="M71.36,-226.81C66.01,-215.13 58.71,-199.16 52.48,-185.55"/>
<polygon fill="black" stroke="black" points="55.75,-184.28 48.4,-176.64 49.38,-187.19 55.75,-184.28"/>
<text text-anchor="middle" x="73.71" y="-198.75" font-family="Helvetica,sans-Serif" font-size="10.00">parse</text>
</g>
<!-- piece_cat&#45;&gt;category -->
<g id="edge9" class="edge">
<title>piece_cat&#45;&gt;category</title>
<path fill="none" stroke="black" d="M156.22,-226C153.13,-214.56 149.01,-199.29 145.46,-186.11"/>
<polygon fill="black" stroke="black" points="148.9,-185.43 142.92,-176.69 142.14,-187.25 148.9,-185.43"/>
<text text-anchor="middle" x="162.75" y="-198.75" font-family="Helvetica,sans-Serif" font-size="10.00">parse</text>
</g>
<!-- piece_sep&#45;&gt;sep -->
<g id="edge10" class="edge">
<title>piece_sep&#45;&gt;sep</title>
<path fill="none" stroke="black" d="M247.65,-226C246.19,-214.67 244.24,-199.59 242.55,-186.51"/>
<polygon fill="black" stroke="black" points="246.04,-186.2 241.29,-176.73 239.1,-187.09 246.04,-186.2"/>
<text text-anchor="middle" x="257.03" y="-198.75" font-family="Helvetica,sans-Serif" font-size="10.00">parse</text>
</g>
<!-- piece_pkg&#45;&gt;package -->
<g id="edge11" class="edge">
<title>piece_pkg&#45;&gt;package</title>
<path fill="none" stroke="black" d="M338.88,-226C338.88,-214.67 338.88,-199.59 338.88,-186.51"/>
<polygon fill="black" stroke="black" points="342.38,-186.74 338.88,-176.74 335.38,-186.74 342.38,-186.74"/>
<text text-anchor="middle" x="350.88" y="-198.75" font-family="Helvetica,sans-Serif" font-size="10.00">parse</text>
</g>
<!-- piece_ver&#45;&gt;version -->
<g id="edge12" class="edge">
<title>piece_ver&#45;&gt;version</title>
<path fill="none" stroke="black" d="M432.71,-226C434.57,-214.67 437.04,-199.59 439.19,-186.51"/>
<polygon fill="black" stroke="black" points="442.63,-187.15 440.8,-176.72 435.73,-186.02 442.63,-187.15"/>
<text text-anchor="middle" x="449.29" y="-198.75" font-family="Helvetica,sans-Serif" font-size="10.00">parse</text>
</g>
<!-- piece_slot&#45;&gt;slot -->
<g id="edge13" class="edge">
<title>piece_slot&#45;&gt;slot</title>
<path fill="none" stroke="black" d="M540.2,-226.41C544.11,-215.97 549.27,-202.24 553.93,-189.82"/>
<polygon fill="black" stroke="black" points="557.09,-191.36 557.33,-180.77 550.54,-188.9 557.09,-191.36"/>
<text text-anchor="middle" x="562.83" y="-198.75" font-family="Helvetica,sans-Serif" font-size="10.00">parse</text>
</g>
<!-- piece_use&#45;&gt;usedeps -->
<g id="edge14" class="edge">
<title>piece_use&#45;&gt;usedeps</title>
<path fill="none" stroke="black" d="M669.16,-226.41C675.03,-215.76 682.79,-201.68 689.75,-189.06"/>
<polygon fill="black" stroke="black" points="692.61,-191.12 694.37,-180.68 686.48,-187.75 692.61,-191.12"/>
<text text-anchor="middle" x="696.78" y="-198.75" font-family="Helvetica,sans-Serif" font-size="10.00">parse</text>
</g>
</g>
</svg>
