<?xml version="1.0" encoding="UTF-8" standalone="no"?>
<!DOCTYPE svg PUBLIC "-//W3C//DTD SVG 1.1//EN"
 "http://www.w3.org/Graphics/SVG/1.1/DTD/svg11.dtd">
<!-- Generated by graphviz version 12.2.1 (20241206.2353)
 -->
<!-- Title: model_construction Pages: 1 -->
<svg width="436pt" height="599pt"
 viewBox="0.00 0.00 436.28 599.29" xmlns="http://www.w3.org/2000/svg" xmlns:xlink="http://www.w3.org/1999/xlink">
<g id="graph0" class="graph" transform="scale(1 1) rotate(0) translate(4 595.29)">
<title>model_construction</title>
<polygon fill="white" stroke="none" points="-4,4 -4,-595.29 432.28,-595.29 432.28,4 -4,4"/>
<!-- literal -->
<g id="node1" class="node">
<title>literal</title>
<ellipse fill="#fff3cd" stroke="black" cx="139.89" cy="-564.05" rx="72.15" ry="27.24"/>
<text text-anchor="middle" x="139.89" y="-567.1" font-family="Helvetica Neue" font-size="11.00">Literal arrives</text>
<text text-anchor="middle" x="139.89" y="-553.6" font-family="Helvetica Neue" font-size="11.00">from proof queue</text>
</g>
<!-- in_model -->
<g id="node2" class="node">
<title>in_model</title>
<polygon fill="#e8e8e8" stroke="black" points="139.89,-503.82 82.29,-475.02 139.89,-446.22 197.49,-475.02 139.89,-503.82"/>
<text text-anchor="middle" x="139.89" y="-478.07" font-family="Helvetica Neue" font-size="11.00">Literal in</text>
<text text-anchor="middle" x="139.89" y="-464.57" font-family="Helvetica Neue" font-size="11.00">Model?</text>
</g>
<!-- literal&#45;&gt;in_model -->
<g id="edge1" class="edge">
<title>literal&#45;&gt;in_model</title>
<path fill="none" stroke="black" d="M139.89,-536.47C139.89,-529.85 139.89,-522.62 139.89,-515.53"/>
<polygon fill="black" stroke="black" points="143.39,-515.77 139.89,-505.77 136.39,-515.77 143.39,-515.77"/>
</g>
<!-- prove -->
<g id="node3" class="node">
<title>prove</title>
<polygon fill="#cce5ff" stroke="black" points="126.4,-392.68 9.37,-392.68 9.37,-354.16 126.4,-354.16 126.4,-392.68"/>
<text text-anchor="middle" x="67.89" y="-376.47" font-family="Helvetica Neue" font-size="11.00">Prove via rule/2</text>
<text text-anchor="middle" x="67.89" y="-362.97" font-family="Helvetica Neue" font-size="11.00">expand body literals</text>
</g>
<!-- in_model&#45;&gt;prove -->
<g id="edge2" class="edge">
<title>in_model&#45;&gt;prove</title>
<path fill="none" stroke="black" d="M124.97,-453.38C114.23,-438.52 99.62,-418.31 87.87,-402.05"/>
<polygon fill="black" stroke="black" points="90.91,-400.29 82.22,-394.24 85.24,-404.39 90.91,-400.29"/>
<text text-anchor="middle" x="120.95" y="-420.72" font-family="Helvetica Neue" font-size="10.00" fill="#333333"> &#160;No &#160;</text>
</g>
<!-- same_ctx -->
<g id="node6" class="node">
<title>same_ctx</title>
<polygon fill="#e8e8e8" stroke="black" points="213.89,-402.22 143.96,-373.42 213.89,-344.62 283.82,-373.42 213.89,-402.22"/>
<text text-anchor="middle" x="213.89" y="-376.47" font-family="Helvetica Neue" font-size="11.00">Context</text>
<text text-anchor="middle" x="213.89" y="-362.97" font-family="Helvetica Neue" font-size="11.00">equivalent?</text>
</g>
<!-- in_model&#45;&gt;same_ctx -->
<g id="edge3" class="edge">
<title>in_model&#45;&gt;same_ctx</title>
<path fill="none" stroke="black" d="M155.22,-453.38C165.63,-439.37 179.56,-420.62 191.24,-404.9"/>
<polygon fill="black" stroke="black" points="193.75,-407.39 196.91,-397.27 188.13,-403.21 193.75,-407.39"/>
<text text-anchor="middle" x="195.2" y="-420.72" font-family="Helvetica Neue" font-size="10.00" fill="#333333"> &#160;Yes &#160;</text>
</g>
<!-- add_model -->
<g id="node4" class="node">
<title>add_model</title>
<polygon fill="#cce5ff" stroke="black" points="111.03,-300.62 24.75,-300.62 24.75,-261.35 111.03,-261.35 111.03,-300.62"/>
<text text-anchor="middle" x="67.89" y="-284.41" font-family="Helvetica Neue" font-size="11.00">Add to Model</text>
<text text-anchor="middle" x="67.89" y="-270.91" font-family="Helvetica Neue" font-size="11.00">Lit → Context</text>
</g>
<!-- prove&#45;&gt;add_model -->
<g id="edge4" class="edge">
<title>prove&#45;&gt;add_model</title>
<path fill="none" stroke="black" d="M67.89,-353.68C67.89,-341.75 67.89,-326.04 67.89,-312.36"/>
<polygon fill="black" stroke="black" points="71.39,-312.52 67.89,-302.52 64.39,-312.52 71.39,-312.52"/>
</g>
<!-- add_proof -->
<g id="node5" class="node">
<title>add_proof</title>
<polygon fill="#cce5ff" stroke="black" points="135.78,-219.18 0,-219.18 0,-179.91 135.78,-179.91 135.78,-219.18"/>
<text text-anchor="middle" x="67.89" y="-202.97" font-family="Helvetica Neue" font-size="11.00">Record in Proof</text>
<text text-anchor="middle" x="67.89" y="-189.47" font-family="Helvetica Neue" font-size="11.00">rule(Lit) → dep(N, Body)</text>
</g>
<!-- add_model&#45;&gt;add_proof -->
<g id="edge5" class="edge">
<title>add_model&#45;&gt;add_proof</title>
<path fill="none" stroke="black" d="M67.89,-261.16C67.89,-252.12 67.89,-241.07 67.89,-230.89"/>
<polygon fill="black" stroke="black" points="71.39,-231.02 67.89,-221.02 64.39,-231.02 71.39,-231.02"/>
</g>
<!-- skip -->
<g id="node7" class="node">
<title>skip</title>
<polygon fill="#d4edda" stroke="black" points="242.9,-300.24 146.88,-300.24 146.88,-261.72 242.9,-261.72 242.9,-300.24"/>
<text text-anchor="middle" x="194.89" y="-284.03" font-family="Helvetica Neue" font-size="11.00">Skip</text>
<text text-anchor="middle" x="194.89" y="-270.53" font-family="Helvetica Neue" font-size="11.00">(already proven)</text>
</g>
<!-- same_ctx&#45;&gt;skip -->
<g id="edge6" class="edge">
<title>same_ctx&#45;&gt;skip</title>
<path fill="none" stroke="black" d="M208.5,-346.74C206.2,-335.81 203.51,-323 201.13,-311.66"/>
<polygon fill="black" stroke="black" points="204.58,-311.08 199.1,-302.01 197.73,-312.52 204.58,-311.08"/>
<text text-anchor="middle" x="218.26" y="-319.12" font-family="Helvetica Neue" font-size="10.00" fill="#333333"> &#160;Yes &#160;</text>
</g>
<!-- merge -->
<g id="node8" class="node">
<title>merge</title>
<polygon fill="#f8d7da" stroke="black" points="342.4,-300.24 261.38,-300.24 261.38,-261.72 342.4,-261.72 342.4,-300.24"/>
<text text-anchor="middle" x="301.89" y="-284.03" font-family="Helvetica Neue" font-size="11.00">Feature term</text>
<text text-anchor="middle" x="301.89" y="-270.53" font-family="Helvetica Neue" font-size="11.00">unification</text>
</g>
<!-- same_ctx&#45;&gt;merge -->
<g id="edge7" class="edge">
<title>same_ctx&#45;&gt;merge</title>
<path fill="none" stroke="black" d="M233.42,-352.35C246.03,-339.38 262.58,-322.38 276.25,-308.33"/>
<polygon fill="black" stroke="black" points="278.39,-311.15 282.86,-301.54 273.37,-306.27 278.39,-311.15"/>
<text text-anchor="middle" x="278.52" y="-319.12" font-family="Helvetica Neue" font-size="10.00" fill="#333333"> &#160;No &#160;</text>
</g>
<!-- merge_ok -->
<g id="node9" class="node">
<title>merge_ok</title>
<polygon fill="#e8e8e8" stroke="black" points="301.89,-228.35 234.81,-199.55 301.89,-170.75 368.97,-199.55 301.89,-228.35"/>
<text text-anchor="middle" x="301.89" y="-202.6" font-family="Helvetica Neue" font-size="11.00">Merge</text>
<text text-anchor="middle" x="301.89" y="-189.1" font-family="Helvetica Neue" font-size="11.00">succeeds?</text>
</g>
<!-- merge&#45;&gt;merge_ok -->
<g id="edge8" class="edge">
<title>merge&#45;&gt;merge_ok</title>
<path fill="none" stroke="black" d="M301.89,-261.56C301.89,-255.1 301.89,-247.59 301.89,-240.08"/>
<polygon fill="black" stroke="black" points="305.39,-240.34 301.89,-230.34 298.39,-240.34 305.39,-240.34"/>
</g>
<!-- backtrack -->
<g id="node10" class="node">
<title>backtrack</title>
<ellipse fill="#f5c6cb" stroke="black" cx="260.89" cy="-99.51" rx="48.28" ry="27.24"/>
<text text-anchor="middle" x="260.89" y="-102.56" font-family="Helvetica Neue" font-size="11.00">Backtrack</text>
<text text-anchor="middle" x="260.89" y="-89.06" font-family="Helvetica Neue" font-size="11.00">(conflict)</text>
</g>
<!-- merge_ok&#45;&gt;backtrack -->
<g id="edge9" class="edge">
<title>merge_ok&#45;&gt;backtrack</title>
<path fill="none" stroke="black" d="M291.86,-174.56C287.08,-163.14 281.27,-149.23 275.97,-136.57"/>
<polygon fill="black" stroke="black" points="279.35,-135.57 272.26,-127.7 272.89,-138.28 279.35,-135.57"/>
<text text-anchor="middle" x="295.37" y="-145.25" font-family="Helvetica Neue" font-size="10.00" fill="#333333"> &#160;No &#160;</text>
</g>
<!-- diff -->
<g id="node11" class="node">
<title>diff</title>
<polygon fill="#cce5ff" stroke="black" points="426.78,-118.77 327,-118.77 327,-80.25 426.78,-80.25 426.78,-118.77"/>
<text text-anchor="middle" x="376.89" y="-102.56" font-family="Helvetica Neue" font-size="11.00">Re&#45;expand only</text>
<text text-anchor="middle" x="376.89" y="-89.06" font-family="Helvetica Neue" font-size="11.00">new body literals</text>
</g>
<!-- merge_ok&#45;&gt;diff -->
<g id="edge10" class="edge">
<title>merge_ok&#45;&gt;diff</title>
<path fill="none" stroke="black" d="M318.16,-177.27C329.26,-162.77 344.04,-143.44 356,-127.81"/>
<polygon fill="black" stroke="black" points="358.45,-130.37 361.75,-120.3 352.89,-126.11 358.45,-130.37"/>
<text text-anchor="middle" x="357.76" y="-145.25" font-family="Helvetica Neue" font-size="10.00" fill="#333333"> &#160;Yes &#160;</text>
</g>
<!-- update -->
<g id="node12" class="node">
<title>update</title>
<polygon fill="#cce5ff" stroke="black" points="428.28,-39.27 325.5,-39.27 325.5,0 428.28,0 428.28,-39.27"/>
<text text-anchor="middle" x="376.89" y="-23.06" font-family="Helvetica Neue" font-size="11.00">Update Model</text>
<text text-anchor="middle" x="376.89" y="-9.56" font-family="Helvetica Neue" font-size="11.00">Lit → MergedCtx</text>
</g>
<!-- diff&#45;&gt;update -->
<g id="edge11" class="edge">
<title>diff&#45;&gt;update</title>
<path fill="none" stroke="black" d="M376.89,-80.05C376.89,-71.36 376.89,-60.75 376.89,-50.92"/>
<polygon fill="black" stroke="black" points="380.39,-51.01 376.89,-41.01 373.39,-51.01 380.39,-51.01"/>
</g>
</g>
</svg>
