<?xml version="1.0" encoding="UTF-8" standalone="no"?>
<!DOCTYPE svg PUBLIC "-//W3C//DTD SVG 1.1//EN"
 "http://www.w3.org/Graphics/SVG/1.1/DTD/svg11.dtd">
<!-- Generated by graphviz version 12.2.1 (20241206.2353)
 -->
<!-- Title: prove_plan Pages: 1 -->
<svg width="785pt" height="254pt"
 viewBox="0.00 0.00 785.43 254.27" xmlns="http://www.w3.org/2000/svg" xmlns:xlink="http://www.w3.org/1999/xlink">
<g id="graph0" class="graph" transform="scale(1 1) rotate(0) translate(4 250.27)">
<title>prove_plan</title>
<polygon fill="white" stroke="none" points="-4,4 -4,-250.27 781.43,-250.27 781.43,4 -4,4"/>
<g id="clust1" class="cluster">
<title>cluster_pipeline</title>
<polygon fill="none" stroke="#666666" stroke-dasharray="5,2" points="200.68,-148.27 200.68,-238.27 628.73,-238.27 628.73,-148.27 200.68,-148.27"/>
<text text-anchor="middle" x="256.3" y="-224.77" font-family="Helvetica Neue" font-size="10.00" fill="#666666">pipeline:prove_plan/5</text>
</g>
<!-- goals -->
<g id="node1" class="node">
<title>goals</title>
<ellipse fill="#fff3cd" stroke="black" cx="86.34" cy="-183.27" rx="37.55" ry="29.27"/>
<text text-anchor="middle" x="86.34" y="-186.32" font-family="Helvetica Neue" font-size="11.00">Goal</text>
<text text-anchor="middle" x="86.34" y="-172.82" font-family="Helvetica Neue" font-size="11.00">literals</text>
</g>
<!-- prove -->
<g id="node2" class="node">
<title>prove</title>
<polygon fill="#cce5ff" stroke="black" points="323.28,-210.72 208.68,-210.72 208.68,-155.82 323.28,-155.82 323.28,-210.72"/>
<text text-anchor="middle" x="265.98" y="-193.07" font-family="Helvetica Neue" font-size="11.00">prover:prove/9</text>
<text text-anchor="middle" x="265.98" y="-179.57" font-family="Helvetica Neue" font-size="11.00">backward chaining</text>
<text text-anchor="middle" x="265.98" y="-166.07" font-family="Helvetica Neue" font-size="11.00">cycle handling</text>
</g>
<!-- goals&#45;&gt;prove -->
<g id="edge3" class="edge">
<title>goals&#45;&gt;prove</title>
<path fill="none" stroke="black" d="M124.14,-183.27C145.21,-183.27 172.29,-183.27 197.08,-183.27"/>
<polygon fill="black" stroke="black" points="196.76,-186.77 206.76,-183.27 196.76,-179.77 196.76,-186.77"/>
</g>
<!-- plan -->
<g id="node3" class="node">
<title>plan</title>
<polygon fill="#cce5ff" stroke="black" points="458.13,-210.72 359.28,-210.72 359.28,-155.82 458.13,-155.82 458.13,-210.72"/>
<text text-anchor="middle" x="408.7" y="-193.07" font-family="Helvetica Neue" font-size="11.00">planner:plan/5</text>
<text text-anchor="middle" x="408.7" y="-179.57" font-family="Helvetica Neue" font-size="11.00">wave planning</text>
<text text-anchor="middle" x="408.7" y="-166.07" font-family="Helvetica Neue" font-size="11.00">(acyclic portion)</text>
</g>
<!-- prove&#45;&gt;plan -->
<g id="edge1" class="edge">
<title>prove&#45;&gt;plan</title>
<path fill="none" stroke="black" d="M323.4,-183.27C331.41,-183.27 339.66,-183.27 347.73,-183.27"/>
<polygon fill="black" stroke="black" points="347.45,-186.77 357.45,-183.27 347.45,-179.77 347.45,-186.77"/>
</g>
<!-- proof_model -->
<g id="node5" class="node">
<title>proof_model</title>
<ellipse fill="#d4edda" stroke="black" cx="86.34" cy="-29.27" rx="86.34" ry="29.27"/>
<text text-anchor="middle" x="86.34" y="-32.32" font-family="Helvetica Neue" font-size="11.00">Proof, Model</text>
<text text-anchor="middle" x="86.34" y="-18.82" font-family="Helvetica Neue" font-size="11.00">Constraints, Triggers</text>
</g>
<!-- prove&#45;&gt;proof_model -->
<g id="edge4" class="edge">
<title>prove&#45;&gt;proof_model</title>
<path fill="none" stroke="black" stroke-dasharray="5,2" d="M248.15,-155.57C231.57,-130.15 204.19,-92.81 172.68,-68.27 167.19,-64.01 161.17,-60.08 154.93,-56.49"/>
<polygon fill="black" stroke="black" points="156.81,-53.53 146.35,-51.86 153.49,-59.69 156.81,-53.53"/>
</g>
<!-- sched -->
<g id="node4" class="node">
<title>sched</title>
<polygon fill="#cce5ff" stroke="black" points="620.73,-210.72 494.13,-210.72 494.13,-155.82 620.73,-155.82 620.73,-210.72"/>
<text text-anchor="middle" x="557.43" y="-193.07" font-family="Helvetica Neue" font-size="11.00">scheduler:schedule/6</text>
<text text-anchor="middle" x="557.43" y="-179.57" font-family="Helvetica Neue" font-size="11.00">SCC decomposition</text>
<text text-anchor="middle" x="557.43" y="-166.07" font-family="Helvetica Neue" font-size="11.00">(remainder)</text>
</g>
<!-- plan&#45;&gt;sched -->
<g id="edge2" class="edge">
<title>plan&#45;&gt;sched</title>
<path fill="none" stroke="black" d="M458.56,-183.27C466.21,-183.27 474.26,-183.27 482.32,-183.27"/>
<polygon fill="black" stroke="black" points="482.17,-186.77 492.17,-183.27 482.17,-179.77 482.17,-186.77"/>
</g>
<!-- plan_out -->
<g id="node6" class="node">
<title>plan_out</title>
<ellipse fill="#d4edda" stroke="black" cx="86.34" cy="-106.27" rx="53.46" ry="29.27"/>
<text text-anchor="middle" x="86.34" y="-109.32" font-family="Helvetica Neue" font-size="11.00">Plan +</text>
<text text-anchor="middle" x="86.34" y="-95.82" font-family="Helvetica Neue" font-size="11.00">Remainder</text>
</g>
<!-- plan&#45;&gt;plan_out -->
<g id="edge5" class="edge">
<title>plan&#45;&gt;plan_out</title>
<path fill="none" stroke="black" stroke-dasharray="5,2" d="M358.85,-160.19C347.37,-155.4 335.04,-150.75 323.28,-147.27 265.88,-130.3 198.43,-119.45 150.38,-113.21"/>
<polygon fill="black" stroke="black" points="151.07,-109.77 140.71,-111.98 150.19,-116.71 151.07,-109.77"/>
</g>
<!-- final_plan -->
<g id="node7" class="node">
<title>final_plan</title>
<ellipse fill="#d4edda" stroke="black" cx="717.08" cy="-183.27" rx="60.35" ry="29.27"/>
<text text-anchor="middle" x="717.08" y="-186.32" font-family="Helvetica Neue" font-size="11.00">Fully ordered</text>
<text text-anchor="middle" x="717.08" y="-172.82" font-family="Helvetica Neue" font-size="11.00">Plan</text>
</g>
<!-- sched&#45;&gt;final_plan -->
<g id="edge6" class="edge">
<title>sched&#45;&gt;final_plan</title>
<path fill="none" stroke="black" d="M621.19,-183.27C628.97,-183.27 636.98,-183.27 644.89,-183.27"/>
<polygon fill="black" stroke="black" points="644.84,-186.77 654.84,-183.27 644.84,-179.77 644.84,-186.77"/>
</g>
</g>
</svg>
