<?xml version="1.0" encoding="UTF-8" standalone="no"?>
<!DOCTYPE svg PUBLIC "-//W3C//DTD SVG 1.1//EN"
 "http://www.w3.org/Graphics/SVG/1.1/DTD/svg11.dtd">
<!-- Generated by graphviz version 12.2.1 (20241206.2353)
 -->
<!-- Title: prescient Pages: 1 -->
<svg width="325pt" height="401pt"
 viewBox="0.00 0.00 325.01 400.68" xmlns="http://www.w3.org/2000/svg" xmlns:xlink="http://www.w3.org/1999/xlink">
<g id="graph0" class="graph" transform="scale(1 1) rotate(0) translate(4 396.68)">
<title>prescient</title>
<polygon fill="white" stroke="none" points="-4,4 -4,-396.68 321.01,-396.68 321.01,4 -4,4"/>
<!-- firefox -->
<g id="node1" class="node">
<title>firefox</title>
<polygon fill="#cce5ff" stroke="black" points="114.03,-392.68 0,-392.68 0,-354.16 114.03,-354.16 114.03,-392.68"/>
<text text-anchor="middle" x="57.02" y="-376.47" font-family="Helvetica Neue" font-size="11.00">app&#45;editors/neovim</text>
<text text-anchor="middle" x="57.02" y="-362.97" font-family="Helvetica Neue" font-size="11.00">:install</text>
</g>
<!-- ssl_ctx -->
<g id="node3" class="node">
<title>ssl_ctx</title>
<polygon fill="#fff3cd" stroke="black" points="112.91,-306.16 1.12,-306.16 1.12,-267.64 112.91,-267.64 112.91,-306.16"/>
<text text-anchor="middle" x="57.02" y="-289.95" font-family="Helvetica Neue" font-size="11.00">openssl:install</text>
<text text-anchor="middle" x="57.02" y="-276.45" font-family="Helvetica Neue" font-size="11.00">?{use_state([ssl],[])}</text>
</g>
<!-- firefox&#45;&gt;ssl_ctx -->
<g id="edge1" class="edge">
<title>firefox&#45;&gt;ssl_ctx</title>
<path fill="none" stroke="black" d="M57.02,-353.66C57.02,-343.16 57.02,-329.81 57.02,-317.89"/>
<polygon fill="black" stroke="black" points="60.52,-318.12 57.02,-308.12 53.52,-318.12 60.52,-318.12"/>
<text text-anchor="middle" x="102.39" y="-326.66" font-family="Helvetica Neue" font-size="10.00"> &#160;Path A: needs ssl &#160;</text>
</g>
<!-- python -->
<g id="node2" class="node">
<title>python</title>
<polygon fill="#cce5ff" stroke="black" points="254.78,-392.68 157.25,-392.68 157.25,-354.16 254.78,-354.16 254.78,-392.68"/>
<text text-anchor="middle" x="206.01" y="-376.47" font-family="Helvetica Neue" font-size="11.00">dev&#45;lang/python</text>
<text text-anchor="middle" x="206.01" y="-362.97" font-family="Helvetica Neue" font-size="11.00">:install</text>
</g>
<!-- thr_ctx -->
<g id="node4" class="node">
<title>thr_ctx</title>
<polygon fill="#fff3cd" stroke="black" points="274.28,-306.16 137.75,-306.16 137.75,-267.64 274.28,-267.64 274.28,-306.16"/>
<text text-anchor="middle" x="206.01" y="-289.95" font-family="Helvetica Neue" font-size="11.00">openssl:install</text>
<text text-anchor="middle" x="206.01" y="-276.45" font-family="Helvetica Neue" font-size="11.00">?{use_state([threads],[])}</text>
</g>
<!-- python&#45;&gt;thr_ctx -->
<g id="edge2" class="edge">
<title>python&#45;&gt;thr_ctx</title>
<path fill="none" stroke="black" d="M206.01,-353.66C206.01,-343.16 206.01,-329.81 206.01,-317.89"/>
<polygon fill="black" stroke="black" points="209.52,-318.12 206.02,-308.12 202.52,-318.12 209.52,-318.12"/>
<text text-anchor="middle" x="261.51" y="-326.66" font-family="Helvetica Neue" font-size="10.00"> &#160;Path B: needs threads &#160;</text>
</g>
<!-- merge -->
<g id="node5" class="node">
<title>merge</title>
<polygon fill="#e8e8e8" stroke="black" points="131.01,-219.64 53.95,-190.84 131.01,-162.04 208.08,-190.84 131.01,-219.64"/>
<text text-anchor="middle" x="131.01" y="-193.89" font-family="Helvetica Neue" font-size="11.00">Feature term</text>
<text text-anchor="middle" x="131.01" y="-180.39" font-family="Helvetica Neue" font-size="11.00">unification</text>
</g>
<!-- ssl_ctx&#45;&gt;merge -->
<g id="edge3" class="edge">
<title>ssl_ctx&#45;&gt;merge</title>
<path fill="none" stroke="black" d="M67.51,-267.46C73.05,-258.21 80.21,-247.02 87.52,-237.64 92.13,-231.71 97.4,-225.67 102.63,-220.01"/>
<polygon fill="black" stroke="black" points="104.8,-222.8 109.15,-213.14 99.73,-217.98 104.8,-222.8"/>
<text text-anchor="middle" x="125.77" y="-240.14" font-family="Helvetica Neue" font-size="10.00"> &#160;stored context &#160;</text>
</g>
<!-- thr_ctx&#45;&gt;merge -->
<g id="edge4" class="edge">
<title>thr_ctx&#45;&gt;merge</title>
<path fill="none" stroke="black" d="M191.2,-267.32C180.95,-254.46 167.07,-237.06 155.23,-222.2"/>
<polygon fill="black" stroke="black" points="158.08,-220.17 149.11,-214.53 152.61,-224.53 158.08,-220.17"/>
<text text-anchor="middle" x="208.23" y="-240.14" font-family="Helvetica Neue" font-size="10.00"> &#160;new context &#160;</text>
</g>
<!-- merged -->
<g id="node6" class="node">
<title>merged</title>
<polygon fill="#d4edda" stroke="black" points="207.15,-114.04 54.87,-114.04 54.87,-75.52 207.15,-75.52 207.15,-114.04"/>
<text text-anchor="middle" x="131.01" y="-97.83" font-family="Helvetica Neue" font-size="11.00">openssl:install</text>
<text text-anchor="middle" x="131.01" y="-84.33" font-family="Helvetica Neue" font-size="11.00">?{use_state([ssl,threads],[])}</text>
</g>
<!-- merge&#45;&gt;merged -->
<g id="edge5" class="edge">
<title>merge&#45;&gt;merged</title>
<path fill="none" stroke="black" d="M131.01,-161.62C131.01,-150.29 131.01,-137.23 131.01,-125.73"/>
<polygon fill="black" stroke="black" points="134.52,-125.98 131.02,-115.98 127.52,-125.98 134.52,-125.98"/>
<text text-anchor="middle" x="173.39" y="-134.54" font-family="Helvetica Neue" font-size="10.00"> &#160;merge succeeds &#160;</text>
</g>
<!-- re_expand -->
<g id="node7" class="node">
<title>re_expand</title>
<polygon fill="#cce5ff" stroke="black" points="180.91,-38.52 81.12,-38.52 81.12,0 180.91,0 180.91,-38.52"/>
<text text-anchor="middle" x="131.01" y="-22.31" font-family="Helvetica Neue" font-size="11.00">Re&#45;expand only</text>
<text text-anchor="middle" x="131.01" y="-8.81" font-family="Helvetica Neue" font-size="11.00">new body literals</text>
</g>
<!-- merged&#45;&gt;re_expand -->
<g id="edge6" class="edge">
<title>merged&#45;&gt;re_expand</title>
<path fill="none" stroke="black" d="M131.01,-75.23C131.01,-67.65 131.01,-58.7 131.01,-50.24"/>
<polygon fill="black" stroke="black" points="134.52,-50.32 131.02,-40.32 127.52,-50.32 134.52,-50.32"/>
</g>
</g>
</svg>
