<?xml version="1.0" encoding="UTF-8" standalone="no"?>
<!DOCTYPE svg PUBLIC "-//W3C//DTD SVG 1.1//EN"
 "http://www.w3.org/Graphics/SVG/1.1/DTD/svg11.dtd">
<!-- Generated by graphviz version 12.2.1 (20241206.2353)
 -->
<!-- Title: stable_models Pages: 1 -->
<svg width="301pt" height="392pt"
 viewBox="0.00 0.00 301.00 391.64" xmlns="http://www.w3.org/2000/svg" xmlns:xlink="http://www.w3.org/1999/xlink">
<g id="graph0" class="graph" transform="scale(1 1) rotate(0) translate(4 387.64)">
<title>stable_models</title>
<polygon fill="white" stroke="none" points="-4,4 -4,-387.64 297,-387.64 297,4 -4,4"/>
<g id="clust1" class="cluster">
<title>cluster_a</title>
<path fill="#eef4ff" stroke="#2266aa" d="M20,-67.52C20,-67.52 128,-67.52 128,-67.52 134,-67.52 140,-73.52 140,-79.52 140,-79.52 140,-200.52 140,-200.52 140,-206.52 134,-212.52 128,-212.52 128,-212.52 20,-212.52 20,-212.52 14,-212.52 8,-206.52 8,-200.52 8,-200.52 8,-79.52 8,-79.52 8,-73.52 14,-67.52 20,-67.52"/>
<text text-anchor="middle" x="35.12" y="-199.02" font-family="Helvetica Neue" font-size="10.00" fill="#2266aa">Model A</text>
</g>
<g id="clust2" class="cluster">
<title>cluster_b</title>
<path fill="#fff8ee" stroke="#aa6622" d="M165,-67.52C165,-67.52 273,-67.52 273,-67.52 279,-67.52 285,-73.52 285,-79.52 285,-79.52 285,-200.52 285,-200.52 285,-206.52 279,-212.52 273,-212.52 273,-212.52 165,-212.52 165,-212.52 159,-212.52 153,-206.52 153,-200.52 153,-200.52 153,-79.52 153,-79.52 153,-73.52 159,-67.52 165,-67.52"/>
<text text-anchor="middle" x="180.12" y="-199.02" font-family="Helvetica Neue" font-size="10.00" fill="#aa6622">Model B</text>
</g>
<!-- req -->
<g id="node1" class="node">
<title>req</title>
<polygon fill="#fff3cd" stroke="black" points="196.26,-383.64 95.73,-383.64 95.73,-345.12 196.26,-345.12 196.26,-383.64"/>
<text text-anchor="middle" x="146" y="-367.43" font-family="Helvetica Neue" font-size="11.00">REQUIRED_USE</text>
<text text-anchor="middle" x="146" y="-353.93" font-family="Helvetica Neue" font-size="11.00">|| ( linux macos )</text>
</g>
<!-- choice -->
<g id="node2" class="node">
<title>choice</title>
<polygon fill="#e8e8e8" stroke="black" points="146,-308.12 67.51,-279.32 146,-250.52 224.49,-279.32 146,-308.12"/>
<text text-anchor="middle" x="146" y="-282.37" font-family="Helvetica Neue" font-size="11.00">Backtracking</text>
<text text-anchor="middle" x="146" y="-268.87" font-family="Helvetica Neue" font-size="11.00">choice point</text>
</g>
<!-- req&#45;&gt;choice -->
<g id="edge3" class="edge">
<title>req&#45;&gt;choice</title>
<path fill="none" stroke="black" d="M146,-344.95C146,-337.5 146,-328.61 146,-319.83"/>
<polygon fill="black" stroke="black" points="149.5,-320.01 146,-310.01 142.5,-320.01 149.5,-320.01"/>
</g>
<!-- a_flags -->
<g id="node3" class="node">
<title>a_flags</title>
<polygon fill="#cce5ff" stroke="black" points="131.76,-184.52 16.23,-184.52 16.23,-148.52 131.76,-148.52 131.76,-184.52"/>
<text text-anchor="middle" x="74" y="-162.82" font-family="Helvetica Neue" font-size="11.00">USE = linux &#45;macos</text>
</g>
<!-- choice&#45;&gt;a_flags -->
<g id="edge4" class="edge">
<title>choice&#45;&gt;a_flags</title>
<path fill="none" stroke="black" d="M126.36,-257.76C119.62,-250.16 112.32,-241.26 106.5,-232.52 98.73,-220.86 91.59,-207.09 85.99,-195.23"/>
<polygon fill="black" stroke="black" points="89.28,-194.01 81.94,-186.37 82.92,-196.92 89.28,-194.01"/>
<text text-anchor="middle" x="138.75" y="-223.02" font-family="Helvetica Neue" font-size="10.00"> &#160;enable linux &#160;</text>
</g>
<!-- b_flags -->
<g id="node5" class="node">
<title>b_flags</title>
<polygon fill="#fff3cd" stroke="black" points="276.76,-184.52 161.24,-184.52 161.24,-148.52 276.76,-148.52 276.76,-184.52"/>
<text text-anchor="middle" x="219" y="-162.82" font-family="Helvetica Neue" font-size="11.00">USE = &#45;linux macos</text>
</g>
<!-- choice&#45;&gt;b_flags -->
<g id="edge5" class="edge">
<title>choice&#45;&gt;b_flags</title>
<path fill="none" stroke="black" d="M160.95,-255.63C172.69,-237.81 189.06,-212.96 201.43,-194.19"/>
<polygon fill="black" stroke="black" points="204.24,-196.28 206.82,-186 198.4,-192.43 204.24,-196.28"/>
<text text-anchor="middle" x="219.62" y="-223.02" font-family="Helvetica Neue" font-size="10.00"> &#160;enable macos &#160;</text>
</g>
<!-- a_proof -->
<g id="node4" class="node">
<title>a_proof</title>
<polygon fill="#d4edda" stroke="black" points="128.26,-111.52 39.73,-111.52 39.73,-75.52 128.26,-75.52 128.26,-111.52"/>
<text text-anchor="middle" x="84" y="-89.82" font-family="Helvetica Neue" font-size="11.00">Proof + Plan A</text>
</g>
<!-- a_flags&#45;&gt;a_proof -->
<g id="edge1" class="edge">
<title>a_flags&#45;&gt;a_proof</title>
<path fill="none" stroke="black" d="M76.42,-148.33C77.5,-140.66 78.8,-131.41 80.02,-122.76"/>
<polygon fill="black" stroke="black" points="83.46,-123.44 81.39,-113.05 76.53,-122.46 83.46,-123.44"/>
</g>
<!-- compare -->
<g id="node7" class="node">
<title>compare</title>
<polygon fill="#e2d6f3" stroke="black" points="199.26,-38.52 98.73,-38.52 98.73,0 199.26,0 199.26,-38.52"/>
<text text-anchor="middle" x="149" y="-22.31" font-family="Helvetica Neue" font-size="11.00">&#45;&#45;variants</text>
<text text-anchor="middle" x="149" y="-8.81" font-family="Helvetica Neue" font-size="11.00">compare models</text>
</g>
<!-- a_proof&#45;&gt;compare -->
<g id="edge6" class="edge">
<title>a_proof&#45;&gt;compare</title>
<path fill="none" stroke="black" d="M99.73,-75.03C107.19,-66.73 116.28,-56.64 124.6,-47.38"/>
<polygon fill="black" stroke="black" points="127.18,-49.75 131.26,-39.98 121.97,-45.07 127.18,-49.75"/>
</g>
<!-- b_proof -->
<g id="node6" class="node">
<title>b_proof</title>
<polygon fill="#d4edda" stroke="black" points="256.26,-111.52 167.74,-111.52 167.74,-75.52 256.26,-75.52 256.26,-111.52"/>
<text text-anchor="middle" x="212" y="-89.82" font-family="Helvetica Neue" font-size="11.00">Proof + Plan B</text>
</g>
<!-- b_flags&#45;&gt;b_proof -->
<g id="edge2" class="edge">
<title>b_flags&#45;&gt;b_proof</title>
<path fill="none" stroke="black" d="M217.31,-148.33C216.55,-140.66 215.64,-131.41 214.78,-122.76"/>
<polygon fill="black" stroke="black" points="218.29,-122.66 213.83,-113.06 211.33,-123.35 218.29,-122.66"/>
</g>
<!-- b_proof&#45;&gt;compare -->
<g id="edge7" class="edge">
<title>b_proof&#45;&gt;compare</title>
<path fill="none" stroke="black" d="M196.75,-75.03C189.52,-66.73 180.72,-56.64 172.65,-47.38"/>
<polygon fill="black" stroke="black" points="175.42,-45.23 166.21,-39.99 170.14,-49.83 175.42,-45.23"/>
</g>
</g>
</svg>
