<?xml version="1.0" encoding="UTF-8" standalone="no"?>
<!DOCTYPE svg PUBLIC "-//W3C//DTD SVG 1.1//EN"
 "http://www.w3.org/Graphics/SVG/1.1/DTD/svg11.dtd">
<!-- Generated by graphviz version 12.2.1 (20241206.2353)
 -->
<!-- Title: triggers Pages: 1 -->
<svg width="565pt" height="220pt"
 viewBox="0.00 0.00 564.89 220.04" xmlns="http://www.w3.org/2000/svg" xmlns:xlink="http://www.w3.org/1999/xlink">
<g id="graph0" class="graph" transform="scale(1 1) rotate(0) translate(4 216.04)">
<title>triggers</title>
<polygon fill="white" stroke="none" points="-4,4 -4,-216.04 560.89,-216.04 560.89,4 -4,4"/>
<g id="clust1" class="cluster">
<title>cluster_proof</title>
<polygon fill="none" stroke="#666666" stroke-dasharray="5,2" points="8,-8 8,-204.04 359,-204.04 359,-8 8,-8"/>
<text text-anchor="middle" x="59.12" y="-190.54" font-family="Helvetica Neue" font-size="10.00" fill="#666666">Proof AVL (forward)</text>
</g>
<!-- A -->
<g id="node1" class="node">
<title>A</title>
<polygon fill="#cce5ff" stroke="black" points="170.14,-176.04 65.86,-176.04 65.86,-124.02 170.14,-124.02 170.14,-176.04"/>
<text text-anchor="middle" x="118" y="-159.83" font-family="Helvetica Neue" font-size="11.00">Head A</text>
<text text-anchor="middle" x="118" y="-146.33" font-family="Helvetica Neue" font-size="11.00">sys&#45;apps/portage</text>
<text text-anchor="middle" x="118" y="-132.83" font-family="Helvetica Neue" font-size="11.00">:install</text>
</g>
<!-- B -->
<g id="node2" class="node">
<title>B</title>
<polygon fill="#fff3cd" stroke="black" points="113.77,-68.02 16.23,-68.02 16.23,-16 113.77,-16 113.77,-68.02"/>
<text text-anchor="middle" x="65" y="-51.81" font-family="Helvetica Neue" font-size="11.00">Body B</text>
<text text-anchor="middle" x="65" y="-38.31" font-family="Helvetica Neue" font-size="11.00">dev&#45;lang/python</text>
<text text-anchor="middle" x="65" y="-24.81" font-family="Helvetica Neue" font-size="11.00">:install</text>
</g>
<!-- A&#45;&gt;B -->
<g id="edge1" class="edge">
<title>A&#45;&gt;B</title>
<path fill="none" stroke="black" d="M90.23,-123.62C83.99,-116.56 78.03,-108.49 74,-100.02 70.99,-93.68 68.95,-86.55 67.58,-79.52"/>
<polygon fill="black" stroke="black" points="71.07,-79.2 66.11,-69.84 64.15,-80.25 71.07,-79.2"/>
<text text-anchor="middle" x="92" y="-90.52" font-family="Helvetica Neue" font-size="10.00"> &#160;rule/2 &#160;</text>
</g>
<!-- C -->
<g id="node3" class="node">
<title>C</title>
<polygon fill="#fff3cd" stroke="black" points="240.76,-68.02 143.24,-68.02 143.24,-16 240.76,-16 240.76,-68.02"/>
<text text-anchor="middle" x="192" y="-51.81" font-family="Helvetica Neue" font-size="11.00">Body C</text>
<text text-anchor="middle" x="192" y="-38.31" font-family="Helvetica Neue" font-size="11.00">dev&#45;libs/openssl</text>
<text text-anchor="middle" x="192" y="-24.81" font-family="Helvetica Neue" font-size="11.00">:install</text>
</g>
<!-- A&#45;&gt;C -->
<g id="edge2" class="edge">
<title>A&#45;&gt;C</title>
<path fill="none" stroke="black" d="M115.19,-123.75C115.07,-112.13 116.69,-98.61 123,-88.02 126.11,-82.8 130.09,-78.07 134.57,-73.81"/>
<polygon fill="black" stroke="black" points="136.51,-76.75 141.91,-67.64 132.01,-71.39 136.51,-76.75"/>
</g>
<!-- D -->
<g id="node4" class="node">
<title>D</title>
<polygon fill="#fff3cd" stroke="black" points="350.51,-68.02 269.49,-68.02 269.49,-16 350.51,-16 350.51,-68.02"/>
<text text-anchor="middle" x="310" y="-51.81" font-family="Helvetica Neue" font-size="11.00">Body D</text>
<text text-anchor="middle" x="310" y="-38.31" font-family="Helvetica Neue" font-size="11.00">sys&#45;libs/glibc</text>
<text text-anchor="middle" x="310" y="-24.81" font-family="Helvetica Neue" font-size="11.00">:install</text>
</g>
<!-- A&#45;&gt;D -->
<g id="edge3" class="edge">
<title>A&#45;&gt;D</title>
<path fill="none" stroke="black" d="M116.65,-123.59C117.41,-111.22 120.6,-97.09 130,-88.02 170.48,-48.95 201.13,-84.25 255,-68.02 256.15,-67.67 257.32,-67.3 258.48,-66.92"/>
<polygon fill="black" stroke="black" points="259.4,-70.31 267.59,-63.6 257,-63.74 259.4,-70.31"/>
</g>
<!-- B&#45;&gt;A -->
<g id="edge4" class="edge">
<title>B&#45;&gt;A</title>
<path fill="none" stroke="#cc3333" stroke-dasharray="5,2" d="M102.38,-68.28C108.29,-74.04 113.56,-80.66 117,-88.02 120.47,-95.46 121.94,-103.98 122.29,-112.25"/>
<polygon fill="#cc3333" stroke="#cc3333" points="118.79,-112.08 122.15,-122.13 125.79,-112.17 118.79,-112.08"/>
<text text-anchor="middle" x="140.87" y="-90.52" font-family="Helvetica Neue" font-size="10.00" fill="#cc3333"> &#160;trigger &#160;</text>
</g>
<!-- C&#45;&gt;A -->
<g id="edge5" class="edge">
<title>C&#45;&gt;A</title>
<path fill="none" stroke="#cc3333" stroke-dasharray="5,2" d="M183.86,-68.24C179.91,-78.57 174.58,-90.34 168,-100.02 164.37,-105.37 160.09,-110.6 155.58,-115.55"/>
<polygon fill="#cc3333" stroke="#cc3333" points="153.33,-112.84 148.92,-122.48 158.38,-117.7 153.33,-112.84"/>
<text text-anchor="middle" x="195.13" y="-90.52" font-family="Helvetica Neue" font-size="10.00" fill="#cc3333"> &#160;trigger &#160;</text>
</g>
<!-- D&#45;&gt;A -->
<g id="edge6" class="edge">
<title>D&#45;&gt;A</title>
<path fill="none" stroke="#cc3333" stroke-dasharray="5,2" d="M273.43,-68.27C257.87,-78.61 239.34,-90.37 222,-100.02 208.93,-107.29 194.61,-114.5 180.88,-121.06"/>
<polygon fill="#cc3333" stroke="#cc3333" points="179.45,-117.87 171.9,-125.3 182.44,-124.2 179.45,-117.87"/>
<text text-anchor="middle" x="262.08" y="-90.52" font-family="Helvetica Neue" font-size="10.00" fill="#cc3333"> &#160;trigger &#160;</text>
</g>
<!-- legend -->
<g id="node5" class="node">
<title>legend</title>
<polygon fill="white" stroke="none" points="556.89,-180.04 367.11,-180.04 367.11,-120.02 556.89,-120.02 556.89,-180.04"/>
<text text-anchor="start" x="381.75" y="-157.83" font-family="Helvetica Neue" font-size="11.00" fill="#333333">→ Proof: head depends on body</text>
<text text-anchor="start" x="381.75" y="-135.58" font-family="Helvetica Neue" font-size="11.00" fill="#cc3333">⇢ Trigger: body notifies head</text>
</g>
</g>
</svg>
