<?xml version="1.0" encoding="UTF-8" standalone="no"?>
<!DOCTYPE svg PUBLIC "-//W3C//DTD SVG 1.1//EN"
 "http://www.w3.org/Graphics/SVG/1.1/DTD/svg11.dtd">
<!-- Generated by graphviz version 12.2.1 (20241206.2353)
 -->
<!-- Title: taxonomy Pages: 1 -->
<svg width="324pt" height="289pt"
 viewBox="0.00 0.00 324.15 288.78" xmlns="http://www.w3.org/2000/svg" xmlns:xlink="http://www.w3.org/1999/xlink">
<g id="graph0" class="graph" transform="scale(1 1) rotate(0) translate(4 284.78)">
<title>taxonomy</title>
<polygon fill="white" stroke="none" points="-4,4 -4,-284.78 320.15,-284.78 320.15,4 -4,4"/>
<!-- proof -->
<g id="node1" class="node">
<title>proof</title>
<polygon fill="#e8e8e8" stroke="black" points="190.27,-280.78 134.62,-280.78 134.62,-244.78 190.27,-244.78 190.27,-280.78"/>
<text text-anchor="middle" x="162.45" y="-259.85" font-family="Helvetica Neue" font-size="9.00">Proof AVL</text>
</g>
<!-- domain_hdr -->
<g id="node2" class="node">
<title>domain_hdr</title>
<polygon fill="#cce5ff" stroke="black" points="147.53,-222.78 51.38,-222.78 51.38,-186.78 147.53,-186.78 147.53,-222.78"/>
<text text-anchor="middle" x="99.45" y="-201.85" font-family="Helvetica Neue" font-size="9.00">Domain Assumption</text>
</g>
<!-- proof&#45;&gt;domain_hdr -->
<g id="edge1" class="edge">
<title>proof&#45;&gt;domain_hdr</title>
<path fill="none" stroke="black" d="M142.86,-244.37C137.96,-240.01 132.6,-235.25 127.37,-230.6"/>
<polygon fill="black" stroke="black" points="129.74,-228.02 119.94,-223.99 125.09,-233.25 129.74,-228.02"/>
</g>
<!-- cycle_hdr -->
<g id="node3" class="node">
<title>cycle_hdr</title>
<polygon fill="#cce5ff" stroke="black" points="283.52,-222.78 169.38,-222.78 169.38,-186.78 283.52,-186.78 283.52,-222.78"/>
<text text-anchor="middle" x="226.45" y="-201.85" font-family="Helvetica Neue" font-size="9.00">Cycle&#45;Break Assumption</text>
</g>
<!-- proof&#45;&gt;cycle_hdr -->
<g id="edge2" class="edge">
<title>proof&#45;&gt;cycle_hdr</title>
<path fill="none" stroke="black" d="M182.35,-244.37C187.45,-239.9 193.04,-235.01 198.47,-230.26"/>
<polygon fill="black" stroke="black" points="200.42,-233.2 205.64,-223.99 195.81,-227.94 200.42,-233.2"/>
</g>
<!-- domain_keys -->
<g id="node4" class="node">
<title>domain_keys</title>
<polygon fill="#fff3cd" stroke="black" points="151.78,-164.78 45.12,-164.78 45.12,-122.39 151.78,-122.39 151.78,-164.78"/>
<text text-anchor="middle" x="98.45" y="-151.91" font-family="Helvetica Neue" font-size="9.00">Proof: rule(assumed(X))</text>
<text text-anchor="middle" x="98.45" y="-140.66" font-family="Helvetica Neue" font-size="9.00">Model: normal literal</text>
<text text-anchor="middle" x="98.45" y="-129.41" font-family="Helvetica Neue" font-size="9.00">dep count: 0</text>
</g>
<!-- domain_hdr&#45;&gt;domain_keys -->
<g id="edge3" class="edge">
<title>domain_hdr&#45;&gt;domain_keys</title>
<path fill="none" stroke="black" d="M99.16,-186.34C99.1,-183.21 99.05,-179.85 98.99,-176.46"/>
<polygon fill="black" stroke="black" points="102.49,-176.48 98.82,-166.54 95.49,-176.6 102.49,-176.48"/>
</g>
<!-- cycle_keys -->
<g id="node7" class="node">
<title>cycle_keys</title>
<polygon fill="#fff3cd" stroke="black" points="290.77,-164.78 184.12,-164.78 184.12,-122.39 290.77,-122.39 290.77,-164.78"/>
<text text-anchor="middle" x="237.45" y="-151.91" font-family="Helvetica Neue" font-size="9.00">Proof: assumed(rule(X))</text>
<text text-anchor="middle" x="237.45" y="-140.66" font-family="Helvetica Neue" font-size="9.00">Model: assumed(Lit)</text>
<text text-anchor="middle" x="237.45" y="-129.41" font-family="Helvetica Neue" font-size="9.00">dep count: &#45;1</text>
</g>
<!-- cycle_hdr&#45;&gt;cycle_keys -->
<g id="edge6" class="edge">
<title>cycle_hdr&#45;&gt;cycle_keys</title>
<path fill="none" stroke="black" d="M229.69,-186.34C230.29,-183.1 230.94,-179.63 231.59,-176.12"/>
<polygon fill="black" stroke="black" points="234.99,-176.99 233.37,-166.52 228.11,-175.71 234.99,-176.99"/>
</g>
<!-- domain_info -->
<g id="node5" class="node">
<title>domain_info</title>
<polygon fill="#fff3cd" stroke="black" points="156.9,-100.39 0,-100.39 0,-58 156.9,-58 156.9,-100.39"/>
<text text-anchor="middle" x="78.45" y="-87.52" font-family="Helvetica Neue" font-size="9.00">Introduced by: rules layer</text>
<text text-anchor="middle" x="78.45" y="-76.27" font-family="Helvetica Neue" font-size="9.00">Represents: unsatisfiable dep</text>
<text text-anchor="middle" x="78.45" y="-65.02" font-family="Helvetica Neue" font-size="9.00">(missing, masked, REQUIRED_USE)</text>
</g>
<!-- domain_keys&#45;&gt;domain_info -->
<g id="edge4" class="edge">
<title>domain_keys&#45;&gt;domain_info</title>
<path fill="none" stroke="black" d="M91.9,-122.16C90.81,-118.74 89.65,-115.14 88.49,-111.53"/>
<polygon fill="black" stroke="black" points="91.93,-110.78 85.54,-102.32 85.26,-112.92 91.93,-110.78"/>
</g>
<!-- domain_out -->
<g id="node6" class="node">
<title>domain_out</title>
<polygon fill="#f8d7da" stroke="black" points="144.9,-36 12,-36 12,0 144.9,0 144.9,-36"/>
<text text-anchor="middle" x="78.45" y="-20.7" font-family="Helvetica Neue" font-size="9.00">Exit code: 2</text>
<text text-anchor="middle" x="78.45" y="-9.45" font-family="Helvetica Neue" font-size="9.00">Printed: Domain assumptions</text>
</g>
<!-- domain_info&#45;&gt;domain_out -->
<g id="edge5" class="edge">
<title>domain_info&#45;&gt;domain_out</title>
<path fill="none" stroke="black" d="M78.45,-57.82C78.45,-54.56 78.45,-51.14 78.45,-47.72"/>
<polygon fill="black" stroke="black" points="81.95,-47.96 78.45,-37.96 74.95,-47.96 81.95,-47.96"/>
</g>
<!-- cycle_info -->
<g id="node8" class="node">
<title>cycle_info</title>
<polygon fill="#fff3cd" stroke="black" points="316.15,-100.39 178.75,-100.39 178.75,-58 316.15,-58 316.15,-100.39"/>
<text text-anchor="middle" x="247.45" y="-87.52" font-family="Helvetica Neue" font-size="9.00">Introduced by: prover layer</text>
<text text-anchor="middle" x="247.45" y="-76.27" font-family="Helvetica Neue" font-size="9.00">Represents: cyclic dependency</text>
<text text-anchor="middle" x="247.45" y="-65.02" font-family="Helvetica Neue" font-size="9.00">(mutual runtime deps)</text>
</g>
<!-- cycle_keys&#45;&gt;cycle_info -->
<g id="edge7" class="edge">
<title>cycle_keys&#45;&gt;cycle_info</title>
<path fill="none" stroke="black" d="M240.72,-122.16C241.24,-118.96 241.78,-115.59 242.32,-112.2"/>
<polygon fill="black" stroke="black" points="245.77,-112.81 243.89,-102.38 238.86,-111.7 245.77,-112.81"/>
</g>
<!-- cycle_out -->
<g id="node9" class="node">
<title>cycle_out</title>
<polygon fill="#fff3cd" stroke="black" points="305.27,-36 189.62,-36 189.62,0 305.27,0 305.27,-36"/>
<text text-anchor="middle" x="247.45" y="-20.7" font-family="Helvetica Neue" font-size="9.00">Exit code: 1</text>
<text text-anchor="middle" x="247.45" y="-9.45" font-family="Helvetica Neue" font-size="9.00">Printed: SCC / merge&#45;set</text>
</g>
<!-- cycle_info&#45;&gt;cycle_out -->
<g id="edge8" class="edge">
<title>cycle_info&#45;&gt;cycle_out</title>
<path fill="none" stroke="black" d="M247.45,-57.82C247.45,-54.56 247.45,-51.14 247.45,-47.72"/>
<polygon fill="black" stroke="black" points="250.95,-47.96 247.45,-37.96 243.95,-47.96 250.95,-47.96"/>
</g>
</g>
</svg>
