<?xml version="1.0" encoding="UTF-8" standalone="no"?>
<!DOCTYPE svg PUBLIC "-//W3C//DTD SVG 1.1//EN"
 "http://www.w3.org/Graphics/SVG/1.1/DTD/svg11.dtd">
<!-- Generated by graphviz version 12.2.1 (20241206.2353)
 -->
<!-- Title: relaxation Pages: 1 -->
<svg width="272pt" height="632pt"
 viewBox="0.00 0.00 272.01 632.00" xmlns="http://www.w3.org/2000/svg" xmlns:xlink="http://www.w3.org/1999/xlink">
<g id="graph0" class="graph" transform="scale(1 1) rotate(0) translate(4 628)">
<title>relaxation</title>
<polygon fill="white" stroke="none" points="-4,4 -4,-628 268.01,-628 268.01,4 -4,4"/>
<!-- goals -->
<g id="node1" class="node">
<title>goals</title>
<ellipse fill="#fff3cd" stroke="black" cx="208.76" cy="-606" rx="27" ry="18"/>
<text text-anchor="middle" x="208.76" y="-603.08" font-family="Helvetica Neue" font-size="9.00">Goals</text>
</g>
<!-- t1 -->
<g id="node2" class="node">
<title>t1</title>
<polygon fill="#d4edda" stroke="black" points="238.14,-569 179.38,-569 179.38,-533 238.14,-533 238.14,-569"/>
<text text-anchor="middle" x="208.76" y="-548.08" font-family="Helvetica Neue" font-size="9.00">Tier 1: strict</text>
</g>
<!-- goals&#45;&gt;t1 -->
<g id="edge1" class="edge">
<title>goals&#45;&gt;t1</title>
<path fill="none" stroke="black" d="M208.76,-587.65C208.76,-585.33 208.76,-582.92 208.76,-580.48"/>
<polygon fill="black" stroke="black" points="212.26,-580.73 208.76,-570.73 205.26,-580.73 212.26,-580.73"/>
</g>
<!-- d1 -->
<g id="node3" class="node">
<title>d1</title>
<polygon fill="#e8e8e8" stroke="black" points="208.76,-514 183.56,-496 208.76,-478 233.96,-496 208.76,-514"/>
<text text-anchor="middle" x="208.76" y="-493.07" font-family="Helvetica Neue" font-size="9.00">ok?</text>
</g>
<!-- t1&#45;&gt;d1 -->
<g id="edge2" class="edge">
<title>t1&#45;&gt;d1</title>
<path fill="none" stroke="black" d="M208.76,-532.65C208.76,-530.47 208.76,-528.2 208.76,-525.91"/>
<polygon fill="black" stroke="black" points="212.26,-526.09 208.76,-516.09 205.26,-526.09 212.26,-526.09"/>
</g>
<!-- t2 -->
<g id="node4" class="node">
<title>t2</title>
<polygon fill="#cce5ff" stroke="black" points="227.64,-449.5 105.87,-449.5 105.87,-413.5 227.64,-413.5 227.64,-449.5"/>
<text text-anchor="middle" x="166.76" y="-428.57" font-family="Helvetica Neue" font-size="9.00">Tier 2: keyword_acceptance</text>
</g>
<!-- d1&#45;&gt;t2 -->
<g id="edge4" class="edge">
<title>d1&#45;&gt;t2</title>
<path fill="none" stroke="#cc3333" d="M200.86,-483.24C196.28,-476.43 190.32,-467.56 184.67,-459.15"/>
<polygon fill="#cc3333" stroke="#cc3333" points="187.6,-457.24 179.12,-450.89 181.79,-461.14 187.6,-457.24"/>
<text text-anchor="middle" x="195.9" y="-461.4" font-family="Helvetica Neue" font-size="8.00" fill="#cc3333"> no</text>
</g>
<!-- plan -->
<g id="node11" class="node">
<title>plan</title>
<ellipse fill="#d4edda" stroke="black" cx="177.76" cy="-18" rx="50.36" ry="18"/>
<text text-anchor="middle" x="177.76" y="-15.07" font-family="Helvetica Neue" font-size="9.00">Plan + suggestions</text>
</g>
<!-- d1&#45;&gt;plan -->
<g id="edge3" class="edge">
<title>d1&#45;&gt;plan</title>
<path fill="none" stroke="#228b22" d="M219.96,-485.65C232.1,-474.41 249.76,-454.3 249.76,-432.5 249.76,-432.5 249.76,-432.5 249.76,-72 249.76,-55.98 238.06,-44.27 224.1,-35.99"/>
<polygon fill="#228b22" stroke="#228b22" points="226,-33.04 215.52,-31.5 222.76,-39.24 226,-33.04"/>
<text text-anchor="middle" x="256.88" y="-254.65" font-family="Helvetica Neue" font-size="8.00" fill="#228b22"> yes</text>
</g>
<!-- d2 -->
<g id="node5" class="node">
<title>d2</title>
<polygon fill="#e8e8e8" stroke="black" points="166.76,-394.5 141.56,-376.5 166.76,-358.5 191.96,-376.5 166.76,-394.5"/>
<text text-anchor="middle" x="166.76" y="-373.57" font-family="Helvetica Neue" font-size="9.00">ok?</text>
</g>
<!-- t2&#45;&gt;d2 -->
<g id="edge5" class="edge">
<title>t2&#45;&gt;d2</title>
<path fill="none" stroke="black" d="M166.76,-413.15C166.76,-410.97 166.76,-408.7 166.76,-406.41"/>
<polygon fill="black" stroke="black" points="170.26,-406.59 166.76,-396.59 163.26,-406.59 170.26,-406.59"/>
</g>
<!-- t3 -->
<g id="node6" class="node">
<title>t3</title>
<polygon fill="#cce5ff" stroke="black" points="191.89,-330 119.62,-330 119.62,-294 191.89,-294 191.89,-330"/>
<text text-anchor="middle" x="155.76" y="-309.07" font-family="Helvetica Neue" font-size="9.00">Tier 3: blockers</text>
</g>
<!-- d2&#45;&gt;t3 -->
<g id="edge7" class="edge">
<title>d2&#45;&gt;t3</title>
<path fill="none" stroke="#cc3333" d="M164.04,-360.05C163.05,-354.45 161.91,-347.92 160.79,-341.55"/>
<polygon fill="#cc3333" stroke="#cc3333" points="164.28,-341.21 159.1,-331.97 157.38,-342.42 164.28,-341.21"/>
<text text-anchor="middle" x="167.54" y="-341.9" font-family="Helvetica Neue" font-size="8.00" fill="#cc3333"> no</text>
</g>
<!-- d2&#45;&gt;plan -->
<g id="edge6" class="edge">
<title>d2&#45;&gt;plan</title>
<path fill="none" stroke="#228b22" d="M179.11,-366.89C193.03,-356.07 213.76,-336.08 213.76,-313 213.76,-313 213.76,-313 213.76,-72 213.76,-61.66 209.01,-51.83 202.96,-43.52"/>
<polygon fill="#228b22" stroke="#228b22" points="205.8,-41.46 196.73,-35.99 200.41,-45.92 205.8,-41.46"/>
<text text-anchor="middle" x="220.88" y="-190.15" font-family="Helvetica Neue" font-size="8.00" fill="#228b22"> yes</text>
</g>
<!-- d3 -->
<g id="node7" class="node">
<title>d3</title>
<polygon fill="#e8e8e8" stroke="black" points="155.76,-275 130.56,-257 155.76,-239 180.96,-257 155.76,-275"/>
<text text-anchor="middle" x="155.76" y="-254.07" font-family="Helvetica Neue" font-size="9.00">ok?</text>
</g>
<!-- t3&#45;&gt;d3 -->
<g id="edge8" class="edge">
<title>t3&#45;&gt;d3</title>
<path fill="none" stroke="black" d="M155.76,-293.65C155.76,-291.47 155.76,-289.2 155.76,-286.91"/>
<polygon fill="black" stroke="black" points="159.26,-287.09 155.76,-277.09 152.26,-287.09 159.26,-287.09"/>
</g>
<!-- t4 -->
<g id="node8" class="node">
<title>t4</title>
<polygon fill="#cce5ff" stroke="black" points="155.77,-210.5 85.75,-210.5 85.75,-174.5 155.77,-174.5 155.77,-210.5"/>
<text text-anchor="middle" x="120.76" y="-189.57" font-family="Helvetica Neue" font-size="9.00">Tier 4: unmask</text>
</g>
<!-- d3&#45;&gt;t4 -->
<g id="edge10" class="edge">
<title>d3&#45;&gt;t4</title>
<path fill="none" stroke="#cc3333" d="M148.85,-243.65C145.15,-237.05 140.44,-228.64 135.94,-220.61"/>
<polygon fill="#cc3333" stroke="#cc3333" points="139.12,-219.13 131.18,-212.11 133.01,-222.55 139.12,-219.13"/>
<text text-anchor="middle" x="145.98" y="-222.4" font-family="Helvetica Neue" font-size="8.00" fill="#cc3333"> no</text>
</g>
<!-- d3&#45;&gt;plan -->
<g id="edge9" class="edge">
<title>d3&#45;&gt;plan</title>
<path fill="none" stroke="#228b22" d="M162.72,-243.99C169.17,-231.72 177.76,-211.91 177.76,-193.5 177.76,-193.5 177.76,-193.5 177.76,-72 177.76,-64.06 177.76,-55.44 177.76,-47.52"/>
<polygon fill="#228b22" stroke="#228b22" points="181.26,-47.7 177.76,-37.7 174.26,-47.7 181.26,-47.7"/>
<text text-anchor="middle" x="184.88" y="-135.15" font-family="Helvetica Neue" font-size="8.00" fill="#228b22"> yes</text>
</g>
<!-- d4 -->
<g id="node9" class="node">
<title>d4</title>
<polygon fill="#e8e8e8" stroke="black" points="120.76,-155.5 95.56,-137.5 120.76,-119.5 145.96,-137.5 120.76,-155.5"/>
<text text-anchor="middle" x="120.76" y="-134.57" font-family="Helvetica Neue" font-size="9.00">ok?</text>
</g>
<!-- t4&#45;&gt;d4 -->
<g id="edge11" class="edge">
<title>t4&#45;&gt;d4</title>
<path fill="none" stroke="black" d="M120.76,-174.15C120.76,-171.97 120.76,-169.7 120.76,-167.41"/>
<polygon fill="black" stroke="black" points="124.26,-167.59 120.76,-157.59 117.26,-167.59 124.26,-167.59"/>
</g>
<!-- t5 -->
<g id="node10" class="node">
<title>t5</title>
<polygon fill="#f8d7da" stroke="black" points="113.52,-91 0,-91 0,-55 113.52,-55 113.52,-91"/>
<text text-anchor="middle" x="56.76" y="-70.08" font-family="Helvetica Neue" font-size="9.00">Tier 5: keyword + unmask</text>
</g>
<!-- d4&#45;&gt;t5 -->
<g id="edge13" class="edge">
<title>d4&#45;&gt;t5</title>
<path fill="none" stroke="#cc3333" d="M110.48,-126.46C102.91,-119.07 92.28,-108.69 82.48,-99.11"/>
<polygon fill="#cc3333" stroke="#cc3333" points="85.2,-96.88 75.6,-92.4 80.31,-101.89 85.2,-96.88"/>
<text text-anchor="middle" x="98.22" y="-102.9" font-family="Helvetica Neue" font-size="8.00" fill="#cc3333"> no</text>
</g>
<!-- d4&#45;&gt;plan -->
<g id="edge12" class="edge">
<title>d4&#45;&gt;plan</title>
<path fill="none" stroke="#228b22" d="M125.17,-122.2C130.56,-105.56 140.47,-77.49 152.51,-55 154.28,-51.7 156.29,-48.35 158.39,-45.08"/>
<polygon fill="#228b22" stroke="#228b22" points="161.21,-47.16 163.96,-36.93 155.43,-43.21 161.21,-47.16"/>
<text text-anchor="middle" x="159.63" y="-70.65" font-family="Helvetica Neue" font-size="8.00" fill="#228b22"> yes</text>
</g>
<!-- t5&#45;&gt;plan -->
<g id="edge14" class="edge">
<title>t5&#45;&gt;plan</title>
<path fill="none" stroke="black" d="M96.38,-54.65C109.2,-49.03 123.44,-42.8 136.38,-37.13"/>
<polygon fill="black" stroke="black" points="137.74,-40.35 145.49,-33.13 134.93,-33.94 137.74,-40.35"/>
</g>
</g>
</svg>
