<?xml version="1.0" encoding="UTF-8" standalone="no"?>
<!DOCTYPE svg PUBLIC "-//W3C//DTD SVG 1.1//EN"
 "http://www.w3.org/Graphics/SVG/1.1/DTD/svg11.dtd">
<!-- Generated by graphviz version 12.2.1 (20241206.2353)
 -->
<!-- Title: reprove Pages: 1 -->
<svg width="405pt" height="1059pt"
 viewBox="0.00 0.00 405.34 1059.23" xmlns="http://www.w3.org/2000/svg" xmlns:xlink="http://www.w3.org/1999/xlink">
<g id="graph0" class="graph" transform="scale(1 1) rotate(0) translate(4 1055.23)">
<title>reprove</title>
<polygon fill="white" stroke="none" points="-4,4 -4,-1055.23 401.34,-1055.23 401.34,4 -4,4"/>
<!-- prove9 -->
<g id="node1" class="node">
<title>prove9</title>
<polygon fill="#cce5ff" stroke="black" points="314.59,-1051.23 250.59,-1051.23 250.59,-1015.23 314.59,-1015.23 314.59,-1051.23"/>
<text text-anchor="middle" x="282.59" y="-1034.78" font-family="Helvetica,sans-Serif" font-size="11.00">prove/9</text>
<text text-anchor="middle" x="282.59" y="-1022.78" font-family="Helvetica,sans-Serif" font-size="11.00">(top&#45;level)</text>
</g>
<!-- reprove_state -->
<g id="node2" class="node">
<title>reprove_state</title>
<polygon fill="#cce5ff" stroke="black" points="365.59,-978.23 199.59,-978.23 199.59,-942.23 365.59,-942.23 365.59,-978.23"/>
<text text-anchor="middle" x="282.59" y="-961.78" font-family="Helvetica,sans-Serif" font-size="11.00">with_cn_domain_reprove_state</text>
<text text-anchor="middle" x="282.59" y="-949.78" font-family="Helvetica,sans-Serif" font-size="11.00">(save/restore learned store)</text>
</g>
<!-- prove9&#45;&gt;reprove_state -->
<g id="edge1" class="edge">
<title>prove9&#45;&gt;reprove_state</title>
<path fill="none" stroke="black" d="M282.59,-1015.04C282.59,-1007.45 282.59,-998.33 282.59,-989.76"/>
<polygon fill="black" stroke="black" points="286.09,-989.77 282.59,-979.77 279.09,-989.77 286.09,-989.77"/>
</g>
<!-- prove_retries -->
<g id="node3" class="node">
<title>prove_retries</title>
<polygon fill="#cce5ff" stroke="black" points="343.46,-905.23 221.71,-905.23 221.71,-869.23 343.46,-869.23 343.46,-905.23"/>
<text text-anchor="middle" x="282.59" y="-888.78" font-family="Helvetica,sans-Serif" font-size="11.00">prove_with_retries</text>
<text text-anchor="middle" x="282.59" y="-876.78" font-family="Helvetica,sans-Serif" font-size="11.00">(Attempt, MaxRetries)</text>
</g>
<!-- reprove_state&#45;&gt;prove_retries -->
<g id="edge2" class="edge">
<title>reprove_state&#45;&gt;prove_retries</title>
<path fill="none" stroke="black" d="M282.59,-942.04C282.59,-934.45 282.59,-925.33 282.59,-916.76"/>
<polygon fill="black" stroke="black" points="286.09,-916.77 282.59,-906.77 279.09,-916.77 286.09,-916.77"/>
</g>
<!-- prove_once -->
<g id="node4" class="node">
<title>prove_once</title>
<polygon fill="#d4edda" stroke="black" points="286.71,-832.23 190.46,-832.23 190.46,-788.23 286.71,-788.23 286.71,-832.23"/>
<text text-anchor="middle" x="238.59" y="-817.78" font-family="Helvetica,sans-Serif" font-size="11.00">prove_once</text>
<text text-anchor="middle" x="238.59" y="-805.78" font-family="Helvetica,sans-Serif" font-size="11.00">with_cycle_stack</text>
<text text-anchor="middle" x="238.59" y="-793.78" font-family="Helvetica,sans-Serif" font-size="11.00">prove_recursive</text>
</g>
<!-- prove_retries&#45;&gt;prove_once -->
<g id="edge3" class="edge">
<title>prove_retries&#45;&gt;prove_once</title>
<path fill="none" stroke="black" d="M272.38,-868.83C267.77,-860.97 262.18,-851.44 256.88,-842.41"/>
<polygon fill="black" stroke="black" points="259.94,-840.7 251.86,-833.85 253.9,-844.24 259.94,-840.7"/>
</g>
<!-- success_q -->
<g id="node5" class="node">
<title>success_q</title>
<polygon fill="#fff3cd" stroke="black" points="219.59,-751.23 166.44,-733.23 219.59,-715.23 272.74,-733.23 219.59,-751.23"/>
<text text-anchor="middle" x="219.59" y="-728.78" font-family="Helvetica,sans-Serif" font-size="11.00">Success?</text>
</g>
<!-- prove_once&#45;&gt;success_q -->
<g id="edge4" class="edge">
<title>prove_once&#45;&gt;success_q</title>
<path fill="none" stroke="black" d="M233.2,-787.93C231.09,-779.62 228.65,-770 226.43,-761.21"/>
<polygon fill="black" stroke="black" points="229.89,-760.62 224.04,-751.79 223.1,-762.34 229.89,-760.62"/>
</g>
<!-- reprove_thrown -->
<g id="node8" class="node">
<title>reprove_thrown</title>
<polygon fill="#f8d7da" stroke="black" points="284.21,-656.73 154.96,-656.73 154.96,-576.73 284.21,-576.73 284.21,-656.73"/>
<text text-anchor="middle" x="219.59" y="-642.28" font-family="Helvetica,sans-Serif" font-size="11.00">prover_reprove(Info)</text>
<text text-anchor="middle" x="219.59" y="-630.28" font-family="Helvetica,sans-Serif" font-size="11.00">thrown by:</text>
<text text-anchor="middle" x="219.59" y="-618.28" font-family="Helvetica,sans-Serif" font-size="11.00">&#45; grouped_dep_reprove</text>
<text text-anchor="middle" x="219.59" y="-606.28" font-family="Helvetica,sans-Serif" font-size="11.00">&#45; parent_narrowing</text>
<text text-anchor="middle" x="219.59" y="-594.28" font-family="Helvetica,sans-Serif" font-size="11.00">&#45; selected_cn_reprove</text>
<text text-anchor="middle" x="219.59" y="-582.28" font-family="Helvetica,sans-Serif" font-size="11.00">&#45; blocked_cn_reprove</text>
</g>
<!-- success_q&#45;&gt;reprove_thrown -->
<g id="edge6" class="edge">
<title>success_q&#45;&gt;reprove_thrown</title>
<path fill="none" stroke="black" d="M219.59,-714.84C219.59,-702.43 219.59,-685.08 219.59,-668.46"/>
<polygon fill="black" stroke="black" points="223.09,-668.66 219.59,-658.66 216.09,-668.66 223.09,-668.66"/>
<text text-anchor="middle" x="243.59" y="-687.73" font-family="Helvetica,sans-Serif" font-size="10.00">no</text>
<text text-anchor="middle" x="243.59" y="-676.48" font-family="Helvetica,sans-Serif" font-size="10.00">(exception)</text>
</g>
<!-- strict_proof -->
<g id="node12" class="node">
<title>strict_proof</title>
<ellipse fill="#e8e8e8" stroke="black" cx="68.59" cy="-616.73" rx="68.59" ry="22.63"/>
<text text-anchor="middle" x="68.59" y="-618.28" font-family="Helvetica,sans-Serif" font-size="11.00">Strict proof</text>
<text text-anchor="middle" x="68.59" y="-606.28" font-family="Helvetica,sans-Serif" font-size="11.00">(exit code 0 or 1)</text>
</g>
<!-- success_q&#45;&gt;strict_proof -->
<g id="edge5" class="edge">
<title>success_q&#45;&gt;strict_proof</title>
<path fill="none" stroke="black" d="M203.72,-720.19C180.28,-702.42 135.81,-668.7 104.3,-644.8"/>
<polygon fill="black" stroke="black" points="106.66,-642.2 96.58,-638.95 102.44,-647.78 106.66,-642.2"/>
<text text-anchor="middle" x="178.62" y="-682.1" font-family="Helvetica,sans-Serif" font-size="10.00">yes</text>
</g>
<!-- new_info_q -->
<g id="node6" class="node">
<title>new_info_q</title>
<polygon fill="#fff3cd" stroke="black" points="219.59,-446.73 160.84,-414.73 219.59,-382.73 278.34,-414.73 219.59,-446.73"/>
<text text-anchor="middle" x="219.59" y="-416.28" font-family="Helvetica,sans-Serif" font-size="11.00">New info</text>
<text text-anchor="middle" x="219.59" y="-404.28" font-family="Helvetica,sans-Serif" font-size="11.00">learned?</text>
</g>
<!-- budget_q -->
<g id="node7" class="node">
<title>budget_q</title>
<polygon fill="#fff3cd" stroke="black" points="320.59,-335.48 243.84,-303.48 320.59,-271.48 397.34,-303.48 320.59,-335.48"/>
<text text-anchor="middle" x="320.59" y="-305.03" font-family="Helvetica,sans-Serif" font-size="11.00">Attempt &lt;</text>
<text text-anchor="middle" x="320.59" y="-293.03" font-family="Helvetica,sans-Serif" font-size="11.00">MaxRetries?</text>
</g>
<!-- new_info_q&#45;&gt;budget_q -->
<g id="edge9" class="edge">
<title>new_info_q&#45;&gt;budget_q</title>
<path fill="none" stroke="black" d="M238.82,-392.92C253.91,-376.6 275.14,-353.64 292.19,-335.2"/>
<polygon fill="black" stroke="black" points="294.44,-337.92 298.66,-328.2 289.3,-333.17 294.44,-337.92"/>
<text text-anchor="middle" x="280.99" y="-355.23" font-family="Helvetica,sans-Serif" font-size="10.00">yes</text>
</g>
<!-- exhausted -->
<g id="node10" class="node">
<title>exhausted</title>
<polygon fill="#f8d7da" stroke="black" points="301.46,-224.23 161.71,-224.23 161.71,-180.23 301.46,-180.23 301.46,-224.23"/>
<text text-anchor="middle" x="231.59" y="-209.78" font-family="Helvetica,sans-Serif" font-size="11.00">reprove_exhausted</text>
<text text-anchor="middle" x="231.59" y="-197.78" font-family="Helvetica,sans-Serif" font-size="11.00">&#45; clear cn_domain_reject_</text>
<text text-anchor="middle" x="231.59" y="-185.78" font-family="Helvetica,sans-Serif" font-size="11.00">&#45; with_reprove_disabled</text>
</g>
<!-- new_info_q&#45;&gt;exhausted -->
<g id="edge10" class="edge">
<title>new_info_q&#45;&gt;exhausted</title>
<path fill="none" stroke="black" d="M219.88,-382.33C220.32,-353.48 221.4,-309.56 224.09,-271.48 224.91,-259.83 226.2,-247.1 227.48,-235.82"/>
<polygon fill="black" stroke="black" points="230.92,-236.55 228.62,-226.21 223.97,-235.73 230.92,-236.55"/>
<text text-anchor="middle" x="229.34" y="-299.6" font-family="Helvetica,sans-Serif" font-size="10.00">no</text>
</g>
<!-- budget_q&#45;&gt;prove_retries -->
<g id="edge11" class="edge">
<title>budget_q&#45;&gt;prove_retries</title>
<path fill="none" stroke="black" stroke-dasharray="5,2" d="M320.59,-335.56C320.59,-357.42 320.59,-387.36 320.59,-413.73 320.59,-811.23 320.59,-811.23 320.59,-811.23 320.59,-828.61 312.37,-846.05 303.57,-859.73"/>
<polygon fill="black" stroke="black" points="300.85,-857.52 298.03,-867.73 306.6,-861.5 300.85,-857.52"/>
<text text-anchor="middle" x="333.34" y="-618.48" font-family="Helvetica,sans-Serif" font-size="10.00">yes</text>
<text text-anchor="middle" x="333.34" y="-607.23" font-family="Helvetica,sans-Serif" font-size="10.00">(retry)</text>
</g>
<!-- budget_q&#45;&gt;exhausted -->
<g id="edge12" class="edge">
<title>budget_q&#45;&gt;exhausted</title>
<path fill="none" stroke="black" d="M300.39,-279.95C287.96,-266.09 271.88,-248.15 258.39,-233.11"/>
<polygon fill="black" stroke="black" points="261.08,-230.87 251.8,-225.76 255.87,-235.55 261.08,-230.87"/>
<text text-anchor="middle" x="281.34" y="-243.98" font-family="Helvetica,sans-Serif" font-size="10.00">no</text>
</g>
<!-- handle -->
<g id="node9" class="node">
<title>handle</title>
<polygon fill="#cce5ff" stroke="black" points="287.96,-539.73 151.21,-539.73 151.21,-483.73 287.96,-483.73 287.96,-539.73"/>
<text text-anchor="middle" x="219.59" y="-525.28" font-family="Helvetica,sans-Serif" font-size="11.00">handle_reprove(Info)</text>
<text text-anchor="middle" x="219.59" y="-513.28" font-family="Helvetica,sans-Serif" font-size="11.00">&#45; add_cn_domain_rejects</text>
<text text-anchor="middle" x="219.59" y="-501.28" font-family="Helvetica,sans-Serif" font-size="11.00">&#45; add origin rejects</text>
<text text-anchor="middle" x="219.59" y="-489.28" font-family="Helvetica,sans-Serif" font-size="11.00">&#45; prover:learn(...)</text>
</g>
<!-- reprove_thrown&#45;&gt;handle -->
<g id="edge7" class="edge">
<title>reprove_thrown&#45;&gt;handle</title>
<path fill="none" stroke="black" d="M219.59,-576.49C219.59,-568.22 219.59,-559.51 219.59,-551.26"/>
<polygon fill="black" stroke="black" points="223.09,-551.53 219.59,-541.53 216.09,-551.53 223.09,-551.53"/>
</g>
<!-- handle&#45;&gt;new_info_q -->
<g id="edge8" class="edge">
<title>handle&#45;&gt;new_info_q</title>
<path fill="none" stroke="black" d="M219.59,-483.25C219.59,-475.49 219.59,-466.85 219.59,-458.42"/>
<polygon fill="black" stroke="black" points="223.09,-458.67 219.59,-448.67 216.09,-458.67 223.09,-458.67"/>
</g>
<!-- final_prove -->
<g id="node11" class="node">
<title>final_prove</title>
<polygon fill="#d4edda" stroke="black" points="289.46,-143.23 173.71,-143.23 173.71,-99.23 289.46,-99.23 289.46,-143.23"/>
<text text-anchor="middle" x="231.59" y="-128.78" font-family="Helvetica,sans-Serif" font-size="11.00">prove_once</text>
<text text-anchor="middle" x="231.59" y="-116.78" font-family="Helvetica,sans-Serif" font-size="11.00">(reprove disabled)</text>
<text text-anchor="middle" x="231.59" y="-104.78" font-family="Helvetica,sans-Serif" font-size="11.00">assumptions allowed</text>
</g>
<!-- exhausted&#45;&gt;final_prove -->
<g id="edge13" class="edge">
<title>exhausted&#45;&gt;final_prove</title>
<path fill="none" stroke="black" d="M231.59,-180.05C231.59,-172.26 231.59,-163.25 231.59,-154.69"/>
<polygon fill="black" stroke="black" points="235.09,-154.97 231.59,-144.97 228.09,-154.97 235.09,-154.97"/>
</g>
<!-- assumption_proof -->
<g id="node13" class="node">
<title>assumption_proof</title>
<ellipse fill="#e8e8e8" stroke="black" cx="231.59" cy="-31.11" rx="53.74" ry="31.11"/>
<text text-anchor="middle" x="231.59" y="-38.66" font-family="Helvetica,sans-Serif" font-size="11.00">Proof under</text>
<text text-anchor="middle" x="231.59" y="-26.66" font-family="Helvetica,sans-Serif" font-size="11.00">assumptions</text>
<text text-anchor="middle" x="231.59" y="-14.66" font-family="Helvetica,sans-Serif" font-size="11.00">(exit code 2)</text>
</g>
<!-- final_prove&#45;&gt;assumption_proof -->
<g id="edge14" class="edge">
<title>final_prove&#45;&gt;assumption_proof</title>
<path fill="none" stroke="black" d="M231.59,-98.9C231.59,-91.32 231.59,-82.5 231.59,-73.81"/>
<polygon fill="black" stroke="black" points="235.09,-74.08 231.59,-64.08 228.09,-74.08 235.09,-74.08"/>
</g>
</g>
</svg>
