<?xml version="1.0" encoding="UTF-8" standalone="no"?>
<!DOCTYPE svg PUBLIC "-//W3C//DTD SVG 1.1//EN"
 "http://www.w3.org/Graphics/SVG/1.1/DTD/svg11.dtd">
<!-- Generated by graphviz version 12.2.1 (20241206.2353)
 -->
<!-- Title: reprove_loop Pages: 1 -->
<svg width="353pt" height="522pt"
 viewBox="0.00 0.00 353.33 522.43" xmlns="http://www.w3.org/2000/svg" xmlns:xlink="http://www.w3.org/1999/xlink">
<g id="graph0" class="graph" transform="scale(1 1) rotate(0) translate(4 518.43)">
<title>reprove_loop</title>
<polygon fill="white" stroke="none" points="-4,4 -4,-518.43 349.33,-518.43 349.33,4 -4,4"/>
<!-- prove9 -->
<g id="node1" class="node">
<title>prove9</title>
<polygon fill="#cce5ff" stroke="black" points="266.49,-514.43 208.59,-514.43 208.59,-478.43 266.49,-478.43 266.49,-514.43"/>
<text text-anchor="middle" x="237.54" y="-498.93" font-family="Helvetica Neue" font-size="10.00">prove/9</text>
<text text-anchor="middle" x="237.54" y="-486.93" font-family="Helvetica Neue" font-size="10.00">(top&#45;level)</text>
</g>
<!-- reprove_state -->
<g id="node2" class="node">
<title>reprove_state</title>
<polygon fill="#e8e8e8" stroke="black" points="303.24,-451.43 171.84,-451.43 171.84,-415.43 303.24,-415.43 303.24,-451.43"/>
<text text-anchor="middle" x="237.54" y="-435.93" font-family="Helvetica Neue" font-size="10.00">with_reprove_state</text>
<text text-anchor="middle" x="237.54" y="-423.93" font-family="Helvetica Neue" font-size="10.00">save/restore learned store</text>
</g>
<!-- prove9&#45;&gt;reprove_state -->
<g id="edge1" class="edge">
<title>prove9&#45;&gt;reprove_state</title>
<path fill="none" stroke="black" d="M237.54,-478.11C237.54,-473.31 237.54,-467.96 237.54,-462.7"/>
<polygon fill="black" stroke="black" points="241.04,-463.09 237.54,-453.09 234.04,-463.09 241.04,-463.09"/>
</g>
<!-- retries -->
<g id="node3" class="node">
<title>retries</title>
<polygon fill="#cce5ff" stroke="black" points="285.61,-388.43 189.46,-388.43 189.46,-331.79 285.61,-331.79 285.61,-388.43"/>
<text text-anchor="middle" x="237.54" y="-374.61" font-family="Helvetica Neue" font-size="10.00">prove_with_retries</text>
<text text-anchor="middle" x="237.54" y="-362.61" font-family="Helvetica Neue" font-size="10.00">catch(prove_once,</text>
<text text-anchor="middle" x="237.54" y="-350.61" font-family="Helvetica Neue" font-size="10.00"> &#160;prover_reprove,</text>
<text text-anchor="middle" x="237.54" y="-338.61" font-family="Helvetica Neue" font-size="10.00"> &#160;handle_reprove)</text>
</g>
<!-- reprove_state&#45;&gt;retries -->
<g id="edge2" class="edge">
<title>reprove_state&#45;&gt;retries</title>
<path fill="none" stroke="black" d="M237.54,-415.17C237.54,-410.59 237.54,-405.46 237.54,-400.22"/>
<polygon fill="black" stroke="black" points="241.04,-400.3 237.54,-390.3 234.04,-400.3 241.04,-400.3"/>
</g>
<!-- handle -->
<g id="node4" class="node">
<title>handle</title>
<polygon fill="#fff3cd" stroke="black" points="100.54,-294.54 0,-265.74 100.54,-236.94 201.07,-265.74 100.54,-294.54"/>
<text text-anchor="middle" x="100.54" y="-268.24" font-family="Helvetica Neue" font-size="10.00">handle_reprove</text>
<text text-anchor="middle" x="100.54" y="-256.24" font-family="Helvetica Neue" font-size="10.00">Attempt &lt; MaxRetries?</text>
</g>
<!-- retries&#45;&gt;handle -->
<g id="edge3" class="edge">
<title>retries&#45;&gt;handle</title>
<path fill="none" stroke="#cc3333" stroke-dasharray="5,2" d="M189.02,-347.08C170.52,-340.81 150.1,-331.68 134.29,-318.79 128.23,-313.85 122.9,-307.53 118.36,-301.01"/>
<polygon fill="#cc3333" stroke="#cc3333" points="121.42,-299.3 113.11,-292.72 115.51,-303.04 121.42,-299.3"/>
<text text-anchor="middle" x="178.91" y="-310.24" font-family="Helvetica Neue" font-size="9.00" fill="#cc3333"> &#160;prover_reprove(Info) &#160;</text>
</g>
<!-- prove_once -->
<g id="node7" class="node">
<title>prove_once</title>
<polygon fill="#cce5ff" stroke="black" points="257.61,-117.8 167.46,-117.8 167.46,-73.16 257.61,-73.16 257.61,-117.8"/>
<text text-anchor="middle" x="212.54" y="-103.98" font-family="Helvetica Neue" font-size="10.00">prove_once</text>
<text text-anchor="middle" x="212.54" y="-91.98" font-family="Helvetica Neue" font-size="10.00">with_cycle_stack</text>
<text text-anchor="middle" x="212.54" y="-79.98" font-family="Helvetica Neue" font-size="10.00">prove_recursive</text>
</g>
<!-- retries&#45;&gt;prove_once -->
<g id="edge4" class="edge">
<title>retries&#45;&gt;prove_once</title>
<path fill="none" stroke="#228b22" d="M266.6,-331.52C275.77,-320.94 284.75,-308.11 289.54,-294.54 310.19,-235.98 310.33,-210.07 281.54,-155.05 275.56,-143.64 266.34,-133.53 256.56,-125.06"/>
<polygon fill="#228b22" stroke="#228b22" points="259.04,-122.56 249.07,-118.99 254.64,-128 259.04,-122.56"/>
<text text-anchor="middle" x="324.7" y="-215.39" font-family="Helvetica Neue" font-size="9.00" fill="#228b22"> &#160;success &#160;</text>
</g>
<!-- learn -->
<g id="node5" class="node">
<title>learn</title>
<polygon fill="#d4edda" stroke="black" points="272.86,-195.37 184.21,-195.37 184.21,-159.37 272.86,-159.37 272.86,-195.37"/>
<text text-anchor="middle" x="228.54" y="-179.87" font-family="Helvetica Neue" font-size="10.00">learn constraints</text>
<text text-anchor="middle" x="228.54" y="-167.87" font-family="Helvetica Neue" font-size="10.00">+ retry</text>
</g>
<!-- handle&#45;&gt;learn -->
<g id="edge5" class="edge">
<title>handle&#45;&gt;learn</title>
<path fill="none" stroke="#228b22" d="M129.9,-244.92C148.81,-232.17 173.47,-215.52 193.41,-202.07"/>
<polygon fill="#228b22" stroke="#228b22" points="195.19,-205.09 201.52,-196.6 191.27,-199.29 195.19,-205.09"/>
<text text-anchor="middle" x="187.25" y="-215.39" font-family="Helvetica Neue" font-size="9.00" fill="#228b22"> &#160;yes &#160;</text>
</g>
<!-- exhausted -->
<g id="node6" class="node">
<title>exhausted</title>
<polygon fill="#f8d7da" stroke="black" points="163.86,-199.69 51.21,-199.69 51.21,-155.05 163.86,-155.05 163.86,-199.69"/>
<text text-anchor="middle" x="107.54" y="-185.87" font-family="Helvetica Neue" font-size="10.00">reprove_exhausted</text>
<text text-anchor="middle" x="107.54" y="-173.87" font-family="Helvetica Neue" font-size="10.00">clear rejects</text>
<text text-anchor="middle" x="107.54" y="-161.87" font-family="Helvetica Neue" font-size="10.00">prove_once (disabled)</text>
</g>
<!-- handle&#45;&gt;exhausted -->
<g id="edge6" class="edge">
<title>handle&#45;&gt;exhausted</title>
<path fill="none" stroke="#cc3333" d="M102.75,-237.41C103.42,-229.12 104.17,-219.93 104.87,-211.31"/>
<polygon fill="#cc3333" stroke="#cc3333" points="108.34,-211.81 105.66,-201.56 101.36,-211.25 108.34,-211.81"/>
<text text-anchor="middle" x="114.41" y="-215.39" font-family="Helvetica Neue" font-size="9.00" fill="#cc3333"> &#160;no &#160;</text>
</g>
<!-- learn&#45;&gt;retries -->
<g id="edge7" class="edge">
<title>learn&#45;&gt;retries</title>
<path fill="none" stroke="black" stroke-dasharray="5,2" d="M229.4,-195.7C230.82,-224.22 233.68,-281.73 235.61,-320.34"/>
<polygon fill="black" stroke="black" points="232.1,-320.33 236.1,-330.15 239.09,-319.99 232.1,-320.33"/>
<text text-anchor="middle" x="260.1" y="-262.81" font-family="Helvetica Neue" font-size="9.00"> &#160;Attempt+1 &#160;</text>
</g>
<!-- exhausted&#45;&gt;prove_once -->
<g id="edge8" class="edge">
<title>exhausted&#45;&gt;prove_once</title>
<path fill="none" stroke="black" d="M135.95,-154.75C147.97,-145.6 162.15,-134.82 175.01,-125.03"/>
<polygon fill="black" stroke="black" points="177.06,-127.87 182.9,-119.03 172.82,-122.3 177.06,-127.87"/>
<text text-anchor="middle" x="195.57" y="-133.5" font-family="Helvetica Neue" font-size="9.00"> &#160;final attempt &#160;</text>
</g>
<!-- result -->
<g id="node8" class="node">
<title>result</title>
<ellipse fill="#d4edda" stroke="black" cx="212.54" cy="-23.08" rx="75.94" ry="23.08"/>
<text text-anchor="middle" x="212.54" y="-25.58" font-family="Helvetica Neue" font-size="10.00">Proof, Model,</text>
<text text-anchor="middle" x="212.54" y="-13.58" font-family="Helvetica Neue" font-size="10.00">Constraints, Triggers</text>
</g>
<!-- prove_once&#45;&gt;result -->
<g id="edge9" class="edge">
<title>prove_once&#45;&gt;result</title>
<path fill="none" stroke="black" d="M212.54,-72.98C212.54,-68.11 212.54,-62.84 212.54,-57.61"/>
<polygon fill="black" stroke="black" points="216.04,-57.94 212.54,-47.94 209.04,-57.94 216.04,-57.94"/>
</g>
</g>
</svg>
