<?xml version="1.0" encoding="UTF-8" standalone="no"?>
<!DOCTYPE svg PUBLIC "-//W3C//DTD SVG 1.1//EN"
 "http://www.w3.org/Graphics/SVG/1.1/DTD/svg11.dtd">
<!-- Generated by graphviz version 12.2.1 (20241206.2353)
 -->
<!-- Title: use_violation Pages: 1 -->
<svg width="165pt" height="419pt"
 viewBox="0.00 0.00 164.54 418.79" xmlns="http://www.w3.org/2000/svg" xmlns:xlink="http://www.w3.org/1999/xlink">
<g id="graph0" class="graph" transform="scale(1 1) rotate(0) translate(4 414.79)">
<title>use_violation</title>
<polygon fill="white" stroke="none" points="-4,4 -4,-414.79 160.54,-414.79 160.54,4 -4,4"/>
<!-- parent -->
<g id="node1" class="node">
<title>parent</title>
<polygon fill="#cce5ff" stroke="black" points="124.53,-410.79 32.01,-410.79 32.01,-374.79 124.53,-374.79 124.53,-410.79"/>
<text text-anchor="middle" x="78.27" y="-395.69" font-family="Helvetica Neue" font-size="8.00">1 &#160;Parent: lib[feature_z]</text>
<text text-anchor="middle" x="78.27" y="-385.19" font-family="Helvetica Neue" font-size="8.00">propagates USE to lib</text>
</g>
<!-- verify -->
<g id="node2" class="node">
<title>verify</title>
<polygon fill="#fff3cd" stroke="black" points="78.27,-357.79 0,-331.03 78.27,-304.27 156.54,-331.03 78.27,-357.79"/>
<text text-anchor="middle" x="78.27" y="-333.93" font-family="Helvetica Neue" font-size="8.00">2 &#160;Entry rule: verify</text>
<text text-anchor="middle" x="78.27" y="-323.43" font-family="Helvetica Neue" font-size="8.00">REQUIRED_USE</text>
</g>
<!-- parent&#45;&gt;verify -->
<g id="edge1" class="edge">
<title>parent&#45;&gt;verify</title>
<path fill="none" stroke="black" d="M78.27,-374.5C78.27,-372.91 78.27,-371.26 78.27,-369.57"/>
<polygon fill="black" stroke="black" points="81.77,-369.69 78.27,-359.69 74.77,-369.69 81.77,-369.69"/>
</g>
<!-- cache_fail -->
<g id="node3" class="node">
<title>cache_fail</title>
<polygon fill="#f8d7da" stroke="black" points="115.9,-280.02 40.63,-280.02 40.63,-244.02 115.9,-244.02 115.9,-280.02"/>
<text text-anchor="middle" x="78.27" y="-264.92" font-family="Helvetica Neue" font-size="8.00">3 &#160;Cache violation</text>
<text text-anchor="middle" x="78.27" y="-254.42" font-family="Helvetica Neue" font-size="8.00">entry rule FAILS</text>
</g>
<!-- verify&#45;&gt;cache_fail -->
<g id="edge2" class="edge">
<title>verify&#45;&gt;cache_fail</title>
<path fill="none" stroke="#cc3333" d="M78.27,-303.93C78.27,-299.84 78.27,-295.59 78.27,-291.45"/>
<polygon fill="#cc3333" stroke="#cc3333" points="81.77,-291.78 78.27,-281.78 74.77,-291.78 81.77,-291.78"/>
<text text-anchor="middle" x="85.77" y="-289.62" font-family="Helvetica Neue" font-size="7.00" fill="#cc3333"> fails</text>
</g>
<!-- backtrack -->
<g id="node4" class="node">
<title>backtrack</title>
<polygon fill="#fff3cd" stroke="black" points="78.27,-227.02 9,-200.26 78.27,-173.5 147.54,-200.26 78.27,-227.02"/>
<text text-anchor="middle" x="78.27" y="-203.16" font-family="Helvetica Neue" font-size="8.00">4 &#160;Backtrack:</text>
<text text-anchor="middle" x="78.27" y="-192.66" font-family="Helvetica Neue" font-size="8.00">next candidate?</text>
</g>
<!-- cache_fail&#45;&gt;backtrack -->
<g id="edge3" class="edge">
<title>cache_fail&#45;&gt;backtrack</title>
<path fill="none" stroke="black" d="M78.27,-243.73C78.27,-242.14 78.27,-240.49 78.27,-238.8"/>
<polygon fill="black" stroke="black" points="81.77,-238.92 78.27,-228.92 74.77,-238.92 81.77,-238.92"/>
</g>
<!-- backtrack&#45;&gt;verify -->
<g id="edge4" class="edge">
<title>backtrack&#45;&gt;verify</title>
<path fill="none" stroke="black" stroke-dasharray="5,2" d="M102.35,-217.69C110.59,-224.73 118.85,-233.72 123.27,-244.02 129.58,-258.72 129,-265.08 123.27,-280.02 119.98,-288.61 114.45,-296.64 108.38,-303.66"/>
<polygon fill="black" stroke="black" points="105.89,-301.19 101.56,-310.86 110.98,-306 105.89,-301.19"/>
<text text-anchor="middle" x="134.54" y="-259.5" font-family="Helvetica Neue" font-size="7.00"> yes</text>
</g>
<!-- narrow -->
<g id="node5" class="node">
<title>narrow</title>
<polygon fill="#cce5ff" stroke="black" points="121.15,-149.25 35.38,-149.25 35.38,-113.25 121.15,-113.25 121.15,-149.25"/>
<text text-anchor="middle" x="78.27" y="-134.15" font-family="Helvetica Neue" font-size="8.00">5a &#160;Parent narrowing</text>
<text text-anchor="middle" x="78.27" y="-123.65" font-family="Helvetica Neue" font-size="8.00">+ reprove</text>
</g>
<!-- backtrack&#45;&gt;narrow -->
<g id="edge5" class="edge">
<title>backtrack&#45;&gt;narrow</title>
<path fill="none" stroke="#cc3333" d="M78.27,-173.16C78.27,-169.07 78.27,-164.82 78.27,-160.68"/>
<polygon fill="#cc3333" stroke="#cc3333" points="81.77,-161.01 78.27,-151.01 74.77,-161.01 81.77,-161.01"/>
<text text-anchor="middle" x="95.89" y="-158.85" font-family="Helvetica Neue" font-size="7.00" fill="#cc3333"> exhausted</text>
</g>
<!-- assume -->
<g id="node6" class="node">
<title>assume</title>
<polygon fill="#f8d7da" stroke="black" points="112.15,-89 44.38,-89 44.38,-53 112.15,-53 112.15,-89"/>
<text text-anchor="middle" x="78.27" y="-73.9" font-family="Helvetica Neue" font-size="8.00">5b &#160;Assumption</text>
<text text-anchor="middle" x="78.27" y="-63.4" font-family="Helvetica Neue" font-size="8.00">+ violation detail</text>
</g>
<!-- narrow&#45;&gt;assume -->
<g id="edge6" class="edge">
<title>narrow&#45;&gt;assume</title>
<path fill="none" stroke="black" d="M78.27,-112.77C78.27,-108.97 78.27,-104.85 78.27,-100.74"/>
<polygon fill="black" stroke="black" points="81.77,-100.98 78.27,-90.98 74.77,-100.98 81.77,-100.98"/>
<text text-anchor="middle" x="106.77" y="-98.6" font-family="Helvetica Neue" font-size="7.00"> retries exhausted</text>
</g>
<!-- output -->
<g id="node7" class="node">
<title>output</title>
<polygon fill="#d4edda" stroke="black" points="130.15,-36 26.38,-36 26.38,0 130.15,0 130.15,-36"/>
<text text-anchor="middle" x="78.27" y="-20.9" font-family="Helvetica Neue" font-size="8.00">6 &#160;Warning:</text>
<text text-anchor="middle" x="78.27" y="-10.4" font-family="Helvetica Neue" font-size="8.00">REQUIRED_USE violation</text>
</g>
<!-- assume&#45;&gt;output -->
<g id="edge7" class="edge">
<title>assume&#45;&gt;output</title>
<path fill="none" stroke="black" d="M78.27,-52.73C78.27,-51.07 78.27,-49.36 78.27,-47.62"/>
<polygon fill="black" stroke="black" points="81.77,-47.76 78.27,-37.76 74.77,-47.76 81.77,-47.76"/>
</g>
</g>
</svg>
