<?xml version="1.0" encoding="UTF-8" standalone="no"?>
<!DOCTYPE svg PUBLIC "-//W3C//DTD SVG 1.1//EN"
 "http://www.w3.org/Graphics/SVG/1.1/DTD/svg11.dtd">
<!-- Generated by graphviz version 12.2.1 (20241206.2353)
 -->
<!-- Title: domain_meet Pages: 1 -->
<svg width="327pt" height="456pt"
 viewBox="0.00 0.00 327.00 456.00" xmlns="http://www.w3.org/2000/svg" xmlns:xlink="http://www.w3.org/1999/xlink">
<g id="graph0" class="graph" transform="scale(1 1) rotate(0) translate(4 452)">
<title>domain_meet</title>
<polygon fill="white" stroke="none" points="-4,4 -4,-452 323,-452 323,4 -4,4"/>
<g id="clust1" class="cluster">
<title>cluster_ex1</title>
<polygon fill="#e6f0ff" stroke="#4a86c8" points="41,-256 41,-440 172,-440 172,-256 41,-256"/>
<text text-anchor="middle" x="94.38" y="-428.4" font-family="Helvetica Neue" font-size="8.00">Ex 1: Overlapping ranges</text>
</g>
<g id="clust2" class="cluster">
<title>cluster_ex2</title>
<polygon fill="#e6f0ff" stroke="#4a86c8" points="180,-181.5 180,-371.5 311,-371.5 311,-181.5 180,-181.5"/>
<text text-anchor="middle" x="230.75" y="-359.9" font-family="Helvetica Neue" font-size="8.00">Ex 2: Two lower bounds</text>
</g>
<g id="clust3" class="cluster">
<title>cluster_ex3</title>
<polygon fill="#fff0f0" stroke="#c84a4a" points="8,-58 8,-248 139,-248 139,-58 8,-58"/>
<text text-anchor="middle" x="55.75" y="-236.4" font-family="Helvetica Neue" font-size="8.00">Ex 3: Disjoint (conflict)</text>
</g>
<g id="clust4" class="cluster">
<title>cluster_ex4</title>
<polygon fill="#e6f0ff" stroke="#4a86c8" points="147,-8 147,-173.5 278,-173.5 278,-8 147,-8"/>
<text text-anchor="middle" x="191.38" y="-161.9" font-family="Helvetica Neue" font-size="8.00">Ex 4: Tilde + revision</text>
</g>
<!-- ex1_d1 -->
<g id="node1" class="node">
<title>ex1_d1</title>
<polygon fill="#cce5ff" stroke="black" points="101,-415.5 47,-415.5 47,-379.5 101,-379.5 101,-415.5"/>
<text text-anchor="middle" x="74" y="-395.15" font-family="Helvetica Neue" font-size="8.00">A: &gt;=1.0</text>
</g>
<!-- ex1_m -->
<g id="node3" class="node">
<title>ex1_m</title>
<polygon fill="#e8e8e8" stroke="black" points="133,-347 79,-347 79,-311 133,-311 133,-347"/>
<text text-anchor="middle" x="106" y="-326.65" font-family="Helvetica Neue" font-size="8.00">meet</text>
</g>
<!-- ex1_d1&#45;&gt;ex1_m -->
<g id="edge1" class="edge">
<title>ex1_d1&#45;&gt;ex1_m</title>
<path fill="none" stroke="black" d="M82.41,-379.03C86.26,-371.02 90.88,-361.43 95,-352.86"/>
<polygon fill="black" stroke="black" points="96.51,-353.75 97.1,-348.49 93.36,-352.24 96.51,-353.75"/>
</g>
<!-- ex2_d1 -->
<g id="node5" class="node">
<title>ex2_d1</title>
<polygon fill="#cce5ff" stroke="black" points="240,-347 186,-347 186,-311 240,-311 240,-347"/>
<text text-anchor="middle" x="213" y="-326.65" font-family="Helvetica Neue" font-size="8.00">A: &gt;=1.0</text>
</g>
<!-- ex1_d1&#45;&gt;ex2_d1 -->
<!-- ex1_d2 -->
<g id="node2" class="node">
<title>ex1_d2</title>
<polygon fill="#cce5ff" stroke="black" points="166,-415.5 112,-415.5 112,-379.5 166,-379.5 166,-415.5"/>
<text text-anchor="middle" x="139" y="-395.15" font-family="Helvetica Neue" font-size="8.00">B: &lt;2.0</text>
</g>
<!-- ex1_d2&#45;&gt;ex1_m -->
<g id="edge2" class="edge">
<title>ex1_d2&#45;&gt;ex1_m</title>
<path fill="none" stroke="black" d="M130.33,-379.03C126.36,-371.02 121.6,-361.43 117.35,-352.86"/>
<polygon fill="black" stroke="black" points="118.96,-352.18 115.17,-348.48 115.83,-353.74 118.96,-352.18"/>
</g>
<!-- ex2_d2 -->
<g id="node6" class="node">
<title>ex2_d2</title>
<polygon fill="#cce5ff" stroke="black" points="305,-347 251,-347 251,-311 305,-311 305,-347"/>
<text text-anchor="middle" x="278" y="-326.65" font-family="Helvetica Neue" font-size="8.00">B: &gt;=1.5</text>
</g>
<!-- ex1_d2&#45;&gt;ex2_d2 -->
<!-- ex1_r -->
<g id="node4" class="node">
<title>ex1_r</title>
<polygon fill="#d4edda" stroke="black" points="133,-298 79,-298 79,-262 133,-262 133,-298"/>
<text text-anchor="middle" x="106" y="-277.65" font-family="Helvetica Neue" font-size="8.00">[1.0, 2.0)</text>
</g>
<!-- ex1_m&#45;&gt;ex1_r -->
<g id="edge3" class="edge">
<title>ex1_m&#45;&gt;ex1_r</title>
<path fill="none" stroke="black" d="M106,-310.77C106,-308.72 106,-306.61 106,-304.5"/>
<polygon fill="black" stroke="black" points="107.75,-304.75 106,-299.75 104.25,-304.75 107.75,-304.75"/>
</g>
<!-- ex3_d1 -->
<g id="node9" class="node">
<title>ex3_d1</title>
<polygon fill="#cce5ff" stroke="black" points="133,-223.5 79,-223.5 79,-187.5 133,-187.5 133,-223.5"/>
<text text-anchor="middle" x="106" y="-203.15" font-family="Helvetica Neue" font-size="8.00">A: &gt;=2.0</text>
</g>
<!-- ex1_r&#45;&gt;ex3_d1 -->
<!-- ex2_m -->
<g id="node7" class="node">
<title>ex2_m</title>
<polygon fill="#e8e8e8" stroke="black" points="272,-298 218,-298 218,-262 272,-262 272,-298"/>
<text text-anchor="middle" x="245" y="-277.65" font-family="Helvetica Neue" font-size="8.00">meet</text>
</g>
<!-- ex2_d1&#45;&gt;ex2_m -->
<g id="edge4" class="edge">
<title>ex2_d1&#45;&gt;ex2_m</title>
<path fill="none" stroke="black" d="M224.73,-310.77C226.39,-308.34 228.1,-305.82 229.81,-303.31"/>
<polygon fill="black" stroke="black" points="231.05,-304.6 232.42,-299.48 228.16,-302.63 231.05,-304.6"/>
</g>
<!-- ex2_d2&#45;&gt;ex2_m -->
<g id="edge5" class="edge">
<title>ex2_d2&#45;&gt;ex2_m</title>
<path fill="none" stroke="black" d="M265.9,-310.77C264.2,-308.34 262.42,-305.82 260.67,-303.31"/>
<polygon fill="black" stroke="black" points="262.27,-302.56 257.97,-299.47 259.41,-304.57 262.27,-302.56"/>
</g>
<!-- ex2_r -->
<g id="node8" class="node">
<title>ex2_r</title>
<polygon fill="#d4edda" stroke="black" points="272,-223.5 218,-223.5 218,-187.5 272,-187.5 272,-223.5"/>
<text text-anchor="middle" x="245" y="-203.15" font-family="Helvetica Neue" font-size="8.00">&gt;=1.5</text>
</g>
<!-- ex2_m&#45;&gt;ex2_r -->
<g id="edge6" class="edge">
<title>ex2_m&#45;&gt;ex2_r</title>
<path fill="none" stroke="black" d="M245,-261.82C245,-252.25 245,-240.2 245,-229.79"/>
<polygon fill="black" stroke="black" points="246.75,-230.07 245,-225.07 243.25,-230.07 246.75,-230.07"/>
</g>
<!-- ex4_d1 -->
<g id="node13" class="node">
<title>ex4_d1</title>
<polygon fill="#cce5ff" stroke="black" points="272,-149 218,-149 218,-113 272,-113 272,-149"/>
<text text-anchor="middle" x="245" y="-128.65" font-family="Helvetica Neue" font-size="8.00">A: ~1.0</text>
</g>
<!-- ex2_r&#45;&gt;ex4_d1 -->
<!-- ex3_m -->
<g id="node11" class="node">
<title>ex3_m</title>
<polygon fill="#e8e8e8" stroke="black" points="100,-149 46,-149 46,-113 100,-113 100,-149"/>
<text text-anchor="middle" x="73" y="-128.65" font-family="Helvetica Neue" font-size="8.00">meet</text>
</g>
<!-- ex3_d1&#45;&gt;ex3_m -->
<g id="edge7" class="edge">
<title>ex3_d1&#45;&gt;ex3_m</title>
<path fill="none" stroke="black" d="M98.18,-187.32C93.74,-177.57 88.13,-165.24 83.33,-154.7"/>
<polygon fill="black" stroke="black" points="85.06,-154.26 81.39,-150.44 81.87,-155.71 85.06,-154.26"/>
</g>
<!-- ex3_d1&#45;&gt;ex4_d1 -->
<!-- ex3_d2 -->
<g id="node10" class="node">
<title>ex3_d2</title>
<polygon fill="#cce5ff" stroke="black" points="68,-223.5 14,-223.5 14,-187.5 68,-187.5 68,-223.5"/>
<text text-anchor="middle" x="41" y="-203.15" font-family="Helvetica Neue" font-size="8.00">B: &lt;1.0</text>
</g>
<!-- ex3_d2&#45;&gt;ex3_m -->
<g id="edge8" class="edge">
<title>ex3_d2&#45;&gt;ex3_m</title>
<path fill="none" stroke="black" d="M48.58,-187.32C52.85,-177.66 58.23,-165.47 62.85,-155"/>
<polygon fill="black" stroke="black" points="64.44,-155.72 64.86,-150.44 61.24,-154.31 64.44,-155.72"/>
</g>
<!-- ex4_d2 -->
<g id="node14" class="node">
<title>ex4_d2</title>
<polygon fill="#cce5ff" stroke="black" points="207,-149 153,-149 153,-113 207,-113 207,-149"/>
<text text-anchor="middle" x="180" y="-128.65" font-family="Helvetica Neue" font-size="8.00">B: &gt;=1.0&#45;r2</text>
</g>
<!-- ex3_d2&#45;&gt;ex4_d2 -->
<!-- ex3_r -->
<g id="node12" class="node">
<title>ex3_r</title>
<polygon fill="#f8d7da" stroke="black" points="100,-100 46,-100 46,-64 100,-64 100,-100"/>
<text text-anchor="middle" x="73" y="-79.65" font-family="Helvetica Neue" font-size="8.00">FAIL</text>
</g>
<!-- ex3_m&#45;&gt;ex3_r -->
<g id="edge9" class="edge">
<title>ex3_m&#45;&gt;ex3_r</title>
<path fill="none" stroke="black" d="M73,-112.77C73,-110.72 73,-108.61 73,-106.5"/>
<polygon fill="black" stroke="black" points="74.75,-106.75 73,-101.75 71.25,-106.75 74.75,-106.75"/>
</g>
<!-- ex4_m -->
<g id="node15" class="node">
<title>ex4_m</title>
<polygon fill="#e8e8e8" stroke="black" points="239,-100 185,-100 185,-64 239,-64 239,-100"/>
<text text-anchor="middle" x="212" y="-79.65" font-family="Helvetica Neue" font-size="8.00">meet</text>
</g>
<!-- ex4_d1&#45;&gt;ex4_m -->
<g id="edge10" class="edge">
<title>ex4_d1&#45;&gt;ex4_m</title>
<path fill="none" stroke="black" d="M232.9,-112.77C231.2,-110.34 229.42,-107.82 227.67,-105.31"/>
<polygon fill="black" stroke="black" points="229.27,-104.56 224.97,-101.47 226.41,-106.57 229.27,-104.56"/>
</g>
<!-- ex4_d2&#45;&gt;ex4_m -->
<g id="edge11" class="edge">
<title>ex4_d2&#45;&gt;ex4_m</title>
<path fill="none" stroke="black" d="M191.73,-112.77C193.39,-110.34 195.1,-107.82 196.81,-105.31"/>
<polygon fill="black" stroke="black" points="198.05,-106.6 199.42,-101.48 195.16,-104.63 198.05,-106.6"/>
</g>
<!-- ex4_r -->
<g id="node16" class="node">
<title>ex4_r</title>
<polygon fill="#d4edda" stroke="black" points="239,-50 185,-50 185,-14 239,-14 239,-50"/>
<text text-anchor="middle" x="212" y="-34.9" font-family="Helvetica Neue" font-size="8.00">&gt;=1.0&#45;r2</text>
<text text-anchor="middle" x="212" y="-24.4" font-family="Helvetica Neue" font-size="8.00">in 1.0.x</text>
</g>
<!-- ex4_m&#45;&gt;ex4_r -->
<g id="edge12" class="edge">
<title>ex4_m&#45;&gt;ex4_r</title>
<path fill="none" stroke="black" d="M212,-63.67C212,-61.39 212,-59.02 212,-56.65"/>
<polygon fill="black" stroke="black" points="213.75,-56.98 212,-51.98 210.25,-56.98 213.75,-56.98"/>
</g>
</g>
</svg>
