<?xml version="1.0" encoding="UTF-8" standalone="no"?>
<!DOCTYPE svg PUBLIC "-//W3C//DTD SVG 1.1//EN"
 "http://www.w3.org/Graphics/SVG/1.1/DTD/svg11.dtd">
<!-- Generated by graphviz version 12.2.1 (20241206.2353)
 -->
<!-- Title: ex1 Pages: 1 -->
<svg width="206pt" height="91pt"
 viewBox="0.00 0.00 206.00 91.00" xmlns="http://www.w3.org/2000/svg" xmlns:xlink="http://www.w3.org/1999/xlink">
<g id="graph0" class="graph" transform="scale(1 1) rotate(0) translate(4 87)">
<title>ex1</title>
<polygon fill="white" stroke="none" points="-4,4 -4,-87 202,-87 202,4 -4,4"/>
<!-- d1 -->
<g id="node1" class="node">
<title>d1</title>
<polygon fill="#cce5ff" stroke="black" points="54,-83 0,-83 0,-47 54,-47 54,-83"/>
<text text-anchor="middle" x="27" y="-62.65" font-family="Helvetica Neue" font-size="8.00">&gt;=1.0</text>
</g>
<!-- m -->
<g id="node3" class="node">
<title>m</title>
<polygon fill="#e8e8e8" stroke="black" points="126,-59 72,-59 72,-23 126,-23 126,-59"/>
<text text-anchor="middle" x="99" y="-38.65" font-family="Helvetica Neue" font-size="8.00">meet</text>
</g>
<!-- d1&#45;&gt;m -->
<g id="edge1" class="edge">
<title>d1&#45;&gt;m</title>
<path fill="none" stroke="black" d="M54.46,-55.93C58.22,-54.64 62.12,-53.3 65.98,-51.98"/>
<polygon fill="black" stroke="black" points="66.37,-53.7 70.53,-50.42 65.23,-50.38 66.37,-53.7"/>
</g>
<!-- d2 -->
<g id="node2" class="node">
<title>d2</title>
<polygon fill="#cce5ff" stroke="black" points="54,-36 0,-36 0,0 54,0 54,-36"/>
<text text-anchor="middle" x="27" y="-15.65" font-family="Helvetica Neue" font-size="8.00">&lt;2.0</text>
</g>
<!-- d2&#45;&gt;m -->
<g id="edge2" class="edge">
<title>d2&#45;&gt;m</title>
<path fill="none" stroke="black" d="M54.46,-26.7C58.22,-27.93 62.12,-29.21 65.98,-30.48"/>
<polygon fill="black" stroke="black" points="65.23,-32.07 70.52,-31.97 66.32,-28.75 65.23,-32.07"/>
</g>
<!-- r -->
<g id="node4" class="node">
<title>r</title>
<polygon fill="#d4edda" stroke="black" points="198,-59 144,-59 144,-23 198,-23 198,-59"/>
<text text-anchor="middle" x="171" y="-38.65" font-family="Helvetica Neue" font-size="8.00">[1.0, 2.0)</text>
</g>
<!-- m&#45;&gt;r -->
<g id="edge3" class="edge">
<title>m&#45;&gt;r</title>
<path fill="none" stroke="black" d="M126.46,-41C130.13,-41 133.94,-41 137.7,-41"/>
<polygon fill="black" stroke="black" points="137.45,-42.75 142.45,-41 137.45,-39.25 137.45,-42.75"/>
</g>
</g>
</svg>
