<?xml version="1.0" encoding="UTF-8" standalone="no"?>
<!DOCTYPE svg PUBLIC "-//W3C//DTD SVG 1.1//EN"
 "http://www.w3.org/Graphics/SVG/1.1/DTD/svg11.dtd">
<!-- Generated by graphviz version 12.2.1 (20241206.2353)
 -->
<!-- Title: learned_apply Pages: 1 -->
<svg width="242pt" height="222pt"
 viewBox="0.00 0.00 241.62 222.37" xmlns="http://www.w3.org/2000/svg" xmlns:xlink="http://www.w3.org/1999/xlink">
<g id="graph0" class="graph" transform="scale(1 1) rotate(0) translate(4 218.37)">
<title>learned_apply</title>
<polygon fill="white" stroke="none" points="-4,4 -4,-218.37 237.62,-218.37 237.62,4 -4,4"/>
<!-- local -->
<g id="node1" class="node">
<title>local</title>
<polygon fill="#cce5ff" stroke="black" points="110.45,-214.37 35.18,-214.37 35.18,-177.11 110.45,-177.11 110.45,-214.37"/>
<text text-anchor="middle" x="72.81" y="-203.89" font-family="Helvetica Neue" font-size="8.00">Local domain</text>
<text text-anchor="middle" x="72.81" y="-193.39" font-family="Helvetica Neue" font-size="8.00">from current proof</text>
<text text-anchor="middle" x="72.81" y="-182.89" font-family="Helvetica Neue" font-size="8.00">(e.g. &gt;=1.0)</text>
</g>
<!-- meet -->
<g id="node3" class="node">
<title>meet</title>
<polygon fill="#fff3cd" stroke="black" points="116.81,-158.11 0,-138.31 116.81,-118.51 233.62,-138.31 116.81,-158.11"/>
<text text-anchor="middle" x="116.81" y="-141.21" font-family="Helvetica Neue" font-size="8.00">grouped_dep_effective_domain</text>
<text text-anchor="middle" x="116.81" y="-130.71" font-family="Helvetica Neue" font-size="8.00">intersects local + learned</text>
</g>
<!-- local&#45;&gt;meet -->
<g id="edge1" class="edge">
<title>local&#45;&gt;meet</title>
<path fill="none" stroke="black" d="M86.98,-176.9C91.05,-171.76 95.54,-166.1 99.78,-160.77"/>
<polygon fill="black" stroke="black" points="100.89,-162.18 102.63,-157.18 98.15,-160 100.89,-162.18"/>
</g>
<!-- learned -->
<g id="node2" class="node">
<title>learned</title>
<polygon fill="#d4edda" stroke="black" points="199.07,-214.37 124.55,-214.37 124.55,-177.11 199.07,-177.11 199.07,-214.37"/>
<text text-anchor="middle" x="161.81" y="-203.89" font-family="Helvetica Neue" font-size="8.00">Learned domain</text>
<text text-anchor="middle" x="161.81" y="-193.39" font-family="Helvetica Neue" font-size="8.00">from prior conflict</text>
<text text-anchor="middle" x="161.81" y="-182.89" font-family="Helvetica Neue" font-size="8.00">(e.g. &lt;2.0)</text>
</g>
<!-- learned&#45;&gt;meet -->
<g id="edge2" class="edge">
<title>learned&#45;&gt;meet</title>
<path fill="none" stroke="black" d="M147.33,-176.9C143.15,-171.76 138.56,-166.1 134.23,-160.77"/>
<polygon fill="black" stroke="black" points="135.82,-159.94 131.31,-157.17 133.1,-162.15 135.82,-159.94"/>
</g>
<!-- nonempty -->
<g id="node4" class="node">
<title>nonempty</title>
<polygon fill="#d4edda" stroke="black" points="113.95,-92.26 17.68,-92.26 17.68,-55 113.95,-55 113.95,-92.26"/>
<text text-anchor="middle" x="65.81" y="-81.78" font-family="Helvetica Neue" font-size="8.00">Non&#45;empty: [1.0, 2.0)</text>
<text text-anchor="middle" x="65.81" y="-71.28" font-family="Helvetica Neue" font-size="8.00">filter candidates against</text>
<text text-anchor="middle" x="65.81" y="-60.78" font-family="Helvetica Neue" font-size="8.00">stricter domain</text>
</g>
<!-- meet&#45;&gt;nonempty -->
<g id="edge3" class="edge">
<title>meet&#45;&gt;nonempty</title>
<path fill="none" stroke="black" d="M103.14,-120.51C97.28,-113.31 90.34,-104.78 84.05,-97.05"/>
<polygon fill="black" stroke="black" points="85.7,-96.3 81.19,-93.52 82.98,-98.51 85.7,-96.3"/>
<text text-anchor="middle" x="111.22" y="-102.86" font-family="Helvetica Neue" font-size="7.00"> non&#45;empty</text>
</g>
<!-- empty -->
<g id="node5" class="node">
<title>empty</title>
<polygon fill="#f8d7da" stroke="black" points="205.57,-92.26 128.05,-92.26 128.05,-55 205.57,-55 205.57,-92.26"/>
<text text-anchor="middle" x="166.81" y="-81.78" font-family="Helvetica Neue" font-size="8.00">Empty: no overlap</text>
<text text-anchor="middle" x="166.81" y="-71.28" font-family="Helvetica Neue" font-size="8.00">skip to assumption</text>
<text text-anchor="middle" x="166.81" y="-60.78" font-family="Helvetica Neue" font-size="8.00">or failure handling</text>
</g>
<!-- meet&#45;&gt;empty -->
<g id="edge4" class="edge">
<title>meet&#45;&gt;empty</title>
<path fill="none" stroke="#cc3333" d="M130.21,-120.51C135.96,-113.31 142.76,-104.78 148.93,-97.05"/>
<polygon fill="#cc3333" stroke="#cc3333" points="149.98,-98.53 151.73,-93.53 147.25,-96.35 149.98,-98.53"/>
<text text-anchor="middle" x="156.05" y="-102.86" font-family="Helvetica Neue" font-size="7.00" fill="#cc3333"> empty</text>
</g>
<!-- cands -->
<g id="node6" class="node">
<title>cands</title>
<polygon fill="#e8e8e8" stroke="black" points="115.45,-36 16.18,-36 16.18,0 115.45,0 115.45,-36"/>
<text text-anchor="middle" x="65.81" y="-20.9" font-family="Helvetica Neue" font-size="8.00">Candidate selection</text>
<text text-anchor="middle" x="65.81" y="-10.4" font-family="Helvetica Neue" font-size="8.00">only versions in [1.0, 2.0)</text>
</g>
<!-- nonempty&#45;&gt;cands -->
<g id="edge5" class="edge">
<title>nonempty&#45;&gt;cands</title>
<path fill="none" stroke="black" d="M65.81,-54.77C65.81,-50.85 65.81,-46.64 65.81,-42.54"/>
<polygon fill="black" stroke="black" points="67.56,-42.75 65.81,-37.75 64.06,-42.75 67.56,-42.75"/>
</g>
</g>
</svg>
