<?xml version="1.0" encoding="UTF-8" standalone="no"?>
<!DOCTYPE svg PUBLIC "-//W3C//DTD SVG 1.1//EN"
 "http://www.w3.org/Graphics/SVG/1.1/DTD/svg11.dtd">
<!-- Generated by graphviz version 12.2.1 (20241206.2353)
 -->
<!-- Title: learned_conflict Pages: 1 -->
<svg width="209pt" height="275pt"
 viewBox="0.00 0.00 208.53 274.85" xmlns="http://www.w3.org/2000/svg" xmlns:xlink="http://www.w3.org/1999/xlink">
<g id="graph0" class="graph" transform="scale(1 1) rotate(0) translate(4 270.85)">
<title>learned_conflict</title>
<polygon fill="white" stroke="none" points="-4,4 -4,-270.85 204.53,-270.85 204.53,4 -4,4"/>
<!-- dep1 -->
<g id="node1" class="node">
<title>dep1</title>
<polygon fill="#cce5ff" stroke="black" points="93.77,-266.85 8.75,-266.85 8.75,-230.85 93.77,-230.85 93.77,-266.85"/>
<text text-anchor="middle" x="51.26" y="-251.75" font-family="Helvetica Neue" font-size="8.00">Dependency edge A</text>
<text text-anchor="middle" x="51.26" y="-241.25" font-family="Helvetica Neue" font-size="8.00">requires lib &gt;=2.0</text>
</g>
<!-- guard -->
<g id="node3" class="node">
<title>guard</title>
<polygon fill="#fff3cd" stroke="black" points="100.26,-211.85 0,-192.05 100.26,-172.25 200.53,-192.05 100.26,-211.85"/>
<text text-anchor="middle" x="100.26" y="-194.95" font-family="Helvetica Neue" font-size="8.00">Constraint guard</text>
<text text-anchor="middle" x="100.26" y="-184.45" font-family="Helvetica Neue" font-size="8.00">domain_meet(&gt;=2.0, &lt;1.5)</text>
</g>
<!-- dep1&#45;&gt;guard -->
<g id="edge1" class="edge">
<title>dep1&#45;&gt;guard</title>
<path fill="none" stroke="black" d="M66.77,-230.51C71.4,-225.33 76.54,-219.58 81.37,-214.18"/>
<polygon fill="black" stroke="black" points="82.66,-215.37 84.69,-210.47 80.05,-213.03 82.66,-215.37"/>
</g>
<!-- dep2 -->
<g id="node2" class="node">
<title>dep2</title>
<polygon fill="#cce5ff" stroke="black" points="192.77,-266.85 107.75,-266.85 107.75,-230.85 192.77,-230.85 192.77,-266.85"/>
<text text-anchor="middle" x="150.26" y="-251.75" font-family="Helvetica Neue" font-size="8.00">Dependency edge B</text>
<text text-anchor="middle" x="150.26" y="-241.25" font-family="Helvetica Neue" font-size="8.00">requires lib &lt;1.5</text>
</g>
<!-- dep2&#45;&gt;guard -->
<g id="edge2" class="edge">
<title>dep2&#45;&gt;guard</title>
<path fill="none" stroke="black" d="M134.44,-230.51C129.62,-225.22 124.26,-219.35 119.24,-213.85"/>
<polygon fill="black" stroke="black" points="120.81,-212.98 116.15,-210.46 118.23,-215.33 120.81,-212.98"/>
</g>
<!-- conflict -->
<g id="node4" class="node">
<title>conflict</title>
<polygon fill="#f8d7da" stroke="black" points="154.77,-146 45.75,-146 45.75,-110 154.77,-110 154.77,-146"/>
<text text-anchor="middle" x="100.26" y="-130.9" font-family="Helvetica Neue" font-size="8.00">Conflict: empty intersection</text>
<text text-anchor="middle" x="100.26" y="-120.4" font-family="Helvetica Neue" font-size="8.00">no version satisfies both</text>
</g>
<!-- guard&#45;&gt;conflict -->
<g id="edge3" class="edge">
<title>guard&#45;&gt;conflict</title>
<path fill="none" stroke="black" d="M100.26,-171.76C100.26,-165.67 100.26,-158.88 100.26,-152.54"/>
<polygon fill="black" stroke="black" points="102.01,-152.9 100.26,-147.9 98.51,-152.9 102.01,-152.9"/>
<text text-anchor="middle" x="111.51" y="-156.6" font-family="Helvetica Neue" font-size="7.00"> empty</text>
</g>
<!-- learn -->
<g id="node5" class="node">
<title>learn</title>
<polygon fill="#d4edda" stroke="black" points="169.02,-91 31.5,-91 31.5,-55 169.02,-55 169.02,-91"/>
<text text-anchor="middle" x="100.26" y="-78.72" font-family="Courier,monospace" font-size="7.00">prover:learn(</text>
<text text-anchor="middle" x="100.26" y="-70.47" font-family="Courier,monospace" font-size="7.00"> &#160;cn_domain(cat, lib, slot),</text>
<text text-anchor="middle" x="100.26" y="-62.23" font-family="Courier,monospace" font-size="7.00"> &#160;narrowed_domain, _)</text>
</g>
<!-- conflict&#45;&gt;learn -->
<g id="edge4" class="edge">
<title>conflict&#45;&gt;learn</title>
<path fill="none" stroke="black" d="M100.26,-109.65C100.26,-105.76 100.26,-101.58 100.26,-97.5"/>
<polygon fill="black" stroke="black" points="102.01,-97.73 100.26,-92.73 98.51,-97.73 102.01,-97.73"/>
</g>
<!-- reprove -->
<g id="node6" class="node">
<title>reprove</title>
<polygon fill="#e8e8e8" stroke="black" points="155.52,-36 45,-36 45,0 155.52,0 155.52,-36"/>
<text text-anchor="middle" x="100.26" y="-20.9" font-family="Helvetica Neue" font-size="8.00">Throw prover_reprove</text>
<text text-anchor="middle" x="100.26" y="-10.4" font-family="Helvetica Neue" font-size="8.00">retry with learned constraint</text>
</g>
<!-- learn&#45;&gt;reprove -->
<g id="edge5" class="edge">
<title>learn&#45;&gt;reprove</title>
<path fill="none" stroke="black" d="M100.26,-54.65C100.26,-50.76 100.26,-46.58 100.26,-42.5"/>
<polygon fill="black" stroke="black" points="102.01,-42.73 100.26,-37.73 98.51,-42.73 102.01,-42.73"/>
</g>
</g>
</svg>
