<?xml version="1.0" encoding="UTF-8" standalone="no"?>
<!DOCTYPE svg PUBLIC "-//W3C//DTD SVG 1.1//EN"
 "http://www.w3.org/Graphics/SVG/1.1/DTD/svg11.dtd">
<!-- Generated by graphviz version 12.2.1 (20241206.2353)
 -->
<!-- Title: scc_scheduling Pages: 1 -->
<svg width="537pt" height="631pt"
 viewBox="0.00 0.00 537.38 630.75" xmlns="http://www.w3.org/2000/svg" xmlns:xlink="http://www.w3.org/1999/xlink">
<g id="graph0" class="graph" transform="scale(1 1) rotate(0) translate(4 626.75)">
<title>scc_scheduling</title>
<polygon fill="white" stroke="none" points="-4,4 -4,-626.75 533.38,-626.75 533.38,4 -4,4"/>
<text text-anchor="middle" x="264.69" y="-606.4" font-family="Helvetica,sans-Serif" font-size="13.00">Kahn remainder &#45;&gt; Kosaraju SCC &#45;&gt; merge&#45;sets</text>
<g id="clust1" class="cluster">
<title>cluster_remainder</title>
<polygon fill="#fff0f0" stroke="#c84a4a" points="8,-282.75 8,-593.25 359,-593.25 359,-282.75 8,-282.75"/>
<text text-anchor="middle" x="99.25" y="-576.9" font-family="Helvetica,sans-Serif" font-size="13.00">Kahn remainder</text>
<text text-anchor="middle" x="99.25" y="-563.4" font-family="Helvetica,sans-Serif" font-size="13.00">(in&#45;degree never reaches 0)</text>
</g>
<g id="clust2" class="cluster">
<title>cluster_scc1</title>
<polygon fill="#e6f0ff" stroke="#4a86c8" points="16,-290.75 16,-550.25 202,-550.25 202,-290.75 16,-290.75"/>
<text text-anchor="middle" x="81" y="-533.9" font-family="Helvetica,sans-Serif" font-size="13.00">SCC 1 &#160;(:run cycle)</text>
</g>
<g id="clust3" class="cluster">
<title>cluster_scc2</title>
<polygon fill="#e6ffe6" stroke="#4a8c4a" points="210,-290.75 210,-364.25 351,-364.25 351,-290.75 210,-290.75"/>
<text text-anchor="middle" x="280.62" y="-347.9" font-family="Helvetica,sans-Serif" font-size="13.00">SCC 2 &#160;(single node)</text>
</g>
<g id="clust4" class="cluster">
<title>cluster_result</title>
<polygon fill="#e8e8e8" stroke="#666666" points="370,-8 370,-192.75 516,-192.75 516,-8 370,-8"/>
<text text-anchor="middle" x="430.5" y="-176.4" font-family="Helvetica,sans-Serif" font-size="13.00">Scheduled output</text>
</g>
<!-- python_run -->
<g id="node1" class="node">
<title>python_run</title>
<polygon fill="#cce5ff" stroke="black" points="177.5,-520.75 110.5,-520.75 110.5,-484.75 177.5,-484.75 177.5,-520.75"/>
<text text-anchor="middle" x="144" y="-498.3" font-family="Helvetica,sans-Serif" font-size="11.00">python:run</text>
</g>
<!-- setuptools_run -->
<g id="node2" class="node">
<title>setuptools_run</title>
<polygon fill="#cce5ff" stroke="black" points="193.75,-437.5 110.25,-437.5 110.25,-401.5 193.75,-401.5 193.75,-437.5"/>
<text text-anchor="middle" x="152" y="-415.05" font-family="Helvetica,sans-Serif" font-size="11.00">setuptools:run</text>
</g>
<!-- python_run&#45;&gt;setuptools_run -->
<g id="edge1" class="edge">
<title>python_run&#45;&gt;setuptools_run</title>
<path fill="none" stroke="black" d="M145.7,-484.52C146.71,-474.25 148.02,-460.95 149.18,-449.14"/>
<polygon fill="black" stroke="black" points="152.63,-449.79 150.13,-439.49 145.67,-449.1 152.63,-449.79"/>
<text text-anchor="middle" x="173.6" y="-457.25" font-family="Helvetica,sans-Serif" font-size="10.00">RDEPEND</text>
</g>
<!-- step1 -->
<g id="node7" class="node">
<title>step1</title>
<polygon fill="white" stroke="none" points="491.88,-437.5 376.12,-437.5 376.12,-401.5 491.88,-401.5 491.88,-437.5"/>
<text text-anchor="start" x="384.12" y="-421.05" font-family="Helvetica,sans-Serif" font-weight="bold" font-size="11.00">1.</text>
<text text-anchor="start" x="393.12" y="-421.05" font-family="Helvetica,sans-Serif" font-size="11.00"> DFS forward pass</text>
<text text-anchor="start" x="386.75" y="-410.05" font-family="Helvetica,sans-Serif" font-size="11.00">(record finish order)</text>
</g>
<!-- python_run&#45;&gt;step1 -->
<!-- pip_run -->
<g id="node3" class="node">
<title>pip_run</title>
<polygon fill="#cce5ff" stroke="black" points="124,-334.75 70,-334.75 70,-298.75 124,-298.75 124,-334.75"/>
<text text-anchor="middle" x="97" y="-312.3" font-family="Helvetica,sans-Serif" font-size="11.00">pip:run</text>
</g>
<!-- setuptools_run&#45;&gt;pip_run -->
<g id="edge2" class="edge">
<title>setuptools_run&#45;&gt;pip_run</title>
<path fill="none" stroke="black" d="M129.73,-401.35C124.17,-396.14 118.67,-390.05 114.75,-383.5 107.93,-372.13 103.68,-358.1 101.06,-345.93"/>
<polygon fill="black" stroke="black" points="104.56,-345.64 99.29,-336.46 97.68,-346.93 104.56,-345.64"/>
<text text-anchor="middle" x="139.88" y="-374" font-family="Helvetica,sans-Serif" font-size="10.00">RDEPEND</text>
</g>
<!-- wheel_run -->
<g id="node4" class="node">
<title>wheel_run</title>
<polygon fill="#ccf2cc" stroke="black" points="281.62,-334.75 218.38,-334.75 218.38,-298.75 281.62,-298.75 281.62,-334.75"/>
<text text-anchor="middle" x="250" y="-312.3" font-family="Helvetica,sans-Serif" font-size="11.00">wheel:run</text>
</g>
<!-- setuptools_run&#45;&gt;wheel_run -->
<g id="edge4" class="edge">
<title>setuptools_run&#45;&gt;wheel_run</title>
<path fill="none" stroke="black" d="M202,-368.36C203.35,-366.98 204.68,-365.61 206,-364.25 212.53,-357.52 219.54,-350.18 225.99,-343.35"/>
<polygon fill="black" stroke="black" points="228.45,-345.85 232.77,-336.17 223.36,-341.05 228.45,-345.85"/>
<text text-anchor="middle" x="222.37" y="-374" font-family="Helvetica,sans-Serif" font-size="10.00">RDEPEND</text>
</g>
<!-- pip_run&#45;&gt;python_run -->
<g id="edge3" class="edge">
<title>pip_run&#45;&gt;python_run</title>
<path fill="none" stroke="#c84a4a" stroke-dasharray="5,2" d="M81.26,-334.95C61.54,-358.7 32.4,-402.58 50.75,-437.5 61.37,-457.71 81.54,-472.81 100.42,-483.27"/>
<polygon fill="#c84a4a" stroke="#c84a4a" points="98.58,-486.26 109.06,-487.77 101.81,-480.05 98.58,-486.26"/>
<text text-anchor="middle" x="75.88" y="-415.62" font-family="Helvetica,sans-Serif" font-size="10.00">RDEPEND</text>
</g>
<!-- merge_set -->
<g id="node5" class="node">
<title>merge_set</title>
<polygon fill="#d4edda" stroke="black" points="508.38,-163.25 377.62,-163.25 377.62,-107.25 508.38,-107.25 508.38,-163.25"/>
<text text-anchor="middle" x="443" y="-148.8" font-family="Helvetica,sans-Serif" font-size="11.00">Merge&#45;set</text>
<text text-anchor="middle" x="443" y="-136.8" font-family="Helvetica,sans-Serif" font-size="11.00">{python, setuptools, pip}</text>
<text text-anchor="middle" x="443" y="-124.8" font-family="Helvetica,sans-Serif" font-size="11.00">(merged together as</text>
<text text-anchor="middle" x="443" y="-112.8" font-family="Helvetica,sans-Serif" font-size="11.00">runtime cycle)</text>
</g>
<!-- single -->
<g id="node6" class="node">
<title>single</title>
<polygon fill="#d4edda" stroke="black" points="495.25,-60 390.75,-60 390.75,-16 495.25,-16 495.25,-60"/>
<text text-anchor="middle" x="443" y="-45.55" font-family="Helvetica,sans-Serif" font-size="11.00">Schedule normally</text>
<text text-anchor="middle" x="443" y="-33.55" font-family="Helvetica,sans-Serif" font-size="11.00">{wheel}</text>
<text text-anchor="middle" x="443" y="-21.55" font-family="Helvetica,sans-Serif" font-size="11.00">(after merge&#45;set)</text>
</g>
<!-- merge_set&#45;&gt;single -->
<g id="edge5" class="edge">
<title>merge_set&#45;&gt;single</title>
<path fill="none" stroke="black" d="M443,-106.96C443,-95.94 443,-83.14 443,-71.63"/>
<polygon fill="black" stroke="black" points="446.5,-71.76 443,-61.76 439.5,-71.76 446.5,-71.76"/>
<text text-anchor="middle" x="452.38" y="-79.75" font-family="Helvetica,sans-Serif" font-size="10.00">then</text>
</g>
<!-- step2 -->
<g id="node8" class="node">
<title>step2</title>
<polygon fill="white" stroke="none" points="519.25,-334.75 366.75,-334.75 366.75,-298.75 519.25,-298.75 519.25,-334.75"/>
<text text-anchor="start" x="374.75" y="-318.3" font-family="Helvetica,sans-Serif" font-weight="bold" font-size="11.00">2.</text>
<text text-anchor="start" x="383.75" y="-318.3" font-family="Helvetica,sans-Serif" font-size="11.00"> DFS on transposed graph</text>
<text text-anchor="start" x="393.12" y="-307.3" font-family="Helvetica,sans-Serif" font-size="11.00">(reverse finish order)</text>
</g>
<!-- step1&#45;&gt;step2 -->
<!-- step3 -->
<g id="node9" class="node">
<title>step3</title>
<polygon fill="white" stroke="none" points="529.38,-255.75 356.62,-255.75 356.62,-219.75 529.38,-219.75 529.38,-255.75"/>
<text text-anchor="start" x="372.12" y="-239.3" font-family="Helvetica,sans-Serif" font-weight="bold" font-size="11.00">3.</text>
<text text-anchor="start" x="381.12" y="-239.3" font-family="Helvetica,sans-Serif" font-size="11.00"> Each DFS tree = one SCC</text>
<text text-anchor="start" x="364.62" y="-228.3" font-family="Helvetica,sans-Serif" font-size="11.00">(:run SCCs become merge&#45;sets)</text>
</g>
<!-- step2&#45;&gt;step3 -->
<!-- step3&#45;&gt;merge_set -->
</g>
</svg>
