<?xml version="1.0" encoding="UTF-8" standalone="no"?>
<!DOCTYPE svg PUBLIC "-//W3C//DTD SVG 1.1//EN"
 "http://www.w3.org/Graphics/SVG/1.1/DTD/svg11.dtd">
<!-- Generated by graphviz version 12.2.1 (20241206.2353)
 -->
<!-- Title: scc_scheduling Pages: 1 -->
<svg width="398pt" height="777pt"
 viewBox="0.00 0.00 397.50 776.75" xmlns="http://www.w3.org/2000/svg" xmlns:xlink="http://www.w3.org/1999/xlink">
<g id="graph0" class="graph" transform="scale(1 1) rotate(0) translate(4 772.75)">
<title>scc_scheduling</title>
<polygon fill="white" stroke="none" points="-4,4 -4,-772.75 393.5,-772.75 393.5,4 -4,4"/>
<text text-anchor="middle" x="194.75" y="-752.4" font-family="Helvetica,sans-Serif" font-size="13.00">Kahn remainder &#45;&gt; Kosaraju SCC &#45;&gt; merge&#45;sets</text>
<g id="clust1" class="cluster">
<title>cluster_remainder</title>
<polygon fill="#fff0f0" stroke="#c84a4a" points="30.5,-428.75 30.5,-739.25 381.5,-739.25 381.5,-428.75 30.5,-428.75"/>
<text text-anchor="middle" x="121.75" y="-722.9" font-family="Helvetica,sans-Serif" font-size="13.00">Kahn remainder</text>
<text text-anchor="middle" x="121.75" y="-709.4" font-family="Helvetica,sans-Serif" font-size="13.00">(in&#45;degree never reaches 0)</text>
</g>
<g id="clust2" class="cluster">
<title>cluster_scc1</title>
<polygon fill="#e6f0ff" stroke="#4a86c8" points="38.5,-436.75 38.5,-696.25 224.5,-696.25 224.5,-436.75 38.5,-436.75"/>
<text text-anchor="middle" x="103.5" y="-679.9" font-family="Helvetica,sans-Serif" font-size="13.00">SCC 1 &#160;(:run cycle)</text>
</g>
<g id="clust3" class="cluster">
<title>cluster_scc2</title>
<polygon fill="#e6ffe6" stroke="#4a8c4a" points="232.5,-436.75 232.5,-510.25 373.5,-510.25 373.5,-436.75 232.5,-436.75"/>
<text text-anchor="middle" x="303.12" y="-493.9" font-family="Helvetica,sans-Serif" font-size="13.00">SCC 2 &#160;(single node)</text>
</g>
<g id="clust5" class="cluster">
<title>cluster_result</title>
<polygon fill="#e8e8e8" stroke="#666666" points="83.5,-8 83.5,-192.75 229.5,-192.75 229.5,-8 83.5,-8"/>
<text text-anchor="middle" x="144" y="-176.4" font-family="Helvetica,sans-Serif" font-size="13.00">Scheduled output</text>
</g>
<!-- python_run -->
<g id="node1" class="node">
<title>python_run</title>
<polygon fill="#cce5ff" stroke="black" points="172,-666.75 105,-666.75 105,-630.75 172,-630.75 172,-666.75"/>
<text text-anchor="middle" x="138.5" y="-644.3" font-family="Helvetica,sans-Serif" font-size="11.00">python:run</text>
</g>
<!-- setuptools_run -->
<g id="node2" class="node">
<title>setuptools_run</title>
<polygon fill="#cce5ff" stroke="black" points="130.25,-583.5 46.75,-583.5 46.75,-547.5 130.25,-547.5 130.25,-583.5"/>
<text text-anchor="middle" x="88.5" y="-561.05" font-family="Helvetica,sans-Serif" font-size="11.00">setuptools:run</text>
</g>
<!-- python_run&#45;&gt;setuptools_run -->
<g id="edge1" class="edge">
<title>python_run&#45;&gt;setuptools_run</title>
<path fill="none" stroke="black" d="M123.91,-630.46C119.59,-624.96 115.01,-618.76 111.25,-612.75 107.54,-606.82 103.97,-600.2 100.81,-593.87"/>
<polygon fill="black" stroke="black" points="104.04,-592.52 96.57,-585.01 97.73,-595.54 104.04,-592.52"/>
<text text-anchor="middle" x="136.38" y="-603.25" font-family="Helvetica,sans-Serif" font-size="10.00">RDEPEND</text>
</g>
<!-- pip_run -->
<g id="node3" class="node">
<title>pip_run</title>
<polygon fill="#cce5ff" stroke="black" points="183.5,-480.75 129.5,-480.75 129.5,-444.75 183.5,-444.75 183.5,-480.75"/>
<text text-anchor="middle" x="156.5" y="-458.3" font-family="Helvetica,sans-Serif" font-size="11.00">pip:run</text>
</g>
<!-- setuptools_run&#45;&gt;pip_run -->
<g id="edge2" class="edge">
<title>setuptools_run&#45;&gt;pip_run</title>
<path fill="none" stroke="black" d="M95.79,-547.28C99.87,-538.34 105.31,-527.41 111.25,-518.25 117.6,-508.45 125.47,-498.41 132.86,-489.67"/>
<polygon fill="black" stroke="black" points="135.4,-492.08 139.3,-482.24 130.11,-487.5 135.4,-492.08"/>
<text text-anchor="middle" x="136.38" y="-520" font-family="Helvetica,sans-Serif" font-size="10.00">RDEPEND</text>
</g>
<!-- pip_run&#45;&gt;python_run -->
<g id="edge3" class="edge">
<title>pip_run&#45;&gt;python_run</title>
<path fill="none" stroke="#c84a4a" stroke-dasharray="5,2" d="M160.61,-481.19C166.5,-509.49 175.22,-566.88 161.5,-612.75 160.68,-615.49 159.57,-618.22 158.27,-620.87"/>
<polygon fill="#c84a4a" stroke="#c84a4a" points="155.38,-618.88 153.37,-629.29 161.43,-622.41 155.38,-618.88"/>
<text text-anchor="middle" x="193.94" y="-561.62" font-family="Helvetica,sans-Serif" font-size="10.00">RDEPEND</text>
</g>
<!-- wheel_run -->
<g id="node4" class="node">
<title>wheel_run</title>
<polygon fill="#ccf2cc" stroke="black" points="314.12,-480.75 250.88,-480.75 250.88,-444.75 314.12,-444.75 314.12,-480.75"/>
<text text-anchor="middle" x="282.5" y="-458.3" font-family="Helvetica,sans-Serif" font-size="11.00">wheel:run</text>
</g>
<!-- pip_run&#45;&gt;wheel_run -->
<g id="edge4" class="edge">
<title>pip_run&#45;&gt;wheel_run</title>
<path fill="none" stroke="black" d="M183.84,-462.75C200.07,-462.75 221,-462.75 239.4,-462.75"/>
<polygon fill="black" stroke="black" points="239.25,-466.25 249.25,-462.75 239.25,-459.25 239.25,-466.25"/>
<text text-anchor="middle" x="217.19" y="-467.5" font-family="Helvetica,sans-Serif" font-size="10.00">RDEPEND</text>
</g>
<!-- step1 -->
<g id="node5" class="node">
<title>step1</title>
<text text-anchor="start" x="57.88" y="-380.3" font-family="Helvetica,sans-Serif" font-weight="bold" font-size="11.00">1.</text>
<text text-anchor="start" x="66.88" y="-380.3" font-family="Helvetica,sans-Serif" font-size="11.00"> DFS forward pass (record finish order)</text>
</g>
<!-- pip_run&#45;&gt;step1 -->
<!-- step2 -->
<g id="node6" class="node">
<title>step2</title>
<text text-anchor="start" x="36.88" y="-307.3" font-family="Helvetica,sans-Serif" font-weight="bold" font-size="11.00">2.</text>
<text text-anchor="start" x="45.88" y="-307.3" font-family="Helvetica,sans-Serif" font-size="11.00"> DFS on transposed graph (reverse finish order)</text>
</g>
<!-- step1&#45;&gt;step2 -->
<!-- step3 -->
<g id="node7" class="node">
<title>step3</title>
<text text-anchor="start" x="8" y="-234.3" font-family="Helvetica,sans-Serif" font-weight="bold" font-size="11.00">3.</text>
<text text-anchor="start" x="17" y="-234.3" font-family="Helvetica,sans-Serif" font-size="11.00"> Each DFS tree = one SCC; :run SCCs become merge&#45;sets</text>
</g>
<!-- step2&#45;&gt;step3 -->
<!-- merge_set -->
<g id="node8" class="node">
<title>merge_set</title>
<polygon fill="#d4edda" stroke="none" points="221.88,-163.25 91.12,-163.25 91.12,-107.25 221.88,-107.25 221.88,-163.25"/>
<text text-anchor="middle" x="156.5" y="-148.8" font-family="Helvetica,sans-Serif" font-size="11.00">Merge&#45;set</text>
<text text-anchor="middle" x="156.5" y="-136.8" font-family="Helvetica,sans-Serif" font-size="11.00">{python, setuptools, pip}</text>
<text text-anchor="middle" x="156.5" y="-124.8" font-family="Helvetica,sans-Serif" font-size="11.00">(merged together as</text>
<text text-anchor="middle" x="156.5" y="-112.8" font-family="Helvetica,sans-Serif" font-size="11.00">runtime cycle)</text>
</g>
<!-- step3&#45;&gt;merge_set -->
<!-- single -->
<g id="node9" class="node">
<title>single</title>
<polygon fill="#d4edda" stroke="none" points="208.75,-60 104.25,-60 104.25,-16 208.75,-16 208.75,-60"/>
<text text-anchor="middle" x="156.5" y="-45.55" font-family="Helvetica,sans-Serif" font-size="11.00">Schedule normally</text>
<text text-anchor="middle" x="156.5" y="-33.55" font-family="Helvetica,sans-Serif" font-size="11.00">{wheel}</text>
<text text-anchor="middle" x="156.5" y="-21.55" font-family="Helvetica,sans-Serif" font-size="11.00">(after merge&#45;set)</text>
</g>
<!-- merge_set&#45;&gt;single -->
<g id="edge7" class="edge">
<title>merge_set&#45;&gt;single</title>
<path fill="none" stroke="black" d="M156.5,-107.46C156.5,-96.16 156.5,-82.9 156.5,-71.07"/>
<polygon fill="black" stroke="black" points="160,-71.37 156.5,-61.37 153,-71.37 160,-71.37"/>
<text text-anchor="middle" x="165.88" y="-79.75" font-family="Helvetica,sans-Serif" font-size="10.00">then</text>
</g>
</g>
</svg>
