<?xml version="1.0" encoding="UTF-8" standalone="no"?>
<!DOCTYPE svg PUBLIC "-//W3C//DTD SVG 1.1//EN"
 "http://www.w3.org/Graphics/SVG/1.1/DTD/svg11.dtd">
<!-- Generated by graphviz version 12.2.1 (20241206.2353)
 -->
<!-- Title: wave_planning Pages: 1 -->
<svg width="659pt" height="264pt"
 viewBox="0.00 0.00 659.25 264.00" xmlns="http://www.w3.org/2000/svg" xmlns:xlink="http://www.w3.org/1999/xlink">
<g id="graph0" class="graph" transform="scale(1 1) rotate(0) translate(4 260)">
<title>wave_planning</title>
<polygon fill="white" stroke="none" points="-4,4 -4,-260 655.25,-260 655.25,4 -4,4"/>
<g id="clust1" class="cluster">
<title>cluster_w1</title>
<polygon fill="#e6f0ff" stroke="#4a86c8" points="0,-8 0,-188 121,-188 121,-8 0,-8"/>
<text text-anchor="middle" x="60.5" y="-173.55" font-family="Helvetica,sans-Serif" font-size="11.00">Wave 1 &#160;(in&#45;degree 0)</text>
</g>
<g id="clust2" class="cluster">
<title>cluster_w2</title>
<polygon fill="#e6ffe6" stroke="#4a8c4a" points="173.25,-122 173.25,-248 251.75,-248 251.75,-122 173.25,-122"/>
<text text-anchor="middle" x="199.62" y="-233.55" font-family="Helvetica,sans-Serif" font-size="11.00">Wave 2</text>
</g>
<g id="clust3" class="cluster">
<title>cluster_w3</title>
<polygon fill="#fff8e6" stroke="#c8a84a" points="314.5,-8 314.5,-134 384.5,-134 384.5,-8 314.5,-8"/>
<text text-anchor="middle" x="340.88" y="-119.55" font-family="Helvetica,sans-Serif" font-size="11.00">Wave 3</text>
</g>
<g id="clust4" class="cluster">
<title>cluster_w4</title>
<polygon fill="#f0e6ff" stroke="#8c4ac8" points="447.25,-109 447.25,-181 517.25,-181 517.25,-109 447.25,-109"/>
<text text-anchor="middle" x="473.62" y="-166.55" font-family="Helvetica,sans-Serif" font-size="11.00">Wave 4</text>
</g>
<g id="clust5" class="cluster">
<title>cluster_w5</title>
<polygon fill="#e8e8e8" stroke="#666666" points="573.25,-109 573.25,-181 643.25,-181 643.25,-109 573.25,-109"/>
<text text-anchor="middle" x="599.62" y="-166.55" font-family="Helvetica,sans-Serif" font-size="11.00">Wave 5</text>
</g>
<!-- dl_A -->
<g id="node1" class="node">
<title>dl_A</title>
<polygon fill="#cce5ff" stroke="black" points="91.25,-160 28.75,-160 28.75,-124 91.25,-124 91.25,-160"/>
<text text-anchor="middle" x="60" y="-143.55" font-family="Helvetica,sans-Serif" font-size="11.00">download</text>
<text text-anchor="middle" x="60" y="-131.55" font-family="Helvetica,sans-Serif" font-size="11.00">openssl</text>
</g>
<!-- inst_A -->
<g id="node4" class="node">
<title>inst_A</title>
<polygon fill="#ccf2cc" stroke="black" points="239.5,-166 185.5,-166 185.5,-130 239.5,-130 239.5,-166"/>
<text text-anchor="middle" x="212.5" y="-149.55" font-family="Helvetica,sans-Serif" font-size="11.00">install</text>
<text text-anchor="middle" x="212.5" y="-137.55" font-family="Helvetica,sans-Serif" font-size="11.00">openssl</text>
</g>
<!-- dl_A&#45;&gt;inst_A -->
<g id="edge1" class="edge">
<title>dl_A&#45;&gt;inst_A</title>
<path fill="none" stroke="black" d="M91.46,-143.21C115.18,-144.16 148.25,-145.48 173.68,-146.49"/>
<polygon fill="black" stroke="black" points="173.47,-149.99 183.6,-146.89 173.75,-142.99 173.47,-149.99"/>
<text text-anchor="middle" x="147.12" y="-147.81" font-family="Helvetica,sans-Serif" font-size="10.00">fetched</text>
</g>
<!-- dl_B -->
<g id="node2" class="node">
<title>dl_B</title>
<polygon fill="#cce5ff" stroke="black" points="91.25,-106 28.75,-106 28.75,-70 91.25,-70 91.25,-106"/>
<text text-anchor="middle" x="60" y="-89.55" font-family="Helvetica,sans-Serif" font-size="11.00">download</text>
<text text-anchor="middle" x="60" y="-77.55" font-family="Helvetica,sans-Serif" font-size="11.00">python</text>
</g>
<!-- inst_B -->
<g id="node6" class="node">
<title>inst_B</title>
<polygon fill="#fff3cd" stroke="black" points="376.5,-106 322.5,-106 322.5,-70 376.5,-70 376.5,-106"/>
<text text-anchor="middle" x="349.5" y="-89.55" font-family="Helvetica,sans-Serif" font-size="11.00">install</text>
<text text-anchor="middle" x="349.5" y="-77.55" font-family="Helvetica,sans-Serif" font-size="11.00">python</text>
</g>
<!-- dl_B&#45;&gt;inst_B -->
<g id="edge2" class="edge">
<title>dl_B&#45;&gt;inst_B</title>
<path fill="none" stroke="black" d="M91.5,-88C144.38,-88 252.97,-88 310.61,-88"/>
<polygon fill="black" stroke="black" points="310.59,-91.5 320.59,-88 310.59,-84.5 310.59,-91.5"/>
<text text-anchor="middle" x="212.5" y="-89.75" font-family="Helvetica,sans-Serif" font-size="10.00">fetched</text>
</g>
<!-- dl_C -->
<g id="node3" class="node">
<title>dl_C</title>
<polygon fill="#cce5ff" stroke="black" points="91.25,-52 28.75,-52 28.75,-16 91.25,-16 91.25,-52"/>
<text text-anchor="middle" x="60" y="-35.55" font-family="Helvetica,sans-Serif" font-size="11.00">download</text>
<text text-anchor="middle" x="60" y="-23.55" font-family="Helvetica,sans-Serif" font-size="11.00">tar</text>
</g>
<!-- inst_C -->
<g id="node7" class="node">
<title>inst_C</title>
<polygon fill="#fff3cd" stroke="black" points="376.5,-52 322.5,-52 322.5,-16 376.5,-16 376.5,-52"/>
<text text-anchor="middle" x="349.5" y="-35.55" font-family="Helvetica,sans-Serif" font-size="11.00">install</text>
<text text-anchor="middle" x="349.5" y="-23.55" font-family="Helvetica,sans-Serif" font-size="11.00">tar</text>
</g>
<!-- dl_C&#45;&gt;inst_C -->
<g id="edge3" class="edge">
<title>dl_C&#45;&gt;inst_C</title>
<path fill="none" stroke="black" d="M91.5,-34C144.38,-34 252.97,-34 310.61,-34"/>
<polygon fill="black" stroke="black" points="310.59,-37.5 320.59,-34 310.59,-30.5 310.59,-37.5"/>
<text text-anchor="middle" x="212.5" y="-35.75" font-family="Helvetica,sans-Serif" font-size="10.00">fetched</text>
</g>
<!-- inst_A&#45;&gt;inst_B -->
<g id="edge5" class="edge">
<title>inst_A&#45;&gt;inst_B</title>
<path fill="none" stroke="black" d="M239.85,-136.29C260.38,-127.16 289.14,-114.38 311.91,-104.26"/>
<polygon fill="black" stroke="black" points="313.12,-107.56 320.83,-100.3 310.27,-101.16 313.12,-107.56"/>
<text text-anchor="middle" x="283.12" y="-126.89" font-family="Helvetica,sans-Serif" font-size="10.00">DEPEND</text>
</g>
<!-- inst_D -->
<g id="node8" class="node">
<title>inst_D</title>
<polygon fill="#e6ccff" stroke="black" points="509.25,-153 455.25,-153 455.25,-117 509.25,-117 509.25,-153"/>
<text text-anchor="middle" x="482.25" y="-136.55" font-family="Helvetica,sans-Serif" font-size="11.00">install</text>
<text text-anchor="middle" x="482.25" y="-124.55" font-family="Helvetica,sans-Serif" font-size="11.00">portage</text>
</g>
<!-- inst_A&#45;&gt;inst_D -->
<g id="edge6" class="edge">
<title>inst_A&#45;&gt;inst_D</title>
<path fill="none" stroke="black" d="M239.66,-146.73C287.35,-144.41 388.57,-139.5 443.64,-136.83"/>
<polygon fill="black" stroke="black" points="443.65,-140.33 453.47,-136.35 443.31,-133.34 443.65,-140.33"/>
<text text-anchor="middle" x="349.5" y="-144.75" font-family="Helvetica,sans-Serif" font-size="10.00">DEPEND</text>
</g>
<!-- dl_D -->
<g id="node5" class="node">
<title>dl_D</title>
<polygon fill="#ccf2cc" stroke="black" points="243.75,-220 181.25,-220 181.25,-184 243.75,-184 243.75,-220"/>
<text text-anchor="middle" x="212.5" y="-203.55" font-family="Helvetica,sans-Serif" font-size="11.00">download</text>
<text text-anchor="middle" x="212.5" y="-191.55" font-family="Helvetica,sans-Serif" font-size="11.00">portage</text>
</g>
<!-- dl_D&#45;&gt;inst_D -->
<g id="edge4" class="edge">
<title>dl_D&#45;&gt;inst_D</title>
<path fill="none" stroke="black" d="M243.91,-196.69C287.3,-188.79 369.25,-172.61 437.25,-152 439.52,-151.31 441.83,-150.57 444.15,-149.78"/>
<polygon fill="black" stroke="black" points="445.3,-153.09 453.52,-146.41 442.93,-146.5 445.3,-153.09"/>
<text text-anchor="middle" x="349.5" y="-184.12" font-family="Helvetica,sans-Serif" font-size="10.00">fetched</text>
</g>
<!-- inst_B&#45;&gt;inst_D -->
<g id="edge7" class="edge">
<title>inst_B&#45;&gt;inst_D</title>
<path fill="none" stroke="black" d="M376.96,-97.51C396.28,-104.46 422.72,-113.96 444.15,-121.66"/>
<polygon fill="black" stroke="black" points="442.81,-124.9 453.41,-124.99 445.18,-118.31 442.81,-124.9"/>
<text text-anchor="middle" x="415.88" y="-120.21" font-family="Helvetica,sans-Serif" font-size="10.00">DEPEND</text>
</g>
<!-- inst_C&#45;&gt;inst_D -->
<g id="edge8" class="edge">
<title>inst_C&#45;&gt;inst_D</title>
<path fill="none" stroke="black" d="M377,-48.88C394.75,-59.35 418.26,-74.23 437.25,-89.75 444.29,-95.5 451.39,-102.28 457.77,-108.81"/>
<polygon fill="black" stroke="black" points="454.94,-110.92 464.36,-115.77 460.02,-106.1 454.94,-110.92"/>
<text text-anchor="middle" x="415.88" y="-91.5" font-family="Helvetica,sans-Serif" font-size="10.00">DEPEND</text>
</g>
<!-- run_D -->
<g id="node9" class="node">
<title>run_D</title>
<polygon fill="#d0d0d0" stroke="black" points="635.25,-153 581.25,-153 581.25,-117 635.25,-117 635.25,-153"/>
<text text-anchor="middle" x="608.25" y="-136.55" font-family="Helvetica,sans-Serif" font-size="11.00">run</text>
<text text-anchor="middle" x="608.25" y="-124.55" font-family="Helvetica,sans-Serif" font-size="11.00">portage</text>
</g>
<!-- inst_D&#45;&gt;run_D -->
<g id="edge9" class="edge">
<title>inst_D&#45;&gt;run_D</title>
<path fill="none" stroke="black" d="M509.55,-135C526.97,-135 550.11,-135 569.49,-135"/>
<polygon fill="black" stroke="black" points="569.48,-138.5 579.48,-135 569.48,-131.5 569.48,-138.5"/>
<text text-anchor="middle" x="545.25" y="-136.75" font-family="Helvetica,sans-Serif" font-size="10.00">installed</text>
</g>
</g>
</svg>
