<?xml version="1.0" encoding="UTF-8" standalone="no"?>
<!DOCTYPE svg PUBLIC "-//W3C//DTD SVG 1.1//EN"
 "http://www.w3.org/Graphics/SVG/1.1/DTD/svg11.dtd">
<!-- Generated by graphviz version 12.2.1 (20241206.2353)
 -->
<!-- Title: code_execution Pages: 1 -->
<svg width="270pt" height="551pt"
 viewBox="0.00 0.00 269.52 550.50" xmlns="http://www.w3.org/2000/svg" xmlns:xlink="http://www.w3.org/1999/xlink">
<g id="graph0" class="graph" transform="scale(1 1) rotate(0) translate(4 546.5)">
<title>code_execution</title>
<polygon fill="white" stroke="none" points="-4,4 -4,-546.5 265.52,-546.5 265.52,4 -4,4"/>
<!-- user -->
<g id="node1" class="node">
<title>user</title>
<ellipse fill="#e2e3e5" stroke="black" cx="215.63" cy="-524.5" rx="27" ry="18"/>
<text text-anchor="middle" x="215.63" y="-521.98" font-family="Helvetica Neue" font-size="7.00">User</text>
</g>
<!-- q -->
<g id="node3" class="node">
<title>q</title>
<polygon fill="#cce5ff" stroke="black" points="216.02,-483.5 139.25,-483.5 139.25,-447.5 222.02,-447.5 222.02,-477.5 216.02,-483.5"/>
<polyline fill="none" stroke="black" points="216.02,-483.5 216.02,-477.5"/>
<polyline fill="none" stroke="black" points="222.02,-477.5 216.02,-477.5"/>
<text text-anchor="middle" x="180.63" y="-467.1" font-family="Helvetica Neue" font-size="7.00">① &quot;How many ebuilds</text>
<text text-anchor="middle" x="180.63" y="-458.85" font-family="Helvetica Neue" font-size="7.00"> &#160;&#160;are in the tree?&quot;</text>
</g>
<!-- user&#45;&gt;q -->
<g id="edge1" class="edge">
<title>user&#45;&gt;q</title>
<path fill="none" stroke="black" d="M205.7,-507.32C202.09,-501.44 197.95,-494.7 194.09,-488.42"/>
<polygon fill="black" stroke="black" points="195.29,-487.68 192,-485.01 192.9,-489.15 195.29,-487.68"/>
</g>
<!-- llm -->
<g id="node2" class="node">
<title>llm</title>
<ellipse fill="#f0e6ff" stroke="black" cx="129.63" cy="-333.5" rx="32.62" ry="18"/>
<text text-anchor="middle" x="129.63" y="-335.1" font-family="Helvetica Neue" font-size="7.00">LLM</text>
<text text-anchor="middle" x="129.63" y="-326.85" font-family="Helvetica Neue" font-size="7.00">(e.g. Claude)</text>
</g>
<!-- respond -->
<g id="node5" class="node">
<title>respond</title>
<polygon fill="#f0e6ff" stroke="black" points="105.02,-292.5 4.25,-292.5 4.25,-256.5 105.02,-256.5 105.02,-292.5"/>
<text text-anchor="middle" x="54.63" y="-276.1" font-family="Helvetica Neue" font-size="7.00">③ LLM generates response</text>
<text text-anchor="middle" x="54.63" y="-267.85" font-family="Helvetica Neue" font-size="7.00">containing &lt;call:swi_prolog&gt;</text>
</g>
<!-- llm&#45;&gt;respond -->
<g id="edge4" class="edge">
<title>llm&#45;&gt;respond</title>
<path fill="none" stroke="black" d="M111.1,-318.41C102.29,-311.72 91.6,-303.59 81.9,-296.22"/>
<polygon fill="black" stroke="black" points="82.75,-295.11 78.72,-293.81 81.06,-297.34 82.75,-295.11"/>
</g>
<!-- final -->
<g id="node10" class="node">
<title>final</title>
<polygon fill="#f0e6ff" stroke="black" points="225.27,-292.5 150,-292.5 150,-256.5 225.27,-256.5 225.27,-292.5"/>
<text text-anchor="middle" x="187.63" y="-280.23" font-family="Helvetica Neue" font-size="7.00">⑧ LLM incorporates</text>
<text text-anchor="middle" x="187.63" y="-271.98" font-family="Helvetica Neue" font-size="7.00">verified fact into</text>
<text text-anchor="middle" x="187.63" y="-263.73" font-family="Helvetica Neue" font-size="7.00">final answer</text>
</g>
<!-- llm&#45;&gt;final -->
<g id="edge10" class="edge">
<title>llm&#45;&gt;final</title>
<path fill="none" stroke="black" d="M145.18,-317.23C151.63,-310.88 159.23,-303.41 166.2,-296.56"/>
<polygon fill="black" stroke="black" points="167.05,-297.69 168.92,-293.89 165.09,-295.7 167.05,-297.69"/>
</g>
<!-- dispatch -->
<g id="node4" class="node">
<title>dispatch</title>
<polygon fill="#cce5ff" stroke="black" points="197.27,-424.5 122,-424.5 122,-388.5 197.27,-388.5 197.27,-424.5"/>
<text text-anchor="middle" x="159.63" y="-412.23" font-family="Helvetica Neue" font-size="7.00">② Forward to LLM</text>
<text text-anchor="middle" x="159.63" y="-403.98" font-family="Helvetica Neue" font-size="7.00">with system prompt</text>
<text text-anchor="middle" x="159.63" y="-395.73" font-family="Helvetica Neue" font-size="7.00">(capabilities listed)</text>
</g>
<!-- q&#45;&gt;dispatch -->
<g id="edge2" class="edge">
<title>q&#45;&gt;dispatch</title>
<path fill="none" stroke="black" d="M174.22,-447.09C172.23,-441.67 170,-435.63 167.9,-429.92"/>
<polygon fill="black" stroke="black" points="169.23,-429.49 166.53,-426.23 166.6,-430.46 169.23,-429.49"/>
</g>
<!-- dispatch&#45;&gt;llm -->
<g id="edge3" class="edge">
<title>dispatch&#45;&gt;llm</title>
<path fill="none" stroke="black" stroke-dasharray="5,2" d="M152.37,-388.31C148.32,-378.72 143.23,-366.67 138.89,-356.41"/>
<polygon fill="black" stroke="black" points="140.27,-356.06 137.42,-352.92 137.69,-357.15 140.27,-356.06"/>
<text text-anchor="middle" x="162.7" y="-371.8" font-family="Helvetica Neue" font-size="6.00">prompt +</text>
<text text-anchor="middle" x="162.7" y="-364.3" font-family="Helvetica Neue" font-size="6.00">capabilities</text>
</g>
<!-- extract -->
<g id="node6" class="node">
<title>extract</title>
<polygon fill="#cce5ff" stroke="black" points="105.27,-233.5 0,-233.5 0,-197.5 105.27,-197.5 105.27,-233.5"/>
<text text-anchor="middle" x="52.63" y="-217.1" font-family="Helvetica Neue" font-size="7.00">④ extract_calls</text>
<text text-anchor="middle" x="52.63" y="-208.85" font-family="Helvetica Neue" font-size="7.00">detects &lt;call:swi_prolog&gt; tag</text>
</g>
<!-- respond&#45;&gt;extract -->
<g id="edge5" class="edge">
<title>respond&#45;&gt;extract</title>
<path fill="none" stroke="black" d="M54.02,-256.09C53.84,-250.78 53.63,-244.87 53.43,-239.27"/>
<polygon fill="black" stroke="black" points="54.83,-239.27 53.3,-235.32 52.04,-239.36 54.83,-239.27"/>
</g>
<!-- sandbox -->
<g id="node7" class="node">
<title>sandbox</title>
<polygon fill="#d4edda" stroke="black" points="94.39,-160.5 16.87,-160.5 16.87,-124.5 94.39,-124.5 94.39,-160.5"/>
<text text-anchor="middle" x="55.63" y="-148.22" font-family="Helvetica Neue" font-size="7.00">⑤ execute_llm_code</text>
<text text-anchor="middle" x="55.63" y="-139.97" font-family="Helvetica Neue" font-size="7.00">in temporary module</text>
<text text-anchor="middle" x="55.63" y="-131.72" font-family="Helvetica Neue" font-size="7.00">(sandboxed)</text>
</g>
<!-- extract&#45;&gt;sandbox -->
<g id="edge6" class="edge">
<title>extract&#45;&gt;sandbox</title>
<path fill="none" stroke="black" d="M53.36,-197.31C53.76,-187.89 54.26,-176.11 54.69,-165.97"/>
<polygon fill="black" stroke="black" points="56.08,-166.1 54.85,-162.04 53.28,-165.98 56.08,-166.1"/>
<text text-anchor="middle" x="71.28" y="-177.05" font-family="Helvetica Neue" font-size="6.00">Prolog code</text>
</g>
<!-- capture -->
<g id="node8" class="node">
<title>capture</title>
<polygon fill="#d4edda" stroke="black" points="105.52,-101.5 13.75,-101.5 13.75,-65.5 105.52,-65.5 105.52,-101.5"/>
<text text-anchor="middle" x="59.63" y="-89.22" font-family="Helvetica Neue" font-size="7.00">⑥ Capture output:</text>
<text text-anchor="middle" x="59.63" y="-80.97" font-family="Helvetica Neue" font-size="7.00">&quot;The portage tree</text>
<text text-anchor="middle" x="59.63" y="-72.72" font-family="Helvetica Neue" font-size="7.00">contains 32,147 ebuilds.&quot;</text>
</g>
<!-- sandbox&#45;&gt;capture -->
<g id="edge7" class="edge">
<title>sandbox&#45;&gt;capture</title>
<path fill="none" stroke="black" d="M56.86,-124.09C57.23,-118.78 57.64,-112.87 58.04,-107.27"/>
<polygon fill="black" stroke="black" points="59.43,-107.4 58.31,-103.31 56.64,-107.21 59.43,-107.4"/>
</g>
<!-- reinject -->
<g id="node9" class="node">
<title>reinject</title>
<polygon fill="#cce5ff" stroke="black" points="138.39,-36 48.87,-36 48.87,0 138.39,0 138.39,-36"/>
<text text-anchor="middle" x="93.63" y="-19.6" font-family="Helvetica Neue" font-size="7.00">⑦ Send output back</text>
<text text-anchor="middle" x="93.63" y="-11.35" font-family="Helvetica Neue" font-size="7.00">to LLM as function result</text>
</g>
<!-- capture&#45;&gt;reinject -->
<g id="edge8" class="edge">
<title>capture&#45;&gt;reinject</title>
<path fill="none" stroke="black" d="M68.93,-65.15C72.9,-57.73 77.58,-48.98 81.8,-41.1"/>
<polygon fill="black" stroke="black" points="82.99,-41.85 83.64,-37.66 80.52,-40.53 82.99,-41.85"/>
<text text-anchor="middle" x="86.65" y="-48.8" font-family="Helvetica Neue" font-size="6.00">stdout</text>
</g>
<!-- reinject&#45;&gt;llm -->
<g id="edge9" class="edge">
<title>reinject&#45;&gt;llm</title>
<path fill="none" stroke="black" stroke-dasharray="5,2" d="M108.84,-36.3C117.9,-48.39 127.63,-65.37 127.63,-82.5 127.63,-275.5 127.63,-275.5 127.63,-275.5 127.63,-286.8 128.03,-299.35 128.47,-309.79"/>
<polygon fill="black" stroke="black" points="127.06,-309.6 128.64,-313.53 129.86,-309.47 127.06,-309.6"/>
<text text-anchor="middle" x="140.01" y="-180.8" font-family="Helvetica Neue" font-size="6.00">function</text>
<text text-anchor="middle" x="140.01" y="-173.3" font-family="Helvetica Neue" font-size="6.00">response</text>
</g>
<!-- answer -->
<g id="node11" class="node">
<title>answer</title>
<polygon fill="#cce5ff" stroke="black" points="261.52,-233.5 193.75,-233.5 193.75,-197.5 261.52,-197.5 261.52,-233.5"/>
<text text-anchor="middle" x="227.63" y="-217.1" font-family="Helvetica Neue" font-size="7.00">⑨ Stream answer</text>
<text text-anchor="middle" x="227.63" y="-208.85" font-family="Helvetica Neue" font-size="7.00">to user</text>
</g>
<!-- final&#45;&gt;answer -->
<g id="edge11" class="edge">
<title>final&#45;&gt;answer</title>
<path fill="none" stroke="black" d="M199.85,-256.09C203.81,-250.45 208.24,-244.13 212.39,-238.22"/>
<polygon fill="black" stroke="black" points="213.47,-239.12 214.62,-235.04 211.18,-237.51 213.47,-239.12"/>
</g>
<!-- answer&#45;&gt;user -->
<g id="edge12" class="edge">
<title>answer&#45;&gt;user</title>
<path fill="none" stroke="black" d="M237.17,-233.92C242.32,-244.93 247.63,-259.66 247.63,-273.5 247.63,-466.5 247.63,-466.5 247.63,-466.5 247.63,-480.4 240.31,-494.05 232.67,-504.51"/>
<polygon fill="black" stroke="black" points="231.63,-503.55 230.31,-507.58 233.85,-505.26 231.63,-503.55"/>
</g>
</g>
</svg>
