<?xml version="1.0" encoding="UTF-8" standalone="no"?>
<!DOCTYPE svg PUBLIC "-//W3C//DTD SVG 1.1//EN"
 "http://www.w3.org/Graphics/SVG/1.1/DTD/svg11.dtd">
<!-- Generated by graphviz version 12.2.1 (20241206.2353)
 -->
<!-- Title: explainer_arch Pages: 1 -->
<svg width="520pt" height="331pt"
 viewBox="0.00 0.00 519.83 331.00" xmlns="http://www.w3.org/2000/svg" xmlns:xlink="http://www.w3.org/1999/xlink">
<g id="graph0" class="graph" transform="scale(1 1) rotate(0) translate(4 327)">
<title>explainer_arch</title>
<polygon fill="white" stroke="none" points="-4,4 -4,-327 515.83,-327 515.83,4 -4,4"/>
<g id="clust1" class="cluster">
<title>cluster_proof</title>
<polygon fill="#e6f0ff" stroke="#4a86c8" points="8,-94 8,-315 78.27,-315 78.27,-94 8,-94"/>
<text text-anchor="middle" x="40.75" y="-303.4" font-family="Helvetica Neue" font-size="8.00">Proof artifacts</text>
</g>
<g id="clust2" class="cluster">
<title>cluster_explainer</title>
<polygon fill="#fff3cd" stroke="#d4a017" points="95.27,-8 95.27,-303 200.04,-303 200.04,-8 95.27,-8"/>
<text text-anchor="middle" x="135.14" y="-291.4" font-family="Helvetica Neue" font-size="8.00">explainer.pl</text>
<text text-anchor="middle" x="135.14" y="-280.9" font-family="Helvetica Neue" font-size="8.00">(domain&#45;agnostic)</text>
</g>
<g id="clust3" class="cluster">
<title>cluster_explanation</title>
<polygon fill="#d4edda" stroke="#228b22" points="244.54,-72 244.54,-253 503.83,-253 503.83,-72 244.54,-72"/>
<text text-anchor="middle" x="295.29" y="-241.4" font-family="Helvetica Neue" font-size="8.00">explanation.pl</text>
<text text-anchor="middle" x="295.29" y="-230.9" font-family="Helvetica Neue" font-size="8.00">(domain&#45;specific hooks)</text>
</g>
<!-- proof -->
<g id="node1" class="node">
<title>proof</title>
<polygon fill="#cce5ff" stroke="black" points="70.13,-288 16.13,-288 16.13,-252 70.13,-252 70.13,-288"/>
<text text-anchor="middle" x="43.13" y="-267.65" font-family="Helvetica Neue" font-size="8.00">ProofAVL</text>
</g>
<!-- why_proof -->
<g id="node5" class="node">
<title>why_proof</title>
<polygon fill="lightgrey" stroke="black" points="183.41,-266 111.89,-266 111.89,-230 183.41,-230 183.41,-266"/>
<text text-anchor="middle" x="147.65" y="-245.65" font-family="Helvetica Neue" font-size="8.00">why_in_proof/3,4</text>
</g>
<!-- proof&#45;&gt;why_proof -->
<g id="edge1" class="edge">
<title>proof&#45;&gt;why_proof</title>
<path fill="none" stroke="black" d="M70.54,-264.33C76.36,-263.09 82.74,-261.72 89.26,-260.32"/>
<polygon fill="black" stroke="black" points="89.27,-262.1 93.79,-259.34 88.54,-258.68 89.27,-262.1"/>
</g>
<!-- model -->
<g id="node2" class="node">
<title>model</title>
<polygon fill="#cce5ff" stroke="black" points="70.13,-238 16.13,-238 16.13,-202 70.13,-202 70.13,-238"/>
<text text-anchor="middle" x="43.13" y="-217.65" font-family="Helvetica Neue" font-size="8.00">ModelAVL</text>
</g>
<!-- model&#45;&gt;why_proof -->
<!-- plan -->
<g id="node3" class="node">
<title>plan</title>
<polygon fill="#cce5ff" stroke="black" points="70.13,-188 16.13,-188 16.13,-152 70.13,-152 70.13,-188"/>
<text text-anchor="middle" x="43.13" y="-167.65" font-family="Helvetica Neue" font-size="8.00">Plan</text>
</g>
<!-- why_plan -->
<g id="node6" class="node">
<title>why_plan</title>
<polygon fill="lightgrey" stroke="black" points="181.91,-166 113.39,-166 113.39,-130 181.91,-130 181.91,-166"/>
<text text-anchor="middle" x="147.65" y="-145.65" font-family="Helvetica Neue" font-size="8.00">why_in_plan/5,6</text>
</g>
<!-- plan&#45;&gt;why_plan -->
<g id="edge3" class="edge">
<title>plan&#45;&gt;why_plan</title>
<path fill="none" stroke="black" d="M70.54,-164.33C76.36,-163.09 82.74,-161.72 89.26,-160.32"/>
<polygon fill="black" stroke="black" points="89.27,-162.1 93.79,-159.34 88.53,-158.68 89.27,-162.1"/>
</g>
<!-- trig -->
<g id="node4" class="node">
<title>trig</title>
<polygon fill="#cce5ff" stroke="black" points="70.27,-138 16,-138 16,-102 70.27,-102 70.27,-138"/>
<text text-anchor="middle" x="43.13" y="-117.65" font-family="Helvetica Neue" font-size="8.00">TriggersAVL</text>
</g>
<!-- trig&#45;&gt;why_plan -->
<!-- explain -->
<g id="node9" class="node">
<title>explain</title>
<polygon fill="#ffe8a0" stroke="black" points="192.04,-52 103.27,-52 103.27,-16 192.04,-16 192.04,-52"/>
<text text-anchor="middle" x="147.65" y="-36.9" font-family="Helvetica Neue" font-size="8.00">explain/2,3</text>
<text text-anchor="middle" x="147.65" y="-26.4" font-family="Helvetica Neue" font-size="8.00">format_why_prompt/2</text>
</g>
<!-- why_proof&#45;&gt;explain -->
<g id="edge9" class="edge">
<title>why_proof&#45;&gt;explain</title>
<path fill="none" stroke="black" stroke-dasharray="5,2" d="M111.45,-238.12C101.24,-233.31 91.61,-226.26 86.77,-216 80.32,-202.33 80.32,-93.67 86.77,-80 91.17,-70.67 98.53,-62.77 106.63,-56.28"/>
<polygon fill="black" stroke="black" points="107.6,-57.73 110.54,-53.33 105.5,-54.94 107.6,-57.73"/>
</g>
<!-- hook_proof -->
<g id="node10" class="node">
<title>hook_proof</title>
<polygon fill="lightgrey" stroke="black" points="345.43,-216 258.91,-216 258.91,-180 345.43,-180 345.43,-216"/>
<text text-anchor="middle" x="302.17" y="-195.65" font-family="Helvetica Neue" font-size="8.00">why_in_proof_hook/2</text>
</g>
<!-- why_proof&#45;&gt;hook_proof -->
<g id="edge5" class="edge">
<title>why_proof&#45;&gt;hook_proof</title>
<path fill="none" stroke="black" d="M183.65,-236.53C204.07,-229.83 230.15,-221.28 252.55,-213.94"/>
<polygon fill="black" stroke="black" points="252.81,-215.7 257.02,-212.47 251.72,-212.37 252.81,-215.7"/>
<text text-anchor="middle" x="222.29" y="-229.08" font-family="Helvetica Neue" font-size="7.00"> enriches</text>
</g>
<!-- why_plan&#45;&gt;explain -->
<g id="edge10" class="edge">
<title>why_plan&#45;&gt;explain</title>
<path fill="none" stroke="black" stroke-dasharray="5,2" d="M113.06,-138.86C102.27,-134.04 91.87,-126.8 86.77,-116 79.94,-101.53 79.94,-94.47 86.77,-80 91.17,-70.67 98.53,-62.77 106.63,-56.28"/>
<polygon fill="black" stroke="black" points="107.6,-57.73 110.54,-53.33 105.5,-54.94 107.6,-57.73"/>
</g>
<!-- hook_plan -->
<g id="node11" class="node">
<title>hook_plan</title>
<polygon fill="lightgrey" stroke="black" points="343.93,-166 260.41,-166 260.41,-130 343.93,-130 343.93,-166"/>
<text text-anchor="middle" x="302.17" y="-145.65" font-family="Helvetica Neue" font-size="8.00">why_in_plan_hook/2</text>
</g>
<!-- why_plan&#45;&gt;hook_plan -->
<g id="edge6" class="edge">
<title>why_plan&#45;&gt;hook_plan</title>
<path fill="none" stroke="black" d="M182.13,-148C203.13,-148 230.53,-148 253.75,-148"/>
<polygon fill="black" stroke="black" points="253.66,-149.75 258.66,-148 253.66,-146.25 253.66,-149.75"/>
<text text-anchor="middle" x="222.29" y="-149.6" font-family="Helvetica Neue" font-size="7.00"> enriches</text>
</g>
<!-- why_assum -->
<g id="node7" class="node">
<title>why_assum</title>
<polygon fill="lightgrey" stroke="black" points="189.79,-116 105.52,-116 105.52,-80 189.79,-80 189.79,-116"/>
<text text-anchor="middle" x="147.65" y="-95.65" font-family="Helvetica Neue" font-size="8.00">why_assumption/4,5</text>
</g>
<!-- why_assum&#45;&gt;explain -->
<g id="edge11" class="edge">
<title>why_assum&#45;&gt;explain</title>
<path fill="none" stroke="black" stroke-dasharray="5,2" d="M147.65,-79.52C147.65,-72.62 147.65,-65.73 147.65,-58.83"/>
<polygon fill="black" stroke="black" points="149.41,-59.01 147.66,-54.01 145.91,-59.01 149.41,-59.01"/>
</g>
<!-- hook_assum -->
<g id="node12" class="node">
<title>hook_assum</title>
<polygon fill="lightgrey" stroke="black" points="351.81,-116 252.54,-116 252.54,-80 351.81,-80 351.81,-116"/>
<text text-anchor="middle" x="302.17" y="-95.65" font-family="Helvetica Neue" font-size="8.00">why_assumption_hook/2</text>
</g>
<!-- why_assum&#45;&gt;hook_assum -->
<g id="edge7" class="edge">
<title>why_assum&#45;&gt;hook_assum</title>
<path fill="none" stroke="black" d="M189.93,-98C207.21,-98 227.55,-98 246.08,-98"/>
<polygon fill="black" stroke="black" points="245.77,-99.75 250.77,-98 245.77,-96.25 245.77,-99.75"/>
<text text-anchor="middle" x="222.29" y="-99.6" font-family="Helvetica Neue" font-size="7.00"> enriches</text>
</g>
<!-- term_ctx -->
<g id="node8" class="node">
<title>term_ctx</title>
<polygon fill="#ffe8a0" stroke="black" points="174.65,-216 120.65,-216 120.65,-180 174.65,-180 174.65,-216"/>
<text text-anchor="middle" x="147.65" y="-195.65" font-family="Helvetica Neue" font-size="8.00">term_ctx/2</text>
</g>
<!-- llm -->
<g id="node14" class="node">
<title>llm</title>
<polygon fill="#e8e8e8" stroke="black" points="346.18,-52 258.16,-52 258.16,-16 346.18,-16 346.18,-52"/>
<text text-anchor="middle" x="302.17" y="-36.9" font-family="Helvetica Neue" font-size="8.00">LLM backend</text>
<text text-anchor="middle" x="302.17" y="-26.4" font-family="Helvetica Neue" font-size="8.00">(Ollama / Claude / ...)</text>
</g>
<!-- explain&#45;&gt;llm -->
<g id="edge12" class="edge">
<title>explain&#45;&gt;llm</title>
<path fill="none" stroke="black" d="M192.36,-34C210.79,-34 232.34,-34 251.37,-34"/>
<polygon fill="black" stroke="black" points="251.21,-35.75 256.21,-34 251.21,-32.25 251.21,-35.75"/>
<text text-anchor="middle" x="222.29" y="-35.6" font-family="Helvetica Neue" font-size="7.00"> prompt</text>
</g>
<!-- reason -->
<g id="node13" class="node">
<title>reason</title>
<polygon fill="lightgrey" stroke="black" points="495.83,-116 412.31,-116 412.31,-80 495.83,-80 495.83,-116"/>
<text text-anchor="middle" x="454.07" y="-100.9" font-family="Helvetica Neue" font-size="8.00">assumption_reason_</text>
<text text-anchor="middle" x="454.07" y="-90.4" font-family="Helvetica Neue" font-size="8.00">for_grouped_dep/6</text>
</g>
<!-- hook_assum&#45;&gt;reason -->
<g id="edge8" class="edge">
<title>hook_assum&#45;&gt;reason</title>
<path fill="none" stroke="black" stroke-dasharray="5,2" d="M352.26,-98C369.44,-98 388.7,-98 405.74,-98"/>
<polygon fill="black" stroke="black" points="405.39,-99.75 410.39,-98 405.39,-96.25 405.39,-99.75"/>
<text text-anchor="middle" x="382.06" y="-99.6" font-family="Helvetica Neue" font-size="7.00"> diagnoses</text>
</g>
</g>
</svg>
