<?xml version="1.0" encoding="UTF-8" standalone="no"?>
<!DOCTYPE svg PUBLIC "-//W3C//DTD SVG 1.1//EN"
 "http://www.w3.org/Graphics/SVG/1.1/DTD/svg11.dtd">
<!-- Generated by graphviz version 12.2.1 (20241206.2353)
 -->
<!-- Title: inter_llm Pages: 1 -->
<svg width="356pt" height="268pt"
 viewBox="0.00 0.00 355.75 268.00" xmlns="http://www.w3.org/2000/svg" xmlns:xlink="http://www.w3.org/1999/xlink">
<g id="graph0" class="graph" transform="scale(1 1) rotate(0) translate(4 264)">
<title>inter_llm</title>
<polygon fill="white" stroke="none" points="-4,4 -4,-264 351.75,-264 351.75,4 -4,4"/>
<g id="clust1" class="cluster">
<title>cluster_ng</title>
<path fill="none" stroke="#999999" d="M115.5,-8C115.5,-8 161.5,-8 161.5,-8 167.5,-8 173.5,-14 173.5,-20 173.5,-20 173.5,-240 173.5,-240 173.5,-246 167.5,-252 161.5,-252 161.5,-252 115.5,-252 115.5,-252 109.5,-252 103.5,-246 103.5,-240 103.5,-240 103.5,-20 103.5,-20 103.5,-14 109.5,-8 115.5,-8"/>
<text text-anchor="middle" x="131.38" y="-240.4" font-family="Helvetica Neue" font-size="8.00">portage&#45;ng</text>
</g>
<g id="clust2" class="cluster">
<title>cluster_llms</title>
<path fill="none" stroke="#999999" d="M281.75,-21C281.75,-21 327.75,-21 327.75,-21 333.75,-21 339.75,-27 339.75,-33 339.75,-33 339.75,-129 339.75,-129 339.75,-135 333.75,-141 327.75,-141 327.75,-141 281.75,-141 281.75,-141 275.75,-141 269.75,-135 269.75,-129 269.75,-129 269.75,-33 269.75,-33 269.75,-27 275.75,-21 281.75,-21"/>
<text text-anchor="middle" x="301.38" y="-129.4" font-family="Helvetica Neue" font-size="8.00">LLM services</text>
</g>
<!-- user -->
<g id="node1" class="node">
<title>user</title>
<ellipse fill="#e2e3e5" stroke="black" cx="27" cy="-33" rx="27" ry="18"/>
<text text-anchor="middle" x="27" y="-30.48" font-family="Helvetica Neue" font-size="7.00">User</text>
</g>
<!-- dispatch -->
<g id="node2" class="node">
<title>dispatch</title>
<polygon fill="#cce5ff" stroke="black" points="165.5,-52 111.5,-52 111.5,-16 165.5,-16 165.5,-52"/>
<text text-anchor="middle" x="138.5" y="-35.6" font-family="Helvetica Neue" font-size="7.00">dispatch</text>
<text text-anchor="middle" x="138.5" y="-27.35" font-family="Helvetica Neue" font-size="7.00">+ stream</text>
</g>
<!-- user&#45;&gt;dispatch -->
<g id="edge1" class="edge">
<title>user&#45;&gt;dispatch</title>
<path fill="none" stroke="black" d="M54.23,-33.24C69.69,-33.38 89.36,-33.56 105.7,-33.71"/>
<polygon fill="black" stroke="black" points="105.58,-35.11 109.59,-33.75 105.61,-32.31 105.58,-35.11"/>
<text text-anchor="middle" x="81.25" y="-35.39" font-family="Helvetica Neue" font-size="6.00">question</text>
</g>
<!-- dispatch&#45;&gt;user -->
<g id="edge10" class="edge">
<title>dispatch&#45;&gt;user</title>
<path fill="none" stroke="black" d="M111.42,-20.17C106.28,-18.03 100.82,-16.15 95.5,-15 83.12,-12.33 79.37,-12.28 67,-15 62.5,-15.99 57.9,-17.55 53.51,-19.35"/>
<polygon fill="black" stroke="black" points="52.96,-18.06 49.85,-20.94 54.08,-20.63 52.96,-18.06"/>
<text text-anchor="middle" x="81.25" y="-24.3" font-family="Helvetica Neue" font-size="6.00">⑦ answer</text>
<text text-anchor="middle" x="81.25" y="-16.8" font-family="Helvetica Neue" font-size="6.00">(streamed)</text>
</g>
<!-- history1 -->
<g id="node4" class="node">
<title>history1</title>
<polygon fill="#fff3cd" stroke="black" points="165.5,-114 111.5,-114 111.5,-78 165.5,-78 165.5,-114"/>
<text text-anchor="middle" x="138.5" y="-101.72" font-family="Helvetica Neue" font-size="7.00">Conversation</text>
<text text-anchor="middle" x="138.5" y="-93.47" font-family="Helvetica Neue" font-size="7.00">history</text>
<text text-anchor="middle" x="138.5" y="-85.22" font-family="Helvetica Neue" font-size="7.00">(Claude)</text>
</g>
<!-- dispatch&#45;&gt;history1 -->
<g id="edge3" class="edge">
<title>dispatch&#45;&gt;history1</title>
<path fill="none" stroke="black" stroke-dasharray="1,5" d="M138.5,-52.27C138.5,-58.52 138.5,-65.6 138.5,-72.23"/>
<polygon fill="black" stroke="black" points="137.1,-72.14 138.5,-76.14 139.9,-72.14 137.1,-72.14"/>
<text text-anchor="middle" x="131.75" y="-63.05" font-family="Helvetica Neue" font-size="6.00">update</text>
</g>
<!-- claude -->
<g id="node6" class="node">
<title>claude</title>
<polygon fill="#f0e6ff" stroke="black" points="331.75,-65 277.75,-65 277.75,-29 331.75,-29 331.75,-65"/>
<text text-anchor="middle" x="304.75" y="-44.48" font-family="Helvetica Neue" font-size="7.00">Claude</text>
</g>
<!-- dispatch&#45;&gt;claude -->
<g id="edge2" class="edge">
<title>dispatch&#45;&gt;claude</title>
<path fill="none" stroke="black" d="M165.97,-30.49C190.89,-27.88 229.15,-25.68 261.75,-31.5 265.33,-32.14 269,-33.06 272.61,-34.14"/>
<polygon fill="black" stroke="black" points="271.81,-35.36 276.04,-35.24 272.66,-32.69 271.81,-35.36"/>
<text text-anchor="middle" x="221.62" y="-33.3" font-family="Helvetica Neue" font-size="6.00">① prompt</text>
</g>
<!-- dispatch&#45;&gt;claude -->
<g id="edge8" class="edge">
<title>dispatch&#45;&gt;claude</title>
<path fill="none" stroke="black" stroke-dasharray="5,2" d="M165.71,-16.31C170.76,-13.71 176.14,-11.42 181.5,-10 215.97,-0.85 228.38,2.6 261.75,-10 270.18,-13.18 278.02,-18.92 284.58,-24.94"/>
<polygon fill="black" stroke="black" points="283.55,-25.89 287.41,-27.65 285.49,-23.87 283.55,-25.89"/>
<text text-anchor="middle" x="221.62" y="-19.3" font-family="Helvetica Neue" font-size="6.00">⑤ function</text>
<text text-anchor="middle" x="221.62" y="-11.8" font-family="Helvetica Neue" font-size="6.00">result</text>
</g>
<!-- extract -->
<g id="node3" class="node">
<title>extract</title>
<polygon fill="#cce5ff" stroke="black" points="165.5,-163 111.5,-163 111.5,-127 165.5,-127 165.5,-163"/>
<text text-anchor="middle" x="138.5" y="-146.6" font-family="Helvetica Neue" font-size="7.00">extract_calls</text>
<text text-anchor="middle" x="138.5" y="-138.35" font-family="Helvetica Neue" font-size="7.00">(regex scan)</text>
</g>
<!-- history2 -->
<g id="node5" class="node">
<title>history2</title>
<polygon fill="#fff3cd" stroke="black" points="165.5,-225 111.5,-225 111.5,-189 165.5,-189 165.5,-225"/>
<text text-anchor="middle" x="138.5" y="-212.72" font-family="Helvetica Neue" font-size="7.00">Conversation</text>
<text text-anchor="middle" x="138.5" y="-204.47" font-family="Helvetica Neue" font-size="7.00">history</text>
<text text-anchor="middle" x="138.5" y="-196.22" font-family="Helvetica Neue" font-size="7.00">(Ollama)</text>
</g>
<!-- extract&#45;&gt;history2 -->
<g id="edge6" class="edge">
<title>extract&#45;&gt;history2</title>
<path fill="none" stroke="black" stroke-dasharray="1,5" d="M138.5,-163.27C138.5,-169.52 138.5,-176.6 138.5,-183.23"/>
<polygon fill="black" stroke="black" points="137.1,-183.14 138.5,-187.14 139.9,-183.14 137.1,-183.14"/>
<text text-anchor="middle" x="131.75" y="-174.05" font-family="Helvetica Neue" font-size="6.00">update</text>
</g>
<!-- ollama -->
<g id="node7" class="node">
<title>ollama</title>
<polygon fill="#f0e6ff" stroke="black" points="331.75,-114 277.75,-114 277.75,-78 331.75,-78 331.75,-114"/>
<text text-anchor="middle" x="304.75" y="-97.6" font-family="Helvetica Neue" font-size="7.00">Ollama</text>
<text text-anchor="middle" x="304.75" y="-89.35" font-family="Helvetica Neue" font-size="7.00">(local)</text>
</g>
<!-- extract&#45;&gt;ollama -->
<g id="edge5" class="edge">
<title>extract&#45;&gt;ollama</title>
<path fill="none" stroke="black" d="M165.55,-148.36C191.18,-150.52 230.86,-150.77 261.75,-137 271.17,-132.8 279.71,-125.51 286.59,-118.23"/>
<polygon fill="black" stroke="black" points="287.57,-119.23 289.22,-115.33 285.5,-117.35 287.57,-119.23"/>
<text text-anchor="middle" x="221.62" y="-158.76" font-family="Helvetica Neue" font-size="6.00">③ delegated</text>
<text text-anchor="middle" x="221.62" y="-151.26" font-family="Helvetica Neue" font-size="6.00">question</text>
</g>
<!-- claude&#45;&gt;dispatch -->
<g id="edge9" class="edge">
<title>claude&#45;&gt;dispatch</title>
<path fill="none" stroke="black" stroke-dasharray="5,2" d="M277.51,-45.23C252.74,-43.52 214.58,-40.79 181.5,-38 178.15,-37.72 174.65,-37.41 171.16,-37.09"/>
<polygon fill="black" stroke="black" points="171.32,-35.7 167.21,-36.72 171.07,-38.49 171.32,-35.7"/>
<text text-anchor="middle" x="221.62" y="-53.31" font-family="Helvetica Neue" font-size="6.00">⑥ final</text>
<text text-anchor="middle" x="221.62" y="-45.81" font-family="Helvetica Neue" font-size="6.00">response</text>
</g>
<!-- claude&#45;&gt;extract -->
<g id="edge4" class="edge">
<title>claude&#45;&gt;extract</title>
<path fill="none" stroke="black" d="M277.43,-63.3C274.54,-65.93 271.87,-68.84 269.75,-72 261.58,-84.17 272.42,-93.95 261.75,-104 235.33,-128.87 215.33,-105.89 181.5,-119 177.87,-120.41 174.21,-122.13 170.64,-124.02"/>
<polygon fill="black" stroke="black" points="169.99,-122.78 167.17,-125.94 171.34,-125.23 169.99,-122.78"/>
<text text-anchor="middle" x="221.62" y="-128.3" font-family="Helvetica Neue" font-size="6.00">② response with</text>
<text text-anchor="middle" x="221.62" y="-120.8" font-family="Helvetica Neue" font-size="6.00">&lt;call:ollama&gt;…&lt;/call:ollama&gt;</text>
</g>
<!-- ollama&#45;&gt;dispatch -->
<g id="edge7" class="edge">
<title>ollama&#45;&gt;dispatch</title>
<path fill="none" stroke="black" d="M277.63,-91.24C252.29,-86.05 213.14,-76.5 181.5,-62 177.17,-60.02 172.79,-57.61 168.57,-55.06"/>
<polygon fill="black" stroke="black" points="169.48,-53.98 165.34,-53.04 167.99,-56.35 169.48,-53.98"/>
<text text-anchor="middle" x="221.62" y="-96.43" font-family="Helvetica Neue" font-size="6.00">④ Ollama</text>
<text text-anchor="middle" x="221.62" y="-88.93" font-family="Helvetica Neue" font-size="6.00">response</text>
</g>
</g>
</svg>
