<?xml version="1.0" encoding="UTF-8" standalone="no"?>
<!DOCTYPE svg PUBLIC "-//W3C//DTD SVG 1.1//EN"
 "http://www.w3.org/Graphics/SVG/1.1/DTD/svg11.dtd">
<!-- Generated by graphviz version 12.2.1 (20241206.2353)
 -->
<!-- Title: bonjour Pages: 1 -->
<svg width="861pt" height="111pt"
 viewBox="0.00 0.00 861.48 111.21" xmlns="http://www.w3.org/2000/svg" xmlns:xlink="http://www.w3.org/1999/xlink">
<g id="graph0" class="graph" transform="scale(1 1) rotate(0) translate(4 107.21)">
<title>bonjour</title>
<polygon fill="white" stroke="none" points="-4,4 -4,-107.21 857.48,-107.21 857.48,4 -4,4"/>
<g id="clust1" class="cluster">
<title>cluster_server</title>
<polygon fill="#fff8e6" stroke="#c8a84a" points="8,-22.21 8,-95.21 215.04,-95.21 215.04,-22.21 8,-22.21"/>
<text text-anchor="middle" x="36.62" y="-83.61" font-family="Helvetica Neue" font-size="8.00">Server host</text>
</g>
<g id="clust2" class="cluster">
<title>cluster_worker</title>
<polygon fill="#e6ffe6" stroke="#4a8c4a" points="422.44,-23.21 422.44,-94.21 845.48,-94.21 845.48,-23.21 422.44,-23.21"/>
<text text-anchor="middle" x="452.57" y="-82.61" font-family="Helvetica Neue" font-size="8.00">Worker host</text>
</g>
<!-- mdns -->
<g id="node1" class="node">
<title>mdns</title>
<ellipse fill="#e8e8e8" stroke="black" cx="319.49" cy="-49.21" rx="48.45" ry="21.57"/>
<text text-anchor="middle" x="319.49" y="-54.94" font-family="Helvetica Neue" font-size="7.00">Local network</text>
<text text-anchor="middle" x="319.49" y="-46.69" font-family="Helvetica Neue" font-size="7.00">mDNS multicast</text>
<text text-anchor="middle" x="319.49" y="-38.44" font-family="Helvetica Neue" font-size="7.00">(224.0.0.251:5353)</text>
</g>
<!-- wrk_browse -->
<g id="node4" class="node">
<title>wrk_browse</title>
<polygon fill="#ccf2cc" stroke="black" points="496.71,-67.21 430.44,-67.21 430.44,-31.21 496.71,-31.21 496.71,-67.21"/>
<text text-anchor="middle" x="463.58" y="-54.94" font-family="Helvetica Neue" font-size="7.00">bonjour:browse</text>
<text text-anchor="middle" x="463.58" y="-46.69" font-family="Helvetica Neue" font-size="7.00">dns&#45;sd &#45;B</text>
<text text-anchor="middle" x="463.58" y="-38.44" font-family="Helvetica Neue" font-size="7.00">_portage&#45;ng._tcp</text>
</g>
<!-- mdns&#45;&gt;wrk_browse -->
<g id="edge3" class="edge">
<title>mdns&#45;&gt;wrk_browse</title>
<path fill="none" stroke="black" d="M368.2,-49.21C386.61,-49.21 407.37,-49.21 424.73,-49.21"/>
<polygon fill="black" stroke="black" points="424.49,-50.62 428.49,-49.21 424.49,-47.82 424.49,-50.62"/>
<text text-anchor="middle" x="398.69" y="-58.51" font-family="Helvetica Neue" font-size="6.00">③ Discover</text>
<text text-anchor="middle" x="398.69" y="-51.01" font-family="Helvetica Neue" font-size="6.00">service</text>
</g>
<!-- srv_start -->
<g id="node2" class="node">
<title>srv_start</title>
<polygon fill="#fff3cd" stroke="black" points="80.77,-67.21 16,-67.21 16,-31.21 80.77,-31.21 80.77,-67.21"/>
<text text-anchor="middle" x="48.38" y="-50.81" font-family="Helvetica Neue" font-size="7.00">server:start</text>
<text text-anchor="middle" x="48.38" y="-42.56" font-family="Helvetica Neue" font-size="7.00">HTTPS on port P</text>
</g>
<!-- srv_reg -->
<g id="node3" class="node">
<title>srv_reg</title>
<polygon fill="#fff3cd" stroke="black" points="207.04,-68.59 140.77,-68.59 140.77,-29.83 207.04,-29.83 207.04,-68.59"/>
<text text-anchor="middle" x="173.9" y="-59.06" font-family="Helvetica Neue" font-size="7.00">bonjour:advertise</text>
<text text-anchor="middle" x="173.9" y="-50.81" font-family="Helvetica Neue" font-size="7.00">dns&#45;sd &#45;R</text>
<text text-anchor="middle" x="173.9" y="-42.56" font-family="Helvetica Neue" font-size="7.00">_portage&#45;ng._tcp</text>
<text text-anchor="middle" x="173.9" y="-34.31" font-family="Helvetica Neue" font-size="7.00">port P</text>
</g>
<!-- srv_start&#45;&gt;srv_reg -->
<g id="edge1" class="edge">
<title>srv_start&#45;&gt;srv_reg</title>
<path fill="none" stroke="black" d="M81.19,-49.21C97.65,-49.21 117.84,-49.21 135.09,-49.21"/>
<polygon fill="black" stroke="black" points="134.83,-50.62 138.83,-49.21 134.83,-47.82 134.83,-50.62"/>
<text text-anchor="middle" x="110.77" y="-51.01" font-family="Helvetica Neue" font-size="6.00">① Register</text>
</g>
<!-- srv_reg&#45;&gt;mdns -->
<g id="edge2" class="edge">
<title>srv_reg&#45;&gt;mdns</title>
<path fill="none" stroke="black" d="M207.49,-49.21C224.58,-49.21 245.95,-49.21 265.36,-49.21"/>
<polygon fill="black" stroke="black" points="265.27,-50.62 269.27,-49.21 265.27,-47.82 265.27,-50.62"/>
<text text-anchor="middle" x="239.54" y="-58.51" font-family="Helvetica Neue" font-size="6.00">② Announce</text>
<text text-anchor="middle" x="239.54" y="-51.01" font-family="Helvetica Neue" font-size="6.00">service</text>
</g>
<!-- wrk_resolve -->
<g id="node5" class="node">
<title>wrk_resolve</title>
<polygon fill="#ccf2cc" stroke="black" points="614.73,-67.21 555.21,-67.21 555.21,-31.21 614.73,-31.21 614.73,-67.21"/>
<text text-anchor="middle" x="584.97" y="-55.31" font-family="Helvetica Neue" font-size="7.00">Resolve</text>
<text text-anchor="middle" x="584.97" y="-47.06" font-family="Helvetica Neue" font-size="7.00">hostname → IP</text>
<text text-anchor="middle" x="584.97" y="-38.06" font-family="Helvetica Neue" font-size="7.00">port P</text>
</g>
<!-- wrk_browse&#45;&gt;wrk_resolve -->
<g id="edge4" class="edge">
<title>wrk_browse&#45;&gt;wrk_resolve</title>
<path fill="none" stroke="black" d="M497.2,-49.21C513.45,-49.21 533.1,-49.21 549.59,-49.21"/>
<polygon fill="black" stroke="black" points="549.54,-50.62 553.54,-49.21 549.54,-47.82 549.54,-50.62"/>
<text text-anchor="middle" x="525.96" y="-58.51" font-family="Helvetica Neue" font-size="6.00">④ Resolve</text>
<text text-anchor="middle" x="525.96" y="-51.01" font-family="Helvetica Neue" font-size="6.00">address</text>
</g>
<!-- wrk_tls -->
<g id="node6" class="node">
<title>wrk_tls</title>
<polygon fill="#ccf2cc" stroke="black" points="728.73,-67.21 674.73,-67.21 674.73,-31.21 728.73,-31.21 728.73,-67.21"/>
<text text-anchor="middle" x="701.73" y="-50.81" font-family="Helvetica Neue" font-size="7.00">Mutual TLS</text>
<text text-anchor="middle" x="701.73" y="-42.56" font-family="Helvetica Neue" font-size="7.00">handshake</text>
</g>
<!-- wrk_resolve&#45;&gt;wrk_tls -->
<g id="edge5" class="edge">
<title>wrk_resolve&#45;&gt;wrk_tls</title>
<path fill="none" stroke="black" d="M615.23,-49.21C631.72,-49.21 652.32,-49.21 669.18,-49.21"/>
<polygon fill="black" stroke="black" points="668.76,-50.62 672.76,-49.21 668.76,-47.82 668.76,-50.62"/>
<text text-anchor="middle" x="644.73" y="-51.01" font-family="Helvetica Neue" font-size="6.00">⑤ Connect</text>
</g>
<!-- wrk_tls&#45;&gt;srv_start -->
<g id="edge6" class="edge">
<title>wrk_tls&#45;&gt;srv_start</title>
<path fill="none" stroke="black" stroke-dasharray="5,2" d="M674.41,-39.58C657.59,-33.92 635.18,-27.3 614.73,-24.21 406.43,7.17 349.05,8.29 140.77,-23.21 122.44,-25.99 102.6,-31.34 86.1,-36.46"/>
<polygon fill="black" stroke="black" points="85.92,-35.05 82.53,-37.59 86.77,-37.72 85.92,-35.05"/>
<text text-anchor="middle" x="398.69" y="-10.35" font-family="Helvetica Neue" font-size="6.00">⑥ Verified</text>
<text text-anchor="middle" x="398.69" y="-2.85" font-family="Helvetica Neue" font-size="6.00">connection</text>
</g>
<!-- wrk_poll -->
<g id="node7" class="node">
<title>wrk_poll</title>
<polygon fill="#ccf2cc" stroke="black" points="837.48,-67.21 783.48,-67.21 783.48,-31.21 837.48,-31.21 837.48,-67.21"/>
<text text-anchor="middle" x="810.48" y="-50.81" font-family="Helvetica Neue" font-size="7.00">worker:poll</text>
<text text-anchor="middle" x="810.48" y="-42.56" font-family="Helvetica Neue" font-size="7.00">(job loop)</text>
</g>
<!-- wrk_tls&#45;&gt;wrk_poll -->
<g id="edge7" class="edge">
<title>wrk_tls&#45;&gt;wrk_poll</title>
<path fill="none" stroke="black" d="M729.12,-49.21C743.87,-49.21 762.36,-49.21 777.89,-49.21"/>
<polygon fill="black" stroke="black" points="777.51,-50.62 781.51,-49.21 777.51,-47.82 777.51,-50.62"/>
<text text-anchor="middle" x="756.11" y="-58.51" font-family="Helvetica Neue" font-size="6.00">⑦ Start</text>
<text text-anchor="middle" x="756.11" y="-51.01" font-family="Helvetica Neue" font-size="6.00">poll loop</text>
</g>
</g>
</svg>
