<?xml version="1.0" encoding="UTF-8" standalone="no"?>
<!DOCTYPE svg PUBLIC "-//W3C//DTD SVG 1.1//EN"
 "http://www.w3.org/Graphics/SVG/1.1/DTD/svg11.dtd">
<!-- Generated by graphviz version 12.2.1 (20241206.2353)
 -->
<!-- Title: cluster_flow Pages: 1 -->
<svg width="528pt" height="148pt"
 viewBox="0.00 0.00 528.14 148.00" xmlns="http://www.w3.org/2000/svg" xmlns:xlink="http://www.w3.org/1999/xlink">
<g id="graph0" class="graph" transform="scale(1 1) rotate(0) translate(4 144)">
<title>cluster_flow</title>
<polygon fill="white" stroke="none" points="-4,4 -4,-144 524.14,-144 524.14,4 -4,4"/>
<!-- submit -->
<g id="node1" class="node">
<title>submit</title>
<polygon fill="#cce5ff" stroke="black" points="70.02,-140 0,-140 0,-104 70.02,-104 70.02,-140"/>
<text text-anchor="middle" x="35.01" y="-124.9" font-family="Helvetica Neue" font-size="8.00">1 &#160;Client submits</text>
<text text-anchor="middle" x="35.01" y="-114.4" font-family="Helvetica Neue" font-size="8.00">target packages</text>
</g>
<!-- pengine -->
<g id="node2" class="node">
<title>pengine</title>
<polygon fill="#fff3cd" stroke="black" points="161.52,-140 88.5,-140 88.5,-104 161.52,-104 161.52,-140"/>
<text text-anchor="middle" x="125.01" y="-124.9" font-family="Helvetica Neue" font-size="8.00">2 &#160;Server creates</text>
<text text-anchor="middle" x="125.01" y="-114.4" font-family="Helvetica Neue" font-size="8.00">Pengine</text>
</g>
<!-- submit&#45;&gt;pengine -->
<g id="edge1" class="edge">
<title>submit&#45;&gt;pengine</title>
<path fill="none" stroke="black" d="M70.52,-122C74.34,-122 78.15,-122 81.97,-122"/>
<polygon fill="black" stroke="black" points="81.88,-123.75 86.88,-122 81.88,-120.25 81.88,-123.75"/>
</g>
<!-- enqueue -->
<g id="node3" class="node">
<title>enqueue</title>
<polygon fill="#fff3cd" stroke="black" points="254.64,-140 179.38,-140 179.38,-104 254.64,-104 254.64,-140"/>
<text text-anchor="middle" x="217.01" y="-119.65" font-family="Helvetica Neue" font-size="8.00">3 &#160;Targets queued</text>
</g>
<!-- pengine&#45;&gt;enqueue -->
<g id="edge2" class="edge">
<title>pengine&#45;&gt;enqueue</title>
<path fill="none" stroke="black" d="M161.67,-122C165.27,-122 168.87,-122 172.48,-122"/>
<polygon fill="black" stroke="black" points="172.45,-123.75 177.45,-122 172.45,-120.25 172.45,-123.75"/>
</g>
<!-- poll -->
<g id="node4" class="node">
<title>poll</title>
<polygon fill="#ccf2cc" stroke="black" points="249.77,-88 184.25,-88 184.25,-52 249.77,-52 249.77,-88"/>
<text text-anchor="middle" x="217.01" y="-72.9" font-family="Helvetica Neue" font-size="8.00">4 &#160;Worker polls</text>
<text text-anchor="middle" x="217.01" y="-62.4" font-family="Helvetica Neue" font-size="8.00">for job</text>
</g>
<!-- enqueue&#45;&gt;poll -->
<g id="edge3" class="edge">
<title>enqueue&#45;&gt;poll</title>
<path fill="none" stroke="black" d="M217.01,-103.51C217.01,-100.57 217.01,-97.47 217.01,-94.41"/>
<polygon fill="black" stroke="black" points="218.76,-94.74 217.01,-89.74 215.26,-94.74 218.76,-94.74"/>
</g>
<!-- prove -->
<g id="node5" class="node">
<title>prove</title>
<polygon fill="#ccf2cc" stroke="black" points="340.52,-88 267.5,-88 267.5,-52 340.52,-52 340.52,-88"/>
<text text-anchor="middle" x="304.01" y="-72.9" font-family="Helvetica Neue" font-size="8.00">5 &#160;Worker proves</text>
<text text-anchor="middle" x="304.01" y="-62.4" font-family="Helvetica Neue" font-size="8.00">(full pipeline)</text>
</g>
<!-- poll&#45;&gt;prove -->
<g id="edge4" class="edge">
<title>poll&#45;&gt;prove</title>
<path fill="none" stroke="black" d="M249.97,-70C253.58,-70 257.19,-70 260.79,-70"/>
<polygon fill="black" stroke="black" points="260.77,-71.75 265.77,-70 260.77,-68.25 260.77,-71.75"/>
</g>
<!-- post -->
<g id="node6" class="node">
<title>post</title>
<polygon fill="#ccf2cc" stroke="black" points="427.27,-88 358.75,-88 358.75,-52 427.27,-52 427.27,-88"/>
<text text-anchor="middle" x="393.01" y="-72.9" font-family="Helvetica Neue" font-size="8.00">6 &#160;Worker posts</text>
<text text-anchor="middle" x="393.01" y="-62.4" font-family="Helvetica Neue" font-size="8.00">result</text>
</g>
<!-- prove&#45;&gt;post -->
<g id="edge5" class="edge">
<title>prove&#45;&gt;post</title>
<path fill="none" stroke="black" d="M340.86,-70C344.6,-70 348.34,-70 352.08,-70"/>
<polygon fill="black" stroke="black" points="351.87,-71.75 356.87,-70 351.87,-68.25 351.87,-71.75"/>
</g>
<!-- collect -->
<g id="node7" class="node">
<title>collect</title>
<polygon fill="#fff3cd" stroke="black" points="429.52,-36 356.5,-36 356.5,0 429.52,0 429.52,-36"/>
<text text-anchor="middle" x="393.01" y="-20.9" font-family="Helvetica Neue" font-size="8.00">7 &#160;Server queues</text>
<text text-anchor="middle" x="393.01" y="-10.4" font-family="Helvetica Neue" font-size="8.00">result</text>
</g>
<!-- post&#45;&gt;collect -->
<g id="edge6" class="edge">
<title>post&#45;&gt;collect</title>
<path fill="none" stroke="black" d="M393.01,-51.51C393.01,-48.57 393.01,-45.47 393.01,-42.41"/>
<polygon fill="black" stroke="black" points="394.76,-42.74 393.01,-37.74 391.26,-42.74 394.76,-42.74"/>
</g>
<!-- deliver -->
<g id="node8" class="node">
<title>deliver</title>
<polygon fill="#cce5ff" stroke="black" points="520.14,-36 447.88,-36 447.88,0 520.14,0 520.14,-36"/>
<text text-anchor="middle" x="484.01" y="-20.9" font-family="Helvetica Neue" font-size="8.00">8 &#160;Client receives</text>
<text text-anchor="middle" x="484.01" y="-10.4" font-family="Helvetica Neue" font-size="8.00">JSON proof</text>
</g>
<!-- collect&#45;&gt;deliver -->
<g id="edge7" class="edge">
<title>collect&#45;&gt;deliver</title>
<path fill="none" stroke="black" d="M429.98,-18C433.76,-18 437.55,-18 441.34,-18"/>
<polygon fill="black" stroke="black" points="441.19,-19.75 446.19,-18 441.19,-16.25 441.19,-19.75"/>
</g>
</g>
</svg>
