<?xml version="1.0" encoding="UTF-8" standalone="no"?>
<!DOCTYPE svg PUBLIC "-//W3C//DTD SVG 1.1//EN"
 "http://www.w3.org/Graphics/SVG/1.1/DTD/svg11.dtd">
<!-- Generated by graphviz version 12.2.1 (20241206.2353)
 -->
<!-- Title: cert_hierarchy Pages: 1 -->
<svg width="582pt" height="206pt"
 viewBox="0.00 0.00 582.00 205.64" xmlns="http://www.w3.org/2000/svg" xmlns:xlink="http://www.w3.org/1999/xlink">
<g id="graph0" class="graph" transform="scale(1 1) rotate(0) translate(4 201.64)">
<title>cert_hierarchy</title>
<polygon fill="white" stroke="none" points="-4,4 -4,-201.64 578,-201.64 578,4 -4,4"/>
<g id="clust1" class="cluster">
<title>cluster_host_a</title>
<polygon fill="#e6f0ff" stroke="#4a86c8" points="8,-8 8,-97.51 239,-97.51 239,-8 8,-8"/>
<text text-anchor="middle" x="35.88" y="-85.91" font-family="Helvetica Neue" font-size="8.00">server.local</text>
</g>
<g id="clust2" class="cluster">
<title>cluster_host_b</title>
<polygon fill="#e6ffe6" stroke="#4a8c4a" points="247,-8 247,-97.51 480,-97.51 480,-8 247,-8"/>
<text text-anchor="middle" x="276.38" y="-85.91" font-family="Helvetica Neue" font-size="8.00">worker.local</text>
</g>
<g id="clust3" class="cluster">
<title>cluster_legend</title>
<path fill="none" stroke="#999999" d="M500,-19.5C500,-19.5 554,-19.5 554,-19.5 560,-19.5 566,-25.5 566,-31.5 566,-31.5 566,-177.64 566,-177.64 566,-183.64 560,-189.64 554,-189.64 554,-189.64 500,-189.64 500,-189.64 494,-189.64 488,-183.64 488,-177.64 488,-177.64 488,-31.51 488,-31.51 488,-25.5 494,-19.5 500,-19.5"/>
<text text-anchor="middle" x="507.62" y="-178.99" font-family="Helvetica Neue" font-size="7.00">Legend</text>
</g>
<!-- ca -->
<g id="node1" class="node">
<title>ca</title>
<polygon fill="#fff3cd" stroke="black" points="263.51,-172.77 260.51,-176.77 239.51,-176.77 236.51,-172.77 178.49,-172.77 178.49,-126.01 263.51,-126.01 263.51,-172.77"/>
<text text-anchor="middle" x="221" y="-163.24" font-family="Helvetica Neue" font-size="7.00">portage&#45;ng local CA</text>
<text text-anchor="middle" x="221" y="-154.99" font-family="Helvetica Neue" font-size="7.00">(self&#45;signed, RSA 4096)</text>
<text text-anchor="middle" x="221" y="-138.74" font-family="Helvetica Neue" font-size="7.00">cacert.pem &#160;(public)</text>
<text text-anchor="middle" x="221" y="-130.49" font-family="Helvetica Neue" font-size="7.00">cakey.pem &#160;&#160;(private)</text>
</g>
<!-- srv_a -->
<g id="node2" class="node">
<title>srv_a</title>
<polygon fill="#cce5ff" stroke="black" points="115.63,-71.01 16.37,-71.01 16.37,-16 115.63,-16 115.63,-71.01"/>
<text text-anchor="middle" x="66" y="-61.48" font-family="Helvetica Neue" font-size="7.00">Server certificate</text>
<text text-anchor="middle" x="66" y="-53.23" font-family="Helvetica Neue" font-size="7.00">CN = server.local</text>
<text text-anchor="middle" x="66" y="-44.98" font-family="Helvetica Neue" font-size="7.00">OU = Server</text>
<text text-anchor="middle" x="66" y="-28.73" font-family="Helvetica Neue" font-size="7.00">server.local.server&#45;cert.pem</text>
<text text-anchor="middle" x="66" y="-20.48" font-family="Helvetica Neue" font-size="7.00">server.local.server&#45;key.pem</text>
</g>
<!-- ca&#45;&gt;srv_a -->
<g id="edge1" class="edge">
<title>ca&#45;&gt;srv_a</title>
<path fill="none" stroke="black" d="M178.08,-128.86C160.7,-120.2 140.81,-109.3 124,-97.51 114.42,-90.79 104.76,-82.63 96.13,-74.74"/>
<polygon fill="black" stroke="black" points="97.5,-74.1 93.61,-72.41 95.6,-76.15 97.5,-74.1"/>
<text text-anchor="middle" x="153.89" y="-107.31" font-family="Helvetica Neue" font-size="6.00">signs</text>
</g>
<!-- cli_a -->
<g id="node3" class="node">
<title>cli_a</title>
<polygon fill="#cce5ff" stroke="black" points="230.51,-71.01 133.49,-71.01 133.49,-16 230.51,-16 230.51,-71.01"/>
<text text-anchor="middle" x="182" y="-61.48" font-family="Helvetica Neue" font-size="7.00">Client certificate</text>
<text text-anchor="middle" x="182" y="-53.23" font-family="Helvetica Neue" font-size="7.00">CN = server.local</text>
<text text-anchor="middle" x="182" y="-44.98" font-family="Helvetica Neue" font-size="7.00">OU = Client</text>
<text text-anchor="middle" x="182" y="-28.73" font-family="Helvetica Neue" font-size="7.00">server.local.client&#45;cert.pem</text>
<text text-anchor="middle" x="182" y="-20.48" font-family="Helvetica Neue" font-size="7.00">server.local.client&#45;key.pem</text>
</g>
<!-- ca&#45;&gt;cli_a -->
<g id="edge2" class="edge">
<title>ca&#45;&gt;cli_a</title>
<path fill="none" stroke="black" d="M212.44,-125.59C207,-111.09 199.87,-92.1 193.88,-76.14"/>
<polygon fill="black" stroke="black" points="195.31,-75.96 192.59,-72.71 192.68,-76.95 195.31,-75.96"/>
<text text-anchor="middle" x="214.4" y="-107.31" font-family="Helvetica Neue" font-size="6.00">signs</text>
</g>
<!-- srv_b -->
<g id="node4" class="node">
<title>srv_b</title>
<polygon fill="#ccf2cc" stroke="black" points="355.38,-71.01 254.62,-71.01 254.62,-16 355.38,-16 355.38,-71.01"/>
<text text-anchor="middle" x="305" y="-61.48" font-family="Helvetica Neue" font-size="7.00">Server certificate</text>
<text text-anchor="middle" x="305" y="-53.23" font-family="Helvetica Neue" font-size="7.00">CN = worker.local</text>
<text text-anchor="middle" x="305" y="-44.98" font-family="Helvetica Neue" font-size="7.00">OU = Server</text>
<text text-anchor="middle" x="305" y="-28.73" font-family="Helvetica Neue" font-size="7.00">worker.local.server&#45;cert.pem</text>
<text text-anchor="middle" x="305" y="-20.48" font-family="Helvetica Neue" font-size="7.00">worker.local.server&#45;key.pem</text>
</g>
<!-- ca&#45;&gt;srv_b -->
<g id="edge3" class="edge">
<title>ca&#45;&gt;srv_b</title>
<path fill="none" stroke="black" d="M239.43,-125.59C251.37,-110.84 267.05,-91.44 280.09,-75.32"/>
<polygon fill="black" stroke="black" points="280.96,-76.46 282.39,-72.47 278.78,-74.7 280.96,-76.46"/>
<text text-anchor="middle" x="262.6" y="-107.31" font-family="Helvetica Neue" font-size="6.00">signs</text>
</g>
<!-- cli_b -->
<g id="node5" class="node">
<title>cli_b</title>
<polygon fill="#ccf2cc" stroke="black" points="472.26,-71.01 373.74,-71.01 373.74,-16 472.26,-16 472.26,-71.01"/>
<text text-anchor="middle" x="423" y="-61.48" font-family="Helvetica Neue" font-size="7.00">Client certificate</text>
<text text-anchor="middle" x="423" y="-53.23" font-family="Helvetica Neue" font-size="7.00">CN = worker.local</text>
<text text-anchor="middle" x="423" y="-44.98" font-family="Helvetica Neue" font-size="7.00">OU = Client</text>
<text text-anchor="middle" x="423" y="-28.73" font-family="Helvetica Neue" font-size="7.00">worker.local.client&#45;cert.pem</text>
<text text-anchor="middle" x="423" y="-20.48" font-family="Helvetica Neue" font-size="7.00">worker.local.client&#45;key.pem</text>
</g>
<!-- ca&#45;&gt;cli_b -->
<g id="edge4" class="edge">
<title>ca&#45;&gt;cli_b</title>
<path fill="none" stroke="black" d="M263.9,-137.87C293.36,-129.54 332.64,-116.18 364,-97.51 374.46,-91.29 384.73,-83.04 393.69,-74.92"/>
<polygon fill="black" stroke="black" points="394.35,-76.21 396.34,-72.47 392.45,-74.16 394.35,-76.21"/>
<text text-anchor="middle" x="353.03" y="-107.31" font-family="Helvetica Neue" font-size="6.00">signs</text>
</g>
<!-- leg_pub -->
<g id="node6" class="node">
<title>leg_pub</title>
<polygon fill="#e8e8e8" stroke="black" points="560.25,-167.39 493.75,-167.39 493.75,-131.39 560.25,-131.39 560.25,-167.39"/>
<text text-anchor="middle" x="527" y="-151.19" font-family="Helvetica Neue" font-size="6.00">Certificates (.cert.pem)</text>
<text text-anchor="middle" x="527" y="-143.69" font-family="Helvetica Neue" font-size="6.00">shared / committed</text>
</g>
<!-- leg_priv -->
<g id="node7" class="node">
<title>leg_priv</title>
<polygon fill="#ffcccc" stroke="black" points="560.25,-61.5 493.75,-61.5 493.75,-25.5 560.25,-25.5 560.25,-61.5"/>
<text text-anchor="middle" x="527" y="-45.3" font-family="Helvetica Neue" font-size="6.00">Private keys (.key.pem)</text>
<text text-anchor="middle" x="527" y="-37.8" font-family="Helvetica Neue" font-size="6.00">never committed</text>
</g>
<!-- leg_pub&#45;&gt;leg_priv -->
</g>
</svg>
