<?xml version="1.0" encoding="UTF-8" standalone="no"?>
<!DOCTYPE svg PUBLIC "-//W3C//DTD SVG 1.1//EN"
 "http://www.w3.org/Graphics/SVG/1.1/DTD/svg11.dtd">
<!-- Generated by graphviz version 12.2.1 (20241206.2353)
 -->
<!-- Title: cluster Pages: 1 -->
<svg width="510pt" height="295pt"
 viewBox="0.00 0.00 509.57 295.25" xmlns="http://www.w3.org/2000/svg" xmlns:xlink="http://www.w3.org/1999/xlink">
<g id="graph0" class="graph" transform="scale(1 1) rotate(0) translate(4 291.25)">
<title>cluster</title>
<polygon fill="white" stroke="none" points="-4,4 -4,-291.25 505.57,-291.25 505.57,4 -4,4"/>
<g id="clust1" class="cluster">
<title>cluster_client</title>
<polygon fill="#e6f0ff" stroke="#4a86c8" points="8,-129.5 8,-218.5 92,-218.5 92,-129.5 8,-129.5"/>
<text text-anchor="middle" x="26.12" y="-206.9" font-family="Helvetica Neue" font-size="8.00">Client</text>
</g>
<g id="clust2" class="cluster">
<title>cluster_server</title>
<polygon fill="#fff8e6" stroke="#c8a84a" points="100,-8 100,-218.5 338,-218.5 338,-8 100,-8"/>
<text text-anchor="middle" x="137.25" y="-206.9" font-family="Helvetica Neue" font-size="8.00">Server (KB host)</text>
</g>
<g id="clust3" class="cluster">
<title>cluster_workers</title>
<polygon fill="#e6ffe6" stroke="#4a8c4a" points="346,-8 346,-97 491,-97 491,-8 346,-8"/>
<text text-anchor="middle" x="369.38" y="-85.4" font-family="Helvetica Neue" font-size="8.00">Workers</text>
</g>
<!-- client -->
<g id="node1" class="node">
<title>client</title>
<polygon fill="#cce5ff" stroke="black" points="83.88,-173.5 16.12,-173.5 16.12,-137.5 83.88,-137.5 83.88,-173.5"/>
<text text-anchor="middle" x="50" y="-158.4" font-family="Helvetica Neue" font-size="8.00">Submit targets /</text>
<text text-anchor="middle" x="50" y="-147.9" font-family="Helvetica Neue" font-size="8.00">Receive results</text>
</g>
<!-- pengine -->
<g id="node2" class="node">
<title>pengine</title>
<polygon fill="#fff3cd" stroke="black" points="193.88,-52 108.12,-52 108.12,-16 193.88,-16 193.88,-52"/>
<text text-anchor="middle" x="151" y="-36.9" font-family="Helvetica Neue" font-size="8.00">Pengines</text>
<text text-anchor="middle" x="151" y="-26.4" font-family="Helvetica Neue" font-size="8.00">(sandboxed engines)</text>
</g>
<!-- client&#45;&gt;pengine -->
<g id="edge2" class="edge">
<title>client&#45;&gt;pengine</title>
<path fill="none" stroke="black" d="M64.69,-137.12C82.56,-115.97 112.78,-80.22 132.3,-57.12"/>
<polygon fill="black" stroke="black" points="133.43,-58.5 135.32,-53.55 130.75,-56.24 133.43,-58.5"/>
<text text-anchor="middle" x="103.45" y="-114.85" font-family="Helvetica Neue" font-size="7.00">HTTPS</text>
<text text-anchor="middle" x="103.45" y="-106.6" font-family="Helvetica Neue" font-size="7.00">request</text>
</g>
<!-- kb -->
<g id="node3" class="node">
<title>kb</title>
<polygon fill="#fff3cd" stroke="black" points="179.76,-173.5 108.24,-173.5 108.24,-137.5 179.76,-137.5 179.76,-173.5"/>
<text text-anchor="middle" x="144" y="-153.15" font-family="Helvetica Neue" font-size="8.00">Knowledge Base</text>
</g>
<!-- kb&#45;&gt;pengine -->
<g id="edge1" class="edge">
<title>kb&#45;&gt;pengine</title>
<path fill="none" stroke="black" stroke-dasharray="5,2" d="M145.02,-137.12C146.23,-116.5 148.25,-82.01 149.6,-58.89"/>
<polygon fill="black" stroke="black" points="151.35,-59 149.89,-53.91 147.85,-58.8 151.35,-59"/>
<text text-anchor="middle" x="154.75" y="-110.72" font-family="Helvetica Neue" font-size="7.00">facts</text>
</g>
<!-- job_q -->
<g id="node4" class="node">
<title>job_q</title>
<polygon fill="#fff3cd" stroke="black" points="252,-173.5 198,-173.5 198,-137.5 252,-137.5 252,-173.5"/>
<text text-anchor="middle" x="225" y="-153.15" font-family="Helvetica Neue" font-size="8.00">Job Queue</text>
</g>
<!-- w1 -->
<g id="node6" class="node">
<title>w1</title>
<polygon fill="#ccf2cc" stroke="black" points="409.51,-52 354.49,-52 354.49,-16 409.51,-16 409.51,-52"/>
<text text-anchor="middle" x="382" y="-36.9" font-family="Helvetica Neue" font-size="8.00">Worker 1</text>
<text text-anchor="middle" x="382" y="-26.4" font-family="Helvetica Neue" font-size="8.00">(full pipeline)</text>
</g>
<!-- job_q&#45;&gt;w1 -->
<g id="edge4" class="edge">
<title>job_q&#45;&gt;w1</title>
<path fill="none" stroke="black" d="M234.37,-137.28C241.44,-126.09 252.22,-112.27 265.75,-105 295.76,-88.86 312.97,-114.84 342,-97 356.51,-88.08 366.74,-71.69 373.22,-58.01"/>
<polygon fill="black" stroke="black" points="374.7,-58.99 375.15,-53.72 371.51,-57.56 374.7,-58.99"/>
<text text-anchor="middle" x="277.38" y="-110.72" font-family="Helvetica Neue" font-size="7.00">poll job</text>
</g>
<!-- w2 -->
<g id="node7" class="node">
<title>w2</title>
<polygon fill="#ccf2cc" stroke="black" points="482.51,-52 427.49,-52 427.49,-16 482.51,-16 482.51,-52"/>
<text text-anchor="middle" x="455" y="-36.9" font-family="Helvetica Neue" font-size="8.00">Worker 2</text>
<text text-anchor="middle" x="455" y="-26.4" font-family="Helvetica Neue" font-size="8.00">(full pipeline)</text>
</g>
<!-- job_q&#45;&gt;w2 -->
<g id="edge5" class="edge">
<title>job_q&#45;&gt;w2</title>
<path fill="none" stroke="black" d="M247.56,-137.18C251.87,-134.35 256.46,-131.65 261,-129.5 272.7,-123.96 277.42,-127.29 289,-121.5 299.85,-116.07 299.4,-109.29 310.75,-105 333.31,-96.47 398.55,-109.8 419,-97 432.91,-88.3 442.04,-72.12 447.62,-58.47"/>
<polygon fill="black" stroke="black" points="449.25,-59.12 449.4,-53.83 445.98,-57.87 449.25,-59.12"/>
<text text-anchor="middle" x="322.38" y="-110.72" font-family="Helvetica Neue" font-size="7.00">poll job</text>
</g>
<!-- result_q -->
<g id="node5" class="node">
<title>result_q</title>
<polygon fill="#fff3cd" stroke="black" points="329.76,-173.5 270.24,-173.5 270.24,-137.5 329.76,-137.5 329.76,-173.5"/>
<text text-anchor="middle" x="300" y="-153.15" font-family="Helvetica Neue" font-size="8.00">Result Queue</text>
</g>
<!-- result_q&#45;&gt;client -->
<g id="edge3" class="edge">
<title>result_q&#45;&gt;client</title>
<path fill="none" stroke="black" d="M293.97,-173.83C288.07,-188.61 277.52,-208.53 261,-218.5 224.85,-240.33 208.33,-225.17 166.12,-223.62 134.9,-222.49 123.33,-233.66 96,-218.5 80.32,-209.8 68.55,-193.24 60.85,-179.29"/>
<polygon fill="black" stroke="black" points="62.58,-178.83 58.7,-175.23 59.49,-180.47 62.58,-178.83"/>
<text text-anchor="middle" x="177" y="-236.35" font-family="Helvetica Neue" font-size="7.00">HTTPS</text>
<text text-anchor="middle" x="177" y="-228.1" font-family="Helvetica Neue" font-size="7.00">results</text>
</g>
<!-- w1&#45;&gt;result_q -->
<g id="edge6" class="edge">
<title>w1&#45;&gt;result_q</title>
<path fill="none" stroke="black" d="M375.49,-52.38C368.12,-70.71 354.91,-99.86 338,-121.5 334.83,-125.56 331.11,-129.5 327.25,-133.16"/>
<polygon fill="black" stroke="black" points="326.32,-131.63 323.81,-136.29 328.68,-134.22 326.32,-131.63"/>
<text text-anchor="middle" x="365.47" y="-110.72" font-family="Helvetica Neue" font-size="7.00">post result</text>
</g>
<!-- w2&#45;&gt;result_q -->
<g id="edge7" class="edge">
<title>w2&#45;&gt;result_q</title>
<path fill="none" stroke="black" d="M447.35,-52.27C440.98,-65.44 431.02,-83.54 419,-97 397.14,-121.48 362.56,-136.55 336.29,-145.09"/>
<polygon fill="black" stroke="black" points="335.84,-143.4 331.59,-146.57 336.89,-146.74 335.84,-143.4"/>
<text text-anchor="middle" x="425.76" y="-110.72" font-family="Helvetica Neue" font-size="7.00">post result</text>
</g>
<!-- infra -->
<g id="node8" class="node">
<title>infra</title>
<ellipse fill="#e8e8e8" stroke="black" cx="451" cy="-155.5" rx="50.57" ry="18.92"/>
<text text-anchor="middle" x="451" y="-158.4" font-family="Helvetica Neue" font-size="8.00">mDNS discovery</text>
<text text-anchor="middle" x="451" y="-147.9" font-family="Helvetica Neue" font-size="8.00">+ Mutual TLS</text>
</g>
<!-- infra&#45;&gt;client -->
<g id="edge8" class="edge">
<title>infra&#45;&gt;client</title>
<path fill="none" stroke="black" stroke-dasharray="1,5" d="M429.1,-173.02C406.54,-189.85 369.6,-214.15 333,-224 308.54,-230.59 129.39,-230.86 105,-224 83.63,-217.99 68.78,-196.67 59.95,-179.39"/>
<polygon fill="black" stroke="black" points="61.61,-178.81 57.84,-175.08 58.46,-180.34 61.61,-178.81"/>
</g>
<!-- infra&#45;&gt;w1 -->
<g id="edge9" class="edge">
<title>infra&#45;&gt;w1</title>
<path fill="none" stroke="black" stroke-dasharray="1,5" d="M471.47,-137.92C481.52,-127.8 489.77,-114.95 481,-105 471.67,-94.41 429.76,-104.8 418,-97 404.42,-87.99 395.31,-71.98 389.65,-58.48"/>
<polygon fill="black" stroke="black" points="391.31,-57.91 387.85,-53.9 388.05,-59.19 391.31,-57.91"/>
</g>
</g>
</svg>
