<?xml version="1.0" encoding="UTF-8" standalone="no"?>
<!DOCTYPE svg PUBLIC "-//W3C//DTD SVG 1.1//EN"
 "http://www.w3.org/Graphics/SVG/1.1/DTD/svg11.dtd">
<!-- Generated by graphviz version 12.2.1 (20241206.2353)
 -->
<!-- Title: tls_handshake Pages: 1 -->
<svg width="564pt" height="370pt"
 viewBox="0.00 0.00 564.06 370.00" xmlns="http://www.w3.org/2000/svg" xmlns:xlink="http://www.w3.org/1999/xlink">
<g id="graph0" class="graph" transform="scale(1 1) rotate(0) translate(4 366)">
<title>tls_handshake</title>
<polygon fill="white" stroke="none" points="-4,4 -4,-366 560.06,-366 560.06,4 -4,4"/>
<g id="clust1" class="cluster">
<title>cluster_worker</title>
<polygon fill="#e6ffe6" stroke="#4a8c4a" points="8,-185 8,-354 263.27,-354 263.27,-185 8,-185"/>
<text text-anchor="middle" x="54.25" y="-342.4" font-family="Helvetica Neue" font-size="8.00">Worker (worker.local)</text>
</g>
<g id="clust2" class="cluster">
<title>cluster_server</title>
<polygon fill="#e6f0ff" stroke="#4a86c8" points="148.88,-8 148.88,-177 548.06,-177 548.06,-8 148.88,-8"/>
<text text-anchor="middle" x="192.13" y="-165.4" font-family="Helvetica Neue" font-size="8.00">Server (server.local)</text>
</g>
<!-- w_cacert -->
<g id="node1" class="node">
<title>w_cacert</title>
<polygon fill="#fff3cd" stroke="black" points="73.88,-229 19.88,-229 19.88,-193 73.88,-193 73.88,-229"/>
<text text-anchor="middle" x="46.88" y="-212.6" font-family="Helvetica Neue" font-size="7.00">cacert.pem</text>
<text text-anchor="middle" x="46.88" y="-204.35" font-family="Helvetica Neue" font-size="7.00">(shared CA)</text>
</g>
<!-- w_verify -->
<g id="node4" class="node">
<title>w_verify</title>
<polygon fill="#ccf2cc" stroke="black" points="188.89,-229 122.52,-211 188.89,-193 255.27,-211 188.89,-229"/>
<text text-anchor="middle" x="188.89" y="-212.6" font-family="Helvetica Neue" font-size="7.00">① Verify server cert</text>
<text text-anchor="middle" x="188.89" y="-204.35" font-family="Helvetica Neue" font-size="7.00">against cacert.pem</text>
</g>
<!-- w_cacert&#45;&gt;w_verify -->
<g id="edge4" class="edge">
<title>w_cacert&#45;&gt;w_verify</title>
<path fill="none" stroke="black" stroke-dasharray="1,5" d="M74.22,-211C86,-211 100.53,-211 115.22,-211"/>
<polygon fill="black" stroke="black" points="115.12,-212.4 119.12,-211 115.12,-209.6 115.12,-212.4"/>
<text text-anchor="middle" x="100.14" y="-220.3" font-family="Helvetica Neue" font-size="6.00">trust</text>
<text text-anchor="middle" x="100.14" y="-212.8" font-family="Helvetica Neue" font-size="6.00">root</text>
</g>
<!-- w_cert -->
<g id="node2" class="node">
<title>w_cert</title>
<polygon fill="#ccf2cc" stroke="black" points="77.77,-278 16,-278 16,-242 77.77,-242 77.77,-278"/>
<text text-anchor="middle" x="46.88" y="-261.6" font-family="Helvetica Neue" font-size="7.00">worker.local</text>
<text text-anchor="middle" x="46.88" y="-253.35" font-family="Helvetica Neue" font-size="7.00">.client&#45;cert.pem</text>
</g>
<!-- w_present -->
<g id="node5" class="node">
<title>w_present</title>
<polygon fill="#ccf2cc" stroke="black" points="219.4,-278 158.38,-278 158.38,-242 219.4,-242 219.4,-278"/>
<text text-anchor="middle" x="188.89" y="-261.6" font-family="Helvetica Neue" font-size="7.00">③ Present own</text>
<text text-anchor="middle" x="188.89" y="-253.35" font-family="Helvetica Neue" font-size="7.00">client certificate</text>
</g>
<!-- w_cert&#45;&gt;w_present -->
<g id="edge5" class="edge">
<title>w_cert&#45;&gt;w_present</title>
<path fill="none" stroke="black" stroke-dasharray="1,5" d="M78.26,-260C100.15,-260 129.75,-260 152.68,-260"/>
<polygon fill="black" stroke="black" points="152.54,-261.4 156.54,-260 152.54,-258.6 152.54,-261.4"/>
</g>
<!-- w_key -->
<g id="node3" class="node">
<title>w_key</title>
<polygon fill="#ffcccc" stroke="black" points="76.64,-327 17.12,-327 17.12,-291 76.64,-291 76.64,-327"/>
<text text-anchor="middle" x="46.88" y="-310.6" font-family="Helvetica Neue" font-size="7.00">worker.local</text>
<text text-anchor="middle" x="46.88" y="-302.35" font-family="Helvetica Neue" font-size="7.00">.client&#45;key.pem</text>
</g>
<!-- w_key&#45;&gt;w_present -->
<g id="edge6" class="edge">
<title>w_key&#45;&gt;w_present</title>
<path fill="none" stroke="black" stroke-dasharray="1,5" d="M76.89,-298.85C98.94,-291.13 129.35,-280.49 152.77,-272.29"/>
<polygon fill="black" stroke="black" points="153.21,-273.62 156.53,-270.98 152.29,-270.98 153.21,-273.62"/>
</g>
<!-- s_verify -->
<g id="node10" class="node">
<title>s_verify</title>
<polygon fill="#cce5ff" stroke="black" points="380.79,-150 315.77,-132 380.79,-114 445.81,-132 380.79,-150"/>
<text text-anchor="middle" x="380.79" y="-133.6" font-family="Helvetica Neue" font-size="7.00">④ Verify client cert</text>
<text text-anchor="middle" x="380.79" y="-125.35" font-family="Helvetica Neue" font-size="7.00">against cacert.pem</text>
</g>
<!-- w_present&#45;&gt;s_verify -->
<g id="edge7" class="edge">
<title>w_present&#45;&gt;s_verify</title>
<path fill="none" stroke="black" d="M219.63,-253.28C233.46,-249.41 249.79,-243.76 263.27,-236 303.92,-212.59 342.84,-173.33 363.8,-150.33"/>
<polygon fill="black" stroke="black" points="364.6,-151.54 366.24,-147.63 362.52,-149.66 364.6,-151.54"/>
<text text-anchor="middle" x="285.52" y="-231.21" font-family="Helvetica Neue" font-size="6.00">client cert</text>
</g>
<!-- s_cacert -->
<g id="node6" class="node">
<title>s_cacert</title>
<polygon fill="#fff3cd" stroke="black" points="215.89,-150 161.89,-150 161.89,-114 215.89,-114 215.89,-150"/>
<text text-anchor="middle" x="188.89" y="-133.6" font-family="Helvetica Neue" font-size="7.00">cacert.pem</text>
<text text-anchor="middle" x="188.89" y="-125.35" font-family="Helvetica Neue" font-size="7.00">(shared CA)</text>
</g>
<!-- s_cacert&#45;&gt;s_verify -->
<g id="edge8" class="edge">
<title>s_cacert&#45;&gt;s_verify</title>
<path fill="none" stroke="black" stroke-dasharray="1,5" d="M216.3,-132C240.19,-132 276.48,-132 308.81,-132"/>
<polygon fill="black" stroke="black" points="308.45,-133.4 312.45,-132 308.45,-130.6 308.45,-133.4"/>
<text text-anchor="middle" x="285.52" y="-141.3" font-family="Helvetica Neue" font-size="6.00">trust</text>
<text text-anchor="middle" x="285.52" y="-133.8" font-family="Helvetica Neue" font-size="6.00">root</text>
</g>
<!-- s_cert -->
<g id="node7" class="node">
<title>s_cert</title>
<polygon fill="#cce5ff" stroke="black" points="220.9,-101 156.88,-101 156.88,-65 220.9,-65 220.9,-101"/>
<text text-anchor="middle" x="188.89" y="-84.6" font-family="Helvetica Neue" font-size="7.00">server.local</text>
<text text-anchor="middle" x="188.89" y="-76.35" font-family="Helvetica Neue" font-size="7.00">.server&#45;cert.pem</text>
</g>
<!-- s_present -->
<g id="node9" class="node">
<title>s_present</title>
<polygon fill="#cce5ff" stroke="black" points="412.8,-101 348.78,-101 348.78,-65 412.8,-65 412.8,-101"/>
<text text-anchor="middle" x="380.79" y="-84.6" font-family="Helvetica Neue" font-size="7.00">② Present own</text>
<text text-anchor="middle" x="380.79" y="-76.35" font-family="Helvetica Neue" font-size="7.00">server certificate</text>
</g>
<!-- s_cert&#45;&gt;s_present -->
<g id="edge1" class="edge">
<title>s_cert&#45;&gt;s_present</title>
<path fill="none" stroke="black" stroke-dasharray="1,5" d="M221.25,-83C254.79,-83 307.91,-83 343.3,-83"/>
<polygon fill="black" stroke="black" points="342.87,-84.4 346.87,-83 342.87,-81.6 342.87,-84.4"/>
</g>
<!-- s_key -->
<g id="node8" class="node">
<title>s_key</title>
<polygon fill="#ffcccc" stroke="black" points="219.78,-52 158.01,-52 158.01,-16 219.78,-16 219.78,-52"/>
<text text-anchor="middle" x="188.89" y="-35.6" font-family="Helvetica Neue" font-size="7.00">server.local</text>
<text text-anchor="middle" x="188.89" y="-27.35" font-family="Helvetica Neue" font-size="7.00">.server&#45;key.pem</text>
</g>
<!-- s_key&#45;&gt;s_present -->
<g id="edge2" class="edge">
<title>s_key&#45;&gt;s_present</title>
<path fill="none" stroke="black" stroke-dasharray="1,5" d="M219.98,-41.76C253.47,-50.41 307.59,-64.37 343.43,-73.62"/>
<polygon fill="black" stroke="black" points="342.89,-74.92 347.11,-74.57 343.59,-72.21 342.89,-74.92"/>
</g>
<!-- s_present&#45;&gt;w_verify -->
<g id="edge3" class="edge">
<title>s_present&#45;&gt;w_verify</title>
<path fill="none" stroke="black" d="M348.45,-89.55C336.94,-93.3 324.59,-99.1 315.77,-108 301.7,-122.18 311.43,-133.78 299.77,-150 287.51,-167.05 281.23,-169.13 263.27,-180 251.15,-187.33 236.98,-193.75 224.35,-198.83"/>
<polygon fill="black" stroke="black" points="224.02,-197.45 220.82,-200.22 225.05,-200.05 224.02,-197.45"/>
<text text-anchor="middle" x="285.52" y="-176.65" font-family="Helvetica Neue" font-size="6.00">server cert</text>
</g>
<!-- s_accept -->
<g id="node11" class="node">
<title>s_accept</title>
<polygon fill="#d4edda" stroke="black" points="540.06,-150 486.06,-150 486.06,-114 540.06,-114 540.06,-150"/>
<text text-anchor="middle" x="513.06" y="-133.6" font-family="Helvetica Neue" font-size="7.00">⑤ Accept</text>
<text text-anchor="middle" x="513.06" y="-125.35" font-family="Helvetica Neue" font-size="7.00">connection</text>
</g>
<!-- s_verify&#45;&gt;s_accept -->
<g id="edge9" class="edge">
<title>s_verify&#45;&gt;s_accept</title>
<path fill="none" stroke="black" d="M447.31,-132C458.75,-132 470.17,-132 480.17,-132"/>
<polygon fill="black" stroke="black" points="480.05,-133.4 484.05,-132 480.05,-130.6 480.05,-133.4"/>
<text text-anchor="middle" x="465.94" y="-133.8" font-family="Helvetica Neue" font-size="6.00">OK</text>
</g>
</g>
</svg>
