<?xml version="1.0" encoding="UTF-8" standalone="no"?>
<!DOCTYPE svg PUBLIC "-//W3C//DTD SVG 1.1//EN"
 "http://www.w3.org/Graphics/SVG/1.1/DTD/svg11.dtd">
<!-- Generated by graphviz version 12.2.1 (20241206.2353)
 -->
<!-- Title: class_instance Pages: 1 -->
<svg width="310pt" height="668pt"
 viewBox="0.00 0.00 310.00 667.77" xmlns="http://www.w3.org/2000/svg" xmlns:xlink="http://www.w3.org/1999/xlink">
<g id="graph0" class="graph" transform="scale(1 1) rotate(0) translate(4 663.77)">
<title>class_instance</title>
<polygon fill="white" stroke="none" points="-4,4 -4,-663.77 306,-663.77 306,4 -4,4"/>
<g id="clust1" class="cluster">
<title>cluster_class</title>
<polygon fill="#fff8e6" stroke="#c8a84a" points="87,-441.5 87,-595.27 197,-595.27 197,-441.5 87,-441.5"/>
<text text-anchor="middle" x="125.75" y="-583.67" font-family="Helvetica Neue" font-size="8.00">Class declaration</text>
</g>
<g id="clust2" class="cluster">
<title>cluster_instance</title>
<polygon fill="#e6f0ff" stroke="#4a86c8" points="91,-158.5 91,-418 193,-418 193,-158.5 91,-158.5"/>
<text text-anchor="middle" x="140.25" y="-406.4" font-family="Helvetica Neue" font-size="8.00">Instance (newinstance)</text>
</g>
<g id="clust3" class="cluster">
<title>cluster_instances</title>
<polygon fill="#e6ffe6" stroke="#4a8c4a" points="8,-64.5 8,-135 294,-135 294,-64.5 8,-64.5"/>
<text text-anchor="middle" x="41.12" y="-123.4" font-family="Helvetica Neue" font-size="8.00">Live instances</text>
</g>
<!-- decl -->
<g id="node1" class="node">
<title>decl</title>
<polygon fill="#fff3cd" stroke="black" points="174.38,-568.77 103.62,-568.77 103.62,-530.01 180.38,-530.01 180.38,-562.77 174.38,-568.77"/>
<polyline fill="none" stroke="black" points="174.38,-568.77 174.38,-562.77"/>
<polyline fill="none" stroke="black" points="180.38,-562.77 174.38,-562.77"/>
<text text-anchor="middle" x="142" y="-559.24" font-family="Helvetica Neue" font-size="7.00">:&#45; class.</text>
<text text-anchor="middle" x="142" y="-550.99" font-family="Helvetica Neue" font-size="7.00">:&#45; dpublic(name/1).</text>
<text text-anchor="middle" x="142" y="-542.74" font-family="Helvetica Neue" font-size="7.00">:&#45; dprotected(age/1).</text>
<text text-anchor="middle" x="142" y="-534.49" font-family="Helvetica Neue" font-size="7.00">:&#45; dprivate(secret/1).</text>
</g>
<!-- meta -->
<g id="node2" class="node">
<title>meta</title>
<polygon fill="#fff3cd" stroke="black" points="189.01,-496.51 94.99,-496.51 94.99,-449.5 189.01,-449.5 189.01,-496.51"/>
<text text-anchor="middle" x="142" y="-486.98" font-family="Helvetica Neue" font-size="7.00">$__meta facts</text>
<text text-anchor="middle" x="142" y="-478.73" font-family="Helvetica Neue" font-size="7.00">type(class)</text>
<text text-anchor="middle" x="142" y="-470.48" font-family="Helvetica Neue" font-size="7.00">property(name/1, public)</text>
<text text-anchor="middle" x="142" y="-462.23" font-family="Helvetica Neue" font-size="7.00">property(age/1, protected)</text>
<text text-anchor="middle" x="142" y="-453.98" font-family="Helvetica Neue" font-size="7.00">property(secret/1, private)</text>
</g>
<!-- decl&#45;&gt;meta -->
<g id="edge1" class="edge">
<title>decl&#45;&gt;meta</title>
<path fill="none" stroke="black" d="M142,-529.62C142,-521.27 142,-511.27 142,-502.06"/>
<polygon fill="black" stroke="black" points="143.4,-502.27 142,-498.27 140.6,-502.27 143.4,-502.27"/>
<text text-anchor="middle" x="151.75" y="-511.31" font-family="Helvetica Neue" font-size="6.00">assertz</text>
</g>
<!-- guard -->
<g id="node4" class="node">
<title>guard</title>
<polygon fill="#cce5ff" stroke="black" points="175.88,-391.5 108.12,-391.5 108.12,-355.5 175.88,-355.5 175.88,-391.5"/>
<text text-anchor="middle" x="142" y="-379.23" font-family="Helvetica Neue" font-size="7.00">Generate guarded</text>
<text text-anchor="middle" x="142" y="-370.98" font-family="Helvetica Neue" font-size="7.00">predicates</text>
<text text-anchor="middle" x="142" y="-362.73" font-family="Helvetica Neue" font-size="7.00">(access control)</text>
</g>
<!-- meta&#45;&gt;guard -->
<g id="edge6" class="edge">
<title>meta&#45;&gt;guard</title>
<path fill="none" stroke="black" d="M142,-449.39C142,-433.62 142,-412.67 142,-396.94"/>
<polygon fill="black" stroke="black" points="143.4,-397.33 142,-393.33 140.6,-397.33 143.4,-397.33"/>
<text text-anchor="middle" x="160.75" y="-427.8" font-family="Helvetica Neue" font-size="6.00">newinstance/1</text>
</g>
<!-- parent -->
<g id="node3" class="node">
<title>parent</title>
<ellipse fill="#e8e8e8" stroke="black" cx="142" cy="-641.77" rx="32.14" ry="18"/>
<text text-anchor="middle" x="142" y="-643.37" font-family="Helvetica Neue" font-size="7.00">Parent class</text>
<text text-anchor="middle" x="142" y="-635.12" font-family="Helvetica Neue" font-size="7.00">(optional)</text>
</g>
<!-- parent&#45;&gt;decl -->
<g id="edge5" class="edge">
<title>parent&#45;&gt;decl</title>
<path fill="none" stroke="black" stroke-dasharray="5,2" d="M142,-623.34C142,-609.46 142,-589.86 142,-574.47"/>
<polygon fill="black" stroke="black" points="143.4,-574.52 142,-570.52 140.6,-574.52 143.4,-574.52"/>
<text text-anchor="middle" x="152.88" y="-605.07" font-family="Helvetica Neue" font-size="6.00">inherit/1</text>
</g>
<!-- token -->
<g id="node5" class="node">
<title>token</title>
<polygon fill="#cce5ff" stroke="black" points="172.13,-328.5 111.87,-328.5 111.87,-292.5 172.13,-292.5 172.13,-328.5"/>
<text text-anchor="middle" x="142" y="-316.23" font-family="Helvetica Neue" font-size="7.00">Thread&#45;local</text>
<text text-anchor="middle" x="142" y="-307.98" font-family="Helvetica Neue" font-size="7.00">$_token</text>
<text text-anchor="middle" x="142" y="-299.73" font-family="Helvetica Neue" font-size="7.00">(access tokens)</text>
</g>
<!-- guard&#45;&gt;token -->
<!-- freeze -->
<g id="node6" class="node">
<title>freeze</title>
<polygon fill="#cce5ff" stroke="black" points="184.88,-265.5 99.12,-265.5 99.12,-229.5 184.88,-229.5 184.88,-265.5"/>
<text text-anchor="middle" x="142" y="-249.1" font-family="Helvetica Neue" font-size="7.00">compile_predicates</text>
<text text-anchor="middle" x="142" y="-240.85" font-family="Helvetica Neue" font-size="7.00">(freeze for performance)</text>
</g>
<!-- token&#45;&gt;freeze -->
<!-- ctor -->
<g id="node7" class="node">
<title>ctor</title>
<polygon fill="#cce5ff" stroke="black" points="172.51,-202.5 111.49,-202.5 111.49,-166.5 172.51,-166.5 172.51,-202.5"/>
<text text-anchor="middle" x="142" y="-186.1" font-family="Helvetica Neue" font-size="7.00">Call constructor</text>
<text text-anchor="middle" x="142" y="-177.85" font-family="Helvetica Neue" font-size="7.00">(if declared)</text>
</g>
<!-- freeze&#45;&gt;ctor -->
<!-- i1 -->
<g id="node8" class="node">
<title>i1</title>
<polygon fill="#ccf2cc" stroke="black" points="90.26,-108.5 15.74,-108.5 15.74,-72.5 90.26,-72.5 90.26,-108.5"/>
<text text-anchor="middle" x="53" y="-96.22" font-family="Helvetica Neue" font-size="7.00">portage</text>
<text text-anchor="middle" x="53" y="-87.97" font-family="Helvetica Neue" font-size="7.00">(repository instance)</text>
<text text-anchor="middle" x="53" y="-79.72" font-family="Helvetica Neue" font-size="7.00">own facts + state</text>
</g>
<!-- ctor&#45;&gt;i1 -->
<g id="edge7" class="edge">
<title>ctor&#45;&gt;i1</title>
<path fill="none" stroke="black" stroke-dasharray="5,2" d="M125.26,-166.2C110.47,-150.9 88.86,-128.57 73.13,-112.31"/>
<polygon fill="black" stroke="black" points="74.5,-111.72 70.72,-109.81 72.49,-113.66 74.5,-111.72"/>
<text text-anchor="middle" x="117.84" y="-144.8" font-family="Helvetica Neue" font-size="6.00">creates</text>
</g>
<!-- i2 -->
<g id="node9" class="node">
<title>i2</title>
<polygon fill="#ccf2cc" stroke="black" points="179.26,-108.5 104.74,-108.5 104.74,-72.5 179.26,-72.5 179.26,-108.5"/>
<text text-anchor="middle" x="142" y="-96.22" font-family="Helvetica Neue" font-size="7.00">pkg</text>
<text text-anchor="middle" x="142" y="-87.97" font-family="Helvetica Neue" font-size="7.00">(repository instance)</text>
<text text-anchor="middle" x="142" y="-79.72" font-family="Helvetica Neue" font-size="7.00">own facts + state</text>
</g>
<!-- ctor&#45;&gt;i2 -->
<g id="edge8" class="edge">
<title>ctor&#45;&gt;i2</title>
<path fill="none" stroke="black" stroke-dasharray="5,2" d="M142,-166.2C142,-151.42 142,-130.06 142,-113.97"/>
<polygon fill="black" stroke="black" points="143.4,-114.24 142,-110.24 140.6,-114.24 143.4,-114.24"/>
<text text-anchor="middle" x="151.75" y="-144.8" font-family="Helvetica Neue" font-size="6.00">creates</text>
</g>
<!-- i3 -->
<g id="node10" class="node">
<title>i3</title>
<polygon fill="#ccf2cc" stroke="black" points="286.26,-108.5 193.74,-108.5 193.74,-72.5 286.26,-72.5 286.26,-108.5"/>
<text text-anchor="middle" x="240" y="-96.22" font-family="Helvetica Neue" font-size="7.00">kb</text>
<text text-anchor="middle" x="240" y="-87.97" font-family="Helvetica Neue" font-size="7.00">(knowledgebase instance)</text>
<text text-anchor="middle" x="240" y="-79.72" font-family="Helvetica Neue" font-size="7.00">registered repos</text>
</g>
<!-- ctor&#45;&gt;i3 -->
<g id="edge9" class="edge">
<title>ctor&#45;&gt;i3</title>
<path fill="none" stroke="black" stroke-dasharray="5,2" d="M160.43,-166.2C176.72,-150.9 200.51,-128.57 217.84,-112.31"/>
<polygon fill="black" stroke="black" points="218.59,-113.52 220.55,-109.76 216.67,-111.48 218.59,-113.52"/>
<text text-anchor="middle" x="194.88" y="-144.8" font-family="Helvetica Neue" font-size="6.00">creates</text>
</g>
<!-- destr -->
<g id="node11" class="node">
<title>destr</title>
<polygon fill="#ffcccc" stroke="black" points="136.51,-36 57.49,-36 57.49,0 136.51,0 136.51,-36"/>
<text text-anchor="middle" x="97" y="-23.73" font-family="Helvetica Neue" font-size="7.00">~Instance</text>
<text text-anchor="middle" x="97" y="-15.47" font-family="Helvetica Neue" font-size="7.00">(destructor)</text>
<text text-anchor="middle" x="97" y="-7.22" font-family="Helvetica Neue" font-size="7.00">abolish all predicates</text>
</g>
<!-- i1&#45;&gt;destr -->
<g id="edge10" class="edge">
<title>i1&#45;&gt;destr</title>
<path fill="none" stroke="black" stroke-dasharray="5,2" d="M63.88,-72.07C69.79,-62.6 77.16,-50.79 83.45,-40.72"/>
<polygon fill="black" stroke="black" points="84.52,-41.65 85.45,-37.51 82.14,-40.16 84.52,-41.65"/>
<text text-anchor="middle" x="82.13" y="-50.8" font-family="Helvetica Neue" font-size="6.00">~/1</text>
</g>
<!-- i2&#45;&gt;destr -->
<g id="edge11" class="edge">
<title>i2&#45;&gt;destr</title>
<path fill="none" stroke="black" stroke-dasharray="5,2" d="M130.88,-72.07C124.83,-62.6 117.29,-50.79 110.86,-40.72"/>
<polygon fill="black" stroke="black" points="112.14,-40.12 108.81,-37.5 109.78,-41.63 112.14,-40.12"/>
<text text-anchor="middle" x="125.35" y="-50.8" font-family="Helvetica Neue" font-size="6.00">~/1</text>
</g>
</g>
</svg>
