<?xml version="1.0" encoding="UTF-8" standalone="no"?>
<!DOCTYPE svg PUBLIC "-//W3C//DTD SVG 1.1//EN"
 "http://www.w3.org/Graphics/SVG/1.1/DTD/svg11.dtd">
<!-- Generated by graphviz version 12.2.1 (20241206.2353)
 -->
<!-- Title: operators Pages: 1 -->
<svg width="448pt" height="149pt"
 viewBox="0.00 0.00 448.27 148.52" xmlns="http://www.w3.org/2000/svg" xmlns:xlink="http://www.w3.org/1999/xlink">
<g id="graph0" class="graph" transform="scale(1 1) rotate(0) translate(4 144.52)">
<title>operators</title>
<polygon fill="white" stroke="none" points="-4,4 -4,-144.52 444.27,-144.52 444.27,4 -4,4"/>
<g id="clust1" class="cluster">
<title>cluster_instance</title>
<polygon fill="#e6f0ff" stroke="#4a86c8" points="116.75,-15.52 116.75,-132.52 432.27,-132.52 432.27,-15.52 116.75,-15.52"/>
<text text-anchor="middle" x="154.75" y="-120.92" font-family="Helvetica Neue" font-size="8.00">Instance context</text>
</g>
<!-- caller -->
<g id="node1" class="node">
<title>caller</title>
<ellipse fill="#e2e3e5" stroke="black" cx="27" cy="-41.52" rx="27" ry="18"/>
<text text-anchor="middle" x="27" y="-43.12" font-family="Helvetica Neue" font-size="7.00">Calling</text>
<text text-anchor="middle" x="27" y="-34.87" font-family="Helvetica Neue" font-size="7.00">context</text>
</g>
<!-- pub -->
<g id="node2" class="node">
<title>pub</title>
<polygon fill="#d4edda" stroke="black" points="188.26,-105.52 134.26,-105.52 134.26,-69.52 188.26,-69.52 188.26,-105.52"/>
<text text-anchor="middle" x="161.26" y="-89.12" font-family="Helvetica Neue" font-size="7.00">Public</text>
<text text-anchor="middle" x="161.26" y="-80.87" font-family="Helvetica Neue" font-size="7.00">predicates</text>
</g>
<!-- caller&#45;&gt;pub -->
<g id="edge1" class="edge">
<title>caller&#45;&gt;pub</title>
<path fill="none" stroke="black" d="M41.71,-56.84C49.06,-64.04 58.71,-72.01 69,-76.52 87.68,-84.71 110.44,-87.47 128.57,-88.17"/>
<polygon fill="black" stroke="black" points="128.48,-89.57 132.52,-88.29 128.56,-86.77 128.48,-89.57"/>
<text text-anchor="middle" x="88.88" y="-95.77" font-family="Helvetica Neue" font-size="6.00">Ctx://Pred</text>
<text text-anchor="middle" x="88.88" y="-88.27" font-family="Helvetica Neue" font-size="6.00">(call in context)</text>
</g>
<!-- cache -->
<g id="node5" class="node">
<title>cache</title>
<polygon fill="#cce5ff" stroke="black" points="197.77,-59.52 124.75,-59.52 124.75,-23.52 197.77,-23.52 197.77,-59.52"/>
<text text-anchor="middle" x="161.26" y="-47.25" font-family="Helvetica Neue" font-size="7.00">Cached data</text>
<text text-anchor="middle" x="161.26" y="-39" font-family="Helvetica Neue" font-size="7.00">members</text>
<text text-anchor="middle" x="161.26" y="-30.75" font-family="Helvetica Neue" font-size="7.00">($__meta(cache(...)))</text>
</g>
<!-- caller&#45;&gt;cache -->
<g id="edge2" class="edge">
<title>caller&#45;&gt;cache</title>
<path fill="none" stroke="black" d="M49.68,-51.71C55.8,-54.1 62.54,-56.31 69,-57.52 86.36,-60.79 91.28,-60.17 108.75,-57.52 112.09,-57.02 115.51,-56.33 118.93,-55.54"/>
<polygon fill="black" stroke="black" points="119.27,-56.89 122.81,-54.56 118.59,-54.18 119.27,-56.89"/>
<text text-anchor="middle" x="88.88" y="-69.05" font-family="Helvetica Neue" font-size="6.00">Ctx::Pred</text>
<text text-anchor="middle" x="88.88" y="-61.55" font-family="Helvetica Neue" font-size="6.00">(read cached)</text>
</g>
<!-- caller&#45;&gt;cache -->
<g id="edge3" class="edge">
<title>caller&#45;&gt;cache</title>
<path fill="none" stroke="black" stroke-dasharray="5,2" d="M54.46,-40.78C59.3,-40.68 64.3,-40.58 69,-40.52 86.67,-40.31 91.08,-40.35 108.75,-40.52 112.1,-40.56 115.56,-40.6 119.05,-40.65"/>
<polygon fill="black" stroke="black" points="118.98,-42.05 123,-40.72 119.03,-39.25 118.98,-42.05"/>
<text text-anchor="middle" x="88.88" y="-49.82" font-family="Helvetica Neue" font-size="6.00">Ctx&lt;=Pred</text>
<text text-anchor="middle" x="88.88" y="-42.32" font-family="Helvetica Neue" font-size="6.00">(set/replace)</text>
</g>
<!-- caller&#45;&gt;cache -->
<g id="edge4" class="edge">
<title>caller&#45;&gt;cache</title>
<path fill="none" stroke="black" stroke-dasharray="5,2" d="M48.72,-30.45C55.05,-27.61 62.15,-24.96 69,-23.52 86.29,-19.9 91.33,-20.57 108.75,-23.52 112.28,-24.12 115.89,-24.94 119.49,-25.89"/>
<polygon fill="black" stroke="black" points="118.67,-27.12 122.9,-26.86 119.44,-24.42 118.67,-27.12"/>
<text text-anchor="middle" x="88.88" y="-32.82" font-family="Helvetica Neue" font-size="6.00">Ctx&lt;+Pred</text>
<text text-anchor="middle" x="88.88" y="-25.32" font-family="Helvetica Neue" font-size="6.00">(append)</text>
</g>
<!-- caller&#45;&gt;cache -->
<g id="edge5" class="edge">
<title>caller&#45;&gt;cache</title>
<path fill="none" stroke="black" stroke-dasharray="5,2" d="M40.61,-25.56C47.94,-17.6 57.9,-8.79 69,-4.52 85.49,1.82 91.93,0.89 108.75,-4.52 118.84,-7.77 128.62,-13.81 136.9,-20.08"/>
<polygon fill="black" stroke="black" points="135.64,-20.86 139.65,-22.23 137.37,-18.66 135.64,-20.86"/>
<text text-anchor="middle" x="88.88" y="-13.82" font-family="Helvetica Neue" font-size="6.00">Ctx&lt;&#45;Pred</text>
<text text-anchor="middle" x="88.88" y="-6.32" font-family="Helvetica Neue" font-size="6.00">(remove)</text>
</g>
<!-- prot -->
<g id="node3" class="node">
<title>prot</title>
<polygon fill="#fff3cd" stroke="black" points="317.02,-78.52 263.02,-78.52 263.02,-42.52 317.02,-42.52 317.02,-78.52"/>
<text text-anchor="middle" x="290.02" y="-62.12" font-family="Helvetica Neue" font-size="7.00">Protected</text>
<text text-anchor="middle" x="290.02" y="-53.87" font-family="Helvetica Neue" font-size="7.00">predicates</text>
</g>
<!-- pub&#45;&gt;prot -->
<g id="edge6" class="edge">
<title>pub&#45;&gt;prot</title>
<path fill="none" stroke="black" stroke-dasharray="1,5" d="M188.51,-72.6C196.11,-68.96 204.57,-65.54 212.77,-63.52 227.08,-60 243.35,-58.97 257.17,-58.94"/>
<polygon fill="black" stroke="black" points="257.02,-60.34 261.03,-58.96 257.04,-57.54 257.02,-60.34"/>
<text text-anchor="middle" x="230.39" y="-72.82" font-family="Helvetica Neue" font-size="6.00">:Pred</text>
<text text-anchor="middle" x="230.39" y="-65.32" font-family="Helvetica Neue" font-size="6.00">(self&#45;call)</text>
</g>
<!-- pub&#45;&gt;prot -->
<g id="edge8" class="edge">
<title>pub&#45;&gt;prot</title>
<path fill="none" stroke="black" stroke-dasharray="5,2" d="M188.47,-85.83C205.61,-84.32 228.38,-81.53 248.02,-76.52 251.23,-75.71 254.52,-74.71 257.78,-73.61"/>
<polygon fill="black" stroke="black" points="258.13,-74.97 261.44,-72.32 257.2,-72.33 258.13,-74.97"/>
<text text-anchor="middle" x="230.39" y="-92.39" font-family="Helvetica Neue" font-size="6.00">$_token</text>
<text text-anchor="middle" x="230.39" y="-84.89" font-family="Helvetica Neue" font-size="6.00">(thread&#45;local)</text>
</g>
<!-- priv -->
<g id="node4" class="node">
<title>priv</title>
<polygon fill="#ffcccc" stroke="black" points="424.27,-78.52 370.27,-78.52 370.27,-42.52 424.27,-42.52 424.27,-78.52"/>
<text text-anchor="middle" x="397.27" y="-62.12" font-family="Helvetica Neue" font-size="7.00">Private</text>
<text text-anchor="middle" x="397.27" y="-53.87" font-family="Helvetica Neue" font-size="7.00">predicates</text>
</g>
<!-- prot&#45;&gt;priv -->
<g id="edge7" class="edge">
<title>prot&#45;&gt;priv</title>
<path fill="none" stroke="black" stroke-dasharray="1,5" d="M317.31,-60.52C331.62,-60.52 349.44,-60.52 364.53,-60.52"/>
<polygon fill="black" stroke="black" points="364.44,-61.92 368.44,-60.52 364.44,-59.12 364.44,-61.92"/>
<text text-anchor="middle" x="343.64" y="-69.82" font-family="Helvetica Neue" font-size="6.00">:Pred</text>
<text text-anchor="middle" x="343.64" y="-62.32" font-family="Helvetica Neue" font-size="6.00">(self&#45;call)</text>
</g>
</g>
</svg>
