<?xml version="1.0" encoding="UTF-8" standalone="no"?>
<!DOCTYPE svg PUBLIC "-//W3C//DTD SVG 1.1//EN"
 "http://www.w3.org/Graphics/SVG/1.1/DTD/svg11.dtd">
<!-- Generated by graphviz version 12.2.1 (20241206.2353)
 -->
<!-- Title: portage_usage Pages: 1 -->
<svg width="501pt" height="324pt"
 viewBox="0.00 0.00 500.53 323.59" xmlns="http://www.w3.org/2000/svg" xmlns:xlink="http://www.w3.org/1999/xlink">
<g id="graph0" class="graph" transform="scale(1 1) rotate(0) translate(4 319.59)">
<title>portage_usage</title>
<polygon fill="white" stroke="none" points="-4,4 -4,-319.59 496.53,-319.59 496.53,4 -4,4"/>
<g id="clust1" class="cluster">
<title>cluster_classes</title>
<polygon fill="#fff8e6" stroke="#c8a84a" points="112,-218.08 112,-307.59 276,-307.59 276,-218.08 112,-218.08"/>
<text text-anchor="middle" x="133.88" y="-295.99" font-family="Helvetica Neue" font-size="8.00">Classes</text>
</g>
<g id="clust2" class="cluster">
<title>cluster_repos</title>
<polygon fill="#e6f0ff" stroke="#4a86c8" points="8,-8 8,-89.26 348,-89.26 348,-8 8,-8"/>
<text text-anchor="middle" x="52.75" y="-77.66" font-family="Helvetica Neue" font-size="8.00">Repository instances</text>
</g>
<g id="clust3" class="cluster">
<title>cluster_kb</title>
<polygon fill="#e6ffe6" stroke="#4a8c4a" points="259,-112.76 259,-194.02 366,-194.02 366,-112.76 259,-112.76"/>
<text text-anchor="middle" x="312.75" y="-182.42" font-family="Helvetica Neue" font-size="8.00">Knowledge base instance</text>
</g>
<!-- repo_cls -->
<g id="node1" class="node">
<title>repo_cls</title>
<polygon fill="#fff3cd" stroke="black" points="190.38,-281.09 119.62,-281.09 119.62,-226.08 190.38,-226.08 190.38,-281.09"/>
<text text-anchor="middle" x="155" y="-271.56" font-family="Helvetica Neue" font-size="7.00">repository</text>
<text text-anchor="middle" x="155" y="-263.31" font-family="Helvetica Neue" font-size="7.00">(class)</text>
<text text-anchor="middle" x="155" y="-247.06" font-family="Helvetica Neue" font-size="7.00">sync, read, query,</text>
<text text-anchor="middle" x="155" y="-238.81" font-family="Helvetica Neue" font-size="7.00">category, package,</text>
<text text-anchor="middle" x="155" y="-230.56" font-family="Helvetica Neue" font-size="7.00">ebuild, manifest</text>
</g>
<!-- portage -->
<g id="node3" class="node">
<title>portage</title>
<polygon fill="#cce5ff" stroke="black" points="248.38,-62.76 171.62,-62.76 171.62,-16 248.38,-16 248.38,-62.76"/>
<text text-anchor="middle" x="210" y="-53.23" font-family="Helvetica Neue" font-size="7.00">portage</text>
<text text-anchor="middle" x="210" y="-36.98" font-family="Helvetica Neue" font-size="7.00">Gentoo Portage tree</text>
<text text-anchor="middle" x="210" y="-28.73" font-family="Helvetica Neue" font-size="7.00">30,000+ ebuilds</text>
<text text-anchor="middle" x="210" y="-20.48" font-family="Helvetica Neue" font-size="7.00">md5&#45;cache, git sync</text>
</g>
<!-- repo_cls&#45;&gt;portage -->
<g id="edge1" class="edge">
<title>repo_cls&#45;&gt;portage</title>
<path fill="none" stroke="black" d="M153.71,-225.6C153.15,-196.91 154.59,-150.56 166.75,-112.76 171.91,-96.73 181.16,-80.5 189.78,-67.48"/>
<polygon fill="black" stroke="black" points="190.75,-68.55 191.83,-64.45 188.43,-66.98 190.75,-68.55"/>
<text text-anchor="middle" x="182.88" y="-142.19" font-family="Helvetica Neue" font-size="6.00">newinstance</text>
</g>
<!-- pkg -->
<g id="node4" class="node">
<title>pkg</title>
<polygon fill="#cce5ff" stroke="black" points="339.63,-62.76 264.37,-62.76 264.37,-16 339.63,-16 339.63,-62.76"/>
<text text-anchor="middle" x="302" y="-53.23" font-family="Helvetica Neue" font-size="7.00">pkg</text>
<text text-anchor="middle" x="302" y="-36.98" font-family="Helvetica Neue" font-size="7.00">VDB (installed pkgs)</text>
<text text-anchor="middle" x="302" y="-28.73" font-family="Helvetica Neue" font-size="7.00">/var/db/pkg</text>
<text text-anchor="middle" x="302" y="-20.48" font-family="Helvetica Neue" font-size="7.00">local, read&#45;only</text>
</g>
<!-- repo_cls&#45;&gt;pkg -->
<g id="edge2" class="edge">
<title>repo_cls&#45;&gt;pkg</title>
<path fill="none" stroke="black" d="M178.44,-225.64C185.82,-216.13 193.48,-205.05 199,-194.02 215.85,-160.38 198.21,-141.28 222.75,-112.76 228.26,-106.35 233.03,-109.54 240,-104.76 248.16,-99.15 249.05,-96.31 256,-89.26 263.04,-82.12 270.55,-74.25 277.41,-66.96"/>
<polygon fill="black" stroke="black" points="278.4,-67.95 280.11,-64.08 276.35,-66.04 278.4,-67.95"/>
<text text-anchor="middle" x="238.88" y="-142.19" font-family="Helvetica Neue" font-size="6.00">newinstance</text>
</g>
<!-- overlay -->
<g id="node5" class="node">
<title>overlay</title>
<polygon fill="#cce5ff" stroke="black" points="76.13,-62.76 15.87,-62.76 15.87,-16 76.13,-16 76.13,-62.76"/>
<text text-anchor="middle" x="46" y="-53.23" font-family="Helvetica Neue" font-size="7.00">overlay</text>
<text text-anchor="middle" x="46" y="-36.98" font-family="Helvetica Neue" font-size="7.00">Local overlay</text>
<text text-anchor="middle" x="46" y="-28.73" font-family="Helvetica Neue" font-size="7.00">custom ebuilds</text>
<text text-anchor="middle" x="46" y="-20.48" font-family="Helvetica Neue" font-size="7.00">md5&#45;cache</text>
</g>
<!-- repo_cls&#45;&gt;overlay -->
<g id="edge3" class="edge">
<title>repo_cls&#45;&gt;overlay</title>
<path fill="none" stroke="black" d="M119.58,-240.22C98.52,-230.92 73.34,-215.97 59.75,-194.02 36.03,-155.71 37.55,-101.38 41.38,-68.65"/>
<polygon fill="black" stroke="black" points="42.77,-68.84 41.87,-64.69 39.99,-68.49 42.77,-68.84"/>
<text text-anchor="middle" x="75.88" y="-142.19" font-family="Helvetica Neue" font-size="6.00">newinstance</text>
</g>
<!-- dist -->
<g id="node6" class="node">
<title>dist</title>
<polygon fill="#cce5ff" stroke="black" points="155.63,-62.76 92.36,-62.76 92.36,-16 155.63,-16 155.63,-62.76"/>
<text text-anchor="middle" x="124" y="-53.23" font-family="Helvetica Neue" font-size="7.00">distfiles</text>
<text text-anchor="middle" x="124" y="-36.98" font-family="Helvetica Neue" font-size="7.00">Source archives</text>
<text text-anchor="middle" x="124" y="-28.73" font-family="Helvetica Neue" font-size="7.00">download cache</text>
<text text-anchor="middle" x="124" y="-20.48" font-family="Helvetica Neue" font-size="7.00">mirror layout</text>
</g>
<!-- repo_cls&#45;&gt;dist -->
<g id="edge4" class="edge">
<title>repo_cls&#45;&gt;dist</title>
<path fill="none" stroke="black" d="M123.64,-225.7C115.22,-216.59 107.22,-205.73 102.75,-194.02 86.72,-151.99 100.66,-99.38 112.29,-67.91"/>
<polygon fill="black" stroke="black" points="113.48,-68.69 113.59,-64.46 110.87,-67.7 113.48,-68.69"/>
<text text-anchor="middle" x="118.88" y="-142.19" font-family="Helvetica Neue" font-size="6.00">newinstance</text>
</g>
<!-- kb_cls -->
<g id="node2" class="node">
<title>kb_cls</title>
<polygon fill="#fff3cd" stroke="black" points="267.51,-281.09 206.49,-281.09 206.49,-226.08 267.51,-226.08 267.51,-281.09"/>
<text text-anchor="middle" x="237" y="-271.56" font-family="Helvetica Neue" font-size="7.00">knowledgebase</text>
<text text-anchor="middle" x="237" y="-263.31" font-family="Helvetica Neue" font-size="7.00">(class)</text>
<text text-anchor="middle" x="237" y="-247.06" font-family="Helvetica Neue" font-size="7.00">register, save,</text>
<text text-anchor="middle" x="237" y="-238.81" font-family="Helvetica Neue" font-size="7.00">load, compile,</text>
<text text-anchor="middle" x="237" y="-230.56" font-family="Helvetica Neue" font-size="7.00">query</text>
</g>
<!-- kb -->
<g id="node7" class="node">
<title>kb</title>
<polygon fill="#ccf2cc" stroke="black" points="350.76,-167.52 267.24,-167.52 267.24,-120.76 350.76,-120.76 350.76,-167.52"/>
<text text-anchor="middle" x="309" y="-157.99" font-family="Helvetica Neue" font-size="7.00">kb</text>
<text text-anchor="middle" x="309" y="-141.74" font-family="Helvetica Neue" font-size="7.00">Registers all repos</text>
<text text-anchor="middle" x="309" y="-133.49" font-family="Helvetica Neue" font-size="7.00">Unified query interface</text>
<text text-anchor="middle" x="309" y="-125.24" font-family="Helvetica Neue" font-size="7.00">Serialization (qlf)</text>
</g>
<!-- kb_cls&#45;&gt;kb -->
<g id="edge5" class="edge">
<title>kb_cls&#45;&gt;kb</title>
<path fill="none" stroke="black" d="M254.98,-225.75C265.87,-209.5 279.72,-188.83 290.67,-172.49"/>
<polygon fill="black" stroke="black" points="291.77,-173.36 292.84,-169.26 289.45,-171.8 291.77,-173.36"/>
<text text-anchor="middle" x="286.97" y="-203.82" font-family="Helvetica Neue" font-size="6.00">newinstance</text>
</g>
<!-- kb&#45;&gt;portage -->
<g id="edge6" class="edge">
<title>kb&#45;&gt;portage</title>
<path fill="none" stroke="black" stroke-dasharray="5,2" d="M271.96,-120.32C266.41,-117.48 260.65,-114.85 255,-112.76 238,-106.46 227.03,-118.32 215,-104.76 206.34,-95 204.52,-80.81 205.11,-68.23"/>
<polygon fill="black" stroke="black" points="206.49,-68.56 205.39,-64.47 203.7,-68.35 206.49,-68.56"/>
<text text-anchor="middle" x="225.5" y="-99.06" font-family="Helvetica Neue" font-size="6.00">register</text>
</g>
<!-- kb&#45;&gt;pkg -->
<g id="edge7" class="edge">
<title>kb&#45;&gt;pkg</title>
<path fill="none" stroke="black" stroke-dasharray="5,2" d="M307.45,-120.33C306.4,-105.03 305.02,-84.78 303.91,-68.48"/>
<polygon fill="black" stroke="black" points="305.32,-68.53 303.65,-64.63 302.53,-68.72 305.32,-68.53"/>
<text text-anchor="middle" x="316.83" y="-99.06" font-family="Helvetica Neue" font-size="6.00">register</text>
</g>
<!-- kb&#45;&gt;overlay -->
<g id="edge8" class="edge">
<title>kb&#45;&gt;overlay</title>
<path fill="none" stroke="black" stroke-dasharray="5,2" d="M273.37,-120.27C267.43,-117.29 261.18,-114.63 255,-112.76 181.57,-90.56 148.43,-130.9 84,-89.26 75.47,-83.75 68.06,-75.64 62.1,-67.61"/>
<polygon fill="black" stroke="black" points="63.28,-66.86 59.82,-64.41 61,-68.48 63.28,-66.86"/>
<text text-anchor="middle" x="126.67" y="-99.06" font-family="Helvetica Neue" font-size="6.00">register</text>
</g>
<!-- kb&#45;&gt;dist -->
<g id="edge9" class="edge">
<title>kb&#45;&gt;dist</title>
<path fill="none" stroke="black" stroke-dasharray="5,2" d="M273.01,-120.33C267.16,-117.38 261.04,-114.71 255,-112.76 225.21,-103.11 214.14,-116.22 185,-104.76 174.21,-100.51 172.41,-97.26 164,-89.26 156.89,-82.5 149.87,-74.5 143.74,-66.95"/>
<polygon fill="black" stroke="black" points="144.97,-66.24 141.38,-63.99 142.78,-67.99 144.97,-66.24"/>
<text text-anchor="middle" x="195.5" y="-99.06" font-family="Helvetica Neue" font-size="6.00">register</text>
</g>
<!-- prover -->
<g id="node8" class="node">
<title>prover</title>
<ellipse fill="#e8e8e8" stroke="black" cx="390" cy="-253.58" rx="43.68" ry="33.06"/>
<text text-anchor="middle" x="390" y="-267.43" font-family="Helvetica Neue" font-size="7.00">Prover / Planner</text>
<text text-anchor="middle" x="390" y="-251.18" font-family="Helvetica Neue" font-size="7.00">portage://Entry</text>
<text text-anchor="middle" x="390" y="-242.93" font-family="Helvetica Neue" font-size="7.00">pkg://Entry</text>
<text text-anchor="middle" x="390" y="-234.68" font-family="Helvetica Neue" font-size="7.00">overlay://Entry</text>
</g>
<!-- prover&#45;&gt;portage -->
<g id="edge11" class="edge">
<title>prover&#45;&gt;portage</title>
<path fill="none" stroke="black" d="M389.78,-220.13C388.8,-183.53 384.83,-127.23 370,-112.76 359.11,-102.14 316.85,-108.1 302,-104.76 280.95,-100.03 274.16,-100.91 256,-89.26 246.73,-83.31 238.03,-75.09 230.75,-67.09"/>
<polygon fill="black" stroke="black" points="232,-66.39 228.3,-64.32 229.9,-68.24 232,-66.39"/>
<text text-anchor="middle" x="412.94" y="-142.19" font-family="Helvetica Neue" font-size="6.00">portage://entry(...)</text>
</g>
<!-- prover&#45;&gt;pkg -->
<g id="edge12" class="edge">
<title>prover&#45;&gt;pkg</title>
<path fill="none" stroke="black" d="M419,-228.67C428.54,-219.02 437.97,-207.07 443,-194.02 455.99,-160.32 461.82,-143.58 443,-112.76 421.83,-78.1 378.2,-59.34 345.04,-49.68"/>
<polygon fill="black" stroke="black" points="345.51,-48.35 341.28,-48.61 344.74,-51.05 345.51,-48.35"/>
<text text-anchor="middle" x="473.78" y="-142.19" font-family="Helvetica Neue" font-size="6.00">pkg://entry(...)</text>
</g>
<!-- prover&#45;&gt;kb -->
<g id="edge10" class="edge">
<title>prover&#45;&gt;kb</title>
<path fill="none" stroke="black" d="M360.21,-229.14C353.66,-223.17 347.09,-216.46 341.75,-209.52 333.18,-198.39 325.84,-184.68 320.29,-172.77"/>
<polygon fill="black" stroke="black" points="321.59,-172.23 318.66,-169.17 319.04,-173.39 321.59,-172.23"/>
<text text-anchor="middle" x="359.38" y="-203.82" font-family="Helvetica Neue" font-size="6.00">kb://query(...)</text>
</g>
</g>
</svg>
