<?xml version="1.0" encoding="UTF-8" standalone="no"?>
<!DOCTYPE svg PUBLIC "-//W3C//DTD SVG 1.1//EN"
 "http://www.w3.org/Graphics/SVG/1.1/DTD/svg11.dtd">
<!-- Generated by graphviz version 12.2.1 (20241206.2353)
 -->
<!-- Title: context_lifecycle Pages: 1 -->
<svg width="385pt" height="1161pt"
 viewBox="0.00 0.00 385.00 1160.75" xmlns="http://www.w3.org/2000/svg" xmlns:xlink="http://www.w3.org/1999/xlink">
<g id="graph0" class="graph" transform="scale(1 1) rotate(0) translate(4 1156.75)">
<title>context_lifecycle</title>
<polygon fill="white" stroke="none" points="-4,4 -4,-1156.75 381,-1156.75 381,4 -4,4"/>
<g id="clust1" class="cluster">
<title>cluster_create</title>
<polygon fill="#e6f0ff" stroke="#4a86c8" points="189,-1072.75 189,-1144.75 353,-1144.75 353,-1072.75 189,-1072.75"/>
<text text-anchor="middle" x="238.25" y="-1130.3" font-family="Helvetica,sans-Serif" font-size="11.00">1. Creation (root)</text>
</g>
<g id="clust2" class="cluster">
<title>cluster_extend</title>
<polygon fill="#e6ffe6" stroke="#4a8c4a" points="173,-636.25 173,-1032.25 369,-1032.25 369,-636.25 173,-636.25"/>
<text text-anchor="middle" x="271" y="-1017.8" font-family="Helvetica,sans-Serif" font-size="11.00">2. Extension (downward propagation)</text>
</g>
<g id="clust3" class="cluster">
<title>cluster_merge</title>
<polygon fill="#fff8e6" stroke="#c8a84a" points="8,-274.5 8,-595.75 250,-595.75 250,-274.5 8,-274.5"/>
<text text-anchor="middle" x="70.75" y="-581.3" font-family="Helvetica,sans-Serif" font-size="11.00">3. Merging (join points)</text>
</g>
<g id="clust4" class="cluster">
<title>cluster_strip</title>
<polygon fill="#f0e6ff" stroke="#8c4ac8" points="143,-8 143,-234 317,-234 317,-8 143,-8"/>
<text text-anchor="middle" x="214" y="-219.55" font-family="Helvetica,sans-Serif" font-size="11.00">4. Stripping (memoisation)</text>
</g>
<!-- root -->
<g id="node1" class="node">
<title>root</title>
<polygon fill="#cce5ff" stroke="black" points="344.62,-1116.75 197.38,-1116.75 197.38,-1080.75 344.62,-1080.75 344.62,-1116.75"/>
<text text-anchor="middle" x="271" y="-1100.3" font-family="Helvetica,sans-Serif" font-size="11.00">target(sys&#45;apps/portage)?{}</text>
<text text-anchor="middle" x="271" y="-1088.3" font-family="Helvetica,sans-Serif" font-size="11.00">(empty context)</text>
</g>
<!-- dep_edge -->
<g id="node2" class="node">
<title>dep_edge</title>
<polygon fill="#ccf2cc" stroke="black" points="325.12,-1004.25 216.88,-1004.25 216.88,-968.25 325.12,-968.25 325.12,-1004.25"/>
<text text-anchor="middle" x="271" y="-987.8" font-family="Helvetica,sans-Serif" font-size="11.00">Dependency edge</text>
<text text-anchor="middle" x="271" y="-975.8" font-family="Helvetica,sans-Serif" font-size="11.00">from parent to child</text>
</g>
<!-- root&#45;&gt;dep_edge -->
<g id="edge10" class="edge">
<title>root&#45;&gt;dep_edge</title>
<path fill="none" stroke="black" d="M271,-1080.48C271,-1063.21 271,-1036.34 271,-1015.87"/>
<polygon fill="black" stroke="black" points="274.5,-1015.91 271,-1005.91 267.5,-1015.91 274.5,-1015.91"/>
<text text-anchor="middle" x="293.12" y="-1053.25" font-family="Helvetica,sans-Serif" font-size="10.00">first rule</text>
<text text-anchor="middle" x="293.12" y="-1042" font-family="Helvetica,sans-Serif" font-size="10.00">expansion</text>
</g>
<!-- add_self -->
<g id="node3" class="node">
<title>add_self</title>
<polygon fill="#ccf2cc" stroke="black" points="345,-931.25 197,-931.25 197,-887.25 345,-887.25 345,-931.25"/>
<text text-anchor="middle" x="271" y="-916.8" font-family="Helvetica,sans-Serif" font-size="11.00">ctx_set_self</text>
<text text-anchor="middle" x="271" y="-904.8" font-family="Helvetica,sans-Serif" font-size="11.00">self(parent_entry)</text>
<text text-anchor="middle" x="271" y="-892.8" font-family="Helvetica,sans-Serif" font-size="11.00">(replaces, not accumulates)</text>
</g>
<!-- dep_edge&#45;&gt;add_self -->
<g id="edge1" class="edge">
<title>dep_edge&#45;&gt;add_self</title>
<path fill="none" stroke="black" d="M271,-967.85C271,-960.42 271,-951.48 271,-942.89"/>
<polygon fill="black" stroke="black" points="274.5,-943.08 271,-933.08 267.5,-943.08 274.5,-943.08"/>
</g>
<!-- add_bwu -->
<g id="node4" class="node">
<title>add_bwu</title>
<polygon fill="#ccf2cc" stroke="black" points="359.25,-850.25 182.75,-850.25 182.75,-806.25 359.25,-806.25 359.25,-850.25"/>
<text text-anchor="middle" x="271" y="-835.8" font-family="Helvetica,sans-Serif" font-size="11.00">process_build_with_use</text>
<text text-anchor="middle" x="271" y="-823.8" font-family="Helvetica,sans-Serif" font-size="11.00">build_with_use:use_state(En,Dis)</text>
<text text-anchor="middle" x="271" y="-811.8" font-family="Helvetica,sans-Serif" font-size="11.00">(per&#45;edge, fresh)</text>
</g>
<!-- add_self&#45;&gt;add_bwu -->
<g id="edge2" class="edge">
<title>add_self&#45;&gt;add_bwu</title>
<path fill="none" stroke="black" d="M271,-887.08C271,-879.29 271,-870.27 271,-861.71"/>
<polygon fill="black" stroke="black" points="274.5,-861.99 271,-851.99 267.5,-861.99 274.5,-861.99"/>
</g>
<!-- add_after -->
<g id="node5" class="node">
<title>add_after</title>
<polygon fill="#ccf2cc" stroke="black" points="352.5,-769.25 189.5,-769.25 189.5,-725.25 352.5,-725.25 352.5,-769.25"/>
<text text-anchor="middle" x="271" y="-754.8" font-family="Helvetica,sans-Serif" font-size="11.00">ctx_add_after</text>
<text text-anchor="middle" x="271" y="-742.8" font-family="Helvetica,sans-Serif" font-size="11.00">after(parent) — propagates</text>
<text text-anchor="middle" x="271" y="-730.8" font-family="Helvetica,sans-Serif" font-size="11.00">after_only(parent) — local only</text>
</g>
<!-- add_bwu&#45;&gt;add_after -->
<g id="edge3" class="edge">
<title>add_bwu&#45;&gt;add_after</title>
<path fill="none" stroke="black" d="M271,-806.08C271,-798.29 271,-789.27 271,-780.71"/>
<polygon fill="black" stroke="black" points="274.5,-780.99 271,-770.99 267.5,-780.99 274.5,-780.99"/>
</g>
<!-- add_slot -->
<g id="node6" class="node">
<title>add_slot</title>
<polygon fill="#ccf2cc" stroke="black" points="338.62,-688.25 203.38,-688.25 203.38,-644.25 338.62,-644.25 338.62,-688.25"/>
<text text-anchor="middle" x="271" y="-673.8" font-family="Helvetica,sans-Serif" font-size="11.00">process_slot</text>
<text text-anchor="middle" x="271" y="-661.8" font-family="Helvetica,sans-Serif" font-size="11.00">slot(C,N,Ss):{Candidate}</text>
<text text-anchor="middle" x="271" y="-649.8" font-family="Helvetica,sans-Serif" font-size="11.00">(from := operator)</text>
</g>
<!-- add_after&#45;&gt;add_slot -->
<g id="edge4" class="edge">
<title>add_after&#45;&gt;add_slot</title>
<path fill="none" stroke="black" d="M271,-725.08C271,-717.29 271,-708.27 271,-699.71"/>
<polygon fill="black" stroke="black" points="274.5,-699.99 271,-689.99 267.5,-699.99 274.5,-699.99"/>
</g>
<!-- join -->
<g id="node7" class="node">
<title>join</title>
<polygon fill="#fff3cd" stroke="black" points="227.5,-567.75 94.5,-567.75 94.5,-531.75 227.5,-531.75 227.5,-567.75"/>
<text text-anchor="middle" x="161" y="-551.3" font-family="Helvetica,sans-Serif" font-size="11.00">Same literal reached</text>
<text text-anchor="middle" x="161" y="-539.3" font-family="Helvetica,sans-Serif" font-size="11.00">from two proof branches</text>
</g>
<!-- add_slot&#45;&gt;join -->
<g id="edge11" class="edge">
<title>add_slot&#45;&gt;join</title>
<path fill="none" stroke="black" stroke-dasharray="5,2" d="M226.97,-643.97C218.85,-638.86 210.86,-632.92 204.25,-626.25 190.6,-612.48 179.76,-593.53 172.35,-578.07"/>
<polygon fill="black" stroke="black" points="175.73,-577.05 168.4,-569.4 169.36,-579.95 175.73,-577.05"/>
<text text-anchor="middle" x="233.12" y="-616.75" font-family="Helvetica,sans-Serif" font-size="10.00">literal already</text>
<text text-anchor="middle" x="233.12" y="-605.5" font-family="Helvetica,sans-Serif" font-size="10.00">in model?</text>
</g>
<!-- memo_check -->
<g id="node11" class="node">
<title>memo_check</title>
<polygon fill="#e6ccff" stroke="black" points="303.25,-206 156.75,-206 156.75,-170 303.25,-170 303.25,-206"/>
<text text-anchor="middle" x="230" y="-183.55" font-family="Helvetica,sans-Serif" font-size="11.00">Before memoisation lookup</text>
</g>
<!-- add_slot&#45;&gt;memo_check -->
<g id="edge13" class="edge">
<title>add_slot&#45;&gt;memo_check</title>
<path fill="none" stroke="black" stroke-dasharray="5,2" d="M272.47,-644.16C273.95,-621.19 276,-583.38 276,-550.75 276,-550.75 276,-550.75 276,-299.5 276,-269.32 261.19,-237.82 248.38,-216.21"/>
<polygon fill="black" stroke="black" points="251.37,-214.38 243.12,-207.73 245.42,-218.07 251.37,-214.38"/>
<text text-anchor="middle" x="298.12" y="-431.25" font-family="Helvetica,sans-Serif" font-size="10.00">new literal</text>
</g>
<!-- strip_self -->
<g id="node8" class="node">
<title>strip_self</title>
<polygon fill="#fff3cd" stroke="black" points="230.75,-494.75 75.25,-494.75 75.25,-458.75 230.75,-458.75 230.75,-494.75"/>
<text text-anchor="middle" x="153" y="-478.3" font-family="Helvetica,sans-Serif" font-size="11.00">Strip self/1 from old ctx</text>
<text text-anchor="middle" x="153" y="-466.3" font-family="Helvetica,sans-Serif" font-size="11.00">Keep one self/1 from new ctx</text>
</g>
<!-- join&#45;&gt;strip_self -->
<g id="edge5" class="edge">
<title>join&#45;&gt;strip_self</title>
<path fill="none" stroke="black" d="M159.06,-531.56C158.2,-523.89 157.16,-514.64 156.18,-505.99"/>
<polygon fill="black" stroke="black" points="159.69,-505.83 155.09,-496.28 152.73,-506.61 159.69,-505.83"/>
</g>
<!-- feat_unify -->
<g id="node9" class="node">
<title>feat_unify</title>
<polygon fill="#fff3cd" stroke="black" points="241.62,-411.5 16.38,-411.5 16.38,-355.5 241.62,-355.5 241.62,-411.5"/>
<text text-anchor="middle" x="129" y="-397.05" font-family="Helvetica,sans-Serif" font-size="11.00">feature_unification:unify/3</text>
<text text-anchor="middle" x="129" y="-385.05" font-family="Helvetica,sans-Serif" font-size="11.00">&#45; Feature:Value pairs merged by val_hook/3</text>
<text text-anchor="middle" x="129" y="-373.05" font-family="Helvetica,sans-Serif" font-size="11.00">&#45; Plain terms: union (dedup)</text>
<text text-anchor="middle" x="129" y="-361.05" font-family="Helvetica,sans-Serif" font-size="11.00">&#45; Contradictions: merge fails (backtrack)</text>
</g>
<!-- strip_self&#45;&gt;feat_unify -->
<g id="edge6" class="edge">
<title>strip_self&#45;&gt;feat_unify</title>
<path fill="none" stroke="black" d="M148.49,-458.59C145.85,-448.55 142.4,-435.45 139.14,-423.06"/>
<polygon fill="black" stroke="black" points="142.54,-422.23 136.61,-413.45 135.77,-424.01 142.54,-422.23"/>
</g>
<!-- merged -->
<g id="node10" class="node">
<title>merged</title>
<polygon fill="#fff3cd" stroke="black" points="213.12,-318.5 104.88,-318.5 104.88,-282.5 213.12,-282.5 213.12,-318.5"/>
<text text-anchor="middle" x="159" y="-302.05" font-family="Helvetica,sans-Serif" font-size="11.00">Merged context</text>
<text text-anchor="middle" x="159" y="-290.05" font-family="Helvetica,sans-Serif" font-size="11.00">(well&#45;defined meet)</text>
</g>
<!-- feat_unify&#45;&gt;merged -->
<g id="edge7" class="edge">
<title>feat_unify&#45;&gt;merged</title>
<path fill="none" stroke="black" d="M139.16,-355.08C142.2,-346.87 145.53,-337.87 148.59,-329.62"/>
<polygon fill="black" stroke="black" points="151.81,-331 152,-320.41 145.24,-328.57 151.81,-331"/>
</g>
<!-- merged&#45;&gt;memo_check -->
<g id="edge12" class="edge">
<title>merged&#45;&gt;memo_check</title>
<path fill="none" stroke="black" stroke-dasharray="5,2" d="M170.09,-282.23C181.56,-264.39 199.6,-236.31 212.89,-215.63"/>
<polygon fill="black" stroke="black" points="215.7,-217.72 218.17,-207.42 209.82,-213.94 215.7,-217.72"/>
<text text-anchor="middle" x="221.5" y="-255" font-family="Helvetica,sans-Serif" font-size="10.00">continue</text>
<text text-anchor="middle" x="221.5" y="-243.75" font-family="Helvetica,sans-Serif" font-size="10.00">proof search</text>
</g>
<!-- strip_plan -->
<g id="node12" class="node">
<title>strip_plan</title>
<polygon fill="#e6ccff" stroke="black" points="308.5,-133 151.5,-133 151.5,-89 308.5,-89 308.5,-133"/>
<text text-anchor="middle" x="230" y="-118.55" font-family="Helvetica,sans-Serif" font-size="11.00">ctx_strip_planning</text>
<text text-anchor="middle" x="230" y="-106.55" font-family="Helvetica,sans-Serif" font-size="11.00">remove after/1, world_atom/1</text>
<text text-anchor="middle" x="230" y="-94.55" font-family="Helvetica,sans-Serif" font-size="11.00">(ordering is not part of key)</text>
</g>
<!-- memo_check&#45;&gt;strip_plan -->
<g id="edge8" class="edge">
<title>memo_check&#45;&gt;strip_plan</title>
<path fill="none" stroke="black" d="M230,-169.6C230,-162.17 230,-153.23 230,-144.64"/>
<polygon fill="black" stroke="black" points="233.5,-144.83 230,-134.83 226.5,-144.83 233.5,-144.83"/>
</g>
<!-- memo_key -->
<g id="node13" class="node">
<title>memo_key</title>
<polygon fill="#e6ccff" stroke="black" points="283,-52 177,-52 177,-16 283,-16 283,-52"/>
<text text-anchor="middle" x="230" y="-35.55" font-family="Helvetica,sans-Serif" font-size="11.00">Cleaned context</text>
<text text-anchor="middle" x="230" y="-23.55" font-family="Helvetica,sans-Serif" font-size="11.00">used as memo key</text>
</g>
<!-- strip_plan&#45;&gt;memo_key -->
<g id="edge9" class="edge">
<title>strip_plan&#45;&gt;memo_key</title>
<path fill="none" stroke="black" d="M230,-88.71C230,-80.82 230,-71.75 230,-63.33"/>
<polygon fill="black" stroke="black" points="233.5,-63.57 230,-53.57 226.5,-63.57 233.5,-63.57"/>
</g>
</g>
</svg>
