<?xml version="1.0" encoding="UTF-8" standalone="no"?>
<!DOCTYPE svg PUBLIC "-//W3C//DTD SVG 1.1//EN"
 "http://www.w3.org/Graphics/SVG/1.1/DTD/svg11.dtd">
<!-- Generated by graphviz version 12.2.1 (20241206.2353)
 -->
<!-- Title: ctx_vs_con Pages: 1 -->
<svg width="901pt" height="597pt"
 viewBox="0.00 0.00 900.73 596.75" xmlns="http://www.w3.org/2000/svg" xmlns:xlink="http://www.w3.org/1999/xlink">
<g id="graph0" class="graph" transform="scale(1 1) rotate(0) translate(4 592.75)">
<title>ctx_vs_con</title>
<polygon fill="white" stroke="none" points="-4,4 -4,-592.75 896.73,-592.75 896.73,4 -4,4"/>
<g id="clust1" class="cluster">
<title>cluster_context</title>
<polygon fill="#e6f0ff" stroke="#4a86c8" points="8,-314 8,-580.75 190,-580.75 190,-314 8,-314"/>
<text text-anchor="middle" x="76.38" y="-566.3" font-family="Helvetica,sans-Serif" font-size="11.00">Context (per&#45;literal, local)</text>
</g>
<g id="clust2" class="cluster">
<title>cluster_constraint</title>
<polygon fill="#e6ffe6" stroke="#4a8c4a" points="375,-8 375,-273.5 623,-273.5 623,-8 375,-8"/>
<text text-anchor="middle" x="472.25" y="-259.05" font-family="Helvetica,sans-Serif" font-size="11.00">ConstraintsAVL (global, across proof)</text>
</g>
<!-- ctx_list -->
<g id="node1" class="node">
<title>ctx_list</title>
<polygon fill="#cce5ff" stroke="black" points="182.38,-552.75 15.62,-552.75 15.62,-459.75 182.38,-459.75 182.38,-552.75"/>
<text text-anchor="middle" x="99" y="-538.3" font-family="Helvetica,sans-Serif" font-size="11.00">?{[self(...),</text>
<text text-anchor="middle" x="99" y="-526.3" font-family="Helvetica,sans-Serif" font-size="11.00"> &#160;&#160;build_with_use:...,</text>
<text text-anchor="middle" x="99" y="-514.3" font-family="Helvetica,sans-Serif" font-size="11.00"> &#160;&#160;after(...),</text>
<text text-anchor="middle" x="99" y="-502.3" font-family="Helvetica,sans-Serif" font-size="11.00"> &#160;&#160;constraint(cn_domain(...):...)]}</text>
<text text-anchor="middle" x="99" y="-477.3" font-family="Helvetica,sans-Serif" font-size="11.00">Attached to each literal</text>
<text text-anchor="middle" x="99" y="-465.3" font-family="Helvetica,sans-Serif" font-size="11.00">Bounded growth by design</text>
</g>
<!-- ctx_tags -->
<g id="node2" class="node">
<title>ctx_tags</title>
<polygon fill="#cce5ff" stroke="black" points="170.38,-390 27.62,-390 27.62,-322 170.38,-322 170.38,-390"/>
<text text-anchor="middle" x="99" y="-375.55" font-family="Helvetica,sans-Serif" font-size="11.00">Carries:</text>
<text text-anchor="middle" x="99" y="-363.55" font-family="Helvetica,sans-Serif" font-size="11.00">&#45; Provenance (self)</text>
<text text-anchor="middle" x="99" y="-351.55" font-family="Helvetica,sans-Serif" font-size="11.00">&#45; USE requirements (bwu)</text>
<text text-anchor="middle" x="99" y="-339.55" font-family="Helvetica,sans-Serif" font-size="11.00">&#45; Ordering (after)</text>
<text text-anchor="middle" x="99" y="-327.55" font-family="Helvetica,sans-Serif" font-size="11.00">&#45; Inline constraints</text>
</g>
<!-- ctx_list&#45;&gt;ctx_tags -->
<!-- emit -->
<g id="node5" class="node">
<title>emit</title>
<polygon fill="#fff3cd" stroke="black" points="574,-388 420.75,-356 574,-324 727.25,-356 574,-388"/>
<text text-anchor="middle" x="574" y="-357.55" font-family="Helvetica,sans-Serif" font-size="11.00">Context &#45;&gt; Constraint</text>
<text text-anchor="middle" x="574" y="-345.55" font-family="Helvetica,sans-Serif" font-size="11.00">(emit on candidate selection)</text>
</g>
<!-- ctx_list&#45;&gt;emit -->
<g id="edge3" class="edge">
<title>ctx_list&#45;&gt;emit</title>
<path fill="none" stroke="black" d="M182.83,-479.09C273.66,-450.74 417.05,-405.98 502.68,-379.26"/>
<polygon fill="black" stroke="black" points="503.64,-382.62 512.15,-376.3 501.56,-375.94 503.64,-382.62"/>
<text text-anchor="middle" x="434.55" y="-432.25" font-family="Helvetica,sans-Serif" font-size="10.00">selected_cn,</text>
<text text-anchor="middle" x="434.55" y="-421" font-family="Helvetica,sans-Serif" font-size="10.00">cn_domain,</text>
<text text-anchor="middle" x="434.55" y="-409.75" font-family="Helvetica,sans-Serif" font-size="10.00">slot</text>
</g>
<!-- con_avl -->
<g id="node3" class="node">
<title>con_avl</title>
<polygon fill="#ccf2cc" stroke="black" points="615,-245.5 383,-245.5 383,-152.5 615,-152.5 615,-245.5"/>
<text text-anchor="middle" x="499" y="-231.05" font-family="Helvetica,sans-Serif" font-size="11.00">AVL tree:</text>
<text text-anchor="middle" x="499" y="-219.05" font-family="Helvetica,sans-Serif" font-size="11.00"> &#160;selected_cn(C,N) &#45;&gt; ordset([...])</text>
<text text-anchor="middle" x="499" y="-207.05" font-family="Helvetica,sans-Serif" font-size="11.00"> &#160;cn_domain(C,N,Slot) &#45;&gt; version_domain(...)</text>
<text text-anchor="middle" x="499" y="-195.05" font-family="Helvetica,sans-Serif" font-size="11.00"> &#160;selected_slot(C,N) &#45;&gt; ...</text>
<text text-anchor="middle" x="499" y="-183.05" font-family="Helvetica,sans-Serif" font-size="11.00"> &#160;blocked_cn(C,N) &#45;&gt; ...</text>
<text text-anchor="middle" x="499" y="-158.05" font-family="Helvetica,sans-Serif" font-size="11.00">Grows with proof</text>
</g>
<!-- con_purpose -->
<g id="node4" class="node">
<title>con_purpose</title>
<polygon fill="#ccf2cc" stroke="black" points="576.75,-84 421.25,-84 421.25,-16 576.75,-16 576.75,-84"/>
<text text-anchor="middle" x="499" y="-69.55" font-family="Helvetica,sans-Serif" font-size="11.00">Enforces:</text>
<text text-anchor="middle" x="499" y="-57.55" font-family="Helvetica,sans-Serif" font-size="11.00">&#45; One version per CN</text>
<text text-anchor="middle" x="499" y="-45.55" font-family="Helvetica,sans-Serif" font-size="11.00">&#45; Version domain consistency</text>
<text text-anchor="middle" x="499" y="-33.55" font-family="Helvetica,sans-Serif" font-size="11.00">&#45; Slot occupancy</text>
<text text-anchor="middle" x="499" y="-21.55" font-family="Helvetica,sans-Serif" font-size="11.00">&#45; Blocker conflicts</text>
</g>
<!-- con_avl&#45;&gt;con_purpose -->
<!-- inline -->
<g id="node6" class="node">
<title>inline</title>
<polygon fill="#fff3cd" stroke="black" points="755,-94 631,-50 755,-6 879,-50 755,-94"/>
<text text-anchor="middle" x="755" y="-57.55" font-family="Helvetica,sans-Serif" font-size="11.00">Constraint &#45;&gt; Context</text>
<text text-anchor="middle" x="755" y="-45.55" font-family="Helvetica,sans-Serif" font-size="11.00">(inline constraint terms</text>
<text text-anchor="middle" x="755" y="-33.55" font-family="Helvetica,sans-Serif" font-size="11.00">scope child domains)</text>
</g>
<!-- con_avl&#45;&gt;inline -->
<g id="edge5" class="edge">
<title>con_avl&#45;&gt;inline</title>
<path fill="none" stroke="black" d="M578.95,-152.09C617.84,-129.76 663.65,-103.46 698.79,-83.28"/>
<polygon fill="black" stroke="black" points="700.16,-86.53 707.09,-78.51 696.68,-80.46 700.16,-86.53"/>
<text text-anchor="middle" x="665.95" y="-125" font-family="Helvetica,sans-Serif" font-size="10.00">cn_domain</text>
<text text-anchor="middle" x="665.95" y="-113.75" font-family="Helvetica,sans-Serif" font-size="10.00">value</text>
</g>
<!-- guard -->
<g id="node7" class="node">
<title>guard</title>
<polygon fill="#fff3cd" stroke="black" points="300,-388 197.75,-356 300,-324 402.25,-356 300,-388"/>
<text text-anchor="middle" x="300" y="-357.55" font-family="Helvetica,sans-Serif" font-size="11.00">Constraint guard</text>
<text text-anchor="middle" x="300" y="-345.55" font-family="Helvetica,sans-Serif" font-size="11.00">(fires after merge)</text>
</g>
<!-- con_avl&#45;&gt;guard -->
<g id="edge7" class="edge">
<title>con_avl&#45;&gt;guard</title>
<path fill="none" stroke="black" d="M440.19,-245.81C406.95,-271.7 366.39,-303.29 337.47,-325.81"/>
<polygon fill="black" stroke="black" points="335.44,-322.96 329.71,-331.86 339.75,-328.48 335.44,-322.96"/>
</g>
<!-- emit&#45;&gt;con_avl -->
<g id="edge4" class="edge">
<title>emit&#45;&gt;con_avl</title>
<path fill="none" stroke="black" d="M560.24,-326.57C550.7,-306.84 537.66,-279.9 526.07,-255.95"/>
<polygon fill="black" stroke="black" points="529.37,-254.74 521.87,-247.26 523.07,-257.78 529.37,-254.74"/>
</g>
<!-- inline&#45;&gt;ctx_list -->
<g id="edge6" class="edge">
<title>inline&#45;&gt;ctx_list</title>
<path fill="none" stroke="black" d="M766.57,-90.17C784.49,-159.8 809.74,-305.7 736,-390 666.27,-469.71 353.93,-494.52 194.02,-502.06"/>
<polygon fill="black" stroke="black" points="194.11,-498.55 184.29,-502.51 194.43,-505.55 194.11,-498.55"/>
<text text-anchor="middle" x="837.23" y="-288.88" font-family="Helvetica,sans-Serif" font-size="10.00">constraint(cn_domain(...))</text>
</g>
<!-- guard&#45;&gt;con_avl -->
<g id="edge8" class="edge">
<title>guard&#45;&gt;con_avl</title>
<path fill="none" stroke="black" stroke-dasharray="5,2" d="M341.33,-336.48C358.91,-327.75 379.19,-316.5 396,-304 415.54,-289.47 434.88,-271.25 451.44,-254.13"/>
<polygon fill="black" stroke="black" points="453.93,-256.59 458.29,-246.94 448.86,-251.77 453.93,-256.59"/>
<text text-anchor="middle" x="444.75" y="-294.5" font-family="Helvetica,sans-Serif" font-size="10.00">consistent:</text>
<text text-anchor="middle" x="444.75" y="-283.25" font-family="Helvetica,sans-Serif" font-size="10.00">continue</text>
</g>
<!-- conflict -->
<g id="node9" class="node">
<title>conflict</title>
<polygon fill="#f8d7da" stroke="black" points="334.62,-221 235.38,-221 235.38,-177 334.62,-177 334.62,-221"/>
<text text-anchor="middle" x="285" y="-206.55" font-family="Helvetica,sans-Serif" font-size="11.00">Conflict detected:</text>
<text text-anchor="middle" x="285" y="-194.55" font-family="Helvetica,sans-Serif" font-size="11.00">backtrack or</text>
<text text-anchor="middle" x="285" y="-182.55" font-family="Helvetica,sans-Serif" font-size="11.00">prover_reprove</text>
</g>
<!-- guard&#45;&gt;conflict -->
<g id="edge9" class="edge">
<title>guard&#45;&gt;conflict</title>
<path fill="none" stroke="black" d="M297.07,-324.75C294.5,-298.19 290.77,-259.67 288.14,-232.48"/>
<polygon fill="black" stroke="black" points="291.65,-232.35 287.2,-222.73 284.68,-233.02 291.65,-232.35"/>
<text text-anchor="middle" x="320.97" y="-288.88" font-family="Helvetica,sans-Serif" font-size="10.00">inconsistent</text>
</g>
<!-- learn -->
<g id="node8" class="node">
<title>learn</title>
<polygon fill="#fff3cd" stroke="black" points="260,-94 153.25,-50 260,-6 366.75,-50 260,-94"/>
<text text-anchor="middle" x="260" y="-57.55" font-family="Helvetica,sans-Serif" font-size="11.00">Constraint learning</text>
<text text-anchor="middle" x="260" y="-45.55" font-family="Helvetica,sans-Serif" font-size="11.00">(persists across</text>
<text text-anchor="middle" x="260" y="-33.55" font-family="Helvetica,sans-Serif" font-size="11.00">reprove retries)</text>
</g>
<!-- learn&#45;&gt;con_avl -->
<g id="edge11" class="edge">
<title>learn&#45;&gt;con_avl</title>
<path fill="none" stroke="black" stroke-dasharray="5,2" d="M302.12,-76.9C333.24,-96.05 376.65,-122.75 414.79,-146.21"/>
<polygon fill="black" stroke="black" points="412.72,-149.04 423.07,-151.3 416.39,-143.08 412.72,-149.04"/>
<text text-anchor="middle" x="433.93" y="-125" font-family="Helvetica,sans-Serif" font-size="10.00">prover:learn</text>
<text text-anchor="middle" x="433.93" y="-113.75" font-family="Helvetica,sans-Serif" font-size="10.00">(narrowed domain)</text>
</g>
<!-- conflict&#45;&gt;learn -->
<g id="edge10" class="edge">
<title>conflict&#45;&gt;learn</title>
<path fill="none" stroke="black" d="M281.36,-176.62C278.09,-157.36 273.14,-128.25 268.83,-102.9"/>
<polygon fill="black" stroke="black" points="272.28,-102.33 267.15,-93.06 265.38,-103.5 272.28,-102.33"/>
</g>
</g>
</svg>
