<?xml version="1.0" encoding="UTF-8" standalone="no"?>
<!DOCTYPE svg PUBLIC "-//W3C//DTD SVG 1.1//EN"
 "http://www.w3.org/Graphics/SVG/1.1/DTD/svg11.dtd">
<!-- Generated by graphviz version 12.2.1 (20241206.2353)
 -->
<!-- Title: ctx_evolution Pages: 1 -->
<svg width="355pt" height="411pt"
 viewBox="0.00 0.00 355.07 410.72" xmlns="http://www.w3.org/2000/svg" xmlns:xlink="http://www.w3.org/1999/xlink">
<g id="graph0" class="graph" transform="scale(1 1) rotate(0) translate(4 406.72)">
<title>ctx_evolution</title>
<polygon fill="white" stroke="none" points="-4,4 -4,-406.72 351.07,-406.72 351.07,4 -4,4"/>
<g id="clust1" class="cluster">
<title>cluster_legend</title>
</g>
<!-- target -->
<g id="node1" class="node">
<title>target</title>
<polygon fill="#cce5ff" stroke="black" points="215.39,-384.75 128.75,-384.75 128.75,-348.75 215.39,-348.75 215.39,-384.75"/>
<text text-anchor="middle" x="172.07" y="-368.35" font-family="Helvetica Neue" font-size="7.00">target(sys&#45;apps/portage)</text>
<text text-anchor="middle" x="172.07" y="-360.1" font-family="Helvetica Neue" font-size="7.00">Context: {}</text>
</g>
<!-- portage -->
<g id="node2" class="node">
<title>portage</title>
<polygon fill="#cce5ff" stroke="black" points="214.26,-305.78 129.88,-305.78 129.88,-269.78 214.26,-269.78 214.26,-305.78"/>
<text text-anchor="middle" x="172.07" y="-289.38" font-family="Helvetica Neue" font-size="7.00">portage&#45;3.0.77&#45;r3:install</text>
<text text-anchor="middle" x="172.07" y="-281.13" font-family="Helvetica Neue" font-size="7.00">Context: {}</text>
</g>
<!-- target&#45;&gt;portage -->
<g id="edge1" class="edge">
<title>target&#45;&gt;portage</title>
<path fill="none" stroke="black" d="M172.07,-348.28C172.07,-337.36 172.07,-323.18 172.07,-311.4"/>
<polygon fill="black" stroke="black" points="173.47,-311.69 172.07,-307.69 170.67,-311.69 173.47,-311.69"/>
<text text-anchor="middle" x="186.69" y="-325.08" font-family="Helvetica Neue" font-size="6.00">select best</text>
<text text-anchor="middle" x="186.69" y="-317.58" font-family="Helvetica Neue" font-size="6.00">candidate</text>
</g>
<!-- python_dep -->
<g id="node3" class="node">
<title>python_dep</title>
<polygon fill="#d4edda" stroke="black" points="164.64,-234.78 55.5,-234.78 55.5,-188.02 164.64,-188.02 164.64,-234.78"/>
<text text-anchor="middle" x="110.07" y="-225.25" font-family="Helvetica Neue" font-size="7.00">grouped_dep(python):install</text>
<text text-anchor="middle" x="110.07" y="-209" font-family="Helvetica Neue" font-size="7.00">self(portage://portage&#45;3.0.77&#45;r3)</text>
<text text-anchor="middle" x="110.07" y="-200.75" font-family="Helvetica Neue" font-size="7.00">bwu:use_state([ssl,threads],[])</text>
<text text-anchor="middle" x="110.07" y="-192.5" font-family="Helvetica Neue" font-size="7.00">after(portage:install)</text>
</g>
<!-- portage&#45;&gt;python_dep -->
<g id="edge2" class="edge">
<title>portage&#45;&gt;python_dep</title>
<path fill="none" stroke="black" d="M150.65,-269.51C147.29,-266.42 143.98,-263.12 141.07,-259.78 135.61,-253.52 130.38,-246.23 125.82,-239.28"/>
<polygon fill="black" stroke="black" points="127.24,-238.88 123.89,-236.28 124.88,-240.4 127.24,-238.88"/>
<text text-anchor="middle" x="166.57" y="-254.08" font-family="Helvetica Neue" font-size="6.00">DEPEND</text>
<text text-anchor="middle" x="166.57" y="-246.58" font-family="Helvetica Neue" font-size="6.00">python[ssl,threads]</text>
</g>
<!-- tar_dep -->
<g id="node4" class="node">
<title>tar_dep</title>
<polygon fill="#fff3cd" stroke="black" points="287.64,-234.78 178.5,-234.78 178.5,-188.02 287.64,-188.02 287.64,-234.78"/>
<text text-anchor="middle" x="233.07" y="-225.25" font-family="Helvetica Neue" font-size="7.00">grouped_dep(tar):install</text>
<text text-anchor="middle" x="233.07" y="-209" font-family="Helvetica Neue" font-size="7.00">self(portage://portage&#45;3.0.77&#45;r3)</text>
<text text-anchor="middle" x="233.07" y="-200.75" font-family="Helvetica Neue" font-size="7.00">bwu:use_state([],[])</text>
<text text-anchor="middle" x="233.07" y="-192.5" font-family="Helvetica Neue" font-size="7.00">after_only(portage:install)</text>
</g>
<!-- portage&#45;&gt;tar_dep -->
<g id="edge3" class="edge">
<title>portage&#45;&gt;tar_dep</title>
<path fill="none" stroke="black" d="M186.22,-269.53C193.55,-260.59 202.67,-249.47 210.9,-239.43"/>
<polygon fill="black" stroke="black" points="211.96,-240.35 213.41,-236.37 209.8,-238.57 211.96,-240.35"/>
<text text-anchor="middle" x="220.47" y="-254.08" font-family="Helvetica Neue" font-size="6.00">RDEPEND</text>
<text text-anchor="middle" x="220.47" y="-246.58" font-family="Helvetica Neue" font-size="6.00">tar</text>
</g>
<!-- python -->
<g id="node5" class="node">
<title>python</title>
<polygon fill="#d4edda" stroke="black" points="171.76,-153.02 48.37,-153.02 48.37,-90.01 171.76,-90.01 171.76,-153.02"/>
<text text-anchor="middle" x="110.07" y="-143.49" font-family="Helvetica Neue" font-size="7.00">python&#45;3.13.2:install</text>
<text text-anchor="middle" x="110.07" y="-127.24" font-family="Helvetica Neue" font-size="7.00">self(portage://portage&#45;3.0.77&#45;r3)</text>
<text text-anchor="middle" x="110.07" y="-118.99" font-family="Helvetica Neue" font-size="7.00">bwu:use_state([ssl,threads],[])</text>
<text text-anchor="middle" x="110.07" y="-110.74" font-family="Helvetica Neue" font-size="7.00">after(portage:install)</text>
<text text-anchor="middle" x="110.07" y="-94.49" font-family="Helvetica Neue" font-size="7.00">emits: selected_cn(dev&#45;lang,python)</text>
</g>
<!-- python_dep&#45;&gt;python -->
<g id="edge4" class="edge">
<title>python_dep&#45;&gt;python</title>
<path fill="none" stroke="black" d="M110.07,-187.77C110.07,-178.93 110.07,-168.57 110.07,-158.74"/>
<polygon fill="black" stroke="black" points="111.47,-158.86 110.07,-154.86 108.67,-158.86 111.47,-158.86"/>
<text text-anchor="middle" x="123.19" y="-172.32" font-family="Helvetica Neue" font-size="6.00">candidate</text>
<text text-anchor="middle" x="123.19" y="-164.82" font-family="Helvetica Neue" font-size="6.00">selected</text>
</g>
<!-- openssl_dep -->
<g id="node6" class="node">
<title>openssl_dep</title>
<polygon fill="#d4edda" stroke="black" points="100.14,-55.01 0,-55.01 0,0 100.14,0 100.14,-55.01"/>
<text text-anchor="middle" x="50.07" y="-45.48" font-family="Helvetica Neue" font-size="7.00">grouped_dep(openssl):install</text>
<text text-anchor="middle" x="50.07" y="-29.23" font-family="Helvetica Neue" font-size="7.00">self(portage://python&#45;3.13.2)</text>
<text text-anchor="middle" x="50.07" y="-20.98" font-family="Helvetica Neue" font-size="7.00">bwu:use_state([],[])</text>
<text text-anchor="middle" x="50.07" y="-12.73" font-family="Helvetica Neue" font-size="7.00">slot(dev&#45;libs,openssl,0/3.4.1)</text>
<text text-anchor="middle" x="50.07" y="-4.48" font-family="Helvetica Neue" font-size="7.00">after(portage:install)</text>
</g>
<!-- python&#45;&gt;openssl_dep -->
<g id="edge5" class="edge">
<title>python&#45;&gt;openssl_dep</title>
<path fill="none" stroke="black" d="M89.92,-89.62C83.72,-80.11 76.89,-69.63 70.66,-60.07"/>
<polygon fill="black" stroke="black" points="71.83,-59.32 68.48,-56.73 69.49,-60.85 71.83,-59.32"/>
<text text-anchor="middle" x="94.99" y="-74.31" font-family="Helvetica Neue" font-size="6.00">DEPEND</text>
<text text-anchor="middle" x="94.99" y="-66.81" font-family="Helvetica Neue" font-size="6.00">openssl:=</text>
</g>
<!-- mime_dep -->
<g id="node7" class="node">
<title>mime_dep</title>
<polygon fill="#fff3cd" stroke="black" points="227.51,-50.88 114.62,-50.88 114.62,-4.12 227.51,-4.12 227.51,-50.88"/>
<text text-anchor="middle" x="171.07" y="-41.35" font-family="Helvetica Neue" font-size="7.00">grouped_dep(mime&#45;types):install</text>
<text text-anchor="middle" x="171.07" y="-25.1" font-family="Helvetica Neue" font-size="7.00">self(portage://python&#45;3.13.2)</text>
<text text-anchor="middle" x="171.07" y="-16.85" font-family="Helvetica Neue" font-size="7.00">bwu:use_state([],[])</text>
<text text-anchor="middle" x="171.07" y="-8.6" font-family="Helvetica Neue" font-size="7.00">after_only(python:install)</text>
</g>
<!-- python&#45;&gt;mime_dep -->
<g id="edge6" class="edge">
<title>python&#45;&gt;mime_dep</title>
<path fill="none" stroke="black" d="M130.55,-89.62C137.82,-78.66 145.94,-66.41 153,-55.77"/>
<polygon fill="black" stroke="black" points="154.07,-56.68 155.11,-52.58 151.73,-55.14 154.07,-56.68"/>
<text text-anchor="middle" x="162.16" y="-74.31" font-family="Helvetica Neue" font-size="6.00">RDEPEND</text>
<text text-anchor="middle" x="162.16" y="-66.81" font-family="Helvetica Neue" font-size="6.00">mime&#45;types</text>
</g>
<!-- leg -->
<g id="node8" class="node">
<title>leg</title>
<polygon fill="white" stroke="none" points="330.76,-386.72 231.38,-386.72 231.38,-346.78 330.76,-346.78 330.76,-386.72"/>
<polygon fill="#cce5ff" stroke="none" points="233.82,-373.5 233.82,-385 243.82,-385 243.82,-373.5 233.82,-373.5"/>
<text text-anchor="start" x="238.07" y="-377.3" font-family="Helvetica Neue" font-size="6.00"> </text>
<text text-anchor="start" x="246.82" y="-377.3" font-family="Helvetica Neue" font-size="6.00"> root / no context</text>
<polygon fill="#d4edda" stroke="none" points="233.82,-361 233.82,-372.5 243.82,-372.5 243.82,-361 233.82,-361"/>
<text text-anchor="start" x="238.07" y="-364.8" font-family="Helvetica Neue" font-size="6.00"> </text>
<text text-anchor="start" x="246.82" y="-364.8" font-family="Helvetica Neue" font-size="6.00"> DEPEND (after propagates)</text>
<polygon fill="#fff3cd" stroke="none" points="233.82,-348.5 233.82,-360 243.82,-360 243.82,-348.5 233.82,-348.5"/>
<text text-anchor="start" x="238.07" y="-352.3" font-family="Helvetica Neue" font-size="6.00"> </text>
<text text-anchor="start" x="246.82" y="-352.3" font-family="Helvetica Neue" font-size="6.00"> RDEPEND (after_only, stops)</text>
</g>
</g>
</svg>
