<?xml version="1.0" encoding="UTF-8" standalone="no"?>
<!DOCTYPE svg PUBLIC "-//W3C//DTD SVG 1.1//EN"
 "http://www.w3.org/Graphics/SVG/1.1/DTD/svg11.dtd">
<!-- Generated by graphviz version 12.2.1 (20241206.2353)
 -->
<!-- Title: portage_loop Pages: 1 -->
<svg width="205pt" height="383pt"
 viewBox="0.00 0.00 205.01 382.50" xmlns="http://www.w3.org/2000/svg" xmlns:xlink="http://www.w3.org/1999/xlink">
<g id="graph0" class="graph" transform="scale(1 1) rotate(0) translate(4 378.5)">
<title>portage_loop</title>
<polygon fill="white" stroke="none" points="-4,4 -4,-378.5 201.01,-378.5 201.01,4 -4,4"/>
<!-- start -->
<g id="node1" class="node">
<title>start</title>
<ellipse fill="#e2e3e5" stroke="black" cx="153.69" cy="-356.5" rx="33.17" ry="18"/>
<text text-anchor="middle" x="153.69" y="-358.1" font-family="Helvetica Neue" font-size="7.00">Start</text>
<text text-anchor="middle" x="153.69" y="-349.85" font-family="Helvetica Neue" font-size="7.00">(empty graph)</text>
</g>
<!-- build -->
<g id="node2" class="node">
<title>build</title>
<polygon fill="#cce5ff" stroke="black" points="197.01,-321.5 110.38,-321.5 110.38,-285.5 197.01,-285.5 197.01,-321.5"/>
<text text-anchor="middle" x="153.69" y="-309.23" font-family="Helvetica Neue" font-size="7.00">Build dependency graph</text>
<text text-anchor="middle" x="153.69" y="-300.98" font-family="Helvetica Neue" font-size="7.00">(pick newest stable</text>
<text text-anchor="middle" x="153.69" y="-292.73" font-family="Helvetica Neue" font-size="7.00">for each dep)</text>
</g>
<!-- start&#45;&gt;build -->
<g id="edge1" class="edge">
<title>start&#45;&gt;build</title>
<path fill="none" stroke="black" d="M153.69,-338.23C153.69,-334.66 153.69,-330.85 153.69,-327.12"/>
<polygon fill="black" stroke="black" points="155.1,-327.26 153.7,-323.26 152.3,-327.26 155.1,-327.26"/>
</g>
<!-- conflict -->
<g id="node3" class="node">
<title>conflict</title>
<polygon fill="#fff3cd" stroke="black" points="121.69,-268.5 80.86,-250.5 121.69,-232.5 162.53,-250.5 121.69,-268.5"/>
<text text-anchor="middle" x="121.69" y="-252.1" font-family="Helvetica Neue" font-size="7.00">Slot conflict</text>
<text text-anchor="middle" x="121.69" y="-243.85" font-family="Helvetica Neue" font-size="7.00">detected?</text>
</g>
<!-- build&#45;&gt;conflict -->
<g id="edge2" class="edge">
<title>build&#45;&gt;conflict</title>
<path fill="none" stroke="black" d="M142.86,-285.23C139.7,-280.19 136.23,-274.66 133.03,-269.57"/>
<polygon fill="black" stroke="black" points="134.31,-268.97 131,-266.32 131.94,-270.46 134.31,-268.97"/>
</g>
<!-- mask -->
<g id="node4" class="node">
<title>mask</title>
<polygon fill="#f8d7da" stroke="black" points="69.39,-209 0,-209 0,-173 69.39,-173 69.39,-209"/>
<text text-anchor="middle" x="34.69" y="-192.6" font-family="Helvetica Neue" font-size="7.00">Mask ONE</text>
<text text-anchor="middle" x="34.69" y="-184.35" font-family="Helvetica Neue" font-size="7.00">conflicting package</text>
</g>
<!-- conflict&#45;&gt;mask -->
<g id="edge4" class="edge">
<title>conflict&#45;&gt;mask</title>
<path fill="none" stroke="black" d="M106.14,-239.22C94.9,-231.79 79.34,-221.51 65.61,-212.43"/>
<polygon fill="black" stroke="black" points="66.41,-211.28 62.3,-210.24 64.86,-213.62 66.41,-211.28"/>
<text text-anchor="middle" x="87.9" y="-218.8" font-family="Helvetica Neue" font-size="6.00">yes</text>
</g>
<!-- done -->
<g id="node7" class="node">
<title>done</title>
<ellipse fill="#d4edda" stroke="black" cx="121.69" cy="-191" rx="38.9" ry="18"/>
<text text-anchor="middle" x="121.69" y="-192.6" font-family="Helvetica Neue" font-size="7.00">Done</text>
<text text-anchor="middle" x="121.69" y="-184.35" font-family="Helvetica Neue" font-size="7.00">(graph complete)</text>
</g>
<!-- conflict&#45;&gt;done -->
<g id="edge3" class="edge">
<title>conflict&#45;&gt;done</title>
<path fill="none" stroke="black" d="M121.69,-232.25C121.69,-226.68 121.69,-220.41 121.69,-214.52"/>
<polygon fill="black" stroke="black" points="123.1,-214.75 121.7,-210.75 120.3,-214.75 123.1,-214.75"/>
<text text-anchor="middle" x="125.07" y="-218.8" font-family="Helvetica Neue" font-size="6.00">no</text>
</g>
<!-- rebuild -->
<g id="node5" class="node">
<title>rebuild</title>
<polygon fill="#f8d7da" stroke="black" points="142.89,-156 70.5,-156 70.5,-120 142.89,-120 142.89,-156"/>
<text text-anchor="middle" x="106.69" y="-143.72" font-family="Helvetica Neue" font-size="7.00">Discard entire graph</text>
<text text-anchor="middle" x="106.69" y="-135.47" font-family="Helvetica Neue" font-size="7.00">build from scratch</text>
<text text-anchor="middle" x="106.69" y="-127.22" font-family="Helvetica Neue" font-size="7.00">(masks accumulate)</text>
</g>
<!-- mask&#45;&gt;rebuild -->
<g id="edge5" class="edge">
<title>mask&#45;&gt;rebuild</title>
<path fill="none" stroke="black" d="M59.07,-172.73C65.17,-168.41 71.77,-163.74 78.05,-159.29"/>
<polygon fill="black" stroke="black" points="78.65,-160.58 81.11,-157.12 77.04,-158.29 78.65,-160.58"/>
</g>
<!-- limit -->
<g id="node6" class="node">
<title>limit</title>
<polygon fill="#fff3cd" stroke="black" points="146.69,-103 109.55,-85 146.69,-67 183.84,-85 146.69,-103"/>
<text text-anchor="middle" x="146.69" y="-82.47" font-family="Helvetica Neue" font-size="7.00">Retries &lt; N?</text>
</g>
<!-- rebuild&#45;&gt;limit -->
<g id="edge6" class="edge">
<title>rebuild&#45;&gt;limit</title>
<path fill="none" stroke="black" d="M120.24,-119.73C124.57,-114.21 129.36,-108.1 133.66,-102.62"/>
<polygon fill="black" stroke="black" points="134.53,-103.78 135.9,-99.76 132.33,-102.05 134.53,-103.78"/>
</g>
<!-- limit&#45;&gt;build -->
<g id="edge7" class="edge">
<title>limit&#45;&gt;build</title>
<path fill="none" stroke="black" d="M161.59,-96.31C172.96,-105.51 186.69,-120.12 186.69,-137 186.69,-251.5 186.69,-251.5 186.69,-251.5 186.69,-262.38 181.34,-272.77 174.94,-281.3"/>
<polygon fill="black" stroke="black" points="174.07,-280.14 172.68,-284.14 176.27,-281.88 174.07,-280.14"/>
<text text-anchor="middle" x="191.19" y="-189.05" font-family="Helvetica Neue" font-size="6.00">yes</text>
</g>
<!-- fail -->
<g id="node8" class="node">
<title>fail</title>
<ellipse fill="#f8d7da" stroke="black" cx="146.69" cy="-18" rx="32.69" ry="18"/>
<text text-anchor="middle" x="146.69" y="-19.6" font-family="Helvetica Neue" font-size="7.00">Give up</text>
<text text-anchor="middle" x="146.69" y="-11.35" font-family="Helvetica Neue" font-size="7.00">(unresolvable)</text>
</g>
<!-- limit&#45;&gt;fail -->
<g id="edge8" class="edge">
<title>limit&#45;&gt;fail</title>
<path fill="none" stroke="black" d="M146.69,-66.58C146.69,-59 146.69,-50.02 146.69,-41.91"/>
<polygon fill="black" stroke="black" points="148.1,-41.98 146.7,-37.98 145.3,-41.98 148.1,-41.98"/>
<text text-anchor="middle" x="160.94" y="-53.3" font-family="Helvetica Neue" font-size="6.00">no</text>
<text text-anchor="middle" x="160.94" y="-45.8" font-family="Helvetica Neue" font-size="6.00">(default 20)</text>
</g>
</g>
</svg>
