<?xml version="1.0" encoding="UTF-8" standalone="no"?>
<!DOCTYPE svg PUBLIC "-//W3C//DTD SVG 1.1//EN"
 "http://www.w3.org/Graphics/SVG/1.1/DTD/svg11.dtd">
<!-- Generated by graphviz version 12.2.1 (20241206.2353)
 -->
<!-- Title: portage_ng_loop Pages: 1 -->
<svg width="222pt" height="323pt"
 viewBox="0.00 0.00 221.94 323.00" xmlns="http://www.w3.org/2000/svg" xmlns:xlink="http://www.w3.org/1999/xlink">
<g id="graph0" class="graph" transform="scale(1 1) rotate(0) translate(4 319)">
<title>portage_ng_loop</title>
<polygon fill="white" stroke="none" points="-4,4 -4,-319 217.94,-319 217.94,4 -4,4"/>
<!-- start -->
<g id="node1" class="node">
<title>start</title>
<ellipse fill="#e2e3e5" stroke="black" cx="152.69" cy="-297" rx="32.69" ry="18"/>
<text text-anchor="middle" x="152.69" y="-298.6" font-family="Helvetica Neue" font-size="7.00">Start</text>
<text text-anchor="middle" x="152.69" y="-290.35" font-family="Helvetica Neue" font-size="7.00">(proof search)</text>
</g>
<!-- prove -->
<g id="node2" class="node">
<title>prove</title>
<polygon fill="#cce5ff" stroke="black" points="187.01,-262 118.38,-262 118.38,-226 187.01,-226 187.01,-262"/>
<text text-anchor="middle" x="152.69" y="-249.72" font-family="Helvetica Neue" font-size="7.00">Depth&#45;first proving</text>
<text text-anchor="middle" x="152.69" y="-241.47" font-family="Helvetica Neue" font-size="7.00">select candidate</text>
<text text-anchor="middle" x="152.69" y="-233.22" font-family="Helvetica Neue" font-size="7.00">add constraints</text>
</g>
<!-- start&#45;&gt;prove -->
<g id="edge1" class="edge">
<title>start&#45;&gt;prove</title>
<path fill="none" stroke="black" d="M152.69,-278.73C152.69,-275.16 152.69,-271.35 152.69,-267.62"/>
<polygon fill="black" stroke="black" points="154.1,-267.76 152.7,-263.76 151.3,-267.76 154.1,-267.76"/>
</g>
<!-- guard -->
<g id="node3" class="node">
<title>guard</title>
<polygon fill="#fff3cd" stroke="black" points="120.69,-209 79.86,-191 120.69,-173 161.53,-191 120.69,-209"/>
<text text-anchor="middle" x="120.69" y="-192.6" font-family="Helvetica Neue" font-size="7.00">Constraint</text>
<text text-anchor="middle" x="120.69" y="-184.35" font-family="Helvetica Neue" font-size="7.00">guard fires?</text>
</g>
<!-- prove&#45;&gt;guard -->
<g id="edge2" class="edge">
<title>prove&#45;&gt;guard</title>
<path fill="none" stroke="black" d="M141.86,-225.73C138.7,-220.69 135.23,-215.16 132.03,-210.07"/>
<polygon fill="black" stroke="black" points="133.31,-209.47 130,-206.82 130.94,-210.96 133.31,-209.47"/>
</g>
<!-- learn -->
<g id="node4" class="node">
<title>learn</title>
<polygon fill="#d4edda" stroke="black" points="69.39,-142 0,-142 0,-106 69.39,-106 69.39,-142"/>
<text text-anchor="middle" x="34.69" y="-129.72" font-family="Helvetica Neue" font-size="7.00">Learn domain</text>
<text text-anchor="middle" x="34.69" y="-121.47" font-family="Helvetica Neue" font-size="7.00">constraint</text>
<text text-anchor="middle" x="34.69" y="-113.22" font-family="Helvetica Neue" font-size="7.00">(narrow version set)</text>
</g>
<!-- guard&#45;&gt;learn -->
<g id="edge4" class="edge">
<title>guard&#45;&gt;learn</title>
<path fill="none" stroke="black" d="M106.11,-178.97C94.02,-169.84 76.5,-156.6 61.85,-145.52"/>
<polygon fill="black" stroke="black" points="63.04,-144.67 59,-143.37 61.35,-146.9 63.04,-144.67"/>
<text text-anchor="middle" x="95.15" y="-155.55" font-family="Helvetica Neue" font-size="6.00">conflict</text>
</g>
<!-- done -->
<g id="node7" class="node">
<title>done</title>
<ellipse fill="#d4edda" stroke="black" cx="120.69" cy="-124" rx="37.94" ry="18"/>
<text text-anchor="middle" x="120.69" y="-125.6" font-family="Helvetica Neue" font-size="7.00">Done</text>
<text text-anchor="middle" x="120.69" y="-117.35" font-family="Helvetica Neue" font-size="7.00">(proof complete)</text>
</g>
<!-- guard&#45;&gt;done -->
<g id="edge3" class="edge">
<title>guard&#45;&gt;done</title>
<path fill="none" stroke="black" d="M120.69,-172.58C120.69,-165 120.69,-156.02 120.69,-147.91"/>
<polygon fill="black" stroke="black" points="122.1,-147.98 120.7,-143.98 119.3,-147.98 122.1,-147.98"/>
<text text-anchor="middle" x="143.57" y="-159.3" font-family="Helvetica Neue" font-size="6.00">no conflict</text>
<text text-anchor="middle" x="143.57" y="-151.8" font-family="Helvetica Neue" font-size="6.00">(99%+ of targets)</text>
</g>
<!-- reject -->
<g id="node5" class="node">
<title>reject</title>
<polygon fill="#f8d7da" stroke="black" points="138.69,-89 84.69,-89 84.69,-53 138.69,-53 138.69,-89"/>
<text text-anchor="middle" x="111.69" y="-76.72" font-family="Helvetica Neue" font-size="7.00">Add reject</text>
<text text-anchor="middle" x="111.69" y="-68.47" font-family="Helvetica Neue" font-size="7.00">(skip this</text>
<text text-anchor="middle" x="111.69" y="-60.23" font-family="Helvetica Neue" font-size="7.00">candidate)</text>
</g>
<!-- learn&#45;&gt;reject -->
<g id="edge5" class="edge">
<title>learn&#45;&gt;reject</title>
<path fill="none" stroke="black" d="M60.76,-105.73C67.22,-101.46 74.19,-96.84 80.84,-92.43"/>
<polygon fill="black" stroke="black" points="81.57,-93.63 84.13,-90.26 80.02,-91.3 81.57,-93.63"/>
</g>
<!-- retry -->
<g id="node6" class="node">
<title>retry</title>
<polygon fill="#d4edda" stroke="black" points="177.51,-36 117.88,-36 117.88,0 177.51,0 177.51,-36"/>
<text text-anchor="middle" x="147.69" y="-23.73" font-family="Helvetica Neue" font-size="7.00">Retry subtree</text>
<text text-anchor="middle" x="147.69" y="-15.47" font-family="Helvetica Neue" font-size="7.00">(learned domain</text>
<text text-anchor="middle" x="147.69" y="-7.22" font-family="Helvetica Neue" font-size="7.00">already applied)</text>
</g>
<!-- reject&#45;&gt;retry -->
<g id="edge6" class="edge">
<title>reject&#45;&gt;retry</title>
<path fill="none" stroke="black" d="M123.88,-52.73C126.64,-48.83 129.6,-44.64 132.46,-40.58"/>
<polygon fill="black" stroke="black" points="133.48,-41.56 134.65,-37.49 131.2,-39.95 133.48,-41.56"/>
</g>
<!-- retry&#45;&gt;prove -->
<g id="edge7" class="edge">
<title>retry&#45;&gt;prove</title>
<path fill="none" stroke="black" d="M168.36,-36.23C176.83,-45.25 184.69,-57.09 184.69,-70 184.69,-192 184.69,-192 184.69,-192 184.69,-202.78 179.5,-213.15 173.3,-221.69"/>
<polygon fill="black" stroke="black" points="172.44,-220.51 171.12,-224.53 174.66,-222.22 172.44,-220.51"/>
<text text-anchor="middle" x="199.32" y="-125.8" font-family="Helvetica Neue" font-size="6.00">narrowed</text>
<text text-anchor="middle" x="199.32" y="-118.3" font-family="Helvetica Neue" font-size="6.00">candidates</text>
</g>
</g>
</svg>
