<?xml version="1.0" encoding="UTF-8" standalone="no"?>
<!DOCTYPE svg PUBLIC "-//W3C//DTD SVG 1.1//EN"
 "http://www.w3.org/Graphics/SVG/1.1/DTD/svg11.dtd">
<!-- Generated by graphviz version 12.2.1 (20241206.2353)
 -->
<!-- Title: paludis_loop Pages: 1 -->
<svg width="242pt" height="341pt"
 viewBox="0.00 0.00 241.57 340.52" xmlns="http://www.w3.org/2000/svg" xmlns:xlink="http://www.w3.org/1999/xlink">
<g id="graph0" class="graph" transform="scale(1 1) rotate(0) translate(4 336.52)">
<title>paludis_loop</title>
<polygon fill="white" stroke="none" points="-4,4 -4,-336.52 237.57,-336.52 237.57,4 -4,4"/>
<!-- start -->
<g id="node1" class="node">
<title>start</title>
<ellipse fill="#e2e3e5" stroke="black" cx="148.32" cy="-314.52" rx="37.47" ry="18"/>
<text text-anchor="middle" x="148.32" y="-316.12" font-family="Helvetica Neue" font-size="7.00">Start</text>
<text text-anchor="middle" x="148.32" y="-307.87" font-family="Helvetica Neue" font-size="7.00">(empty resolver)</text>
</g>
<!-- resolve -->
<g id="node2" class="node">
<title>resolve</title>
<polygon fill="#cce5ff" stroke="black" points="189.01,-279.52 107.62,-279.52 107.62,-243.52 189.01,-243.52 189.01,-279.52"/>
<text text-anchor="middle" x="148.32" y="-267.25" font-family="Helvetica Neue" font-size="7.00">Add dependencies</text>
<text text-anchor="middle" x="148.32" y="-259" font-family="Helvetica Neue" font-size="7.00">accumulate constraints</text>
<text text-anchor="middle" x="148.32" y="-250.74" font-family="Helvetica Neue" font-size="7.00">per package+slot</text>
</g>
<!-- start&#45;&gt;resolve -->
<g id="edge1" class="edge">
<title>start&#45;&gt;resolve</title>
<path fill="none" stroke="black" d="M148.32,-296.25C148.32,-292.68 148.32,-288.87 148.32,-285.14"/>
<polygon fill="black" stroke="black" points="149.72,-285.28 148.32,-281.28 146.92,-285.28 149.72,-285.28"/>
</g>
<!-- conflict -->
<g id="node3" class="node">
<title>conflict</title>
<polygon fill="#fff3cd" stroke="black" points="110.32,-226.52 54.43,-196.01 110.32,-165.5 166.21,-196.01 110.32,-226.52"/>
<text text-anchor="middle" x="110.32" y="-201.73" font-family="Helvetica Neue" font-size="7.00">New constraint</text>
<text text-anchor="middle" x="110.32" y="-193.48" font-family="Helvetica Neue" font-size="7.00">conflicts with</text>
<text text-anchor="middle" x="110.32" y="-185.23" font-family="Helvetica Neue" font-size="7.00">decision?</text>
</g>
<!-- resolve&#45;&gt;conflict -->
<g id="edge2" class="edge">
<title>resolve&#45;&gt;conflict</title>
<path fill="none" stroke="black" d="M137.94,-243.17C134.37,-237.2 130.28,-230.37 126.36,-223.83"/>
<polygon fill="black" stroke="black" points="127.72,-223.37 124.47,-220.66 125.32,-224.81 127.72,-223.37"/>
</g>
<!-- find -->
<g id="node4" class="node">
<title>find</title>
<polygon fill="#d4edda" stroke="black" points="86.64,-142 0,-142 0,-106 86.64,-106 86.64,-142"/>
<text text-anchor="middle" x="43.32" y="-125.6" font-family="Helvetica Neue" font-size="7.00">Evaluate ALL constraints</text>
<text text-anchor="middle" x="43.32" y="-117.35" font-family="Helvetica Neue" font-size="7.00">find correct candidate</text>
</g>
<!-- conflict&#45;&gt;find -->
<g id="edge4" class="edge">
<title>conflict&#45;&gt;find</title>
<path fill="none" stroke="black" d="M91.66,-175.51C82.98,-166.45 72.65,-155.64 63.76,-146.36"/>
<polygon fill="black" stroke="black" points="64.88,-145.5 61.1,-143.58 62.85,-147.44 64.88,-145.5"/>
<text text-anchor="middle" x="77.31" y="-151.8" font-family="Helvetica Neue" font-size="6.00">yes</text>
</g>
<!-- done -->
<g id="node7" class="node">
<title>done</title>
<ellipse fill="#d4edda" stroke="black" cx="130.32" cy="-124" rx="30.31" ry="18"/>
<text text-anchor="middle" x="130.32" y="-125.6" font-family="Helvetica Neue" font-size="7.00">Done</text>
<text text-anchor="middle" x="130.32" y="-117.35" font-family="Helvetica Neue" font-size="7.00">(all resolved)</text>
</g>
<!-- conflict&#45;&gt;done -->
<g id="edge3" class="edge">
<title>conflict&#45;&gt;done</title>
<path fill="none" stroke="black" d="M117.65,-169.34C119.71,-162.12 121.94,-154.34 123.94,-147.33"/>
<polygon fill="black" stroke="black" points="125.25,-147.84 125,-143.61 122.56,-147.07 125.25,-147.84"/>
<text text-anchor="middle" x="126.07" y="-151.8" font-family="Helvetica Neue" font-size="6.00">no</text>
</g>
<!-- preset -->
<g id="node5" class="node">
<title>preset</title>
<polygon fill="#d4edda" stroke="black" points="144.39,-89 74.25,-89 74.25,-53 144.39,-53 144.39,-89"/>
<text text-anchor="middle" x="109.32" y="-76.72" font-family="Helvetica Neue" font-size="7.00">Create preload:</text>
<text text-anchor="middle" x="109.32" y="-68.47" font-family="Helvetica Neue" font-size="7.00">&quot;use this candidate</text>
<text text-anchor="middle" x="109.32" y="-60.23" font-family="Helvetica Neue" font-size="7.00">next time&quot;</text>
</g>
<!-- find&#45;&gt;preset -->
<g id="edge5" class="edge">
<title>find&#45;&gt;preset</title>
<path fill="none" stroke="black" d="M65.66,-105.73C71.15,-101.5 77.07,-96.92 82.73,-92.55"/>
<polygon fill="black" stroke="black" points="83.49,-93.73 85.8,-90.17 81.78,-91.51 83.49,-93.73"/>
</g>
<!-- restart -->
<g id="node6" class="node">
<title>restart</title>
<polygon fill="#fff3cd" stroke="black" points="177.14,-36 117.5,-36 117.5,0 177.14,0 177.14,-36"/>
<text text-anchor="middle" x="147.32" y="-23.73" font-family="Helvetica Neue" font-size="7.00">Discard resolver</text>
<text text-anchor="middle" x="147.32" y="-15.47" font-family="Helvetica Neue" font-size="7.00">create fresh one</text>
<text text-anchor="middle" x="147.32" y="-7.22" font-family="Helvetica Neue" font-size="7.00">(with preloads)</text>
</g>
<!-- preset&#45;&gt;restart -->
<g id="edge6" class="edge">
<title>preset&#45;&gt;restart</title>
<path fill="none" stroke="black" d="M122.19,-52.73C125.09,-48.83 128.22,-44.64 131.24,-40.58"/>
<polygon fill="black" stroke="black" points="132.3,-41.51 133.56,-37.46 130.05,-39.83 132.3,-41.51"/>
</g>
<!-- restart&#45;&gt;resolve -->
<g id="edge7" class="edge">
<title>restart&#45;&gt;resolve</title>
<path fill="none" stroke="black" d="M169.55,-36.47C178.31,-45.39 186.32,-57.07 186.32,-70 186.32,-197.01 186.32,-197.01 186.32,-197.01 186.32,-212.57 177.81,-227.63 168.85,-239.17"/>
<polygon fill="black" stroke="black" points="167.92,-238.09 166.49,-242.08 170.1,-239.85 167.92,-238.09"/>
<text text-anchor="middle" x="209.94" y="-125.8" font-family="Helvetica Neue" font-size="6.00">retry with</text>
<text text-anchor="middle" x="209.94" y="-118.3" font-family="Helvetica Neue" font-size="6.00">positive guidance</text>
</g>
</g>
</svg>
