<?xml version="1.0" encoding="UTF-8" standalone="no"?>
<!DOCTYPE svg PUBLIC "-//W3C//DTD SVG 1.1//EN"
 "http://www.w3.org/Graphics/SVG/1.1/DTD/svg11.dtd">
<!-- Generated by graphviz version 12.2.1 (20241206.2353)
 -->
<!-- Title: dep_edge_mapping Pages: 1 -->
<svg width="301pt" height="392pt"
 viewBox="0.00 0.00 300.57 392.00" xmlns="http://www.w3.org/2000/svg" xmlns:xlink="http://www.w3.org/1999/xlink">
<g id="graph0" class="graph" transform="scale(1 1) rotate(0) translate(4 388)">
<title>dep_edge_mapping</title>
<polygon fill="white" stroke="none" points="-4,4 -4,-388 296.57,-388 296.57,4 -4,4"/>
<!-- pms_build -->
<g id="node1" class="node">
<title>pms_build</title>
<polygon fill="#cce5ff" stroke="black" points="155.76,-326 77.38,-326 77.38,-290 155.76,-290 155.76,-326"/>
<text text-anchor="middle" x="116.57" y="-309.6" font-family="Helvetica Neue" font-size="7.00">DEPEND / BDEPEND</text>
<text text-anchor="middle" x="116.57" y="-301.35" font-family="Helvetica Neue" font-size="7.00">&quot;before building&quot;</text>
</g>
<!-- pms_run -->
<g id="node2" class="node">
<title>pms_run</title>
<polygon fill="#d4edda" stroke="black" points="114.64,-268 56.5,-268 56.5,-232 114.64,-232 114.64,-268"/>
<text text-anchor="middle" x="85.57" y="-251.6" font-family="Helvetica Neue" font-size="7.00">RDEPEND</text>
<text text-anchor="middle" x="85.57" y="-243.35" font-family="Helvetica Neue" font-size="7.00">&quot;before usable&quot;</text>
</g>
<!-- pms_build&#45;&gt;pms_run -->
<!-- p_build -->
<g id="node4" class="node">
<title>p_build</title>
<polygon fill="#cce5ff" stroke="black" points="186.51,-268 130.62,-268 130.62,-232 186.51,-232 186.51,-268"/>
<text text-anchor="middle" x="158.57" y="-251.6" font-family="Helvetica Neue" font-size="7.00">buildtime edge</text>
<text text-anchor="middle" x="158.57" y="-243.35" font-family="Helvetica Neue" font-size="7.00">never broken</text>
</g>
<!-- pms_build&#45;&gt;p_build -->
<g id="edge1" class="edge">
<title>pms_build&#45;&gt;p_build</title>
<path fill="none" stroke="black" d="M129.63,-289.59C133.7,-284.16 138.23,-278.12 142.48,-272.45"/>
<polygon fill="black" stroke="black" points="143.48,-273.46 144.76,-269.42 141.24,-271.78 143.48,-273.46"/>
</g>
<!-- pms_post -->
<g id="node3" class="node">
<title>pms_post</title>
<polygon fill="#fff3cd" stroke="black" points="73.14,-210 0,-210 0,-174 73.14,-174 73.14,-210"/>
<text text-anchor="middle" x="36.57" y="-193.6" font-family="Helvetica Neue" font-size="7.00">PDEPEND</text>
<text text-anchor="middle" x="36.57" y="-185.35" font-family="Helvetica Neue" font-size="7.00">&quot;before batch ends&quot;</text>
</g>
<!-- pms_run&#45;&gt;pms_post -->
<!-- p_run -->
<g id="node5" class="node">
<title>p_run</title>
<polygon fill="#d4edda" stroke="black" points="152.26,-210 88.88,-210 88.88,-174 152.26,-174 152.26,-210"/>
<text text-anchor="middle" x="120.57" y="-193.6" font-family="Helvetica Neue" font-size="7.00">runtime edge</text>
<text text-anchor="middle" x="120.57" y="-185.35" font-family="Helvetica Neue" font-size="7.00">broken for cycles</text>
</g>
<!-- pms_run&#45;&gt;p_run -->
<g id="edge2" class="edge">
<title>pms_run&#45;&gt;p_run</title>
<path fill="none" stroke="black" d="M96.45,-231.59C99.78,-226.27 103.47,-220.36 106.95,-214.79"/>
<polygon fill="black" stroke="black" points="108.08,-215.63 109.01,-211.49 105.71,-214.14 108.08,-215.63"/>
</g>
<!-- p_post -->
<g id="node6" class="node">
<title>p_post</title>
<polygon fill="#fff3cd" stroke="black" points="101.57,-152 47.57,-152 47.57,-116 101.57,-116 101.57,-152"/>
<text text-anchor="middle" x="74.57" y="-135.6" font-family="Helvetica Neue" font-size="7.00">runtime_post</text>
<text text-anchor="middle" x="74.57" y="-127.35" font-family="Helvetica Neue" font-size="7.00">first to break</text>
</g>
<!-- pms_post&#45;&gt;p_post -->
<g id="edge3" class="edge">
<title>pms_post&#45;&gt;p_post</title>
<path fill="none" stroke="black" d="M48.39,-173.59C52.07,-168.16 56.17,-162.12 60.01,-156.45"/>
<polygon fill="black" stroke="black" points="60.96,-157.56 62.04,-153.46 58.64,-155.98 60.96,-157.56"/>
</g>
<!-- p_build&#45;&gt;p_run -->
<!-- pal_build -->
<g id="node7" class="node">
<title>pal_build</title>
<polygon fill="#cce5ff" stroke="black" points="222.57,-210 168.57,-210 168.57,-174 222.57,-174 222.57,-210"/>
<text text-anchor="middle" x="195.57" y="-193.6" font-family="Helvetica Neue" font-size="7.00">build()=true</text>
<text text-anchor="middle" x="195.57" y="-185.35" font-family="Helvetica Neue" font-size="7.00">never broken</text>
</g>
<!-- p_build&#45;&gt;pal_build -->
<g id="edge4" class="edge">
<title>p_build&#45;&gt;pal_build</title>
<path fill="none" stroke="black" d="M170.07,-231.59C173.59,-226.27 177.5,-220.36 181.18,-214.79"/>
<polygon fill="black" stroke="black" points="182.33,-215.58 183.37,-211.47 179.99,-214.04 182.33,-215.58"/>
</g>
<!-- p_run&#45;&gt;p_post -->
<!-- pal_run -->
<g id="node8" class="node">
<title>pal_run</title>
<polygon fill="#d4edda" stroke="black" points="185.51,-152 117.62,-152 117.62,-116 185.51,-116 185.51,-152"/>
<text text-anchor="middle" x="151.57" y="-135.6" font-family="Helvetica Neue" font-size="7.00">run()=true</text>
<text text-anchor="middle" x="151.57" y="-127.35" font-family="Helvetica Neue" font-size="7.00">cycles = free order</text>
</g>
<!-- p_run&#45;&gt;pal_run -->
<g id="edge5" class="edge">
<title>p_run&#45;&gt;pal_run</title>
<path fill="none" stroke="black" d="M130.21,-173.59C133.15,-168.27 136.43,-162.36 139.51,-156.79"/>
<polygon fill="black" stroke="black" points="140.6,-157.71 141.31,-153.53 138.15,-156.35 140.6,-157.71"/>
</g>
<!-- pal_post -->
<g id="node9" class="node">
<title>pal_post</title>
<polygon fill="#f0f0f0" stroke="black" points="140.57,-94 86.57,-94 86.57,-58 140.57,-58 140.57,-94"/>
<text text-anchor="middle" x="113.57" y="-77.6" font-family="Helvetica Neue" font-size="7.00">no edge</text>
<text text-anchor="middle" x="113.57" y="-69.35" font-family="Helvetica Neue" font-size="7.00">created</text>
</g>
<!-- p_post&#45;&gt;pal_post -->
<g id="edge6" class="edge">
<title>p_post&#45;&gt;pal_post</title>
<path fill="none" stroke="black" d="M86.7,-115.59C90.47,-110.16 94.68,-104.12 98.63,-98.45"/>
<polygon fill="black" stroke="black" points="99.58,-99.53 100.72,-95.45 97.29,-97.93 99.58,-99.53"/>
</g>
<!-- pal_build&#45;&gt;pal_run -->
<!-- ng_build -->
<g id="node10" class="node">
<title>ng_build</title>
<polygon fill="#cce5ff" stroke="black" points="265.64,-152 201.5,-152 201.5,-116 265.64,-116 265.64,-152"/>
<text text-anchor="middle" x="233.57" y="-135.6" font-family="Helvetica Neue" font-size="7.00">:install + after()</text>
<text text-anchor="middle" x="233.57" y="-127.35" font-family="Helvetica Neue" font-size="7.00">propagates down</text>
</g>
<!-- pal_build&#45;&gt;ng_build -->
<g id="edge7" class="edge">
<title>pal_build&#45;&gt;ng_build</title>
<path fill="none" stroke="black" d="M207.39,-173.59C211.07,-168.16 215.17,-162.12 219.01,-156.45"/>
<polygon fill="black" stroke="black" points="219.96,-157.56 221.04,-153.46 217.64,-155.98 219.96,-157.56"/>
</g>
<!-- pal_run&#45;&gt;pal_post -->
<!-- ng_run -->
<g id="node11" class="node">
<title>ng_run</title>
<polygon fill="#d4edda" stroke="black" points="220.26,-94 156.88,-94 156.88,-58 220.26,-58 220.26,-94"/>
<text text-anchor="middle" x="188.57" y="-77.6" font-family="Helvetica Neue" font-size="7.00">:run + after_only()</text>
<text text-anchor="middle" x="188.57" y="-69.35" font-family="Helvetica Neue" font-size="7.00">stops at children</text>
</g>
<!-- pal_run&#45;&gt;ng_run -->
<g id="edge8" class="edge">
<title>pal_run&#45;&gt;ng_run</title>
<path fill="none" stroke="black" d="M163.07,-115.59C166.59,-110.27 170.5,-104.36 174.18,-98.79"/>
<polygon fill="black" stroke="black" points="175.33,-99.58 176.37,-95.47 172.99,-98.04 175.33,-99.58"/>
</g>
<!-- ng_post -->
<g id="node12" class="node">
<title>ng_post</title>
<polygon fill="#fff3cd" stroke="black" points="177.57,-36 123.57,-36 123.57,0 177.57,0 177.57,-36"/>
<text text-anchor="middle" x="150.57" y="-19.6" font-family="Helvetica Neue" font-size="7.00">literal_hook</text>
<text text-anchor="middle" x="150.57" y="-11.35" font-family="Helvetica Neue" font-size="7.00">single&#45;pass</text>
</g>
<!-- pal_post&#45;&gt;ng_post -->
<g id="edge9" class="edge">
<title>pal_post&#45;&gt;ng_post</title>
<path fill="none" stroke="black" d="M125.07,-57.59C128.59,-52.27 132.5,-46.36 136.18,-40.79"/>
<polygon fill="black" stroke="black" points="137.33,-41.58 138.37,-37.47 134.99,-40.04 137.33,-41.58"/>
</g>
<!-- ng_build&#45;&gt;ng_run -->
<!-- ng_run&#45;&gt;ng_post -->
<!-- lbl_pms -->
<g id="node13" class="node">
<title>lbl_pms</title>
<polygon fill="white" stroke="none" points="184.57,-384 130.57,-384 130.57,-348 184.57,-348 184.57,-384"/>
<text text-anchor="middle" x="157.57" y="-363.48" font-family="Helvetica Neue" font-size="7.00">PMS</text>
</g>
<!-- lbl_pms&#45;&gt;pms_build -->
<!-- lbl_portage -->
<g id="node14" class="node">
<title>lbl_portage</title>
<polygon fill="white" stroke="none" points="225.57,-326 171.57,-326 171.57,-290 225.57,-290 225.57,-326"/>
<text text-anchor="middle" x="198.57" y="-305.48" font-family="Helvetica Neue" font-size="7.00">Portage</text>
</g>
<!-- lbl_pms&#45;&gt;lbl_portage -->
<!-- lbl_portage&#45;&gt;p_build -->
<!-- lbl_paludis -->
<g id="node15" class="node">
<title>lbl_paludis</title>
<polygon fill="white" stroke="none" points="256.57,-268 202.57,-268 202.57,-232 256.57,-232 256.57,-268"/>
<text text-anchor="middle" x="229.57" y="-247.47" font-family="Helvetica Neue" font-size="7.00">Paludis</text>
</g>
<!-- lbl_portage&#45;&gt;lbl_paludis -->
<!-- lbl_paludis&#45;&gt;pal_build -->
<!-- lbl_ng -->
<g id="node16" class="node">
<title>lbl_ng</title>
<polygon fill="white" stroke="none" points="292.57,-210 238.57,-210 238.57,-174 292.57,-174 292.57,-210"/>
<text text-anchor="middle" x="265.57" y="-189.47" font-family="Helvetica Neue" font-size="7.00">portage&#45;ng</text>
</g>
<!-- lbl_paludis&#45;&gt;lbl_ng -->
<!-- lbl_ng&#45;&gt;ng_build -->
</g>
</svg>
