<?xml version="1.0" encoding="UTF-8" standalone="no"?>
<!DOCTYPE svg PUBLIC "-//W3C//DTD SVG 1.1//EN"
 "http://www.w3.org/Graphics/SVG/1.1/DTD/svg11.dtd">
<!-- Generated by graphviz version 12.2.1 (20241206.2353)
 -->
<!-- Title: ng_model Pages: 1 -->
<svg width="288pt" height="182pt"
 viewBox="0.00 0.00 287.89 182.00" xmlns="http://www.w3.org/2000/svg" xmlns:xlink="http://www.w3.org/1999/xlink">
<g id="graph0" class="graph" transform="scale(1 1) rotate(0) translate(4 178)">
<title>ng_model</title>
<polygon fill="white" stroke="none" points="-4,4 -4,-178 283.89,-178 283.89,4 -4,4"/>
<!-- target_run -->
<g id="node1" class="node">
<title>target_run</title>
<polygon fill="#d4edda" stroke="black" points="204.82,-174 150.82,-174 150.82,-138 204.82,-138 204.82,-174"/>
<text text-anchor="middle" x="177.82" y="-153.47" font-family="Helvetica Neue" font-size="7.00">target:run</text>
</g>
<!-- target_install -->
<g id="node2" class="node">
<title>target_install</title>
<polygon fill="#cce5ff" stroke="black" points="130.82,-105 76.82,-105 76.82,-69 130.82,-69 130.82,-105"/>
<text text-anchor="middle" x="103.82" y="-84.47" font-family="Helvetica Neue" font-size="7.00">target:install</text>
</g>
<!-- target_run&#45;&gt;target_install -->
<g id="edge1" class="edge">
<title>target_run&#45;&gt;target_install</title>
<path fill="none" stroke="black" d="M158.76,-137.75C149.09,-128.98 137.25,-118.26 127.04,-109.02"/>
<polygon fill="black" stroke="black" points="128.1,-108.09 124.19,-106.44 126.22,-110.17 128.1,-108.09"/>
<text text-anchor="middle" x="158.32" y="-119.55" font-family="Helvetica Neue" font-size="6.00">requires</text>
</g>
<!-- rdep_run -->
<g id="node5" class="node">
<title>rdep_run</title>
<polygon fill="#d4edda" stroke="black" points="207.64,-105 148,-105 148,-69 207.64,-69 207.64,-105"/>
<text text-anchor="middle" x="177.82" y="-84.47" font-family="Helvetica Neue" font-size="7.00">runtime&#45;dep:run</text>
</g>
<!-- target_run&#45;&gt;rdep_run -->
<g id="edge2" class="edge">
<title>target_run&#45;&gt;rdep_run</title>
<path fill="none" stroke="black" d="M177.82,-137.75C177.82,-129.53 177.82,-119.58 177.82,-110.76"/>
<polygon fill="black" stroke="black" points="179.22,-110.94 177.82,-106.94 176.42,-110.94 179.22,-110.94"/>
<text text-anchor="middle" x="192.07" y="-123.3" font-family="Helvetica Neue" font-size="6.00">RDEPEND</text>
<text text-anchor="middle" x="192.07" y="-115.8" font-family="Helvetica Neue" font-size="6.00">after_only</text>
</g>
<!-- pdep_run -->
<g id="node7" class="node">
<title>pdep_run</title>
<polygon fill="#fff3cd" stroke="black" points="279.89,-105 221.75,-105 221.75,-69 279.89,-69 279.89,-105"/>
<text text-anchor="middle" x="250.82" y="-88.6" font-family="Helvetica Neue" font-size="7.00">post&#45;dep:run</text>
<text text-anchor="middle" x="250.82" y="-80.35" font-family="Helvetica Neue" font-size="7.00">(via literal_hook)</text>
</g>
<!-- target_run&#45;&gt;pdep_run -->
<g id="edge3" class="edge">
<title>target_run&#45;&gt;pdep_run</title>
<path fill="none" stroke="black" stroke-dasharray="5,2" d="M199.76,-137.67C203.18,-134.83 206.63,-131.88 209.82,-129 216.88,-122.63 224.32,-115.37 230.89,-108.76"/>
<polygon fill="black" stroke="black" points="231.57,-110.06 233.38,-106.23 229.57,-108.1 231.57,-110.06"/>
<text text-anchor="middle" x="241.74" y="-123.3" font-family="Helvetica Neue" font-size="6.00">PDEPEND</text>
<text text-anchor="middle" x="241.74" y="-115.8" font-family="Helvetica Neue" font-size="6.00">(single&#45;pass)</text>
</g>
<!-- target_download -->
<g id="node3" class="node">
<title>target_download</title>
<polygon fill="#e2e3e5" stroke="black" points="59.64,-36 0,-36 0,0 59.64,0 59.64,-36"/>
<text text-anchor="middle" x="29.82" y="-15.47" font-family="Helvetica Neue" font-size="7.00">target:download</text>
</g>
<!-- target_install&#45;&gt;target_download -->
<g id="edge4" class="edge">
<title>target_install&#45;&gt;target_download</title>
<path fill="none" stroke="black" d="M84.76,-68.75C75.09,-59.98 63.25,-49.26 53.04,-40.02"/>
<polygon fill="black" stroke="black" points="54.1,-39.09 50.19,-37.44 52.22,-41.17 54.1,-39.09"/>
<text text-anchor="middle" x="84.32" y="-50.55" font-family="Helvetica Neue" font-size="6.00">requires</text>
</g>
<!-- bdep_install -->
<g id="node4" class="node">
<title>bdep_install</title>
<polygon fill="#cce5ff" stroke="black" points="134.01,-36 73.62,-36 73.62,0 134.01,0 134.01,-36"/>
<text text-anchor="middle" x="103.82" y="-15.47" font-family="Helvetica Neue" font-size="7.00">build&#45;dep:install</text>
</g>
<!-- target_install&#45;&gt;bdep_install -->
<g id="edge5" class="edge">
<title>target_install&#45;&gt;bdep_install</title>
<path fill="none" stroke="black" d="M103.82,-68.75C103.82,-60.53 103.82,-50.58 103.82,-41.76"/>
<polygon fill="black" stroke="black" points="105.22,-41.94 103.82,-37.94 102.42,-41.94 105.22,-41.94"/>
<text text-anchor="middle" x="116.19" y="-54.3" font-family="Helvetica Neue" font-size="6.00">DEPEND</text>
<text text-anchor="middle" x="116.19" y="-46.8" font-family="Helvetica Neue" font-size="6.00">after</text>
</g>
<!-- rdep_install -->
<g id="node6" class="node">
<title>rdep_install</title>
<polygon fill="#cce5ff" stroke="black" points="215.76,-36 147.88,-36 147.88,0 215.76,0 215.76,-36"/>
<text text-anchor="middle" x="181.82" y="-15.47" font-family="Helvetica Neue" font-size="7.00">runtime&#45;dep:install</text>
</g>
<!-- rdep_run&#45;&gt;rdep_install -->
<g id="edge6" class="edge">
<title>rdep_run&#45;&gt;rdep_install</title>
<path fill="none" stroke="black" d="M178.85,-68.75C179.34,-60.53 179.93,-50.58 180.46,-41.76"/>
<polygon fill="black" stroke="black" points="181.85,-42.02 180.69,-37.94 179.05,-41.85 181.85,-42.02"/>
<text text-anchor="middle" x="191.05" y="-50.55" font-family="Helvetica Neue" font-size="6.00">requires</text>
</g>
</g>
</svg>
