<?xml version="1.0" encoding="UTF-8" standalone="no"?>
<!DOCTYPE svg PUBLIC "-//W3C//DTD SVG 1.1//EN"
 "http://www.w3.org/Graphics/SVG/1.1/DTD/svg11.dtd">
<!-- Generated by graphviz version 12.2.1 (20241206.2353)
 -->
<!-- Title: portage_relaxation Pages: 1 -->
<svg width="477pt" height="146pt"
 viewBox="0.00 0.00 476.83 146.00" xmlns="http://www.w3.org/2000/svg" xmlns:xlink="http://www.w3.org/1999/xlink">
<g id="graph0" class="graph" transform="scale(1 1) rotate(0) translate(4 142)">
<title>portage_relaxation</title>
<polygon fill="white" stroke="none" points="-4,4 -4,-142 472.83,-142 472.83,4 -4,4"/>
<!-- start -->
<g id="node1" class="node">
<title>start</title>
<ellipse fill="#e2e3e5" stroke="black" cx="27" cy="-66" rx="27" ry="18"/>
<text text-anchor="middle" x="27" y="-67.6" font-family="Helvetica Neue" font-size="7.00">Topo&#45;sort</text>
<text text-anchor="middle" x="27" y="-59.35" font-family="Helvetica Neue" font-size="7.00">(all edges)</text>
</g>
<!-- p1 -->
<g id="node2" class="node">
<title>p1</title>
<polygon fill="#fff3cd" stroke="black" points="98.34,-84 71,-66 98.34,-48 125.69,-66 98.34,-84"/>
<text text-anchor="middle" x="98.34" y="-67.6" font-family="Helvetica Neue" font-size="7.00">Leaf</text>
<text text-anchor="middle" x="98.34" y="-59.35" font-family="Helvetica Neue" font-size="7.00">found?</text>
</g>
<!-- start&#45;&gt;p1 -->
<g id="edge1" class="edge">
<title>start&#45;&gt;p1</title>
<path fill="none" stroke="black" d="M54.22,-66C57.64,-66 61.18,-66 64.69,-66"/>
<polygon fill="black" stroke="black" points="64.65,-67.4 68.65,-66 64.65,-64.6 64.65,-67.4"/>
</g>
<!-- emit -->
<g id="node3" class="node">
<title>emit</title>
<polygon fill="#d4edda" stroke="black" points="212.94,-138 158.94,-138 158.94,-102 212.94,-102 212.94,-138"/>
<text text-anchor="middle" x="185.94" y="-121.6" font-family="Helvetica Neue" font-size="7.00">Emit</text>
<text text-anchor="middle" x="185.94" y="-113.35" font-family="Helvetica Neue" font-size="7.00">package</text>
</g>
<!-- p1&#45;&gt;emit -->
<g id="edge2" class="edge">
<title>p1&#45;&gt;emit</title>
<path fill="none" stroke="black" d="M106.24,-79.29C112.15,-89.33 121.63,-102.6 133.69,-110 139.6,-113.63 146.55,-115.98 153.4,-117.49"/>
<polygon fill="black" stroke="black" points="152.91,-118.83 157.11,-118.21 153.45,-116.08 152.91,-118.83"/>
<text text-anchor="middle" x="142.31" y="-118.66" font-family="Helvetica Neue" font-size="6.00">yes</text>
</g>
<!-- p2 -->
<g id="node4" class="node">
<title>p2</title>
<polygon fill="#cce5ff" stroke="black" points="212.94,-88 158.94,-88 158.94,-52 212.94,-52 212.94,-88"/>
<text text-anchor="middle" x="185.94" y="-71.6" font-family="Helvetica Neue" font-size="7.00">Drop</text>
<text text-anchor="middle" x="185.94" y="-63.35" font-family="Helvetica Neue" font-size="7.00">optional</text>
</g>
<!-- p1&#45;&gt;p2 -->
<g id="edge4" class="edge">
<title>p1&#45;&gt;p2</title>
<path fill="none" stroke="black" d="M124.56,-67.18C133.55,-67.6 143.78,-68.08 153.24,-68.52"/>
<polygon fill="black" stroke="black" points="153.14,-69.92 157.2,-68.7 153.27,-67.12 153.14,-69.92"/>
<text text-anchor="middle" x="142.31" y="-70.16" font-family="Helvetica Neue" font-size="6.00">no leaf</text>
</g>
<!-- emit&#45;&gt;p1 -->
<g id="edge3" class="edge">
<title>emit&#45;&gt;p1</title>
<path fill="none" stroke="black" d="M158.44,-103.28C145.19,-94.93 129.5,-85.02 117.61,-77.53"/>
<polygon fill="black" stroke="black" points="118.5,-76.43 114.37,-75.48 117.01,-78.8 118.5,-76.43"/>
<text text-anchor="middle" x="142.31" y="-99.64" font-family="Helvetica Neue" font-size="6.00">next</text>
</g>
<!-- p2&#45;&gt;p1 -->
<g id="edge5" class="edge">
<title>p2&#45;&gt;p1</title>
<path fill="none" stroke="black" stroke-dasharray="5,2" d="M158.79,-60.22C156.17,-59.52 153.52,-58.92 150.94,-58.5 141.91,-57.02 131.98,-57.87 123.25,-59.45"/>
<polygon fill="black" stroke="black" points="123.12,-58.05 119.48,-60.21 123.68,-60.79 123.12,-58.05"/>
<text text-anchor="middle" x="142.31" y="-60.3" font-family="Helvetica Neue" font-size="6.00">freed?</text>
</g>
<!-- p3 -->
<g id="node5" class="node">
<title>p3</title>
<polygon fill="#cce5ff" stroke="black" points="299.44,-60 245.44,-60 245.44,-24 299.44,-24 299.44,-60"/>
<text text-anchor="middle" x="272.44" y="-43.6" font-family="Helvetica Neue" font-size="7.00">Drop</text>
<text text-anchor="middle" x="272.44" y="-35.35" font-family="Helvetica Neue" font-size="7.00">PDEPEND</text>
</g>
<!-- p2&#45;&gt;p3 -->
<g id="edge6" class="edge">
<title>p2&#45;&gt;p3</title>
<path fill="none" stroke="black" d="M213.21,-61.29C221.79,-58.45 231.41,-55.26 240.31,-52.31"/>
<polygon fill="black" stroke="black" points="240.38,-53.76 243.74,-51.18 239.5,-51.11 240.38,-53.76"/>
<text text-anchor="middle" x="229.19" y="-67.81" font-family="Helvetica Neue" font-size="6.00">still</text>
<text text-anchor="middle" x="229.19" y="-60.31" font-family="Helvetica Neue" font-size="6.00">stuck</text>
</g>
<!-- p3&#45;&gt;p1 -->
<g id="edge7" class="edge">
<title>p3&#45;&gt;p1</title>
<path fill="none" stroke="black" stroke-dasharray="5,2" d="M245.2,-38.04C222.2,-35.37 187.98,-33.33 158.94,-39.5 144.59,-42.55 129.51,-49.29 118.11,-55.21"/>
<polygon fill="black" stroke="black" points="117.67,-53.86 114.8,-56.98 118.98,-56.33 117.67,-53.86"/>
<text text-anchor="middle" x="185.94" y="-41.3" font-family="Helvetica Neue" font-size="6.00">freed?</text>
</g>
<!-- p4 -->
<g id="node6" class="node">
<title>p4</title>
<polygon fill="#cce5ff" stroke="black" points="383.69,-36 329.69,-36 329.69,0 383.69,0 383.69,-36"/>
<text text-anchor="middle" x="356.69" y="-19.6" font-family="Helvetica Neue" font-size="7.00">Drop</text>
<text text-anchor="middle" x="356.69" y="-11.35" font-family="Helvetica Neue" font-size="7.00">RDEPEND</text>
</g>
<!-- p3&#45;&gt;p4 -->
<g id="edge8" class="edge">
<title>p3&#45;&gt;p4</title>
<path fill="none" stroke="black" d="M299.91,-34.27C307.69,-32 316.27,-29.5 324.32,-27.15"/>
<polygon fill="black" stroke="black" points="324.36,-28.6 327.8,-26.14 323.57,-25.91 324.36,-28.6"/>
<text text-anchor="middle" x="314.56" y="-40.74" font-family="Helvetica Neue" font-size="6.00">still</text>
<text text-anchor="middle" x="314.56" y="-33.24" font-family="Helvetica Neue" font-size="6.00">stuck</text>
</g>
<!-- p4&#45;&gt;p1 -->
<g id="edge9" class="edge">
<title>p4&#45;&gt;p1</title>
<path fill="none" stroke="black" stroke-dasharray="5,2" d="M329.35,-17.12C306.98,-16.64 274.04,-16.57 245.44,-19 206.63,-22.3 196.98,-24.67 158.94,-33 147.56,-35.49 144.12,-34.84 133.69,-40 127.06,-43.28 120.43,-47.9 114.79,-52.34"/>
<polygon fill="black" stroke="black" points="114.09,-51.11 111.86,-54.71 115.85,-53.28 114.09,-51.11"/>
<text text-anchor="middle" x="229.19" y="-23.17" font-family="Helvetica Neue" font-size="6.00">freed?</text>
</g>
<!-- err -->
<g id="node7" class="node">
<title>err</title>
<ellipse fill="#f8d7da" stroke="black" cx="441.38" cy="-18" rx="27.45" ry="18"/>
<text text-anchor="middle" x="441.38" y="-19.6" font-family="Helvetica Neue" font-size="7.00">Build cycle</text>
<text text-anchor="middle" x="441.38" y="-11.35" font-family="Helvetica Neue" font-size="7.00">(error)</text>
</g>
<!-- p4&#45;&gt;err -->
<g id="edge10" class="edge">
<title>p4&#45;&gt;err</title>
<path fill="none" stroke="black" d="M383.85,-18C391.54,-18 400.04,-18 408.07,-18"/>
<polygon fill="black" stroke="black" points="408.02,-19.4 412.02,-18 408.02,-16.6 408.02,-19.4"/>
<text text-anchor="middle" x="398.81" y="-27.3" font-family="Helvetica Neue" font-size="6.00">still</text>
<text text-anchor="middle" x="398.81" y="-19.8" font-family="Helvetica Neue" font-size="6.00">stuck</text>
</g>
</g>
</svg>
