<?xml version="1.0" encoding="UTF-8" standalone="no"?>
<!DOCTYPE svg PUBLIC "-//W3C//DTD SVG 1.1//EN"
 "http://www.w3.org/Graphics/SVG/1.1/DTD/svg11.dtd">
<!-- Generated by graphviz version 12.2.1 (20241206.2353)
 -->
<!-- Title: test70 Pages: 1 -->
<svg width="179pt" height="146pt"
 viewBox="0.00 0.00 178.50 145.75" xmlns="http://www.w3.org/2000/svg" xmlns:xlink="http://www.w3.org/1999/xlink">
<g id="graph0" class="graph" transform="scale(1 1) rotate(0) translate(4 141.75)">
<title>test70</title>
<polygon fill="white" stroke="none" points="-4,4 -4,-141.75 174.5,-141.75 174.5,4 -4,4"/>
<text text-anchor="start" x="8" y="-123.35" font-family="Helvetica,sans-Serif" font-weight="bold" font-size="12.00">test70</text>
<text text-anchor="start" x="42.5" y="-123.35" font-family="Helvetica,sans-Serif" font-size="12.00"> — Version ~ (revision)</text>
<!-- app -->
<g id="node1" class="node">
<title>app</title>
<path fill="lightcoral" stroke="black" d="M46.25,-63C46.25,-63 16.25,-63 16.25,-63 10.25,-63 4.25,-57 4.25,-51 4.25,-51 4.25,-39 4.25,-39 4.25,-33 10.25,-27 16.25,-27 16.25,-27 46.25,-27 46.25,-27 52.25,-27 58.25,-33 58.25,-39 58.25,-39 58.25,-51 58.25,-51 58.25,-57 52.25,-63 46.25,-63"/>
<text text-anchor="middle" x="31.25" y="-41.12" font-family="Helvetica,sans-Serif" font-size="10.00" fill="white">app&#45;1.0</text>
</g>
<!-- lib20 -->
<g id="node2" class="node">
<title>lib20</title>
<path fill="palegreen" stroke="black" d="M154.25,-90C154.25,-90 124.25,-90 124.25,-90 118.25,-90 112.25,-84 112.25,-78 112.25,-78 112.25,-66 112.25,-66 112.25,-60 118.25,-54 124.25,-54 124.25,-54 154.25,-54 154.25,-54 160.25,-54 166.25,-60 166.25,-66 166.25,-66 166.25,-78 166.25,-78 166.25,-84 160.25,-90 154.25,-90"/>
<text text-anchor="middle" x="139.25" y="-68.12" font-family="Helvetica,sans-Serif" font-size="10.00">lib&#45;2.0</text>
</g>
<!-- app&#45;&gt;lib20 -->
<g id="edge1" class="edge">
<title>app&#45;&gt;lib20</title>
<path fill="none" stroke="black" d="M58.72,-51.74C71.6,-55.02 87.28,-59.02 101.3,-62.59"/>
<polygon fill="black" stroke="black" points="100.09,-65.89 110.65,-64.97 101.82,-59.11 100.09,-65.89"/>
<text text-anchor="middle" x="85.25" y="-61.32" font-family="Helvetica,sans-Serif" font-size="9.00">~2.0</text>
</g>
<!-- lib20r1 -->
<g id="node3" class="node">
<title>lib20r1</title>
<path fill="palegreen" stroke="black" d="M154.25,-36C154.25,-36 124.25,-36 124.25,-36 118.25,-36 112.25,-30 112.25,-24 112.25,-24 112.25,-12 112.25,-12 112.25,-6 118.25,0 124.25,0 124.25,0 154.25,0 154.25,0 160.25,0 166.25,-6 166.25,-12 166.25,-12 166.25,-24 166.25,-24 166.25,-30 160.25,-36 154.25,-36"/>
<text text-anchor="middle" x="139.25" y="-14.12" font-family="Helvetica,sans-Serif" font-size="10.00">lib&#45;2.0&#45;r1</text>
</g>
<!-- app&#45;&gt;lib20r1 -->
<g id="edge2" class="edge">
<title>app&#45;&gt;lib20r1</title>
<path fill="none" stroke="black" d="M58.72,-38.26C71.6,-34.98 87.28,-30.98 101.3,-27.41"/>
<polygon fill="black" stroke="black" points="101.82,-30.89 110.65,-25.03 100.09,-24.11 101.82,-30.89"/>
<text text-anchor="middle" x="85.25" y="-34.32" font-family="Helvetica,sans-Serif" font-size="9.00">~2.0</text>
</g>
<!-- lib30 -->
<g id="node4" class="node">
<title>lib30</title>
<path fill="lightyellow" stroke="black" d="M46.25,-117C46.25,-117 16.25,-117 16.25,-117 10.25,-117 4.25,-111 4.25,-105 4.25,-105 4.25,-93 4.25,-93 4.25,-87 10.25,-81 16.25,-81 16.25,-81 46.25,-81 46.25,-81 52.25,-81 58.25,-87 58.25,-93 58.25,-93 58.25,-105 58.25,-105 58.25,-111 52.25,-117 46.25,-117"/>
<text text-anchor="middle" x="31.25" y="-95.12" font-family="Helvetica,sans-Serif" font-size="10.00">lib&#45;3.0</text>
</g>
</g>
</svg>
