<?xml version="1.0" encoding="UTF-8" standalone="no"?>
<!DOCTYPE svg PUBLIC "-//W3C//DTD SVG 1.1//EN"
 "http://www.w3.org/Graphics/SVG/1.1/DTD/svg11.dtd">
<!-- Generated by graphviz version 12.2.1 (20241206.2353)
 -->
<!-- Title: test11 Pages: 1 -->
<svg width="239pt" height="65pt"
 viewBox="0.00 0.00 238.50 64.75" xmlns="http://www.w3.org/2000/svg" xmlns:xlink="http://www.w3.org/1999/xlink">
<g id="graph0" class="graph" transform="scale(1 1) rotate(0) translate(4 60.75)">
<title>test11</title>
<polygon fill="white" stroke="none" points="-4,4 -4,-60.75 234.5,-60.75 234.5,4 -4,4"/>
<text text-anchor="start" x="8" y="-42.35" font-family="Helvetica,sans-Serif" font-weight="bold" font-size="12.00">test11</text>
<text text-anchor="start" x="41" y="-42.35" font-family="Helvetica,sans-Serif" font-size="12.00"> — Missing dep (compile+runtime)</text>
<!-- os -->
<g id="node1" class="node">
<title>os</title>
<path fill="lightcoral" stroke="black" d="M84.38,-36C84.38,-36 54.38,-36 54.38,-36 48.38,-36 42.38,-30 42.38,-24 42.38,-24 42.38,-12 42.38,-12 42.38,-6 48.38,0 54.38,0 54.38,0 84.38,0 84.38,0 90.38,0 96.38,-6 96.38,-12 96.38,-12 96.38,-24 96.38,-24 96.38,-30 90.38,-36 84.38,-36"/>
<text text-anchor="middle" x="69.38" y="-14.12" font-family="Helvetica,sans-Serif" font-size="10.00" fill="white">os&#45;1.0</text>
</g>
<!-- notexists -->
<g id="node2" class="node">
<title>notexists</title>
<path fill="mistyrose" stroke="black" stroke-dasharray="5,2" d="M176.12,-36C176.12,-36 144.38,-36 144.38,-36 138.38,-36 132.38,-30 132.38,-24 132.38,-24 132.38,-12 132.38,-12 132.38,-6 138.38,0 144.38,0 144.38,0 176.12,0 176.12,0 182.12,0 188.12,-6 188.12,-12 188.12,-12 188.12,-24 188.12,-24 188.12,-30 182.12,-36 176.12,-36"/>
<text text-anchor="middle" x="160.25" y="-14.12" font-family="Helvetica,sans-Serif" font-size="10.00">notexists</text>
</g>
<!-- os&#45;&gt;notexists -->
<g id="edge1" class="edge">
<title>os&#45;&gt;notexists</title>
<path fill="none" stroke="black" d="M96.56,-18C104.15,-18 112.59,-18 120.77,-18"/>
<polygon fill="black" stroke="black" points="120.5,-21.5 130.5,-18 120.5,-14.5 120.5,-21.5"/>
</g>
</g>
</svg>
