<?xml version="1.0" encoding="UTF-8" standalone="no"?>
<!DOCTYPE svg PUBLIC "-//W3C//DTD SVG 1.1//EN"
 "http://www.w3.org/Graphics/SVG/1.1/DTD/svg11.dtd">
<!-- Generated by graphviz version 12.2.1 (20241206.2353)
 -->
<!-- Title: test75 Pages: 1 -->
<svg width="241pt" height="65pt"
 viewBox="0.00 0.00 240.75 64.75" xmlns="http://www.w3.org/2000/svg" xmlns:xlink="http://www.w3.org/1999/xlink">
<g id="graph0" class="graph" transform="scale(1 1) rotate(0) translate(4 60.75)">
<title>test75</title>
<polygon fill="white" stroke="none" points="-4,4 -4,-60.75 236.75,-60.75 236.75,4 -4,4"/>
<text text-anchor="middle" x="116.38" y="-41.35" font-family="Helvetica,sans-Serif" font-size="12.00">test75 u2014 Reinstall / emptytree (VDB)</text>
<!-- app -->
<g id="node1" class="node">
<title>app</title>
<path fill="lightcoral" stroke="black" d="M86.38,-36C86.38,-36 56.38,-36 56.38,-36 50.38,-36 44.38,-30 44.38,-24 44.38,-24 44.38,-12 44.38,-12 44.38,-6 50.38,0 56.38,0 56.38,0 86.38,0 86.38,0 92.38,0 98.38,-6 98.38,-12 98.38,-12 98.38,-24 98.38,-24 98.38,-30 92.38,-36 86.38,-36"/>
<text text-anchor="middle" x="71.38" y="-14.12" font-family="Helvetica,sans-Serif" font-size="10.00" fill="white">app&#45;1.0</text>
</g>
<!-- os -->
<g id="node2" class="node">
<title>os</title>
<path fill="lightblue" stroke="black" d="M176.38,-36C176.38,-36 146.38,-36 146.38,-36 140.38,-36 134.38,-30 134.38,-24 134.38,-24 134.38,-12 134.38,-12 134.38,-6 140.38,0 146.38,0 146.38,0 176.38,0 176.38,0 182.38,0 188.38,-6 188.38,-12 188.38,-12 188.38,-24 188.38,-24 188.38,-30 182.38,-36 176.38,-36"/>
<text text-anchor="middle" x="161.38" y="-14.12" font-family="Helvetica,sans-Serif" font-size="10.00">os&#45;1.0</text>
</g>
<!-- app&#45;&gt;os -->
<g id="edge1" class="edge">
<title>app&#45;&gt;os</title>
<path fill="none" stroke="black" d="M98.78,-18C106.26,-18 114.56,-18 122.57,-18"/>
<polygon fill="black" stroke="black" points="122.48,-21.5 132.48,-18 122.48,-14.5 122.48,-21.5"/>
</g>
</g>
</svg>
