<?xml version="1.0" encoding="UTF-8" standalone="no"?>
<!DOCTYPE svg PUBLIC "-//W3C//DTD SVG 1.1//EN"
 "http://www.w3.org/Graphics/SVG/1.1/DTD/svg11.dtd">
<!-- Generated by graphviz version 12.2.1 (20241206.2353)
 -->
<!-- Title: test73 Pages: 1 -->
<svg width="171pt" height="119pt"
 viewBox="0.00 0.00 171.00 118.75" xmlns="http://www.w3.org/2000/svg" xmlns:xlink="http://www.w3.org/1999/xlink">
<g id="graph0" class="graph" transform="scale(1 1) rotate(0) translate(4 114.75)">
<title>test73</title>
<polygon fill="white" stroke="none" points="-4,4 -4,-114.75 167,-114.75 167,4 -4,4"/>
<text text-anchor="middle" x="81.5" y="-95.35" font-family="Helvetica,sans-Serif" font-size="12.00">test73 u2014 Update (VDB)</text>
<!-- app -->
<g id="node1" class="node">
<title>app</title>
<path fill="lightcoral" stroke="black" d="M51.5,-63C51.5,-63 21.5,-63 21.5,-63 15.5,-63 9.5,-57 9.5,-51 9.5,-51 9.5,-39 9.5,-39 9.5,-33 15.5,-27 21.5,-27 21.5,-27 51.5,-27 51.5,-27 57.5,-27 63.5,-33 63.5,-39 63.5,-39 63.5,-51 63.5,-51 63.5,-57 57.5,-63 51.5,-63"/>
<text text-anchor="middle" x="36.5" y="-41.12" font-family="Helvetica,sans-Serif" font-size="10.00" fill="white">app&#45;1.0</text>
</g>
<!-- lib_1_0 -->
<g id="node2" class="node">
<title>lib_1_0</title>
<path fill="lightblue" stroke="black" d="M141.5,-90C141.5,-90 111.5,-90 111.5,-90 105.5,-90 99.5,-84 99.5,-78 99.5,-78 99.5,-66 99.5,-66 99.5,-60 105.5,-54 111.5,-54 111.5,-54 141.5,-54 141.5,-54 147.5,-54 153.5,-60 153.5,-66 153.5,-66 153.5,-78 153.5,-78 153.5,-84 147.5,-90 141.5,-90"/>
<text text-anchor="middle" x="126.5" y="-68.12" font-family="Helvetica,sans-Serif" font-size="10.00">lib&#45;1.0</text>
</g>
<!-- app&#45;&gt;lib_1_0 -->
<g id="edge1" class="edge">
<title>app&#45;&gt;lib_1_0</title>
<path fill="none" stroke="black" d="M63.9,-53.1C71.56,-55.45 80.07,-58.06 88.26,-60.57"/>
<polygon fill="black" stroke="black" points="87.08,-63.87 97.67,-63.46 89.14,-57.18 87.08,-63.87"/>
</g>
<!-- lib_2_0 -->
<g id="node3" class="node">
<title>lib_2_0</title>
<path fill="lightblue" stroke="black" d="M141.5,-36C141.5,-36 111.5,-36 111.5,-36 105.5,-36 99.5,-30 99.5,-24 99.5,-24 99.5,-12 99.5,-12 99.5,-6 105.5,0 111.5,0 111.5,0 141.5,0 141.5,0 147.5,0 153.5,-6 153.5,-12 153.5,-12 153.5,-24 153.5,-24 153.5,-30 147.5,-36 141.5,-36"/>
<text text-anchor="middle" x="126.5" y="-14.12" font-family="Helvetica,sans-Serif" font-size="10.00">lib&#45;2.0</text>
</g>
<!-- app&#45;&gt;lib_2_0 -->
<g id="edge2" class="edge">
<title>app&#45;&gt;lib_2_0</title>
<path fill="none" stroke="black" d="M63.9,-36.9C71.56,-34.55 80.07,-31.94 88.26,-29.43"/>
<polygon fill="black" stroke="black" points="89.14,-32.82 97.67,-26.54 87.08,-26.13 89.14,-32.82"/>
</g>
</g>
</svg>
