<?xml version="1.0" encoding="UTF-8" standalone="no"?>
<!DOCTYPE svg PUBLIC "-//W3C//DTD SVG 1.1//EN"
 "http://www.w3.org/Graphics/SVG/1.1/DTD/svg11.dtd">
<!-- Generated by graphviz version 12.2.1 (20241206.2353)
 -->
<!-- Title: test73 Pages: 1 -->
<svg width="197pt" height="172pt"
 viewBox="0.00 0.00 197.25 171.75" xmlns="http://www.w3.org/2000/svg" xmlns:xlink="http://www.w3.org/1999/xlink">
<g id="graph0" class="graph" transform="scale(1 1) rotate(0) translate(4 167.75)">
<title>test73</title>
<polygon fill="white" stroke="none" points="-4,4 -4,-167.75 193.25,-167.75 193.25,4 -4,4"/>
<text text-anchor="start" x="30.88" y="-149.35" font-family="Helvetica,sans-Serif" font-weight="bold" font-size="12.00">test73</text>
<text text-anchor="start" x="65.38" y="-149.35" font-family="Helvetica,sans-Serif" font-size="12.00"> — Update (VDB)</text>
<g id="clust1" class="cluster">
<title>cluster_lib</title>
<polygon fill="none" stroke="gray" stroke-dasharray="5,2" points="111.25,-8 111.25,-135 181.25,-135 181.25,-8 111.25,-8"/>
<text text-anchor="middle" x="146.25" y="-119.6" font-family="Helvetica,sans-Serif" font-size="12.00">lib</text>
</g>
<!-- lib1 -->
<g id="node1" class="node">
<title>lib1</title>
<path fill="lightblue" stroke="black" d="M161.25,-52C161.25,-52 131.25,-52 131.25,-52 125.25,-52 119.25,-46 119.25,-40 119.25,-40 119.25,-28 119.25,-28 119.25,-22 125.25,-16 131.25,-16 131.25,-16 161.25,-16 161.25,-16 167.25,-16 173.25,-22 173.25,-28 173.25,-28 173.25,-40 173.25,-40 173.25,-46 167.25,-52 161.25,-52"/>
<text text-anchor="middle" x="146.25" y="-30.12" font-family="Helvetica,sans-Serif" font-size="10.00">lib&#45;1.0</text>
</g>
<!-- lib2 -->
<g id="node2" class="node">
<title>lib2</title>
<path fill="lightyellow" stroke="black" d="M161.25,-106C161.25,-106 131.25,-106 131.25,-106 125.25,-106 119.25,-100 119.25,-94 119.25,-94 119.25,-82 119.25,-82 119.25,-76 125.25,-70 131.25,-70 131.25,-70 161.25,-70 161.25,-70 167.25,-70 173.25,-76 173.25,-82 173.25,-82 173.25,-94 173.25,-94 173.25,-100 167.25,-106 161.25,-106"/>
<text text-anchor="middle" x="146.25" y="-84.12" font-family="Helvetica,sans-Serif" font-size="10.00">lib&#45;2.0</text>
</g>
<!-- app -->
<g id="node3" class="node">
<title>app</title>
<path fill="lightcoral" stroke="black" d="M42,-106C42,-106 12,-106 12,-106 6,-106 0,-100 0,-94 0,-94 0,-82 0,-82 0,-76 6,-70 12,-70 12,-70 42,-70 42,-70 48,-70 54,-76 54,-82 54,-82 54,-94 54,-94 54,-100 48,-106 42,-106"/>
<text text-anchor="middle" x="27" y="-84.12" font-family="Helvetica,sans-Serif" font-size="10.00" fill="white">app&#45;1.0</text>
</g>
<!-- app&#45;&gt;lib2 -->
<g id="edge1" class="edge">
<title>app&#45;&gt;lib2</title>
<path fill="none" stroke="black" d="M54.31,-88C70,-88 90.18,-88 107.54,-88"/>
<polygon fill="black" stroke="black" points="99.74,-91.5 109.74,-88 99.74,-84.5 99.74,-91.5"/>
<text text-anchor="middle" x="86.62" y="-89.2" font-family="Helvetica,sans-Serif" font-size="9.00">newest</text>
</g>
</g>
</svg>
