<?xml version="1.0" encoding="UTF-8" standalone="no"?>
<!DOCTYPE svg PUBLIC "-//W3C//DTD SVG 1.1//EN"
 "http://www.w3.org/Graphics/SVG/1.1/DTD/svg11.dtd">
<!-- Generated by graphviz version 12.2.1 (20241206.2353)
 -->
<!-- Title: test59 Pages: 1 -->
<svg width="516pt" height="138pt"
 viewBox="0.00 0.00 516.06 137.75" xmlns="http://www.w3.org/2000/svg" xmlns:xlink="http://www.w3.org/1999/xlink">
<g id="graph0" class="graph" transform="scale(1 1) rotate(0) translate(4 133.75)">
<title>test59</title>
<polygon fill="white" stroke="none" points="-4,4 -4,-133.75 512.06,-133.75 512.06,4 -4,4"/>
<text text-anchor="middle" x="254.03" y="-114.35" font-family="Helvetica,sans-Serif" font-size="12.00">test59 u2014 Any&#45;of || regression (XFAIL)</text>
<!-- app -->
<g id="node1" class="node">
<title>app</title>
<path fill="lightyellow" stroke="black" d="M132,-67C132,-67 102,-67 102,-67 96,-67 90,-61 90,-55 90,-55 90,-43 90,-43 90,-37 96,-31 102,-31 102,-31 132,-31 132,-31 138,-31 144,-37 144,-43 144,-43 144,-55 144,-55 144,-61 138,-67 132,-67"/>
<text text-anchor="middle" x="117" y="-45.12" font-family="Helvetica,sans-Serif" font-size="10.00">app&#45;1.0</text>
</g>
<!-- db -->
<g id="node4" class="node">
<title>db</title>
<path fill="lightyellow" stroke="black" d="M222,-109C222,-109 192,-109 192,-109 186,-109 180,-103 180,-97 180,-97 180,-85 180,-85 180,-79 186,-73 192,-73 192,-73 222,-73 222,-73 228,-73 234,-79 234,-85 234,-85 234,-97 234,-97 234,-103 228,-109 222,-109"/>
<text text-anchor="middle" x="207" y="-87.12" font-family="Helvetica,sans-Serif" font-size="10.00">db&#45;1.0</text>
</g>
<!-- app&#45;&gt;db -->
<g id="edge2" class="edge">
<title>app&#45;&gt;db</title>
<path fill="none" stroke="black" d="M144.4,-61.6C152.23,-65.34 160.96,-69.5 169.32,-73.49"/>
<polygon fill="black" stroke="black" points="167.72,-76.61 178.25,-77.76 170.73,-70.29 167.72,-76.61"/>
</g>
<!-- os -->
<g id="node6" class="node">
<title>os</title>
<path fill="lightyellow" stroke="black" d="M312,-63C312,-63 282,-63 282,-63 276,-63 270,-57 270,-51 270,-51 270,-39 270,-39 270,-33 276,-27 282,-27 282,-27 312,-27 312,-27 318,-27 324,-33 324,-39 324,-39 324,-51 324,-51 324,-57 318,-63 312,-63"/>
<text text-anchor="middle" x="297" y="-41.12" font-family="Helvetica,sans-Serif" font-size="10.00">os&#45;1.0</text>
</g>
<!-- app&#45;&gt;os -->
<g id="edge1" class="edge">
<title>app&#45;&gt;os</title>
<path fill="none" stroke="black" d="M144.26,-48.41C174.37,-47.73 223.96,-46.62 258.21,-45.85"/>
<polygon fill="black" stroke="black" points="258.2,-49.35 268.11,-45.63 258.04,-42.35 258.2,-49.35"/>
</g>
<!-- data_best -->
<g id="node2" class="node">
<title>data_best</title>
<path fill="lightyellow" stroke="black" d="M496.06,-90C496.06,-90 444.81,-90 444.81,-90 438.81,-90 432.81,-84 432.81,-78 432.81,-78 432.81,-66 432.81,-66 432.81,-60 438.81,-54 444.81,-54 444.81,-54 496.06,-54 496.06,-54 502.06,-54 508.06,-60 508.06,-66 508.06,-66 508.06,-78 508.06,-78 508.06,-84 502.06,-90 496.06,-90"/>
<text text-anchor="middle" x="470.44" y="-68.12" font-family="Helvetica,sans-Serif" font-size="10.00">data_best&#45;1.0</text>
</g>
<!-- data_fast -->
<g id="node3" class="node">
<title>data_fast</title>
<path fill="lightyellow" stroke="black" d="M494.94,-36C494.94,-36 445.94,-36 445.94,-36 439.94,-36 433.94,-30 433.94,-24 433.94,-24 433.94,-12 433.94,-12 433.94,-6 439.94,0 445.94,0 445.94,0 494.94,0 494.94,0 500.94,0 506.94,-6 506.94,-12 506.94,-12 506.94,-24 506.94,-24 506.94,-30 500.94,-36 494.94,-36"/>
<text text-anchor="middle" x="470.44" y="-14.12" font-family="Helvetica,sans-Serif" font-size="10.00">data_fast&#45;1.0</text>
</g>
<!-- db&#45;&gt;os -->
<g id="edge3" class="edge">
<title>db&#45;&gt;os</title>
<path fill="none" stroke="black" d="M234.4,-77.2C242.32,-73.06 251.15,-68.44 259.59,-64.03"/>
<polygon fill="black" stroke="black" points="261.03,-67.23 268.27,-59.49 257.79,-61.02 261.03,-67.23"/>
</g>
<!-- g1 -->
<g id="node5" class="node">
<title>g1</title>
<path fill="lightyellow" stroke="black" d="M372.27,-54.6C372.27,-54.6 366.14,-49.8 366.14,-49.8 363.07,-47.4 363.07,-42.6 366.14,-40.2 366.14,-40.2 372.27,-35.4 372.27,-35.4 375.34,-33 381.48,-33 384.54,-35.4 384.54,-35.4 390.68,-40.2 390.68,-40.2 393.75,-42.6 393.75,-47.4 390.68,-49.8 390.68,-49.8 384.54,-54.6 384.54,-54.6 381.48,-57 375.34,-57 372.27,-54.6"/>
<text text-anchor="middle" x="378.41" y="-41.33" font-family="Helvetica,sans-Serif" font-size="9.00">||</text>
</g>
<!-- g1&#45;&gt;data_best -->
<g id="edge6" class="edge">
<title>g1&#45;&gt;data_best</title>
<path fill="none" stroke="black" d="M392.31,-48.87C400.18,-51.23 410.8,-54.41 421.63,-57.66"/>
<polygon fill="black" stroke="black" points="420.4,-60.95 430.99,-60.47 422.42,-54.24 420.4,-60.95"/>
</g>
<!-- g1&#45;&gt;data_fast -->
<g id="edge5" class="edge">
<title>g1&#45;&gt;data_fast</title>
<path fill="none" stroke="black" d="M392.31,-41.13C400.49,-38.68 411.62,-35.34 422.88,-31.96"/>
<polygon fill="black" stroke="black" points="423.6,-35.4 432.17,-29.18 421.59,-28.7 423.6,-35.4"/>
</g>
<!-- os&#45;&gt;g1 -->
<g id="edge4" class="edge">
<title>os&#45;&gt;g1</title>
<path fill="none" stroke="black" d="M324.44,-45C332.11,-45 340.53,-45 348.35,-45"/>
<polygon fill="black" stroke="black" points="348.07,-48.5 358.07,-45 348.07,-41.5 348.07,-48.5"/>
</g>
<!-- web -->
<g id="node7" class="node">
<title>web</title>
<path fill="lightcoral" stroke="black" d="M42,-67C42,-67 12,-67 12,-67 6,-67 0,-61 0,-55 0,-55 0,-43 0,-43 0,-37 6,-31 12,-31 12,-31 42,-31 42,-31 48,-31 54,-37 54,-43 54,-43 54,-55 54,-55 54,-61 48,-67 42,-67"/>
<text text-anchor="middle" x="27" y="-45.12" font-family="Helvetica,sans-Serif" font-size="10.00" fill="white">web&#45;1.0</text>
</g>
<!-- web&#45;&gt;app -->
<g id="edge8" class="edge">
<title>web&#45;&gt;app</title>
<path fill="none" stroke="black" d="M54.4,-49C61.89,-49 70.18,-49 78.2,-49"/>
<polygon fill="black" stroke="black" points="78.1,-52.5 88.1,-49 78.1,-45.5 78.1,-52.5"/>
</g>
<!-- web&#45;&gt;db -->
<g id="edge9" class="edge">
<title>web&#45;&gt;db</title>
<path fill="none" stroke="black" d="M54.26,-62.39C65.07,-67.39 77.89,-72.65 90,-76 115.67,-83.09 145.48,-86.86 168.45,-88.84"/>
<polygon fill="black" stroke="black" points="168.03,-92.32 178.28,-89.6 168.58,-85.34 168.03,-92.32"/>
</g>
<!-- web&#45;&gt;os -->
<g id="edge7" class="edge">
<title>web&#45;&gt;os</title>
<path fill="none" stroke="black" d="M54.37,-34.67C65.09,-29.6 77.82,-24.54 90,-22 148.29,-9.86 217.27,-23.02 258.79,-33.85"/>
<polygon fill="black" stroke="black" points="257.71,-37.18 268.28,-36.42 259.54,-30.42 257.71,-37.18"/>
</g>
</g>
</svg>
