<?xml version="1.0" encoding="UTF-8" standalone="no"?>
<!DOCTYPE svg PUBLIC "-//W3C//DTD SVG 1.1//EN"
 "http://www.w3.org/Graphics/SVG/1.1/DTD/svg11.dtd">
<!-- Generated by graphviz version 12.2.1 (20241206.2353)
 -->
<!-- Title: test53 Pages: 1 -->
<svg width="475pt" height="119pt"
 viewBox="0.00 0.00 475.00 118.75" xmlns="http://www.w3.org/2000/svg" xmlns:xlink="http://www.w3.org/1999/xlink">
<g id="graph0" class="graph" transform="scale(1 1) rotate(0) translate(4 114.75)">
<title>test53</title>
<polygon fill="white" stroke="none" points="-4,4 -4,-114.75 471,-114.75 471,4 -4,4"/>
<text text-anchor="middle" x="233.5" y="-95.35" font-family="Helvetica,sans-Serif" font-size="12.00">test53 u2014 USE merge + conditional dep</text>
<!-- app -->
<g id="node1" class="node">
<title>app</title>
<path fill="lightcoral" stroke="black" d="M42,-62C42,-62 12,-62 12,-62 6,-62 0,-56 0,-50 0,-50 0,-38 0,-38 0,-32 6,-26 12,-26 12,-26 42,-26 42,-26 48,-26 54,-32 54,-38 54,-38 54,-50 54,-50 54,-56 48,-62 42,-62"/>
<text text-anchor="middle" x="27" y="-40.12" font-family="Helvetica,sans-Serif" font-size="10.00" fill="white">app&#45;1.0</text>
</g>
<!-- liba -->
<g id="node2" class="node">
<title>liba</title>
<path fill="lightyellow" stroke="black" d="M133,-90C133,-90 103,-90 103,-90 97,-90 91,-84 91,-78 91,-78 91,-66 91,-66 91,-60 97,-54 103,-54 103,-54 133,-54 133,-54 139,-54 145,-60 145,-66 145,-66 145,-78 145,-78 145,-84 139,-90 133,-90"/>
<text text-anchor="middle" x="118" y="-68.12" font-family="Helvetica,sans-Serif" font-size="10.00">liba&#45;1.0</text>
</g>
<!-- app&#45;&gt;liba -->
<g id="edge1" class="edge">
<title>app&#45;&gt;liba</title>
<path fill="none" stroke="black" d="M54.22,-52.25C62.21,-54.76 71.14,-57.57 79.71,-60.27"/>
<polygon fill="black" stroke="black" points="78.63,-63.6 89.21,-63.26 80.73,-56.92 78.63,-63.6"/>
</g>
<!-- libb -->
<g id="node3" class="node">
<title>libb</title>
<path fill="lightyellow" stroke="black" d="M133,-36C133,-36 103,-36 103,-36 97,-36 91,-30 91,-24 91,-24 91,-12 91,-12 91,-6 97,0 103,0 103,0 133,0 133,0 139,0 145,-6 145,-12 145,-12 145,-24 145,-24 145,-30 139,-36 133,-36"/>
<text text-anchor="middle" x="118" y="-14.12" font-family="Helvetica,sans-Serif" font-size="10.00">libb&#45;1.0</text>
</g>
<!-- app&#45;&gt;libb -->
<g id="edge2" class="edge">
<title>app&#45;&gt;libb</title>
<path fill="none" stroke="black" d="M54.22,-36.34C62.21,-34.01 71.14,-31.4 79.71,-28.89"/>
<polygon fill="black" stroke="black" points="80.59,-32.28 89.21,-26.12 78.63,-25.56 80.59,-32.28"/>
</g>
<!-- os -->
<g id="node5" class="node">
<title>os</title>
<path fill="lightyellow" stroke="black" d="M281.5,-63C281.5,-63 251.5,-63 251.5,-63 245.5,-63 239.5,-57 239.5,-51 239.5,-51 239.5,-39 239.5,-39 239.5,-33 245.5,-27 251.5,-27 251.5,-27 281.5,-27 281.5,-27 287.5,-27 293.5,-33 293.5,-39 293.5,-39 293.5,-51 293.5,-51 293.5,-57 287.5,-63 281.5,-63"/>
<text text-anchor="middle" x="266.5" y="-41.12" font-family="Helvetica,sans-Serif" font-size="10.00">os&#45;1.0</text>
</g>
<!-- liba&#45;&gt;os -->
<g id="edge3" class="edge">
<title>liba&#45;&gt;os</title>
<path fill="none" stroke="black" d="M145.19,-67.17C168.17,-62.94 201.87,-56.73 227.76,-51.96"/>
<polygon fill="black" stroke="black" points="228.35,-55.41 237.55,-50.15 227.08,-48.52 228.35,-55.41"/>
<text text-anchor="middle" x="192.25" y="-66.47" font-family="Times,serif" font-size="14.00">[threads]</text>
</g>
<!-- libb&#45;&gt;os -->
<g id="edge4" class="edge">
<title>libb&#45;&gt;os</title>
<path fill="none" stroke="black" d="M145.25,-21.19C166.04,-23.91 195.76,-28.21 221.5,-33.5 223.65,-33.94 225.84,-34.42 228.06,-34.93"/>
<polygon fill="black" stroke="black" points="227.07,-38.29 237.61,-37.25 228.72,-31.49 227.07,-38.29"/>
<text text-anchor="middle" x="192.25" y="-36.7" font-family="Times,serif" font-size="14.00">[hardened]</text>
</g>
<!-- libhardened -->
<g id="node4" class="node">
<title>libhardened</title>
<path fill="lightyellow" stroke="black" d="M455,-63C455,-63 397,-63 397,-63 391,-63 385,-57 385,-51 385,-51 385,-39 385,-39 385,-33 391,-27 397,-27 397,-27 455,-27 455,-27 461,-27 467,-33 467,-39 467,-39 467,-51 467,-51 467,-57 461,-63 455,-63"/>
<text text-anchor="middle" x="426" y="-41.12" font-family="Helvetica,sans-Serif" font-size="10.00">libhardened&#45;1.0</text>
</g>
<!-- os&#45;&gt;libhardened -->
<g id="edge5" class="edge">
<title>os&#45;&gt;libhardened</title>
<path fill="none" stroke="black" d="M293.86,-45C315.45,-45 346.65,-45 373.2,-45"/>
<polygon fill="black" stroke="black" points="373.13,-48.5 383.13,-45 373.13,-41.5 373.13,-48.5"/>
<text text-anchor="middle" x="339.25" y="-48.2" font-family="Times,serif" font-size="14.00">hardened?</text>
</g>
</g>
</svg>
