<?xml version="1.0" encoding="UTF-8" standalone="no"?>
<!DOCTYPE svg PUBLIC "-//W3C//DTD SVG 1.1//EN"
 "http://www.w3.org/Graphics/SVG/1.1/DTD/svg11.dtd">
<!-- Generated by graphviz version 12.2.1 (20241206.2353)
 -->
<!-- Title: test53 Pages: 1 -->
<svg width="450pt" height="119pt"
 viewBox="0.00 0.00 450.25 118.75" xmlns="http://www.w3.org/2000/svg" xmlns:xlink="http://www.w3.org/1999/xlink">
<g id="graph0" class="graph" transform="scale(1 1) rotate(0) translate(4 114.75)">
<title>test53</title>
<polygon fill="white" stroke="none" points="-4,4 -4,-114.75 446.25,-114.75 446.25,4 -4,4"/>
<text text-anchor="start" x="116.5" y="-96.35" font-family="Helvetica,sans-Serif" font-weight="bold" font-size="12.00">test53</text>
<text text-anchor="start" x="151" y="-96.35" font-family="Helvetica,sans-Serif" font-size="12.00"> — USE merge + conditional dep</text>
<!-- app -->
<g id="node1" class="node">
<title>app</title>
<path fill="lightcoral" stroke="black" d="M42,-62C42,-62 12,-62 12,-62 6,-62 0,-56 0,-50 0,-50 0,-38 0,-38 0,-32 6,-26 12,-26 12,-26 42,-26 42,-26 48,-26 54,-32 54,-38 54,-38 54,-50 54,-50 54,-56 48,-62 42,-62"/>
<text text-anchor="middle" x="27" y="-40.12" font-family="Helvetica,sans-Serif" font-size="10.00" fill="white">app&#45;1.0</text>
</g>
<!-- liba -->
<g id="node2" class="node">
<title>liba</title>
<path fill="lightyellow" stroke="black" d="M133,-90C133,-90 103,-90 103,-90 97,-90 91,-84 91,-78 91,-78 91,-66 91,-66 91,-60 97,-54 103,-54 103,-54 133,-54 133,-54 139,-54 145,-60 145,-66 145,-66 145,-78 145,-78 145,-84 139,-90 133,-90"/>
<text text-anchor="middle" x="118" y="-68.12" font-family="Helvetica,sans-Serif" font-size="10.00">liba&#45;1.0</text>
</g>
<!-- app&#45;&gt;liba -->
<g id="edge1" class="edge">
<title>app&#45;&gt;liba</title>
<path fill="none" stroke="black" d="M54.22,-52.25C62.21,-54.76 71.14,-57.57 79.71,-60.27"/>
<polygon fill="black" stroke="black" points="78.63,-63.6 89.21,-63.26 80.73,-56.92 78.63,-63.6"/>
</g>
<!-- libb -->
<g id="node3" class="node">
<title>libb</title>
<path fill="lightyellow" stroke="black" d="M133,-36C133,-36 103,-36 103,-36 97,-36 91,-30 91,-24 91,-24 91,-12 91,-12 91,-6 97,0 103,0 103,0 133,0 133,0 139,0 145,-6 145,-12 145,-12 145,-24 145,-24 145,-30 139,-36 133,-36"/>
<text text-anchor="middle" x="118" y="-14.12" font-family="Helvetica,sans-Serif" font-size="10.00">libb&#45;1.0</text>
</g>
<!-- app&#45;&gt;libb -->
<g id="edge2" class="edge">
<title>app&#45;&gt;libb</title>
<path fill="none" stroke="black" d="M54.22,-36.34C62.21,-34.01 71.14,-31.4 79.71,-28.89"/>
<polygon fill="black" stroke="black" points="80.59,-32.28 89.21,-26.12 78.63,-25.56 80.59,-32.28"/>
</g>
<!-- os -->
<g id="node4" class="node">
<title>os</title>
<path fill="lightyellow" stroke="black" d="M267.25,-62C267.25,-62 237.25,-62 237.25,-62 231.25,-62 225.25,-56 225.25,-50 225.25,-50 225.25,-38 225.25,-38 225.25,-32 231.25,-26 237.25,-26 237.25,-26 267.25,-26 267.25,-26 273.25,-26 279.25,-32 279.25,-38 279.25,-38 279.25,-50 279.25,-50 279.25,-56 273.25,-62 267.25,-62"/>
<text text-anchor="middle" x="252.25" y="-40.12" font-family="Helvetica,sans-Serif" font-size="10.00">os&#45;1.0</text>
</g>
<!-- liba&#45;&gt;os -->
<g id="edge3" class="edge">
<title>liba&#45;&gt;os</title>
<path fill="none" stroke="black" d="M145.44,-66.4C165,-62.26 191.89,-56.57 213.67,-51.96"/>
<polygon fill="black" stroke="black" points="214.31,-55.4 223.37,-49.9 212.86,-48.55 214.31,-55.4"/>
<text text-anchor="middle" x="185.12" y="-63.34" font-family="Helvetica,sans-Serif" font-size="9.00">[threads]</text>
</g>
<!-- libb&#45;&gt;os -->
<g id="edge4" class="edge">
<title>libb&#45;&gt;os</title>
<path fill="none" stroke="black" d="M145.31,-22.59C162.88,-25.72 186.49,-30.04 207.25,-34.25 209.38,-34.68 211.56,-35.13 213.76,-35.6"/>
<polygon fill="black" stroke="black" points="212.77,-38.96 223.28,-37.65 214.24,-32.12 212.77,-38.96"/>
<text text-anchor="middle" x="185.12" y="-35.45" font-family="Helvetica,sans-Serif" font-size="9.00">[hardened]</text>
</g>
<!-- libhardened -->
<g id="node5" class="node">
<title>libhardened</title>
<path fill="lightyellow" stroke="black" stroke-dasharray="5,2" d="M430.25,-62C430.25,-62 372.25,-62 372.25,-62 366.25,-62 360.25,-56 360.25,-50 360.25,-50 360.25,-38 360.25,-38 360.25,-32 366.25,-26 372.25,-26 372.25,-26 430.25,-26 430.25,-26 436.25,-26 442.25,-32 442.25,-38 442.25,-38 442.25,-50 442.25,-50 442.25,-56 436.25,-62 430.25,-62"/>
<text text-anchor="middle" x="401.25" y="-40.12" font-family="Helvetica,sans-Serif" font-size="10.00">libhardened&#45;1.0</text>
</g>
<!-- os&#45;&gt;libhardened -->
<g id="edge5" class="edge">
<title>os&#45;&gt;libhardened</title>
<path fill="none" stroke="black" stroke-dasharray="5,2" d="M279.53,-44C298.61,-44 325.04,-44 348.31,-44"/>
<polygon fill="black" stroke="black" points="348.27,-47.5 358.27,-44 348.27,-40.5 348.27,-47.5"/>
<text text-anchor="middle" x="319.75" y="-45.2" font-family="Helvetica,sans-Serif" font-size="9.00">hardened?</text>
</g>
</g>
</svg>
