<?xml version="1.0" encoding="UTF-8" standalone="no"?>
<!DOCTYPE svg PUBLIC "-//W3C//DTD SVG 1.1//EN"
 "http://www.w3.org/Graphics/SVG/1.1/DTD/svg11.dtd">
<!-- Generated by graphviz version 12.2.1 (20241206.2353)
 -->
<!-- Title: test45 Pages: 1 -->
<svg width="290pt" height="119pt"
 viewBox="0.00 0.00 289.50 118.75" xmlns="http://www.w3.org/2000/svg" xmlns:xlink="http://www.w3.org/1999/xlink">
<g id="graph0" class="graph" transform="scale(1 1) rotate(0) translate(4 114.75)">
<title>test45</title>
<polygon fill="white" stroke="none" points="-4,4 -4,-114.75 285.5,-114.75 285.5,4 -4,4"/>
<text text-anchor="middle" x="140.75" y="-95.35" font-family="Helvetica,sans-Serif" font-size="12.00">test45 u2014 Irreconcilable USE conflict</text>
<!-- app -->
<g id="node1" class="node">
<title>app</title>
<path fill="lightcoral" stroke="black" d="M42,-62C42,-62 12,-62 12,-62 6,-62 0,-56 0,-50 0,-50 0,-38 0,-38 0,-32 6,-26 12,-26 12,-26 42,-26 42,-26 48,-26 54,-32 54,-38 54,-38 54,-50 54,-50 54,-56 48,-62 42,-62"/>
<text text-anchor="middle" x="27" y="-40.12" font-family="Helvetica,sans-Serif" font-size="10.00" fill="white">app&#45;1.0</text>
</g>
<!-- liba -->
<g id="node2" class="node">
<title>liba</title>
<path fill="lightyellow" stroke="black" d="M133,-90C133,-90 103,-90 103,-90 97,-90 91,-84 91,-78 91,-78 91,-66 91,-66 91,-60 97,-54 103,-54 103,-54 133,-54 133,-54 139,-54 145,-60 145,-66 145,-66 145,-78 145,-78 145,-84 139,-90 133,-90"/>
<text text-anchor="middle" x="118" y="-68.12" font-family="Helvetica,sans-Serif" font-size="10.00">liba&#45;1.0</text>
</g>
<!-- app&#45;&gt;liba -->
<g id="edge1" class="edge">
<title>app&#45;&gt;liba</title>
<path fill="none" stroke="black" d="M54.22,-52.25C62.21,-54.76 71.14,-57.57 79.71,-60.27"/>
<polygon fill="black" stroke="black" points="78.63,-63.6 89.21,-63.26 80.73,-56.92 78.63,-63.6"/>
</g>
<!-- libb -->
<g id="node3" class="node">
<title>libb</title>
<path fill="lightyellow" stroke="black" d="M133,-36C133,-36 103,-36 103,-36 97,-36 91,-30 91,-24 91,-24 91,-12 91,-12 91,-6 97,0 103,0 103,0 133,0 133,0 139,0 145,-6 145,-12 145,-12 145,-24 145,-24 145,-30 139,-36 133,-36"/>
<text text-anchor="middle" x="118" y="-14.12" font-family="Helvetica,sans-Serif" font-size="10.00">libb&#45;1.0</text>
</g>
<!-- app&#45;&gt;libb -->
<g id="edge2" class="edge">
<title>app&#45;&gt;libb</title>
<path fill="none" stroke="black" d="M54.22,-36.34C62.21,-34.01 71.14,-31.4 79.71,-28.89"/>
<polygon fill="black" stroke="black" points="80.59,-32.28 89.21,-26.12 78.63,-25.56 80.59,-32.28"/>
</g>
<!-- os -->
<g id="node4" class="node">
<title>os</title>
<path fill="lightyellow" stroke="black" d="M269.5,-63C269.5,-63 239.5,-63 239.5,-63 233.5,-63 227.5,-57 227.5,-51 227.5,-51 227.5,-39 227.5,-39 227.5,-33 233.5,-27 239.5,-27 239.5,-27 269.5,-27 269.5,-27 275.5,-27 281.5,-33 281.5,-39 281.5,-39 281.5,-51 281.5,-51 281.5,-57 275.5,-63 269.5,-63"/>
<text text-anchor="middle" x="254.5" y="-41.12" font-family="Helvetica,sans-Serif" font-size="10.00">os&#45;1.0</text>
</g>
<!-- liba&#45;&gt;os -->
<g id="edge3" class="edge">
<title>liba&#45;&gt;os</title>
<path fill="none" stroke="black" d="M145.25,-66.73C165.43,-62.68 193.58,-57.03 216.11,-52.5"/>
<polygon fill="black" stroke="black" points="216.71,-55.95 225.83,-50.55 215.34,-49.09 216.71,-55.95"/>
<text text-anchor="middle" x="186.25" y="-65.7" font-family="Times,serif" font-size="14.00">[linux]</text>
</g>
<!-- libb&#45;&gt;os -->
<g id="edge4" class="edge">
<title>libb&#45;&gt;os</title>
<path fill="none" stroke="black" d="M145.21,-22.39C163.32,-25.52 187.93,-29.96 209.5,-34.5 211.63,-34.95 213.82,-35.42 216.03,-35.91"/>
<polygon fill="black" stroke="black" points="215.02,-39.27 225.55,-38.1 216.59,-32.45 215.02,-39.27"/>
<text text-anchor="middle" x="186.25" y="-37.7" font-family="Times,serif" font-size="14.00">[darwin]</text>
</g>
</g>
</svg>
