<?xml version="1.0" encoding="UTF-8" standalone="no"?>
<!DOCTYPE svg PUBLIC "-//W3C//DTD SVG 1.1//EN"
 "http://www.w3.org/Graphics/SVG/1.1/DTD/svg11.dtd">
<!-- Generated by graphviz version 12.2.1 (20241206.2353)
 -->
<!-- Title: test54 Pages: 1 -->
<svg width="203pt" height="65pt"
 viewBox="0.00 0.00 202.50 64.75" xmlns="http://www.w3.org/2000/svg" xmlns:xlink="http://www.w3.org/1999/xlink">
<g id="graph0" class="graph" transform="scale(1 1) rotate(0) translate(4 60.75)">
<title>test54</title>
<polygon fill="white" stroke="none" points="-4,4 -4,-60.75 198.5,-60.75 198.5,4 -4,4"/>
<text text-anchor="middle" x="97.25" y="-41.35" font-family="Helvetica,sans-Serif" font-size="12.00">test54 u2014 USE flag expansion</text>
<!-- app -->
<g id="node1" class="node">
<title>app</title>
<path fill="lightcoral" stroke="black" d="M112.25,-36C112.25,-36 82.25,-36 82.25,-36 76.25,-36 70.25,-30 70.25,-24 70.25,-24 70.25,-12 70.25,-12 70.25,-6 76.25,0 82.25,0 82.25,0 112.25,0 112.25,0 118.25,0 124.25,-6 124.25,-12 124.25,-12 124.25,-24 124.25,-24 124.25,-30 118.25,-36 112.25,-36"/>
<text text-anchor="middle" x="97.25" y="-14.12" font-family="Helvetica,sans-Serif" font-size="10.00" fill="white">app&#45;1.0</text>
</g>
</g>
</svg>
