<?xml version="1.0" encoding="UTF-8" standalone="no"?>
<!DOCTYPE svg PUBLIC "-//W3C//DTD SVG 1.1//EN"
 "http://www.w3.org/Graphics/SVG/1.1/DTD/svg11.dtd">
<!-- Generated by graphviz version 12.2.1 (20241206.2353)
 -->
<!-- Title: test51 Pages: 1 -->
<svg width="260pt" height="65pt"
 viewBox="0.00 0.00 259.50 64.75" xmlns="http://www.w3.org/2000/svg" xmlns:xlink="http://www.w3.org/1999/xlink">
<g id="graph0" class="graph" transform="scale(1 1) rotate(0) translate(4 60.75)">
<title>test51</title>
<polygon fill="white" stroke="none" points="-4,4 -4,-60.75 255.5,-60.75 255.5,4 -4,4"/>
<text text-anchor="middle" x="125.75" y="-41.35" font-family="Helvetica,sans-Serif" font-size="12.00">test51 u2014 USE dep vs REQUIRED_USE</text>
<!-- app -->
<g id="node1" class="node">
<title>app</title>
<path fill="lightcoral" stroke="black" d="M77.38,-36C77.38,-36 47.38,-36 47.38,-36 41.38,-36 35.38,-30 35.38,-24 35.38,-24 35.38,-12 35.38,-12 35.38,-6 41.38,0 47.38,0 47.38,0 77.38,0 77.38,0 83.38,0 89.38,-6 89.38,-12 89.38,-12 89.38,-24 89.38,-24 89.38,-30 83.38,-36 77.38,-36"/>
<text text-anchor="middle" x="62.38" y="-14.12" font-family="Helvetica,sans-Serif" font-size="10.00" fill="white">app&#45;1.0</text>
</g>
<!-- os -->
<g id="node2" class="node">
<title>os</title>
<path fill="lightyellow" stroke="black" d="M204.12,-36C204.12,-36 174.12,-36 174.12,-36 168.12,-36 162.12,-30 162.12,-24 162.12,-24 162.12,-12 162.12,-12 162.12,-6 168.12,0 174.12,0 174.12,0 204.12,0 204.12,0 210.12,0 216.12,-6 216.12,-12 216.12,-12 216.12,-24 216.12,-24 216.12,-30 210.12,-36 204.12,-36"/>
<text text-anchor="middle" x="189.12" y="-14.12" font-family="Helvetica,sans-Serif" font-size="10.00">os&#45;1.0</text>
</g>
<!-- app&#45;&gt;os -->
<g id="edge1" class="edge">
<title>app&#45;&gt;os</title>
<path fill="none" stroke="black" d="M89.83,-18C107.45,-18 130.86,-18 150.41,-18"/>
<polygon fill="black" stroke="black" points="150.19,-21.5 160.19,-18 150.19,-14.5 150.19,-21.5"/>
<text text-anchor="middle" x="125.75" y="-21.2" font-family="Times,serif" font-size="14.00">[linux]</text>
</g>
</g>
</svg>
