<?xml version="1.0" encoding="UTF-8" standalone="no"?>
<!DOCTYPE svg PUBLIC "-//W3C//DTD SVG 1.1//EN"
 "http://www.w3.org/Graphics/SVG/1.1/DTD/svg11.dtd">
<!-- Generated by graphviz version 12.2.1 (20241206.2353)
 -->
<!-- Title: test64 Pages: 1 -->
<svg width="409pt" height="362pt"
 viewBox="0.00 0.00 409.00 361.75" xmlns="http://www.w3.org/2000/svg" xmlns:xlink="http://www.w3.org/1999/xlink">
<g id="graph0" class="graph" transform="scale(1 1) rotate(0) translate(4 357.75)">
<title>test64</title>
<polygon fill="white" stroke="none" points="-4,4 -4,-357.75 405,-357.75 405,4 -4,4"/>
<text text-anchor="start" x="113.88" y="-339.35" font-family="Helvetica,sans-Serif" font-weight="bold" font-size="12.00">test64</text>
<text text-anchor="start" x="148.38" y="-339.35" font-family="Helvetica,sans-Serif" font-size="12.00"> — USE&#45;conditional churn</text>
<!-- app -->
<g id="node1" class="node">
<title>app</title>
<path fill="lightcoral" stroke="black" d="M42,-225C42,-225 12,-225 12,-225 6,-225 0,-219 0,-213 0,-213 0,-201 0,-201 0,-195 6,-189 12,-189 12,-189 42,-189 42,-189 48,-189 54,-195 54,-201 54,-201 54,-213 54,-213 54,-219 48,-225 42,-225"/>
<text text-anchor="middle" x="27" y="-203.12" font-family="Helvetica,sans-Serif" font-size="10.00" fill="white">app&#45;1.0</text>
</g>
<!-- openmp -->
<g id="node2" class="node">
<title>openmp</title>
<path fill="lightyellow" stroke="black" d="M146,-225C146,-225 103,-225 103,-225 97,-225 91,-219 91,-213 91,-213 91,-201 91,-201 91,-195 97,-189 103,-189 103,-189 146,-189 146,-189 152,-189 158,-195 158,-201 158,-201 158,-213 158,-213 158,-219 152,-225 146,-225"/>
<text text-anchor="middle" x="124.5" y="-203.12" font-family="Helvetica,sans-Serif" font-size="10.00">openmp&#45;1.0</text>
</g>
<!-- app&#45;&gt;openmp -->
<g id="edge1" class="edge">
<title>app&#45;&gt;openmp</title>
<path fill="none" stroke="black" d="M54.35,-207C62.09,-207 70.78,-207 79.32,-207"/>
<polygon fill="black" stroke="black" points="79.25,-210.5 89.25,-207 79.25,-203.5 79.25,-210.5"/>
</g>
<!-- python -->
<g id="node3" class="node">
<title>python</title>
<path fill="lightyellow" stroke="black" d="M293.25,-333C293.25,-333 255.5,-333 255.5,-333 249.5,-333 243.5,-327 243.5,-321 243.5,-321 243.5,-309 243.5,-309 243.5,-303 249.5,-297 255.5,-297 255.5,-297 293.25,-297 293.25,-297 299.25,-297 305.25,-303 305.25,-309 305.25,-309 305.25,-321 305.25,-321 305.25,-327 299.25,-333 293.25,-333"/>
<text text-anchor="middle" x="274.38" y="-311.12" font-family="Helvetica,sans-Serif" font-size="10.00">python&#45;1.0</text>
</g>
<!-- openmp&#45;&gt;python -->
<g id="edge2" class="edge">
<title>openmp&#45;&gt;python</title>
<path fill="none" stroke="black" stroke-dasharray="5,2" d="M131.36,-225.49C138.62,-245.29 152.93,-276.15 176,-293 192.03,-304.71 213.22,-310.35 231.73,-313"/>
<polygon fill="black" stroke="black" points="231.3,-316.47 241.63,-314.15 232.1,-309.52 231.3,-316.47"/>
<text text-anchor="middle" x="200.75" y="-312.79" font-family="Helvetica,sans-Serif" font-size="9.00">gdb&#45;plugin?</text>
</g>
<!-- hwloc -->
<g id="node4" class="node">
<title>hwloc</title>
<path fill="lightyellow" stroke="black" d="M291.38,-279C291.38,-279 257.38,-279 257.38,-279 251.38,-279 245.38,-273 245.38,-267 245.38,-267 245.38,-255 245.38,-255 245.38,-249 251.38,-243 257.38,-243 257.38,-243 291.38,-243 291.38,-243 297.38,-243 303.38,-249 303.38,-255 303.38,-255 303.38,-267 303.38,-267 303.38,-273 297.38,-279 291.38,-279"/>
<text text-anchor="middle" x="274.38" y="-257.12" font-family="Helvetica,sans-Serif" font-size="10.00">hwloc&#45;1.0</text>
</g>
<!-- openmp&#45;&gt;hwloc -->
<g id="edge3" class="edge">
<title>openmp&#45;&gt;hwloc</title>
<path fill="none" stroke="black" stroke-dasharray="5,2" d="M158.32,-218.98C180.8,-227.19 210.71,-238.12 234.4,-246.77"/>
<polygon fill="black" stroke="black" points="233.12,-250.02 243.71,-250.17 235.52,-243.45 233.12,-250.02"/>
<text text-anchor="middle" x="200.75" y="-243.19" font-family="Helvetica,sans-Serif" font-size="9.00">hwloc?</text>
</g>
<!-- perl -->
<g id="node5" class="node">
<title>perl</title>
<path fill="lightyellow" stroke="black" d="M289.38,-225C289.38,-225 259.38,-225 259.38,-225 253.38,-225 247.38,-219 247.38,-213 247.38,-213 247.38,-201 247.38,-201 247.38,-195 253.38,-189 259.38,-189 259.38,-189 289.38,-189 289.38,-189 295.38,-189 301.38,-195 301.38,-201 301.38,-201 301.38,-213 301.38,-213 301.38,-219 295.38,-225 289.38,-225"/>
<text text-anchor="middle" x="274.38" y="-203.12" font-family="Helvetica,sans-Serif" font-size="10.00">perl&#45;1.0</text>
</g>
<!-- openmp&#45;&gt;perl -->
<g id="edge4" class="edge">
<title>openmp&#45;&gt;perl</title>
<path fill="none" stroke="black" stroke-dasharray="1,5" d="M158.32,-207C181.17,-207 211.72,-207 235.59,-207"/>
<polygon fill="black" stroke="black" points="235.54,-210.5 245.54,-207 235.54,-203.5 235.54,-210.5"/>
<text text-anchor="middle" x="200.75" y="-208.2" font-family="Helvetica,sans-Serif" font-size="9.00">BDEPEND</text>
</g>
<!-- ninja -->
<g id="node6" class="node">
<title>ninja</title>
<path fill="lightyellow" stroke="black" d="M289.38,-171C289.38,-171 259.38,-171 259.38,-171 253.38,-171 247.38,-165 247.38,-159 247.38,-159 247.38,-147 247.38,-147 247.38,-141 253.38,-135 259.38,-135 259.38,-135 289.38,-135 289.38,-135 295.38,-135 301.38,-141 301.38,-147 301.38,-147 301.38,-159 301.38,-159 301.38,-165 295.38,-171 289.38,-171"/>
<text text-anchor="middle" x="274.38" y="-149.12" font-family="Helvetica,sans-Serif" font-size="10.00">ninja&#45;1.0</text>
</g>
<!-- openmp&#45;&gt;ninja -->
<g id="edge5" class="edge">
<title>openmp&#45;&gt;ninja</title>
<path fill="none" stroke="black" stroke-dasharray="1,5" d="M158.32,-195.02C181.38,-186.59 212.28,-175.31 236.24,-166.56"/>
<polygon fill="black" stroke="black" points="237.44,-169.85 245.63,-163.13 235.03,-163.28 237.44,-169.85"/>
<text text-anchor="middle" x="200.75" y="-189.19" font-family="Helvetica,sans-Serif" font-size="9.00">BDEPEND</text>
</g>
<!-- cmake -->
<g id="node7" class="node">
<title>cmake</title>
<path fill="lightyellow" stroke="black" d="M293.25,-117C293.25,-117 255.5,-117 255.5,-117 249.5,-117 243.5,-111 243.5,-105 243.5,-105 243.5,-93 243.5,-93 243.5,-87 249.5,-81 255.5,-81 255.5,-81 293.25,-81 293.25,-81 299.25,-81 305.25,-87 305.25,-93 305.25,-93 305.25,-105 305.25,-105 305.25,-111 299.25,-117 293.25,-117"/>
<text text-anchor="middle" x="274.38" y="-95.12" font-family="Helvetica,sans-Serif" font-size="10.00">cmake&#45;1.0</text>
</g>
<!-- openmp&#45;&gt;cmake -->
<g id="edge6" class="edge">
<title>openmp&#45;&gt;cmake</title>
<path fill="none" stroke="black" stroke-dasharray="1,5" d="M142.39,-188.85C151.81,-179.21 164.04,-167.48 176,-158.25 193.89,-144.44 215.21,-131.16 233.32,-120.68"/>
<polygon fill="black" stroke="black" points="235.01,-123.75 241.98,-115.76 231.55,-117.66 235.01,-123.75"/>
<text text-anchor="middle" x="200.75" y="-159.45" font-family="Helvetica,sans-Serif" font-size="9.00">BDEPEND</text>
</g>
<!-- g1 -->
<g id="node8" class="node">
<title>g1</title>
<path fill="orange" stroke="black" d="M268.14,-57C268.14,-57 261.9,-51 261.9,-51 258.78,-48 258.78,-42 261.9,-39 261.9,-39 268.14,-33 268.14,-33 271.26,-30 277.49,-30 280.61,-33 280.61,-33 286.85,-39 286.85,-39 289.97,-42 289.97,-48 286.85,-51 286.85,-51 280.61,-57 280.61,-57 277.49,-60 271.26,-60 268.14,-57"/>
<text text-anchor="middle" x="274.38" y="-40.55" font-family="Helvetica,sans-Serif" font-size="11.00" fill="white">||</text>
</g>
<!-- openmp&#45;&gt;g1 -->
<g id="edge7" class="edge">
<title>openmp&#45;&gt;g1</title>
<path fill="none" stroke="black" stroke-dasharray="5,2" d="M132.2,-188.67C140.29,-168.33 155.41,-135.35 176,-112.25 197.65,-87.96 229.79,-67.98 251.15,-56.28"/>
<polygon fill="black" stroke="black" points="252.69,-59.42 259.88,-51.65 249.41,-53.24 252.69,-59.42"/>
<text text-anchor="middle" x="200.75" y="-113.45" font-family="Helvetica,sans-Serif" font-size="9.00">verify&#45;sig?</text>
</g>
<!-- python&#45;&gt;openmp -->
<g id="edge10" class="edge">
<title>python&#45;&gt;openmp</title>
<path fill="none" stroke="red" stroke-width="2" d="M247.88,-296.78C240.75,-291.9 232.91,-286.73 225.5,-282.25 204.19,-269.37 196.14,-270.65 176,-256 166.76,-249.28 157.53,-240.93 149.54,-233.04"/>
<polygon fill="red" stroke="red" stroke-width="2" points="153.34,-231.91 143.83,-227.23 148.35,-236.81 153.34,-231.91"/>
<text text-anchor="middle" x="200.75" y="-283.45" font-family="Helvetica,sans-Serif" font-size="9.00" fill="red">C+R</text>
</g>
<!-- gpg -->
<g id="node9" class="node">
<title>gpg</title>
<path fill="lightyellow" stroke="black" d="M386.62,-90C386.62,-90 356.62,-90 356.62,-90 350.62,-90 344.62,-84 344.62,-78 344.62,-78 344.62,-66 344.62,-66 344.62,-60 350.62,-54 356.62,-54 356.62,-54 386.62,-54 386.62,-54 392.62,-54 398.62,-60 398.62,-66 398.62,-66 398.62,-78 398.62,-78 398.62,-84 392.62,-90 386.62,-90"/>
<text text-anchor="middle" x="371.62" y="-68.12" font-family="Helvetica,sans-Serif" font-size="10.00">gpg&#45;1.0</text>
</g>
<!-- g1&#45;&gt;gpg -->
<g id="edge8" class="edge">
<title>g1&#45;&gt;gpg</title>
<path fill="none" stroke="black" d="M289.43,-48.98C301.01,-52.27 317.97,-57.07 333.4,-61.45"/>
<polygon fill="black" stroke="black" points="332.23,-64.75 342.81,-64.11 334.14,-58.02 332.23,-64.75"/>
</g>
<!-- gnupg -->
<g id="node10" class="node">
<title>gnupg</title>
<path fill="lightyellow" stroke="black" d="M389,-36C389,-36 354.25,-36 354.25,-36 348.25,-36 342.25,-30 342.25,-24 342.25,-24 342.25,-12 342.25,-12 342.25,-6 348.25,0 354.25,0 354.25,0 389,0 389,0 395,0 401,-6 401,-12 401,-12 401,-24 401,-24 401,-30 395,-36 389,-36"/>
<text text-anchor="middle" x="371.62" y="-14.12" font-family="Helvetica,sans-Serif" font-size="10.00">gnupg&#45;1.0</text>
</g>
<!-- g1&#45;&gt;gnupg -->
<g id="edge9" class="edge">
<title>g1&#45;&gt;gnupg</title>
<path fill="none" stroke="black" d="M289.43,-41.02C300.4,-37.91 316.2,-33.43 330.96,-29.24"/>
<polygon fill="black" stroke="black" points="331.82,-32.64 340.48,-26.54 329.91,-25.9 331.82,-32.64"/>
</g>
</g>
</svg>
