<?xml version="1.0" encoding="UTF-8" standalone="no"?>
<!DOCTYPE svg PUBLIC "-//W3C//DTD SVG 1.1//EN"
 "http://www.w3.org/Graphics/SVG/1.1/DTD/svg11.dtd">
<!-- Generated by graphviz version 12.2.1 (20241206.2353)
 -->
<!-- Title: test46 Pages: 1 -->
<svg width="417pt" height="119pt"
 viewBox="0.00 0.00 416.75 118.75" xmlns="http://www.w3.org/2000/svg" xmlns:xlink="http://www.w3.org/1999/xlink">
<g id="graph0" class="graph" transform="scale(1 1) rotate(0) translate(4 114.75)">
<title>test46</title>
<polygon fill="white" stroke="none" points="-4,4 -4,-114.75 412.75,-114.75 412.75,4 -4,4"/>
<text text-anchor="middle" x="204.38" y="-95.35" font-family="Helvetica,sans-Serif" font-size="12.00">test46 u2014 Deep diamond USE conflict</text>
<!-- app -->
<g id="node1" class="node">
<title>app</title>
<path fill="lightcoral" stroke="black" d="M42,-62C42,-62 12,-62 12,-62 6,-62 0,-56 0,-50 0,-50 0,-38 0,-38 0,-32 6,-26 12,-26 12,-26 42,-26 42,-26 48,-26 54,-32 54,-38 54,-38 54,-50 54,-50 54,-56 48,-62 42,-62"/>
<text text-anchor="middle" x="27" y="-40.12" font-family="Helvetica,sans-Serif" font-size="10.00" fill="white">app&#45;1.0</text>
</g>
<!-- liba -->
<g id="node3" class="node">
<title>liba</title>
<path fill="lightyellow" stroke="black" d="M133,-90C133,-90 103,-90 103,-90 97,-90 91,-84 91,-78 91,-78 91,-66 91,-66 91,-60 97,-54 103,-54 103,-54 133,-54 133,-54 139,-54 145,-60 145,-66 145,-66 145,-78 145,-78 145,-84 139,-90 133,-90"/>
<text text-anchor="middle" x="118" y="-68.12" font-family="Helvetica,sans-Serif" font-size="10.00">liba&#45;1.0</text>
</g>
<!-- app&#45;&gt;liba -->
<g id="edge1" class="edge">
<title>app&#45;&gt;liba</title>
<path fill="none" stroke="black" d="M54.22,-52.25C62.21,-54.76 71.14,-57.57 79.71,-60.27"/>
<polygon fill="black" stroke="black" points="78.63,-63.6 89.21,-63.26 80.73,-56.92 78.63,-63.6"/>
</g>
<!-- libb -->
<g id="node4" class="node">
<title>libb</title>
<path fill="lightyellow" stroke="black" d="M133,-36C133,-36 103,-36 103,-36 97,-36 91,-30 91,-24 91,-24 91,-12 91,-12 91,-6 97,0 103,0 103,0 133,0 133,0 139,0 145,-6 145,-12 145,-12 145,-24 145,-24 145,-30 139,-36 133,-36"/>
<text text-anchor="middle" x="118" y="-14.12" font-family="Helvetica,sans-Serif" font-size="10.00">libb&#45;1.0</text>
</g>
<!-- app&#45;&gt;libb -->
<g id="edge2" class="edge">
<title>app&#45;&gt;libb</title>
<path fill="none" stroke="black" d="M54.22,-36.34C62.21,-34.01 71.14,-31.4 79.71,-28.89"/>
<polygon fill="black" stroke="black" points="80.59,-32.28 89.21,-26.12 78.63,-25.56 80.59,-32.28"/>
</g>
<!-- core_utils -->
<g id="node2" class="node">
<title>core_utils</title>
<path fill="lightyellow" stroke="black" d="M396.75,-63C396.75,-63 348.5,-63 348.5,-63 342.5,-63 336.5,-57 336.5,-51 336.5,-51 336.5,-39 336.5,-39 336.5,-33 342.5,-27 348.5,-27 348.5,-27 396.75,-27 396.75,-27 402.75,-27 408.75,-33 408.75,-39 408.75,-39 408.75,-51 408.75,-51 408.75,-57 402.75,-63 396.75,-63"/>
<text text-anchor="middle" x="372.62" y="-41.12" font-family="Helvetica,sans-Serif" font-size="10.00">core&#45;utils&#45;1.0</text>
</g>
<!-- libc -->
<g id="node5" class="node">
<title>libc</title>
<path fill="lightyellow" stroke="black" d="M224,-90C224,-90 194,-90 194,-90 188,-90 182,-84 182,-78 182,-78 182,-66 182,-66 182,-60 188,-54 194,-54 194,-54 224,-54 224,-54 230,-54 236,-60 236,-66 236,-66 236,-78 236,-78 236,-84 230,-90 224,-90"/>
<text text-anchor="middle" x="209" y="-68.12" font-family="Helvetica,sans-Serif" font-size="10.00">libc&#45;1.0</text>
</g>
<!-- liba&#45;&gt;libc -->
<g id="edge3" class="edge">
<title>liba&#45;&gt;libc</title>
<path fill="none" stroke="black" d="M145.22,-72C153.12,-72 161.94,-72 170.43,-72"/>
<polygon fill="black" stroke="black" points="170.14,-75.5 180.14,-72 170.14,-68.5 170.14,-75.5"/>
</g>
<!-- libd -->
<g id="node6" class="node">
<title>libd</title>
<path fill="lightyellow" stroke="black" d="M224,-36C224,-36 194,-36 194,-36 188,-36 182,-30 182,-24 182,-24 182,-12 182,-12 182,-6 188,0 194,0 194,0 224,0 224,0 230,0 236,-6 236,-12 236,-12 236,-24 236,-24 236,-30 230,-36 224,-36"/>
<text text-anchor="middle" x="209" y="-14.12" font-family="Helvetica,sans-Serif" font-size="10.00">libd&#45;1.0</text>
</g>
<!-- libb&#45;&gt;libd -->
<g id="edge4" class="edge">
<title>libb&#45;&gt;libd</title>
<path fill="none" stroke="black" d="M145.22,-18C153.12,-18 161.94,-18 170.43,-18"/>
<polygon fill="black" stroke="black" points="170.14,-21.5 180.14,-18 170.14,-14.5 170.14,-21.5"/>
</g>
<!-- libc&#45;&gt;core_utils -->
<g id="edge5" class="edge">
<title>libc&#45;&gt;core_utils</title>
<path fill="none" stroke="black" d="M236.33,-67.6C260.33,-63.59 296.35,-57.58 325.18,-52.76"/>
<polygon fill="black" stroke="black" points="325.46,-56.26 334.75,-51.16 324.31,-49.36 325.46,-56.26"/>
<text text-anchor="middle" x="286.25" y="-67.22" font-family="Times,serif" font-size="14.00">[feature_x]</text>
</g>
<!-- libd&#45;&gt;core_utils -->
<g id="edge6" class="edge">
<title>libd&#45;&gt;core_utils</title>
<path fill="none" stroke="black" d="M236.36,-21.68C258.37,-24.82 290.53,-29.61 318.5,-34.5 320.65,-34.88 322.85,-35.27 325.07,-35.68"/>
<polygon fill="black" stroke="black" points="324.27,-39.09 334.74,-37.5 325.56,-32.21 324.27,-39.09"/>
<text text-anchor="middle" x="286.25" y="-37.7" font-family="Times,serif" font-size="14.00">[&#45;feature_x]</text>
</g>
</g>
</svg>
