<?xml version="1.0" encoding="UTF-8" standalone="no"?>
<!DOCTYPE svg PUBLIC "-//W3C//DTD SVG 1.1//EN"
 "http://www.w3.org/Graphics/SVG/1.1/DTD/svg11.dtd">
<!-- Generated by graphviz version 12.2.1 (20241206.2353)
 -->
<!-- Title: test09 Pages: 1 -->
<svg width="194pt" height="65pt"
 viewBox="0.00 0.00 193.50 64.75" xmlns="http://www.w3.org/2000/svg" xmlns:xlink="http://www.w3.org/1999/xlink">
<g id="graph0" class="graph" transform="scale(1 1) rotate(0) translate(4 60.75)">
<title>test09</title>
<polygon fill="white" stroke="none" points="-4,4 -4,-60.75 189.5,-60.75 189.5,4 -4,4"/>
<text text-anchor="start" x="8" y="-42.35" font-family="Helvetica,sans-Serif" font-weight="bold" font-size="12.00">test09</text>
<text text-anchor="start" x="42.5" y="-42.35" font-family="Helvetica,sans-Serif" font-size="12.00"> — Missing dep (compile)</text>
<!-- os -->
<g id="node1" class="node">
<title>os</title>
<path fill="lightcoral" stroke="black" d="M61.88,-36C61.88,-36 31.88,-36 31.88,-36 25.88,-36 19.88,-30 19.88,-24 19.88,-24 19.88,-12 19.88,-12 19.88,-6 25.88,0 31.88,0 31.88,0 61.88,0 61.88,0 67.88,0 73.88,-6 73.88,-12 73.88,-12 73.88,-24 73.88,-24 73.88,-30 67.88,-36 61.88,-36"/>
<text text-anchor="middle" x="46.88" y="-14.12" font-family="Helvetica,sans-Serif" font-size="10.00" fill="white">os&#45;1.0</text>
</g>
<!-- notexists -->
<g id="node2" class="node">
<title>notexists</title>
<path fill="mistyrose" stroke="black" stroke-dasharray="5,2" d="M153.62,-36C153.62,-36 121.88,-36 121.88,-36 115.88,-36 109.88,-30 109.88,-24 109.88,-24 109.88,-12 109.88,-12 109.88,-6 115.88,0 121.88,0 121.88,0 153.62,0 153.62,0 159.62,0 165.62,-6 165.62,-12 165.62,-12 165.62,-24 165.62,-24 165.62,-30 159.62,-36 153.62,-36"/>
<text text-anchor="middle" x="137.75" y="-14.12" font-family="Helvetica,sans-Serif" font-size="10.00">notexists</text>
</g>
<!-- os&#45;&gt;notexists -->
<g id="edge1" class="edge">
<title>os&#45;&gt;notexists</title>
<path fill="none" stroke="black" d="M74.06,-18C81.65,-18 90.09,-18 98.27,-18"/>
<polygon fill="black" stroke="black" points="98,-21.5 108,-18 98,-14.5 98,-21.5"/>
</g>
</g>
</svg>
