<?xml version="1.0" encoding="UTF-8" standalone="no"?>
<!DOCTYPE svg PUBLIC "-//W3C//DTD SVG 1.1//EN"
 "http://www.w3.org/Graphics/SVG/1.1/DTD/svg11.dtd">
<!-- Generated by graphviz version 12.2.1 (20241206.2353)
 -->
<!-- Title: test43 Pages: 1 -->
<svg width="160pt" height="119pt"
 viewBox="0.00 0.00 159.50 118.75" xmlns="http://www.w3.org/2000/svg" xmlns:xlink="http://www.w3.org/1999/xlink">
<g id="graph0" class="graph" transform="scale(1 1) rotate(0) translate(4 114.75)">
<title>test43</title>
<polygon fill="white" stroke="none" points="-4,4 -4,-114.75 155.5,-114.75 155.5,4 -4,4"/>
<text text-anchor="start" x="32.62" y="-96.35" font-family="Helvetica,sans-Serif" font-weight="bold" font-size="12.00">test43</text>
<text text-anchor="start" x="67.12" y="-96.35" font-family="Helvetica,sans-Serif" font-size="12.00"> — Slot :=</text>
<!-- app -->
<g id="node1" class="node">
<title>app</title>
<path fill="lightcoral" stroke="black" d="M42,-63C42,-63 12,-63 12,-63 6,-63 0,-57 0,-51 0,-51 0,-39 0,-39 0,-33 6,-27 12,-27 12,-27 42,-27 42,-27 48,-27 54,-33 54,-39 54,-39 54,-51 54,-51 54,-57 48,-63 42,-63"/>
<text text-anchor="middle" x="27" y="-41.12" font-family="Helvetica,sans-Serif" font-size="10.00" fill="white">app&#45;1.0</text>
</g>
<!-- lib1 -->
<g id="node2" class="node">
<title>lib1</title>
<path fill="lightyellow" stroke="black" d="M139.5,-90C139.5,-90 109.5,-90 109.5,-90 103.5,-90 97.5,-84 97.5,-78 97.5,-78 97.5,-66 97.5,-66 97.5,-60 103.5,-54 109.5,-54 109.5,-54 139.5,-54 139.5,-54 145.5,-54 151.5,-60 151.5,-66 151.5,-66 151.5,-78 151.5,-78 151.5,-84 145.5,-90 139.5,-90"/>
<text text-anchor="middle" x="124.5" y="-68.12" font-family="Helvetica,sans-Serif" font-size="10.00">lib&#45;1.0 :1</text>
</g>
<!-- app&#45;&gt;lib1 -->
<g id="edge1" class="edge">
<title>app&#45;&gt;lib1</title>
<path fill="none" stroke="black" d="M54.35,-52.45C64.26,-55.25 75.73,-58.5 86.45,-61.52"/>
<polygon fill="black" stroke="black" points="85.21,-64.81 95.78,-64.16 87.11,-58.07 85.21,-64.81"/>
<text text-anchor="middle" x="75.75" y="-60.51" font-family="Helvetica,sans-Serif" font-size="9.00">:=</text>
</g>
<!-- lib2 -->
<g id="node3" class="node">
<title>lib2</title>
<path fill="lightyellow" stroke="black" d="M139.5,-36C139.5,-36 109.5,-36 109.5,-36 103.5,-36 97.5,-30 97.5,-24 97.5,-24 97.5,-12 97.5,-12 97.5,-6 103.5,0 109.5,0 109.5,0 139.5,0 139.5,0 145.5,0 151.5,-6 151.5,-12 151.5,-12 151.5,-24 151.5,-24 151.5,-30 145.5,-36 139.5,-36"/>
<text text-anchor="middle" x="124.5" y="-14.12" font-family="Helvetica,sans-Serif" font-size="10.00">lib&#45;2.0 :2</text>
</g>
<!-- app&#45;&gt;lib2 -->
<g id="edge2" class="edge">
<title>app&#45;&gt;lib2</title>
<path fill="none" stroke="gray" stroke-dasharray="5,2" d="M54.35,-37.55C64.26,-34.75 75.73,-31.5 86.45,-28.48"/>
<polygon fill="gray" stroke="gray" points="87.11,-31.93 95.78,-25.84 85.21,-25.19 87.11,-31.93"/>
<text text-anchor="middle" x="75.75" y="-33.51" font-family="Helvetica,sans-Serif" font-size="9.00">:=</text>
</g>
</g>
</svg>
