<?xml version="1.0" encoding="UTF-8" standalone="no"?>
<!DOCTYPE svg PUBLIC "-//W3C//DTD SVG 1.1//EN"
 "http://www.w3.org/Graphics/SVG/1.1/DTD/svg11.dtd">
<!-- Generated by graphviz version 12.2.1 (20241206.2353)
 -->
<!-- Title: test76 Pages: 1 -->
<svg width="216pt" height="65pt"
 viewBox="0.00 0.00 216.00 64.75" xmlns="http://www.w3.org/2000/svg" xmlns:xlink="http://www.w3.org/1999/xlink">
<g id="graph0" class="graph" transform="scale(1 1) rotate(0) translate(4 60.75)">
<title>test76</title>
<polygon fill="white" stroke="none" points="-4,4 -4,-60.75 212,-60.75 212,4 -4,4"/>
<text text-anchor="middle" x="104" y="-41.35" font-family="Helvetica,sans-Serif" font-size="12.00">test76 u2014 Newuse rebuild (VDB)</text>
<!-- app -->
<g id="node1" class="node">
<title>app</title>
<path fill="lightcoral" stroke="black" d="M55.62,-36C55.62,-36 25.62,-36 25.62,-36 19.62,-36 13.62,-30 13.62,-24 13.62,-24 13.62,-12 13.62,-12 13.62,-6 19.62,0 25.62,0 25.62,0 55.62,0 55.62,0 61.62,0 67.62,-6 67.62,-12 67.62,-12 67.62,-24 67.62,-24 67.62,-30 61.62,-36 55.62,-36"/>
<text text-anchor="middle" x="40.62" y="-14.12" font-family="Helvetica,sans-Serif" font-size="10.00" fill="white">app&#45;1.0</text>
</g>
<!-- os -->
<g id="node2" class="node">
<title>os</title>
<path fill="lightblue" stroke="black" d="M182.38,-36C182.38,-36 152.38,-36 152.38,-36 146.38,-36 140.38,-30 140.38,-24 140.38,-24 140.38,-12 140.38,-12 140.38,-6 146.38,0 152.38,0 152.38,0 182.38,0 182.38,0 188.38,0 194.38,-6 194.38,-12 194.38,-12 194.38,-24 194.38,-24 194.38,-30 188.38,-36 182.38,-36"/>
<text text-anchor="middle" x="167.38" y="-14.12" font-family="Helvetica,sans-Serif" font-size="10.00">os&#45;1.0</text>
</g>
<!-- app&#45;&gt;os -->
<g id="edge1" class="edge">
<title>app&#45;&gt;os</title>
<path fill="none" stroke="black" d="M68.08,-18C85.7,-18 109.11,-18 128.66,-18"/>
<polygon fill="black" stroke="black" points="128.44,-21.5 138.44,-18 128.44,-14.5 128.44,-21.5"/>
<text text-anchor="middle" x="104" y="-21.2" font-family="Times,serif" font-size="14.00">[linux]</text>
</g>
</g>
</svg>
