<?xml version="1.0" encoding="UTF-8" standalone="no"?>
<!DOCTYPE svg PUBLIC "-//W3C//DTD SVG 1.1//EN"
 "http://www.w3.org/Graphics/SVG/1.1/DTD/svg11.dtd">
<!-- Generated by graphviz version 12.2.1 (20241206.2353)
 -->
<!-- Title: test76 Pages: 1 -->
<svg width="197pt" height="65pt"
 viewBox="0.00 0.00 196.50 64.75" xmlns="http://www.w3.org/2000/svg" xmlns:xlink="http://www.w3.org/1999/xlink">
<g id="graph0" class="graph" transform="scale(1 1) rotate(0) translate(4 60.75)">
<title>test76</title>
<polygon fill="white" stroke="none" points="-4,4 -4,-60.75 192.5,-60.75 192.5,4 -4,4"/>
<text text-anchor="start" x="8" y="-42.35" font-family="Helvetica,sans-Serif" font-weight="bold" font-size="12.00">test76</text>
<text text-anchor="start" x="42.5" y="-42.35" font-family="Helvetica,sans-Serif" font-size="12.00"> — Newuse rebuild (VDB)</text>
<!-- app -->
<g id="node1" class="node">
<title>app</title>
<path fill="lightcoral" stroke="black" d="M52.25,-36C52.25,-36 22.25,-36 22.25,-36 16.25,-36 10.25,-30 10.25,-24 10.25,-24 10.25,-12 10.25,-12 10.25,-6 16.25,0 22.25,0 22.25,0 52.25,0 52.25,0 58.25,0 64.25,-6 64.25,-12 64.25,-12 64.25,-24 64.25,-24 64.25,-30 58.25,-36 52.25,-36"/>
<text text-anchor="middle" x="37.25" y="-14.12" font-family="Helvetica,sans-Serif" font-size="10.00" fill="white">app&#45;1.0</text>
</g>
<!-- os -->
<g id="node2" class="node">
<title>os</title>
<path fill="lightblue" stroke="black" d="M166.25,-36C166.25,-36 136.25,-36 136.25,-36 130.25,-36 124.25,-30 124.25,-24 124.25,-24 124.25,-12 124.25,-12 124.25,-6 130.25,0 136.25,0 136.25,0 166.25,0 166.25,0 172.25,0 178.25,-6 178.25,-12 178.25,-12 178.25,-24 178.25,-24 178.25,-30 172.25,-36 166.25,-36"/>
<text text-anchor="middle" x="151.25" y="-14.12" font-family="Helvetica,sans-Serif" font-size="10.00">os&#45;1.0</text>
</g>
<!-- app&#45;&gt;os -->
<g id="edge1" class="edge">
<title>app&#45;&gt;os</title>
<path fill="none" stroke="black" d="M64.51,-18C78.73,-18 96.55,-18 112.26,-18"/>
<polygon fill="black" stroke="black" points="112.25,-21.5 122.25,-18 112.25,-14.5 112.25,-21.5"/>
<text text-anchor="middle" x="94.25" y="-19.2" font-family="Helvetica,sans-Serif" font-size="9.00">[linux]</text>
</g>
</g>
</svg>
