<?xml version="1.0" encoding="UTF-8" standalone="no"?>
<!DOCTYPE svg PUBLIC "-//W3C//DTD SVG 1.1//EN"
 "http://www.w3.org/Graphics/SVG/1.1/DTD/svg11.dtd">
<!-- Generated by graphviz version 12.2.1 (20241206.2353)
 -->
<!-- Title: test61 Pages: 1 -->
<svg width="260pt" height="65pt"
 viewBox="0.00 0.00 260.25 64.75" xmlns="http://www.w3.org/2000/svg" xmlns:xlink="http://www.w3.org/1999/xlink">
<g id="graph0" class="graph" transform="scale(1 1) rotate(0) translate(4 60.75)">
<title>test61</title>
<polygon fill="white" stroke="none" points="-4,4 -4,-60.75 256.25,-60.75 256.25,4 -4,4"/>
<text text-anchor="start" x="42.88" y="-42.35" font-family="Helvetica,sans-Serif" font-weight="bold" font-size="12.00">test61</text>
<text text-anchor="start" x="77.38" y="-42.35" font-family="Helvetica,sans-Serif" font-size="12.00"> — Mutual recursion [foo]</text>
<!-- app -->
<g id="node1" class="node">
<title>app</title>
<path fill="lightcoral" stroke="black" d="M42,-36C42,-36 12,-36 12,-36 6,-36 0,-30 0,-24 0,-24 0,-12 0,-12 0,-6 6,0 12,0 12,0 42,0 42,0 48,0 54,-6 54,-12 54,-12 54,-24 54,-24 54,-30 48,-36 42,-36"/>
<text text-anchor="middle" x="27" y="-14.12" font-family="Helvetica,sans-Serif" font-size="10.00" fill="white">app&#45;1.0</text>
</g>
<!-- a -->
<g id="node2" class="node">
<title>a</title>
<path fill="lightyellow" stroke="black" d="M133,-36C133,-36 103,-36 103,-36 97,-36 91,-30 91,-24 91,-24 91,-12 91,-12 91,-6 97,0 103,0 103,0 133,0 133,0 139,0 145,-6 145,-12 145,-12 145,-24 145,-24 145,-30 139,-36 133,-36"/>
<text text-anchor="middle" x="118" y="-14.12" font-family="Helvetica,sans-Serif" font-size="10.00">a&#45;1.0</text>
</g>
<!-- app&#45;&gt;a -->
<g id="edge1" class="edge">
<title>app&#45;&gt;a</title>
<path fill="none" stroke="black" d="M54.22,-18C62.12,-18 70.94,-18 79.43,-18"/>
<polygon fill="black" stroke="black" points="79.14,-21.5 89.14,-18 79.14,-14.5 79.14,-21.5"/>
</g>
<!-- b -->
<g id="node3" class="node">
<title>b</title>
<path fill="lightyellow" stroke="black" d="M240.25,-36C240.25,-36 210.25,-36 210.25,-36 204.25,-36 198.25,-30 198.25,-24 198.25,-24 198.25,-12 198.25,-12 198.25,-6 204.25,0 210.25,0 210.25,0 240.25,0 240.25,0 246.25,0 252.25,-6 252.25,-12 252.25,-12 252.25,-24 252.25,-24 252.25,-30 246.25,-36 240.25,-36"/>
<text text-anchor="middle" x="225.25" y="-14.12" font-family="Helvetica,sans-Serif" font-size="10.00">b&#45;1.0</text>
</g>
<!-- a&#45;&gt;b -->
<g id="edge2" class="edge">
<title>a&#45;&gt;b</title>
<path fill="none" stroke="red" stroke-width="2" d="M145.29,-18C157.72,-18 172.79,-18 186.43,-18"/>
<polygon fill="red" stroke="red" stroke-width="2" points="184.91,-21.5 194.91,-18 184.91,-14.5 184.91,-21.5"/>
<text text-anchor="middle" x="171.62" y="-19.2" font-family="Helvetica,sans-Serif" font-size="9.00" fill="red">[foo]</text>
</g>
<!-- b&#45;&gt;a -->
<g id="edge3" class="edge">
<title>b&#45;&gt;a</title>
<path fill="none" stroke="red" stroke-width="2" d="M198.03,-8.39C192.25,-6.67 186.1,-5.14 180.25,-4.25 172.5,-3.07 164.28,-3.63 156.45,-5.06"/>
<polygon fill="red" stroke="red" stroke-width="2" points="157.26,-1.28 148.33,-6.97 158.86,-8.09 157.26,-1.28"/>
<text text-anchor="middle" x="171.62" y="-5.45" font-family="Helvetica,sans-Serif" font-size="9.00" fill="red">[foo]</text>
</g>
</g>
</svg>
