<?xml version="1.0" encoding="UTF-8" standalone="no"?>
<!DOCTYPE svg PUBLIC "-//W3C//DTD SVG 1.1//EN"
 "http://www.w3.org/Graphics/SVG/1.1/DTD/svg11.dtd">
<!-- Generated by graphviz version 12.2.1 (20241206.2353)
 -->
<!-- Title: test68 Pages: 1 -->
<svg width="176pt" height="119pt"
 viewBox="0.00 0.00 175.50 118.75" xmlns="http://www.w3.org/2000/svg" xmlns:xlink="http://www.w3.org/1999/xlink">
<g id="graph0" class="graph" transform="scale(1 1) rotate(0) translate(4 114.75)">
<title>test68</title>
<polygon fill="white" stroke="none" points="-4,4 -4,-114.75 171.5,-114.75 171.5,4 -4,4"/>
<text text-anchor="start" x="8" y="-96.35" font-family="Helvetica,sans-Serif" font-weight="bold" font-size="12.00">test68</text>
<text text-anchor="start" x="42.5" y="-96.35" font-family="Helvetica,sans-Serif" font-size="12.00"> — Multi&#45;slot co&#45;install</text>
<!-- app -->
<g id="node1" class="node">
<title>app</title>
<path fill="lightcoral" stroke="black" d="M50,-63C50,-63 20,-63 20,-63 14,-63 8,-57 8,-51 8,-51 8,-39 8,-39 8,-33 14,-27 20,-27 20,-27 50,-27 50,-27 56,-27 62,-33 62,-39 62,-39 62,-51 62,-51 62,-57 56,-63 50,-63"/>
<text text-anchor="middle" x="35" y="-41.12" font-family="Helvetica,sans-Serif" font-size="10.00" fill="white">app&#45;1.0</text>
</g>
<!-- lib1 -->
<g id="node2" class="node">
<title>lib1</title>
<path fill="lightyellow" stroke="black" d="M147.5,-90C147.5,-90 117.5,-90 117.5,-90 111.5,-90 105.5,-84 105.5,-78 105.5,-78 105.5,-66 105.5,-66 105.5,-60 111.5,-54 117.5,-54 117.5,-54 147.5,-54 147.5,-54 153.5,-54 159.5,-60 159.5,-66 159.5,-66 159.5,-78 159.5,-78 159.5,-84 153.5,-90 147.5,-90"/>
<text text-anchor="middle" x="132.5" y="-68.12" font-family="Helvetica,sans-Serif" font-size="10.00">lib&#45;1.0 :1</text>
</g>
<!-- app&#45;&gt;lib1 -->
<g id="edge1" class="edge">
<title>app&#45;&gt;lib1</title>
<path fill="none" stroke="black" d="M62.35,-52.45C72.26,-55.25 83.73,-58.5 94.45,-61.52"/>
<polygon fill="black" stroke="black" points="93.21,-64.81 103.78,-64.16 95.11,-58.07 93.21,-64.81"/>
<text text-anchor="middle" x="83.75" y="-60.51" font-family="Helvetica,sans-Serif" font-size="9.00">:1</text>
</g>
<!-- lib2 -->
<g id="node3" class="node">
<title>lib2</title>
<path fill="lightyellow" stroke="black" d="M147.5,-36C147.5,-36 117.5,-36 117.5,-36 111.5,-36 105.5,-30 105.5,-24 105.5,-24 105.5,-12 105.5,-12 105.5,-6 111.5,0 117.5,0 117.5,0 147.5,0 147.5,0 153.5,0 159.5,-6 159.5,-12 159.5,-12 159.5,-24 159.5,-24 159.5,-30 153.5,-36 147.5,-36"/>
<text text-anchor="middle" x="132.5" y="-14.12" font-family="Helvetica,sans-Serif" font-size="10.00">lib&#45;2.0 :2</text>
</g>
<!-- app&#45;&gt;lib2 -->
<g id="edge2" class="edge">
<title>app&#45;&gt;lib2</title>
<path fill="none" stroke="black" d="M62.35,-37.55C72.26,-34.75 83.73,-31.5 94.45,-28.48"/>
<polygon fill="black" stroke="black" points="95.11,-31.93 103.78,-25.84 93.21,-25.19 95.11,-31.93"/>
<text text-anchor="middle" x="83.75" y="-33.51" font-family="Helvetica,sans-Serif" font-size="9.00">:2</text>
</g>
</g>
</svg>
