<?xml version="1.0" encoding="UTF-8" standalone="no"?>
<!DOCTYPE svg PUBLIC "-//W3C//DTD SVG 1.1//EN"
 "http://www.w3.org/Graphics/SVG/1.1/DTD/svg11.dtd">
<!-- Generated by graphviz version 12.2.1 (20241206.2353)
 -->
<!-- Title: test44 Pages: 1 -->
<svg width="186pt" height="173pt"
 viewBox="0.00 0.00 186.25 172.75" xmlns="http://www.w3.org/2000/svg" xmlns:xlink="http://www.w3.org/1999/xlink">
<g id="graph0" class="graph" transform="scale(1 1) rotate(0) translate(4 168.75)">
<title>test44</title>
<polygon fill="white" stroke="none" points="-4,4 -4,-168.75 182.25,-168.75 182.25,4 -4,4"/>
<text text-anchor="start" x="28.75" y="-150.35" font-family="Helvetica,sans-Serif" font-weight="bold" font-size="12.00">test44</text>
<text text-anchor="start" x="63.25" y="-150.35" font-family="Helvetica,sans-Serif" font-size="12.00"> — Sub&#45;slot :1/A</text>
<!-- app -->
<g id="node1" class="node">
<title>app</title>
<path fill="lightcoral" stroke="black" d="M46.62,-36C46.62,-36 16.62,-36 16.62,-36 10.62,-36 4.62,-30 4.62,-24 4.62,-24 4.62,-12 4.62,-12 4.62,-6 10.62,0 16.62,0 16.62,0 46.62,0 46.62,0 52.62,0 58.62,-6 58.62,-12 58.62,-12 58.62,-24 58.62,-24 58.62,-30 52.62,-36 46.62,-36"/>
<text text-anchor="middle" x="31.62" y="-14.12" font-family="Helvetica,sans-Serif" font-size="10.00" fill="white">app&#45;1.0</text>
</g>
<!-- lib10 -->
<g id="node2" class="node">
<title>lib10</title>
<path fill="lightyellow" stroke="black" d="M166.25,-36C166.25,-36 127,-36 127,-36 121,-36 115,-30 115,-24 115,-24 115,-12 115,-12 115,-6 121,0 127,0 127,0 166.25,0 166.25,0 172.25,0 178.25,-6 178.25,-12 178.25,-12 178.25,-24 178.25,-24 178.25,-30 172.25,-36 166.25,-36"/>
<text text-anchor="middle" x="146.62" y="-14.12" font-family="Helvetica,sans-Serif" font-size="10.00">lib&#45;1.0 :1/A</text>
</g>
<!-- app&#45;&gt;lib10 -->
<g id="edge1" class="edge">
<title>app&#45;&gt;lib10</title>
<path fill="none" stroke="black" d="M59.12,-18C72.43,-18 88.86,-18 103.82,-18"/>
<polygon fill="black" stroke="black" points="103.38,-21.5 113.38,-18 103.38,-14.5 103.38,-21.5"/>
<text text-anchor="middle" x="89.12" y="-19.2" font-family="Helvetica,sans-Serif" font-size="9.00">:1/A</text>
</g>
<!-- lib11 -->
<g id="node3" class="node">
<title>lib11</title>
<path fill="lightyellow" stroke="black" d="M51.25,-90C51.25,-90 12,-90 12,-90 6,-90 0,-84 0,-78 0,-78 0,-66 0,-66 0,-60 6,-54 12,-54 12,-54 51.25,-54 51.25,-54 57.25,-54 63.25,-60 63.25,-66 63.25,-66 63.25,-78 63.25,-78 63.25,-84 57.25,-90 51.25,-90"/>
<text text-anchor="middle" x="31.62" y="-68.12" font-family="Helvetica,sans-Serif" font-size="10.00">lib&#45;1.1 :1/B</text>
</g>
<!-- lib20 -->
<g id="node4" class="node">
<title>lib20</title>
<path fill="lightyellow" stroke="black" d="M51.25,-144C51.25,-144 12,-144 12,-144 6,-144 0,-138 0,-132 0,-132 0,-120 0,-120 0,-114 6,-108 12,-108 12,-108 51.25,-108 51.25,-108 57.25,-108 63.25,-114 63.25,-120 63.25,-120 63.25,-132 63.25,-132 63.25,-138 57.25,-144 51.25,-144"/>
<text text-anchor="middle" x="31.62" y="-122.12" font-family="Helvetica,sans-Serif" font-size="10.00">lib&#45;2.0 :2/A</text>
</g>
</g>
</svg>
