<?xml version="1.0" encoding="UTF-8" standalone="no"?>
<!DOCTYPE svg PUBLIC "-//W3C//DTD SVG 1.1//EN"
 "http://www.w3.org/Graphics/SVG/1.1/DTD/svg11.dtd">
<!-- Generated by graphviz version 12.2.1 (20241206.2353)
 -->
<!-- Title: test79 Pages: 1 -->
<svg width="204pt" height="65pt"
 viewBox="0.00 0.00 203.50 64.75" xmlns="http://www.w3.org/2000/svg" xmlns:xlink="http://www.w3.org/1999/xlink">
<g id="graph0" class="graph" transform="scale(1 1) rotate(0) translate(4 60.75)">
<title>test79</title>
<polygon fill="white" stroke="none" points="-4,4 -4,-60.75 199.5,-60.75 199.5,4 -4,4"/>
<text text-anchor="start" x="26.12" y="-42.35" font-family="Helvetica,sans-Serif" font-weight="bold" font-size="12.00">test79</text>
<text text-anchor="start" x="60.62" y="-42.35" font-family="Helvetica,sans-Serif" font-size="12.00"> — PDEPEND cycle</text>
<!-- server -->
<g id="node1" class="node">
<title>server</title>
<path fill="lightcoral" stroke="black" d="M47.5,-36C47.5,-36 12,-36 12,-36 6,-36 0,-30 0,-24 0,-24 0,-12 0,-12 0,-6 6,0 12,0 12,0 47.5,0 47.5,0 53.5,0 59.5,-6 59.5,-12 59.5,-12 59.5,-24 59.5,-24 59.5,-30 53.5,-36 47.5,-36"/>
<text text-anchor="middle" x="29.75" y="-14.12" font-family="Helvetica,sans-Serif" font-size="10.00" fill="white">server&#45;1.0</text>
</g>
<!-- client -->
<g id="node2" class="node">
<title>client</title>
<path fill="lightyellow" stroke="black" d="M183.5,-36C183.5,-36 151.75,-36 151.75,-36 145.75,-36 139.75,-30 139.75,-24 139.75,-24 139.75,-12 139.75,-12 139.75,-6 145.75,0 151.75,0 151.75,0 183.5,0 183.5,0 189.5,0 195.5,-6 195.5,-12 195.5,-12 195.5,-24 195.5,-24 195.5,-30 189.5,-36 183.5,-36"/>
<text text-anchor="middle" x="167.62" y="-14.12" font-family="Helvetica,sans-Serif" font-size="10.00">client&#45;1.0</text>
</g>
<!-- server&#45;&gt;client -->
<g id="edge1" class="edge">
<title>server&#45;&gt;client</title>
<path fill="none" stroke="black" d="M59.9,-18C79.77,-18 106.3,-18 127.93,-18"/>
<polygon fill="black" stroke="black" points="127.86,-21.5 137.86,-18 127.86,-14.5 127.86,-21.5"/>
</g>
<!-- client&#45;&gt;server -->
<g id="edge2" class="edge">
<title>client&#45;&gt;server</title>
<path fill="none" stroke="red" stroke-dasharray="5,2" d="M139.32,-9.66C133.57,-8.24 127.5,-6.99 121.75,-6.25 102.24,-3.74 97.02,-3.83 77.5,-6.25 75.44,-6.5 73.34,-6.82 71.23,-7.18"/>
<polygon fill="red" stroke="red" points="70.55,-3.75 61.45,-9.18 71.95,-10.61 70.55,-3.75"/>
<text text-anchor="middle" x="99.62" y="-7.45" font-family="Helvetica,sans-Serif" font-size="9.00">PDEPEND</text>
</g>
</g>
</svg>
