<?xml version="1.0" encoding="UTF-8" standalone="no"?>
<!DOCTYPE svg PUBLIC "-//W3C//DTD SVG 1.1//EN"
 "http://www.w3.org/Graphics/SVG/1.1/DTD/svg11.dtd">
<!-- Generated by graphviz version 12.2.1 (20241206.2353)
 -->
<!-- Title: test50 Pages: 1 -->
<svg width="242pt" height="65pt"
 viewBox="0.00 0.00 242.00 64.75" xmlns="http://www.w3.org/2000/svg" xmlns:xlink="http://www.w3.org/1999/xlink">
<g id="graph0" class="graph" transform="scale(1 1) rotate(0) translate(4 60.75)">
<title>test50</title>
<polygon fill="white" stroke="none" points="-4,4 -4,-60.75 238,-60.75 238,4 -4,4"/>
<text text-anchor="middle" x="117" y="-41.35" font-family="Helvetica,sans-Serif" font-size="12.00">test50 u2014 Transitive RDEPEND</text>
<!-- app -->
<g id="node1" class="node">
<title>app</title>
<path fill="lightcoral" stroke="black" d="M42,-36C42,-36 12,-36 12,-36 6,-36 0,-30 0,-24 0,-24 0,-12 0,-12 0,-6 6,0 12,0 12,0 42,0 42,0 48,0 54,-6 54,-12 54,-12 54,-24 54,-24 54,-30 48,-36 42,-36"/>
<text text-anchor="middle" x="27" y="-14.12" font-family="Helvetica,sans-Serif" font-size="10.00" fill="white">app&#45;1.0</text>
</g>
<!-- foo -->
<g id="node3" class="node">
<title>foo</title>
<path fill="lightyellow" stroke="black" d="M132,-36C132,-36 102,-36 102,-36 96,-36 90,-30 90,-24 90,-24 90,-12 90,-12 90,-6 96,0 102,0 102,0 132,0 132,0 138,0 144,-6 144,-12 144,-12 144,-24 144,-24 144,-30 138,-36 132,-36"/>
<text text-anchor="middle" x="117" y="-14.12" font-family="Helvetica,sans-Serif" font-size="10.00">foo&#45;1.0</text>
</g>
<!-- app&#45;&gt;foo -->
<g id="edge1" class="edge">
<title>app&#45;&gt;foo</title>
<path fill="none" stroke="black" d="M54.4,-18C61.89,-18 70.18,-18 78.2,-18"/>
<polygon fill="black" stroke="black" points="78.1,-21.5 88.1,-18 78.1,-14.5 78.1,-21.5"/>
</g>
<!-- bar -->
<g id="node2" class="node">
<title>bar</title>
<path fill="lightyellow" stroke="black" d="M222,-36C222,-36 192,-36 192,-36 186,-36 180,-30 180,-24 180,-24 180,-12 180,-12 180,-6 186,0 192,0 192,0 222,0 222,0 228,0 234,-6 234,-12 234,-12 234,-24 234,-24 234,-30 228,-36 222,-36"/>
<text text-anchor="middle" x="207" y="-14.12" font-family="Helvetica,sans-Serif" font-size="10.00">bar&#45;1.0</text>
</g>
<!-- foo&#45;&gt;bar -->
<g id="edge2" class="edge">
<title>foo&#45;&gt;bar</title>
<path fill="none" stroke="black" d="M144.4,-18C151.89,-18 160.18,-18 168.2,-18"/>
<polygon fill="black" stroke="black" points="168.1,-21.5 178.1,-18 168.1,-14.5 168.1,-21.5"/>
</g>
</g>
</svg>
