<?xml version="1.0" encoding="UTF-8" standalone="no"?>
<!DOCTYPE svg PUBLIC "-//W3C//DTD SVG 1.1//EN"
 "http://www.w3.org/Graphics/SVG/1.1/DTD/svg11.dtd">
<!-- Generated by graphviz version 12.2.1 (20241206.2353)
 -->
<!-- Title: test49 Pages: 1 -->
<svg width="273pt" height="65pt"
 viewBox="0.00 0.00 273.00 64.75" xmlns="http://www.w3.org/2000/svg" xmlns:xlink="http://www.w3.org/1999/xlink">
<g id="graph0" class="graph" transform="scale(1 1) rotate(0) translate(4 60.75)">
<title>test49</title>
<polygon fill="white" stroke="none" points="-4,4 -4,-60.75 269,-60.75 269,4 -4,4"/>
<text text-anchor="start" x="8" y="-42.35" font-family="Helvetica,sans-Serif" font-weight="bold" font-size="12.00">test49</text>
<text text-anchor="start" x="42.5" y="-42.35" font-family="Helvetica,sans-Serif" font-size="12.00"> — USE default (+) vs REQUIRED_USE</text>
<!-- app -->
<g id="node1" class="node">
<title>app</title>
<path fill="lightcoral" stroke="black" d="M68.25,-36C68.25,-36 38.25,-36 38.25,-36 32.25,-36 26.25,-30 26.25,-24 26.25,-24 26.25,-12 26.25,-12 26.25,-6 32.25,0 38.25,0 38.25,0 68.25,0 68.25,0 74.25,0 80.25,-6 80.25,-12 80.25,-12 80.25,-24 80.25,-24 80.25,-30 74.25,-36 68.25,-36"/>
<text text-anchor="middle" x="53.25" y="-14.12" font-family="Helvetica,sans-Serif" font-size="10.00" fill="white">app&#45;1.0</text>
</g>
<!-- libhelper -->
<g id="node2" class="node">
<title>libhelper</title>
<path fill="lightyellow" stroke="black" d="M226.75,-36C226.75,-36 182.25,-36 182.25,-36 176.25,-36 170.25,-30 170.25,-24 170.25,-24 170.25,-12 170.25,-12 170.25,-6 176.25,0 182.25,0 182.25,0 226.75,0 226.75,0 232.75,0 238.75,-6 238.75,-12 238.75,-12 238.75,-24 238.75,-24 238.75,-30 232.75,-36 226.75,-36"/>
<text text-anchor="middle" x="204.5" y="-14.12" font-family="Helvetica,sans-Serif" font-size="10.00">libhelper&#45;1.0</text>
</g>
<!-- app&#45;&gt;libhelper -->
<g id="edge1" class="edge">
<title>app&#45;&gt;libhelper</title>
<path fill="none" stroke="black" d="M80.59,-18C102.14,-18 133.11,-18 158.57,-18"/>
<polygon fill="black" stroke="black" points="158.32,-21.5 168.32,-18 158.32,-14.5 158.32,-21.5"/>
<text text-anchor="middle" x="125.25" y="-19.2" font-family="Helvetica,sans-Serif" font-size="9.00">[feature_z(+)]</text>
</g>
</g>
</svg>
