<?xml version="1.0" encoding="UTF-8" standalone="no"?>
<!DOCTYPE svg PUBLIC "-//W3C//DTD SVG 1.1//EN"
 "http://www.w3.org/Graphics/SVG/1.1/DTD/svg11.dtd">
<!-- Generated by graphviz version 12.2.1 (20241206.2353)
 -->
<!-- Title: test77 Pages: 1 -->
<svg width="164pt" height="119pt"
 viewBox="0.00 0.00 164.25 118.75" xmlns="http://www.w3.org/2000/svg" xmlns:xlink="http://www.w3.org/1999/xlink">
<g id="graph0" class="graph" transform="scale(1 1) rotate(0) translate(4 114.75)">
<title>test77</title>
<polygon fill="white" stroke="none" points="-4,4 -4,-114.75 160.25,-114.75 160.25,4 -4,4"/>
<text text-anchor="start" x="8" y="-96.35" font-family="Helvetica,sans-Serif" font-weight="bold" font-size="12.00">test77</text>
<text text-anchor="start" x="42.5" y="-96.35" font-family="Helvetica,sans-Serif" font-size="12.00"> — Depclean (VDB)</text>
<!-- app -->
<g id="node1" class="node">
<title>app</title>
<path fill="lightcoral" stroke="black" d="M48.12,-36C48.12,-36 18.12,-36 18.12,-36 12.12,-36 6.12,-30 6.12,-24 6.12,-24 6.12,-12 6.12,-12 6.12,-6 12.12,0 18.12,0 18.12,0 48.12,0 48.12,0 54.12,0 60.12,-6 60.12,-12 60.12,-12 60.12,-24 60.12,-24 60.12,-30 54.12,-36 48.12,-36"/>
<text text-anchor="middle" x="33.12" y="-14.12" font-family="Helvetica,sans-Serif" font-size="10.00" fill="white">app&#45;1.0</text>
</g>
<!-- os -->
<g id="node2" class="node">
<title>os</title>
<path fill="lightblue" stroke="black" d="M142,-36C142,-36 112,-36 112,-36 106,-36 100,-30 100,-24 100,-24 100,-12 100,-12 100,-6 106,0 112,0 112,0 142,0 142,0 148,0 154,-6 154,-12 154,-12 154,-24 154,-24 154,-30 148,-36 142,-36"/>
<text text-anchor="middle" x="127" y="-14.12" font-family="Helvetica,sans-Serif" font-size="10.00">os&#45;1.0</text>
</g>
<!-- app&#45;&gt;os -->
<g id="edge1" class="edge">
<title>app&#45;&gt;os</title>
<path fill="none" stroke="black" d="M60.21,-18C68.86,-18 78.68,-18 88.04,-18"/>
<polygon fill="black" stroke="black" points="88.02,-21.5 98.02,-18 88.02,-14.5 88.02,-21.5"/>
</g>
<!-- orphan -->
<g id="node3" class="node">
<title>orphan</title>
<path fill="lightsalmon" stroke="black" d="M52,-90C52,-90 14.25,-90 14.25,-90 8.25,-90 2.25,-84 2.25,-78 2.25,-78 2.25,-66 2.25,-66 2.25,-60 8.25,-54 14.25,-54 14.25,-54 52,-54 52,-54 58,-54 64,-60 64,-66 64,-66 64,-78 64,-78 64,-84 58,-90 52,-90"/>
<text text-anchor="middle" x="33.12" y="-68.12" font-family="Helvetica,sans-Serif" font-size="10.00">orphan&#45;1.0</text>
</g>
</g>
</svg>
